<?xml version="1.0" encoding="utf-8"?>
<!-- Generator: Adobe Illustrator 23.0.3, SVG Export Plug-In . SVG Version: 6.00 Build 0)  -->
<svg version="1.1" id="Layer_1" xmlns="http://www.w3.org/2000/svg" xmlns:xlink="http://www.w3.org/1999/xlink" x="0px" y="0px"
	 viewBox="0 0 500 500" style="enable-background:new 0 0 500 500;" xml:space="preserve">
<style type="text/css">
	.st0{fill:#FFFFFF;}
</style>
<title>Logos/Clubs/ARI/Primary</title>
<desc>Created with Sketch.</desc>
<path class="st0" d="M421.7,276.9c-4.9-38.6-18.9-77.2-77.7-110.5c-86.6-49-161.7-14.8-304.1-112.8c6.4,45.7,18.2,61.6,18.2,61.6
	l-11.6-3.8c12.3,30.6,28.4,48.4,28.4,48.4l-11-3.5c20.6,53.2,61.9,87,61.9,87c10.2,69,63.3,79.7,60,119.7
	c83.9,12.7,144.3,84.7,144.3,84.7c35.3-74.7,97.2-81.1,128.4-74.5C465.2,316.3,421.7,276.9,421.7,276.9 M328.8,432.3
	c0,0-66.1-67-128.7-76.7c-3.9-40.3-51.9-51.4-59.6-116.9c0,0-34.1-25.3-51.5-68.1l16.4,5.2c-8.9-6.6-26-27-36.7-49.5l14.7,4.8
	c-11.9-14-21.3-36.5-24.2-52.7c141.9,86.9,191.8,46.4,281.8,96c59.3,32.7,70.4,77,74.5,107.6c0,0,38.1,34.4,37.1,82.8
	C411.7,361.2,363.4,372.8,328.8,432.3"/>
<path class="st0" d="M402.8,271c-4.4-21.1-7.3-54.3-69.4-88.3c-65.2-35.8-144.9-12.6-246.8-75.6c10.1,30.2,73.1,65.5,73.1,65.5
	l-55.8-18.1c14.2,24.7,72.4,55.5,72.4,55.5l-52-16.8c21.5,35.8,70.4,59.9,70.4,59.9l-30-2.2c3.9,33.7,50.4,62.6,52.8,88.6
	c21,8,48.1,22.1,69.3,40.2c40.4-19.9,29.2-87-47.7-182.3C344.9,203.7,342,282.2,402.8,271"/>
<path class="st0" d="M403.1,288.2c-7.5,15.4-25.9,25.3-42,29.8c37.9,4.5,69.1,19.6,83.9,34.4C441.6,327.4,419.2,298.4,403.1,288.2"
	/>
<path class="st0" d="M378.8,281c-2.1,0-4.2-0.2-6.3-0.4c-13.6,21.9-36.6,15.8-44.8-11.5l16.6,1c-14.6-8.7-27.8-21.5-38-34.1
	C303.3,296.3,360,323.4,378.8,281"/>
<path class="st0" d="M358.8,332.4c0,0,11.4,19.3,5.1,40.5c24.6-13.8,56.4-20.5,79.5-15.8C428.6,344.6,392,329.2,358.8,332.4"/>
</svg>
