<?xml version="1.0" encoding="utf-8"?>
<!-- Generator: Adobe Illustrator 23.0.3, SVG Export Plug-In . SVG Version: 6.00 Build 0)  -->
<svg version="1.1" id="Layer_1" xmlns="http://www.w3.org/2000/svg" xmlns:xlink="http://www.w3.org/1999/xlink" x="0px" y="0px"
	 viewBox="0 0 500 500" style="enable-background:new 0 0 500 500;" xml:space="preserve">
<style type="text/css">
	.st0{fill:#FFFFFF;}
</style>
<title>Logos/Clubs/ATL/Primary</title>
<desc>Created with Sketch.</desc>
<path class="st0" d="M421.7,156.1c-31-17.4-83.5-34.3-156.2-50.3c-53.2-11.7-97.8-18.5-99.7-18.8l-5.2-0.8L64.2,189.5h84.3
	c-27.9,48.4-35.5,117.8-18.7,176c13.2,45.7,39.7,78.2,74.5,91.3l21.9,8.2l-9.1-21.5c-5.1-11.9-8.4-25.5,1.5-44.7
	c4.1-8,9-17.8,14.7-29.1c11.4-22.8,25.6-51.1,43.5-85.4H294c7.4,0,11.3,1.4,13,2.4l-5,12.1h14.9c20.8,0,51-3.2,73.7-30.7l4.9-5.9
	l-4.5-6.2c-9.3-12.9-27.8-26.4-45.5-37.4H407c5.7,0,9,1,10.2,1.7c0,0-4.9,20.7-4.9,20.7l19.1-9.4c13.4-6.6,21-17.5,21.4-30.6
	C453.1,184.2,441.3,167,421.7,156.1z M445.7,200.7c-0.3,10.4-6.5,19.1-17.5,24.5l-5.7,2.8l1.5-6.2c0.6-2.3,0.3-4.2-0.9-5.7
	c-2.3-3-8-4.6-16.1-4.6h-87.6c5.6,3,12.9,7.1,20.6,11.9c22.5,13.8,37.8,26.1,45.3,36.6l1.3,1.9l-1.5,1.8
	c-20.8,25.3-49,28.2-68.3,28.2h-4.5l1.7-4.1c0.6-1.4,0.4-2.9-0.5-4.2c-2.6-3.8-9.9-6.1-19.6-6.1h-21.5
	c-18.9,36.1-33.6,65.6-45.5,89.4c-5.7,11.3-10.5,21-14.6,29c-11.3,21.9-6.8,38.6-1.7,50.7l2.7,6.5l-6.6-2.5
	c-32.7-12.3-57.7-43.1-70.3-86.7c-17.7-61.3-7.5-134.7,24.6-181.1H80.3l82.9-88.8l1.6,0.2c1.8,0.3,181.3,27.7,253.5,68.3
	C435.6,171.9,446.1,186.6,445.7,200.7z"/>
<path class="st0" d="M299,211.1l1.8,5.4c-4.4,8.5-19.9,39.2-25.3,50h40.3c0.5,7.1,7.6,13.2,15,14.8c-4.4-5.8-2.7-11.6,0.6-14.8h19
	c5.3,0,3.7,6.4-4.9,13c13.5-3.1,23.5-9.2,30.1-18C363.1,242.5,298.9,211.1,299,211.1z M339.3,260H290l4.6-9l45.7,6.8
	C339.9,258.5,339.6,259.2,339.3,260z M414,170.4c-61.1-33.5-254.6-61.9-254.6-61.9l7,8.9l-44.9,48.3l157.8,12.1
	c-0.3,0.5-0.6,1.1-0.9,1.7h-106l8.2,7.7c-6.7,9.5-12.5,19.7-17.2,30.3l88.6-18.1c-0.5,0.7-0.9,1.4-1.4,2.1L145,236.7l9.3,5.3
	c-4.3,14.5-7.2,29.4-8.5,44.5l89.7-54.4c-0.3,0.8-0.6,1.7-0.8,2.5l-98.9,78l9.1,2.3c0.4,16.4,2.8,32.8,7,48.7l80.5-94.9
	c0.1,0.8,0.2,1.5,0.4,2.3L153,388l7.5,0.5c9.2,20.8,22.4,37.9,39.1,48.5c-6.4-14.3-4.4-31.6,3.1-46.9c6.4-13.3,91-181.7,91-181.7
	l-14.1-7.6H411c13.5,0,20.9,5.6,20.8,13.2C440.1,206.9,441.9,185.7,414,170.4z M244,191.9l-63.1,11.3c2.4-4.2,5.1-8.3,7.9-12.2
	l56.9-1.3C245.1,190.4,244.6,191.2,244,191.9z M224.4,225.7l-64.5,35.2c1-5.3,2.2-10.5,3.5-15.5l62.1-22.3
	C225.1,223.9,224.8,224.8,224.4,225.7z M158.8,332.2c-0.8-5.5-1.4-11.1-1.9-16.8l60.1-51c0,0.9,0.1,1.9,0.1,2.8L158.8,332.2z
	 M184.3,398.4c-3.4-4.7-6.4-9.5-9.1-14.6l52.4-79c0.4,0.8,0.8,1.5,1.2,2.3L184.3,398.4z M414.6,184.9h-10.9
	c-4.2-7.1-16.6-17.3-16.6-17.3C393.8,169.8,408.9,178.3,414.6,184.9z M371.9,176l-209.4-29l12.8-13.9
	c70.5,10.9,154.9,28.1,197.7,40.6C372.6,174.5,372.2,175.2,371.9,176z M432.4,204.9c-1-3.3-6.1-9-18.1-9H384
	c0.3-0.6,0.6-1.1,0.9-1.7c5.8-0.4,26.1-2.1,37.6-4.3l-1.7-7.5C432.6,188.4,434,200.4,432.4,204.9z"/>
</svg>
