<?xml version="1.0" encoding="utf-8"?>
<!-- Generator: Adobe Illustrator 23.0.3, SVG Export Plug-In . SVG Version: 6.00 Build 0)  -->
<svg version="1.1" id="Layer_1" xmlns="http://www.w3.org/2000/svg" xmlns:xlink="http://www.w3.org/1999/xlink" x="0px" y="0px"
	 viewBox="0 0 500 500" style="enable-background:new 0 0 500 500;" xml:space="preserve">
<style type="text/css">
	.st0{fill:#FFFFFF;}
</style>
<title>Logos/Clubs/BAL/Primary</title>
<desc>Created with Sketch.</desc>
<path class="st0" d="M496.7,273.1c-1.7-10.2-7.4-25.2-24.2-39.5l17.4-5.8l-47.3-18.5l7.9-7.5l-44.8-6.2c-4.5-0.6-8.7-1.1-12.8-1.3
	l-6.2-47.4c0,0-13,17.7-16.9,22.9l-44.4-50l3.5,27.7c-1.7-0.8-3.5-1.6-5.2-2.3c-23.5-10.1-51.1-15.4-79.8-15.4
	c-17.7,0-35.5,2-52.9,5.9c-38.3,8.7-93.6,31.3-139.5,89.8l-51.8,66.2l78.2-31.2c4.3-1.7,25.8-9.6,44.9-13.2c-3.4,6-7.6,12-9.1,14.2
	l-0.1,0.1L74,319.3l65.2-22.6c4-1.4,8-2.6,11.9-3.7l-30.3,43.3l67.3-24.2c15.2-5.4,33.6-9.5,46.4-10.4l-19.8,31.5l25.3-3.9
	c0.2,0,5.1-0.8,10.2-1.6c4.1,15.4,12.3,23.9,13.2,24.9l28.3,29.1l10-39.3c0.6-2.4,1.3-4.7,2.2-6.7l20.2-7.2
	c10.3-3.8,19-8.3,25.8-13.5c4.7-0.3,11.7-0.7,19.7-0.7c7.8,0,15,0.3,21.5,1c8.2,0.8,16.4,1.2,24.4,1.2c20.8,0,34.8-2.8,39.9-4
	c0.7-0.2,1.5-0.3,2.2-0.3c2.1,0,3.9,0.6,4.4,0.8l19.8,10.9l10.7-20.3c0.8-1.5,4.9-9.8,4.9-22C497.4,279,497.1,276,496.7,273.1z
	 M485.7,300.1l-7.1,13.4l-13.3-7.3c-0.3-0.1-3.4-1.6-7.8-1.6c-1.4,0-2.7,0.2-4,0.5c-4.8,1.1-18.1,3.8-38.1,3.8
	c-7.7,0-15.7-0.4-23.7-1.2c-6.7-0.7-14.2-1-22.2-1c-9.2,0-17.2,0.5-22.6,0.9c-6.4,5.3-15,9.9-25.5,13.7l-17.4,6.2l-0.8-5.3
	c-4.1,4.6-7.1,10.8-9,18.4l-6.6,26l-18.8-19.3c-1-1-10.1-10.5-12.6-28.2c-5.7,0.9-15.1,2.3-17.1,2.6l-9,1.4l17.5-27.8
	c0.1-0.2,0.2-0.4,0.3-0.5c-1.6-0.5-4.2-0.9-8.6-0.9c-13.8,0-35.4,4.4-53.9,11l-44.5,16l27.1-38.7c0,0,0.2-0.4,0.3-0.5
	c-7.2,0.8-18.9,3.3-31.7,7.7l-43.2,14.9l26-38l0,0c1-1.5,9.8-14,13.6-22.6c1.5-3.3,1.6-4.8,1.6-5.4c-0.3-0.1-0.9-0.2-2.1-0.2
	c-1.6,0-3.7,0.2-5.4,0.5c-21.1,3-47.2,12.7-52.2,14.6L23.2,274l34.3-43.8c44.5-56.7,98-78.6,135.1-87c16.8-3.8,34.1-5.7,51.2-5.7
	c27.7,0,54.2,5.1,76.8,14.8c6.2,2.7,12.1,5.7,17.7,9.1c-0.3-2.5-0.5-4.5-0.6-4.9l-1.6-12.9l31.1,35.1c1.1,1.3,2.1,2.5,3,3.7
	c2.3-3.2,5-6.8,5.5-7.5l5.9-8l4.6,34.9c5.9,0.1,12,0.6,18.5,1.5l29,4l-5.1,4.8c0.4,0.2,0.9,0.3,1.3,0.5l37.4,14.6
	c0,0-10.9,3.6-11.4,3.8c23.8,15,31.2,31.8,33.2,43.3c0.4,2.4,0.6,5,0.6,7.4C489.7,292.4,486.1,299.4,485.7,300.1z"/>
<polygon class="st0" points="273,213.4 273,213.4 273,213.4 "/>
<g>
	<path class="st0" d="M229.4,240.4c4.7-1.1,10-4,12.7-10.1c2.6-5.4,2.5-9.1,0.7-11.4c-1.5-2-4.3-2.9-7.7-2.9h-9.3
		c-0.7,1.4-1.4,2.7-2,4.1c-3.1,6.5-5.8,13.2-8.1,20.1c-0.1,0.2-0.1,0.4-0.2,0.6c-0.2,0.3-0.2,0.5-0.2,0.5h8.1c1.3,0,2.7-0.1,4-0.4
		C228.1,240.7,228.8,240.6,229.4,240.4z"/>
	<path class="st0" d="M480.7,277.1c-1.6-9.9-8.3-24.4-30.8-37.9c-6.2-3.6-12.7-6.7-19.3-9.3l8-2.7l-11-4.3c-5.6-2.1-11.3-3.9-17-5.3
		c1.1-1.2,2.3-2.4,2.3-2.4l-8.4-1.2c-12.9-1.9-21.9-1.6-27.2-1.1c0.1-1.1,0.1-2.3,0.1-3.5c0-1.6-0.1-3.2-0.3-4.7l-1.4-10.5
		c0,0-5.1,7-5.9,8c-2-6-5.3-11.5-9.5-16.3l-9.1-10.2l1,8.6c-8.2-7.6-19.4-15.6-35-22.2c-35.2-15.1-79.7-18.2-122.2-8.6
		c-35.7,8.1-87.2,29.2-130,83.7l-10.7,13.8l16.3-6.5c0.3-0.1,30.5-12.1,55.1-15.4c9.6-1.2,16.3-0.1,18.7,3.3c2.3,3.2,1.6,9.3-2,16.7
		c-4.8,10-14.7,24.4-14.8,24.6l-8.1,11.8l13.6-4.7c17.9-6.1,40.4-10.8,45.6-7.3c1.1,0.7,2,1.7,2.1,3c0.8,4.4-2.9,11-4.3,12.9
		l-8.6,12.1l14-5c22.2-8,62.2-17.2,74.6-7.7c5.7,4.4,0.4,13,0.1,13.4l-5.5,8.7l10.1-1.6c0,0,2.5-0.4,5-0.7c0,0.7-0.1,1.6-0.1,2.3
		c0,19.7,10,30.2,10.4,30.7l5.9,6l2-8.2c5.8-23,19.4-30.9,27.1-33.6c0.3,1.5,1.3,8.9,1.3,8.9l5.5-2c13.3-4.7,20.8-10,24.9-14
		c6.2-0.6,28.7-2.2,50.3-0.1c31.8,3.2,52.9-1,58.7-2.4c6.5-1.4,13.3-0.7,19.3,2.1l4.2,2.3l2.2-4.2c0.1-0.3,2.9-5.6,2.9-13.4
		C481.2,280.9,481,279.1,480.7,277.1z M296.4,190.7c0,0,1.3-0.3,3.3-0.7c7.1-1.2,20.9-2.2,33.7,4.4c5.6,2.9,10.2,6.2,13.6,9.8
		c3,3.2,4.3,5.8,4.8,7.1l0.1,0.3c0.1,0.4,0.3,0.9,0.4,1.4l0.3,1.8L351,214c-1.5-0.8-3.2-1.4-5-1.7c1.7,2.2,2.8,4.5,4,6.9
		c0.3,0.6,0.6,1.3,0.9,1.9l0.8,1.7c2.3,4.4,7.2,7.4,7.2,7.4l2.7,1.7l-3.2,0c0,0,0,0-0.1,0c-1.2,0-6.6-0.7-12.7-12.2
		c-3.2-5.9-7-8.9-9.7-10.4c-1.6-0.9-3.3-1.6-4.9-1.9l0.2-1.8c0.9,0,4.3-0.1,9.1,1c1.3,0.3,2.5,0.6,3.9,1.1
		c-4.3-4.4-15-12.8-34.8-14.8l0,0c-1.6-0.2-3.2-0.3-4.8-0.4c0.1,0,0.2,0,0.3,0.1c6.2,1.8,14.6,5.2,19.4,11.5l1.4,1.8l-2.2-0.4
		c-0.2,0-19.6-2.9-39.4,4.1c-1.4,0.5-2.6,1-3.9,1.5c5.5-0.3,14.3,0.1,23.1,3.5c3.2,1.2,6,2.6,8.6,4.4l2.8,1.9l-3.4-0.2
		c-0.2,0-16.4-1.1-29,6.1c-2.7,1.6-5,3.3-6.8,5.2l-1.5-1.1c5.1-9.3,15.7-13,20.5-14.2c-5.2-2.2-16.2-3.5-21-3.9
		c0.5-0.5,1.2-1.2,1.2-1.2c0,0,0,0,0,0l0,0c0,0,0,0,0,0c1.9-2.1,9-7.1,18-9.6c2.2-0.6,4-1.1,5.7-1.4c3-0.7,5.9-1.1,8.8-1.4
		c0.6,0,1.3-0.1,1.9-0.1c-6-4.8-12.7-6.5-12.8-6.6l-1.8-0.2l-2.3-0.1L296.4,190.7z M331.6,227.9c-5.3,1.7-11.2-0.7-13.1-5.3
		c-2-4.6,0.7-9.8,6-11.4c5.3-1.7,11.2,0.7,13.1,5.3C339.6,221.1,336.9,226.2,331.6,227.9z M275.3,291.9c1.3-3.9,1.8-7.3,1.6-10.1
		c-2-28.1-69.3-14.5-69.4-14.5c3-4.2,8.7-9.5,16.4-14.9c-1.7,0-3.3,0.1-4.7,0.1l-14.1,0.8c-8.4,0.4-22.4,2-27.2,2.7l-14,2.2
		c2.6-4.3,4.8-8.7,6.8-13.4c0.5-1.2,1-2.4,1.5-3.7c2-5.7,3.8-12.1,3.8-18c0-5.2-1.3-10.1-4.8-13.8c-11.4-11.7-47.8-1.3-52.3,0.1
		c-0.1,0-0.1,0-0.2,0.1c0.3-0.1,0.9-0.4,1.7-0.7c0.7-0.3,1.5-0.6,2.4-0.9c0.5-0.2,0.9-0.4,1.5-0.6c7.1-2.5,14.3-4.3,21.8-5.2
		c16.7-2.2,27.4,0.5,31.7,8.1c1.7,2.8,2.8,6.3,2.9,10.9c0.2,7.5-2.1,17.8-8.7,32.1c0,0,2.4-0.5,5.6-0.8c1.3-4.4,2.6-8.5,3.9-12.2
		c8.9-26.1,16.8-36.7,22.4-42.2c2.8-3.3,7-6,11.3-7.9c1.8-0.7,3.5-1.5,5.2-2c-37.5,1.8-73.9,9.5-74,9.5
		c23.5-18.3,78.2-31.2,109.8-27.9c1,0.2,2,0.3,2.9,0.4c19.4,2.5,24.7,8.9,25,15c0,0.3,0,0.6,0,0.8c-0.1,2.4-0.7,4.8-1.8,7.1
		c-0.8,1.9-2.6,3.9-5.1,6c-5.5,4.4-14.2,8.7-22.5,10.5c10.1,1.4,16.7,8,16.5,15.6c0,0.6-0.1,1.2-0.2,1.8c-0.2,1.3-0.6,2.5-1.1,3.6
		c-0.4,0.8-0.8,1.7-1.3,2.4c-39.1,13.4-53.1,31.1-53.1,31.1c8.7-2,39.4-7.9,56.3,2.4c1.7,1,3.3,2.3,4.7,3.7c3.3,3.2,5,7.5,5,12
		c0,1.2-0.2,2.4-0.5,3.6c0,0.4-0.1,0.6-0.1,0.6l15.9,0.1L275.3,291.9z M467,284.3c-6.9-14.4-57.8-24.2-116.6-31.2
		c-15.7-1.8-22.3-0.7-21.7,2.9c0.7,3.4,9.7,10.3,18.8,13.9c-6.5-6.2-0.8-7.8-0.8-7.8c10.3-0.8,76.9,5.4,111,20
		c-9.2,2.1-20.9,3.5-36.6,3.6c-21.8,0.2-41.1-5.4-67.5-2.3l-8.8-7.1c-1.5,3.6-3.3,7.1-5.7,10.2c2.9-5.2-0.1-11.4-1.3-14.4
		c-10.8-5.8-28.6-16.7-13.5-20.4c-9.4-1.4-38-4.2-73.8,6c0,0,33.1-22.1,96.8-11.7c-17.2-10.3-54.9-9.9-54.9-9.9
		c34.3-8.6,75.8,5,91.2,10l-14.3-10.3l18.1,1.6l-9.8-7.8c0,0,38.5,2.7,63.6,19.4C470.6,266.2,467,284.3,467,284.3z"/>
	<path class="st0" d="M326.3,214.2c-3.6,1.2-5.5,4.6-4.2,7.7c0.7,1.9,2.6,3.2,4.8,3.7c-1.1-0.7-1.9-1.6-2.4-2.7
		c-1.3-3.1,0.6-6.6,4.2-7.7c1.3-0.5,2.7-0.6,4.1-0.2C330.8,213.8,328.5,213.5,326.3,214.2z"/>
	<path class="st0" d="M241.5,206.1c0.6-0.1,1.2-0.2,1.8-0.4c1.6-0.5,3.1-1.1,4.5-2c2.3-1.3,4.2-3,5.3-4.8c1.4-2.5,1.9-4.7,1.6-6.5
		c0-0.3-0.1-0.6-0.2-0.8c-0.5-1.5-1.4-2.7-2.7-3.4c0,0-0.1-0.1-0.2-0.1c-1.1-0.7-2.4-1-3.7-1.1h-6.3c0,0-1.1,0.8-3.1,3.9
		c-0.8,1.3-2,3.2-3.3,5.5c-1.5,2.7-3.2,6-5,10.4h5.7C237.7,206.7,239.6,206.5,241.5,206.1z"/>
</g>
</svg>
