<?xml version="1.0" encoding="utf-8"?>
<!-- Generator: Adobe Illustrator 23.0.3, SVG Export Plug-In . SVG Version: 6.00 Build 0)  -->
<svg version="1.1" id="Layer_1" xmlns="http://www.w3.org/2000/svg" xmlns:xlink="http://www.w3.org/1999/xlink" x="0px" y="0px"
	 viewBox="0 0 500 500" style="enable-background:new 0 0 500 500;" xml:space="preserve">
<style type="text/css">
	.st0{fill:#FFFFFF;}
</style>
<title>Logos/Clubs/BUF/Primary</title>
<desc>Created with Sketch.</desc>
<path class="st0" d="M21.3,375.1l7.1-16l-1.8-11.7l5.4-3.5c6.3-4.2,10.3-6.9,13.1-10c0.3-0.4,0.6-0.7,0.8-1c1.2-1.5,1.8-2.2,3-4.4
	c0.5-1.3,0.8-2.7,1.2-4.2c1-4.2,2.2-8.9,6.5-12.1l0.2-0.1c2.9-2,5.1-3.4,6.2-4l0.3-0.2c12.2-7.8,20.9-16,26.9-22.8l-90,12.9
	L52.4,206l81.1-6.9c8.7-7.2,36.5-28.8,76-45.6c3.7-4.3,12.7-12.9,33.5-24.8c0.2-0.1,25.8-15.2,55.1-24.9c0.9-0.3,8.4-2.9,15.6-5
	l-2.1-7.6l41.2-3.5l1.2-4.7l8.3,0.6c1.5,0.1,14.3,1.1,25.5,4.2l2.6-3.4l7.3,3.4c1,0.5,25.5,12,45.3,39.4c7.6,0.3,20.9,1.7,33.6,7.7
	c2.3,1,23.2,10.9,22.6,36.1c0,1.1-0.4,27.9-8.2,53.9c-0.7,2.2-1.6,4.8-2.7,7.4l-0.1,0.3l-0.3,0.6l-0.1,0.1c-1.4,2.6-3.2,5.6-5.6,8.6
	l-0.1,0.2l-0.4,0.5l-0.1,0.2c-1.8,1.9-7.6,8.4-9.7,13.3c-0.5,1.5-2.3,6.4-5.2,14c-2.4,8.5-10.4,18-26,20.2
	c-5.7,7.1-18,22.1-24.4,27.7L402,330.4l-0.8-6.1c-4,3.1-7.6,5.7-10.9,7.8l-17.6,11.1l1.1-9.7c-4.5,3.9-10.9,7.8-19.9,10.5
	c-12.5,3.7-25.5,6.2-38.9,7.4l-1.3,0.1l-2.6-0.4L264,370.4l10.7-38.5L224,353.7l19-54.1l-5.9,4.5l-4.7-1.2
	c-9.7-2.5-19.5-2.9-24.5-2.9c-0.4,0-0.8,0-1.2,0L131,361.4L104.9,419l-28.1-37.5l-17.5,47.1L21.3,375.1z M57.6,415.9L75,369.1
	l28.7,38.2l22.5-49.7l78.4-63.6c0.8,0,2-0.1,3.5-0.1c6.1,0,15.3,0.5,25,2.9l2.8,0.7l7.5-5.8l12.2-0.1l-4.1,2.3l-17.1,48.8l41.3-17.7
	c0.8,0.2,1.9,0.4,4.5,0.4c0.8,0,1.8,0,2.7-0.1l-9.7,34.8l37.4-15.4l3.6,0.6l0.8-0.1c12.8-1.1,25.4-3.5,37.4-7.1
	c22.3-6.8,26.7-21,27.4-23.8c2.9-7.3,2.1-19.3,1.3-26l3.9,0.1c0.1,0.5,0.1,1.2,0,1.9L380,332l10.9-7.5c5.5-3.8,11.1-8.4,15-11.7
	l0.8,6.5l8.7-8.9c7.2-7.4,18.7-21.7,22.1-25.9c19-1.5,23-14.7,23.4-16.4c3.1-8,4.9-13.2,5.3-14.3c2.9-6.7,10.2-14.4,11-15.2l0.2-0.2
	l0.2-0.3c2-2.6,3.6-5.3,4.9-7.6l0.2-0.3l0.1-0.3c1-2.3,1.8-4.7,2.4-6.7c7.7-25.6,8-52,8-52.2c0.6-22-17.7-30-19.1-30.6
	c-13.6-6.5-28.4-7.2-34.3-7.2c-16.4-23.8-36.9-35.9-42.9-39l-4.5-2.4l-2.3,3.1c-9.2-3.3-21.4-4.6-26.4-5.1l-5.1-0.5l-1,4.1
	l-38.3,3.3l1.8,6.5c-8,1.8-20.5,6.2-21.1,6.4c-28.8,9.5-53.8,24.3-54,24.4c-22.2,12.7-30.1,21.1-32.7,24.5
	c-42.4,17.8-72.2,42.1-77.3,46.5l-79.8,6.8l-44.6,78.7l92.5-13.3c-5.2,8-16.5,22.4-37.5,35.9l-0.4,0.3c-1,0.6-3.2,2-6,3.9
	c-2.5,1.9-3.3,5-4.2,8.7c-0.4,1.7-0.9,3.5-1.5,5.3c-1.6,2.9-2.4,3.9-3.8,5.6c-0.3,0.4-0.6,0.7-0.9,1.1c-3.2,3.6-7.6,6.6-13.3,10.4
	l-3.2,2.1l1.5,9.7l-6.4,14.5L57.6,415.9z"/>
<path class="st0" d="M64,224.3L427.8,193c-4.9,5.1-7.3,10.1-7.2,15.1c0.1,3.4,1.3,6.1,2.6,7.9L36,273.8L64,224.3z"/>
<path class="st0" d="M117,350.4l-16,35.4l-14.2-19l8-11l-0.6-4.4c16.8-9.4,16.9-23.2,16.9-23.2c32.4-38.2,79.7-37.6,79.7-37.6
	L117,350.4z"/>
<path class="st0" d="M369.4,309c0,0-2.6,11.7-14.5,16.2c0,0-17.5,7.4-43.8,9.1l-1.3-1.1l-19.9,8.4l6.5-23.2c0,0,26.7-2.1,34.8-4.5
	c0,0,20.7-4.1,23.8-30.3l13.3-0.1C368.3,283.6,371,301.2,369.4,309"/>
<path class="st0" d="M481,182.2c0,4.8-4.7,29.8-4.7,29.8c-3.9,17.3-10.9,23.8-10.9,23.8c-9.1,8.9-11.3,18-11.3,18
	c-4.7,12.9-6.3,14.6-6.3,14.6c-3.6,5.9-18.3,5.6-18.3,5.6c-3.4,8.3-16.8,22.7-16.8,22.7l-1.2-4.1l-17.6,15.7l2.8-21.9
	c1-7.5-7-9.2-7-9.2l-38.5,1.7c-5.6,26.2-25.9,30.2-25.9,30.2c-29.2,5.9-48.6,4.7-48.6,4.7l-1.3-0.9l-22.3,9.7l7.9-21.8l11.9-4.7
	c0.9-0.3,0.6-1.5,0.6-1.5l-1.1-3.5c12.2-1.1,23.4-9.7,23.4-9.7c1.4-1.2-0.7-1.6-0.7-1.6l-56.7,1.3l-4.5,4.3
	c-49-8.1-82.6,6.2-82.6,6.2c-38,14.2-61.2,50.4-61.2,50.4l-23.6,18.2l-11.9,32.2l-13.2-19l5.4-12.4l-0.8-5.8
	c11.5-7.4,16.5-16,16.5-16c4-5.3,3.7-9.7,3.7-9.7c0.3-3.5,3.5-5.4,3.5-5.4c44-26.6,50.7-54.8,50.7-54.8l310.6-47
	c-5.1,23.6,14,15,14,15c-12.4-8.7-1.2-14.9-1.2-14.9c-10.8-18.3,20-39.4,20-39.4l-315.5,26c33.9-27.7,80.5-44.5,80.5-44.5l-4.2-2.3
	l7.7-3.6l1.1-3.3c60.9-40.8,103.9-42.8,103.9-42.8l-1.9-5.8c20.8-2.2,30.4-2.1,30.4-2.1l0.8-2.2c15.7-0.2,26.8,7.5,26.8,7.5l2.3-3.5
	c32.5,22.5,37.2,38.9,37.2,38.9c23.6-1.9,36.2,5,36.2,5C486.1,157.5,481,182.2,481,182.2"/>
</svg>
