<?xml version="1.0" encoding="utf-8"?>
<!-- Generator: Adobe Illustrator 23.0.3, SVG Export Plug-In . SVG Version: 6.00 Build 0)  -->
<svg version="1.1" id="Layer_1" xmlns="http://www.w3.org/2000/svg" xmlns:xlink="http://www.w3.org/1999/xlink" x="0px" y="0px"
	 viewBox="0 0 500 500" style="enable-background:new 0 0 500 500;" xml:space="preserve">
<style type="text/css">
	.st0{display:none;}
	.st1{fill:#FFFFFF;}
	.st2{fill:#0085CA;}
</style>
<rect class="st0" width="500" height="500"/>
<title>Logos/Clubs/CAR/Primary</title>
<desc>Created with Sketch.</desc>
<path class="st1" d="M364.4,383l-0.9,0c-0.5,0-1.1,0-1.6,0c-44.1,0-84.2-16.1-126.6-33.2l-0.5-0.2c-7.3-2.9-14.9-6-22.6-9
	c-14.3-5.6-29.9-9.8-46.3-12.7l-1.2-0.2c-5.3-0.9-10.8-1.7-16.4-2.3l-4.4-0.5c-0.2,0-2.1-0.2-2.8-0.3l-0.3,0
	c-9.3-0.8-19.1-1.2-28.9-1.2c-13.6,0-27.5,0.8-41.4,2.3l-2,0.2c-21.7,2.5-35.7,6.1-36.3,6.2l-30.8,8l19.8-24.9
	c56.5-71.1,123.6-118.9,168.8-140.6c-3-4.7-5.1-8.6-6.2-11.7c-2.7-7.6-3-13-1-18.2c2.7-7.7,10.4-10.4,16.6-10.4l0.5,0
	c1.4,0.1,2.8,0.1,4.2,0.1c10,0,17.5-1.8,18.7-2.1c3.7-1.2,32.9-10.4,73.5-13.9c0.3,0,10-1.1,23.2-1.2l7.8-0.1l0,0.1
	c32.4,0.2,62.2,5.2,88.8,14.9l1.1,0.4l0.1,0c0.2,0.1,9.8,3.9,21.1,3.9l1.2,0l1.5,0.2l0.3,0.1l0.8,0.1l0.6,0.2l0.5,0.1l1.1,0.4
	l0.5,0.2l0.6,0.3l0.5,0.3l0.6,0.3l0.8,0.6l0.7,0.5l0.8,0.7l0.7,0.7l0.5,0.6l0.4,0.6l2.5,1.3l0,6.7c0,0.6,0,1.1-0.1,1.6l0,0.3
	c0,0,0,0.2-0.1,0.4v3.3l-0.7,0.8c-0.8,3.7-3,10.9-8.1,18c9.2,1.4,17.9,3.8,25.8,7.2l0.6,0.3l0.2,0.1c0.9,0.5,9.1,4.6,14.5,10
	l15.8,15.8l-10.1-1.9c0.1,0.1,2.1,2.6,2.1,2.6l-3.6,4.6c2.4,1.9,4.5,4,6.1,6l1.5,1.9l-7.8,9.6l-2.1-1c-0.2-0.1-24.3-11.6-51.8-11.6
	c-0.2,0-0.5,0-0.7,0c-6.5,15.7-19.4,42.5-37.8,60.4c0.5,4.2,0.7,10.3-0.2,17.7c-1.1,8.9-3.4,27-20.6,39.2c2.4,9.1,6,24.9,7.1,35.2
	l1.1,11l-19.8,1.3L364.4,383z M363.6,378.1l4.3-0.2l0,0.1l10.9-0.7l-0.6-5.9c-1.2-12.3-6.2-32.1-7.9-37.9
	c18-10.9,20.3-28.9,21.4-37.7c1.1-8.5,0.5-15.2-0.1-18.9c19.6-18.1,33.1-46.9,39.7-63.4c1.3-0.1,2.7-0.1,4-0.1c29,0,53.8,12,54,12.1
	l2.5-3c-5.1-6.4-14.3-11.7-23.8-15.6c10.4,2.9,17.3,6.2,17.4,6.2l2.4-3.1l-0.4-0.4c-2.4-3-6-7.3-11.4-11c1.6,0.2,3,0.4,3.9,0.5
	l6.4,1.2l-4.6-4.6c-5-5-12.9-8.9-13.2-9.1l-0.6-0.2c-9-3.9-19-6.4-29.7-7.6c-0.2-1.3-0.5-2.5-0.8-3.7c5.9-6.5,9.1-14.8,10.2-20.8
	l0.3-0.4v-1.8c0-0.2,0.1-0.3,0.1-0.3l0-0.2l0-0.3c0-0.3,0.1-0.7,0.1-1.1l0-3.7l-1-0.5l-0.2-0.4l-0.6-0.8l-0.2-0.3l-0.5-0.5l-0.5-0.4
	l-0.5-0.4l-0.5-0.3l-0.4-0.2l-0.4-0.2l-0.4-0.2l-0.3-0.2L442,142l-0.5-0.1l-0.3-0.1l-0.4-0.1l-0.2,0l-0.1,0l-0.1,0l-0.9-0.1l-1,0
	c-12.4,0-22.7-4.2-22.8-4.2l-0.1-0.1l-1-0.4c-26.5-9.7-56.5-14.6-89-14.6c-0.6,0-1.1,0-1.7,0l0,0l-4.2,0
	c-12.6,0.1-21.9,1.1-22.9,1.2c-40.4,3.4-69.1,12.6-72.5,13.7c-1.1,0.3-9.1,2.3-20.1,2.3c-1.5,0-2.9,0-4.4-0.1l-0.3,0
	c-4.6,0-10.2,1.9-12.1,7.2c-1.6,4-1.3,8.3,1,14.8c1.6,4.4,5.5,10.4,8.9,15.3c-43.5,19.7-113.7,68-172.2,141.7l-10.7,13.5l16.7-4.3
	c0.1,0,14.5-3.7,36.9-6.4l2-0.2c14-1.6,28.1-2.4,41.9-2.4c10,0,19.9,0.4,29.4,1.3l0.2,0c0.7,0.1,2.7,0.2,2.9,0.3l0.3,0
	c0.3,0,2.1,0.2,3.3,0.3l0.9,0.1c5.7,0.6,11.3,1.4,16.7,2.3l1.3,0.2c16.7,2.9,32.6,7.3,47.2,13c7.8,3,15.4,6.1,22.8,9.1l0.3,0.1
	c42,16.9,81.7,32.8,124.8,32.8C362.5,378.1,363,378.1,363.6,378.1z"/>
<path class="st2" d="M373,198.3L373,198.3C373,198.3,373,198.3,373,198.3C373,198.3,373,198.3,373,198.3z M369.8,253.9
	c0,0.1,0.1,0.2,0.1,0.3C369.8,254.1,369.8,254,369.8,253.9z"/>
<path class="st1" d="M442.2,151.8L442.2,151.8L442.2,151.8z M377.8,248.1c0,0,5.3-11.7,2.9-26.1c0,0-10.1-3.7-28.5,0
	c0,0-8.8,19.7-20,29.3c0,0,8.5-20,3.5-34.9c0,0,15.5-6.1,34.4-4.8c18.9,1.3,23.2,5.3,23.2,5.3S388.5,239.6,377.8,248.1L377.8,248.1z
	 M365.6,289.4c8.8-6.4,7.9-19,7.9-19c2.1,5,3.3,11.6,2.1,16.4c-1.2,4.7-4.3,9.5-17.1,10.7c-12.8,1.2-20.2-2.9-20.2-2.9
	c5.7-5.7,11.3-21.2,11.3-21.2c2.9,10.9,0.4,16,0.4,16C356.1,291.4,365.6,289.4,365.6,289.4L365.6,289.4z M385.8,287.3
	c3.1,22.6-17,32.1-28.2,32.1c-11.2,0-26.5-4.7-32.4-23.7c-5.9-19-5.9-42.4,1.7-53.9c0,0-5,22.6-2.2,35.4
	c2.8,12.8,8.1,23.7,18.4,25.7c10.3,1.9,25.7,1.4,31.3-5c5.6-6.4,7.8-15.6,2.2-28.2c-5.6-12.5-16.8-28.7,1.7-44.9c0,0-8.1,9.8-5,24
	C376.4,263,382.7,264.7,385.8,287.3L385.8,287.3z M313.7,193.8c-42.1-5.8-76.6,2.8-76.6,2.8c33.9-10.9,64.7-9.6,79.9-7.8
	C315.6,190.6,314.5,192.2,313.7,193.8L313.7,193.8z M311.7,204.3c-41.1-2.8-73.7,7.2-73.7,7.2c29.6-11.4,57.4-12.9,73.9-12.4
	C311.5,201.1,311.5,202.8,311.7,204.3L311.7,204.3z M242.5,263.7c-15.7-19.2-9.1-45-9.1-45s0.6,22.1,19.8,41.6
	c19.3,19.5,43.2,24.8,43.2,24.8S258.2,283,242.5,263.7L242.5,263.7z M327,179.9c-2.2,1.5-4,3-5.6,4.4c-45-10.6-84.4-3.1-84.4-3.1
	C285.7,168.5,327,179.9,327,179.9z M291.9,156.4L291.9,156.4L291.9,156.4c0.7-0.3,14.4-6,28.4-2.8c14.3,3.3,23.2,13,23.2,13
	s-12.9-3.9-36.8-3.4c0,0-0.9-1.7,1.5-5.4C308.2,157.7,304.4,156.6,291.9,156.4L291.9,156.4L291.9,156.4z M397.5,160.4
	c7.3-1.5,14,2.3,17.2,5.2c0,0-17-3.1-24.9,4.2C389.8,169.8,390.2,161.8,397.5,160.4z M478.4,216.3c-16.6-9-35.4-11.9-49.8-12.4
	c0,0-5.9,0.1-6.8,0.1c0.3-2.4,0.2-4.6-0.2-6.5c3.6-0.1,8.1-0.3,8.8-0.3l0.5,0c28.9-0.9,44.2,6.7,44.2,6.7l-1.5-1.1
	c-14.1-6.5-29-8.9-41.9-9.3h-0.5c0,0-6.2,0-11,0.1c-1.3-2.7-3.2-4.8-5.1-6.3c6.1,0,13.1,0,17.2,0.2l0.3,0
	c22.3,0.2,34.4,5.5,34.4,5.5l-1.5-1.1c-11-4.7-22.3-6.8-32.9-7.5c0,0-13.8-0.7-24.4-0.7c3.1,2.3,5.4,5.7,5.7,10.5
	c0.7,14.8-14.6,20.8-14.6,20.8c3.6-2.4,10.1-10.5,8.4-21.1c-1.7-10.5-15.3-15.5-15.3-15.5s-16,6.9-19.5,20c0,0,0.3-13.6-22.4-22.4
	c0,0,10.7-3.2,22.1-2.4c11.5,0.8,19.7,4.8,19.7,4.8s2.1-5.6,13.3-7.5c11.2-1.9,23.4,0.8,23.4,0.8c-2.2-4.1-4.8-10.1-16.1-14.7
	c-11.3-4.6-21.4-0.4-21.4-0.4s-0.7-5.5-8.9-10.8c-13.3-8.6-48.6-13.8-55.5-14.1c-6.8-0.4,5.1,4,9.9,6.7c5.4,3.1,11.5,8.3,12,13.3
	c0.1,1.3-0.2,2.5-0.8,3.5c-0.5-1.4-1.5-3.2-3.3-5.4c-9.7-12.4-34.2-17.8-52.6-16.6c-18.4,1.2-33,8.2-33,8.2
	c0.2,1.7-6.8,7.6-26.1,9.8c-18.4,2-31.4-1.3-36-2L197,149c-1.9-0.2-3.3-0.1-3.9,1.2l-0.1,0.2l0,0.3c-0.1,0.9,0.5,2.3,0.5,2.3
	l-0.3-0.5c1.3,2.5,9.1,16.9,19.4,24.3c0,0,6.2-1.3,13.5-2.1c0,0-113,55-158.7,140.8c19.9-2.3,46.2-3.8,74.7-1.3l-0.2,0h0
	c4.1-6.9,24.8-45.5,73.8-69.3c0,0-36.3,25.2-49.2,72.4c16.4,2.8,33.2,7.1,49.6,13.5c52.8,20.6,97.2,42,147.3,41.6l8.5-0.4l0,0
	c-13.3-27.7-26.4-40.4-26.4-40.4c9.9,1.8,17.9-1,18.1-1.1c0.7-0.3,1.4-0.5,1.9-0.8c16.4-8.8,19.1-23.8,20.5-34.5
	c1.5-12.4-0.7-20.3-0.7-20.3s28.4-37.2,35.6-66.5c0,0,3.6-0.5,6.4-0.4c33.8,0.4,52.3,9.8,52.3,9.8L478.4,216.3L478.4,216.3z
	 M441.8,153c0.1-0.2,0.2-0.5,0.3-0.7l0.1-0.5l0,0c-0.7-1.9-1.9-2-4.7-1.8c-4,0.8-7.7,1.2-10.8,1.5h0l-0.5,0.1l-0.4,0l-1.3,0.1
	l-0.2,0c-4,0.3-6.5,0.3-6.5,0.3c10.2,7.7,11.4,19.7,11.4,19.7l0.5-0.4C437.6,165.6,441.8,153,441.8,153L441.8,153z"/>
</svg>
