<?xml version="1.0" encoding="utf-8"?>
<!-- Generator: Adobe Illustrator 23.0.3, SVG Export Plug-In . SVG Version: 6.00 Build 0)  -->
<svg version="1.1" id="Layer_1" xmlns="http://www.w3.org/2000/svg" xmlns:xlink="http://www.w3.org/1999/xlink" x="0px" y="0px"
	 viewBox="0 0 500 500" style="enable-background:new 0 0 500 500;" xml:space="preserve">
<style type="text/css">
	.st0{display:none;}
	.st1{fill:#FFFFFF;}
</style>
<rect x="-2" y="-2" class="st0" width="504" height="504"/>
<title>Logos/Clubs/CHI/Alternate-1</title>
<desc>Created with Sketch.</desc>
<path class="st1" d="M385.7,261.3l-1.8,5.4c-6.2,18.5-22.1,34.8-45.9,47.3c-20.4,9.7-45.8,15.1-71.6,15.1c-21.6,0-42-3.7-59-10.8
	c-16.3-6.7-29.4-15.3-42.5-28c-27.1-28.5-18.9-60.3-3.6-78.9c10.6-11.3,19.1-17.8,33.5-25.8c20.1-9.8,47.7-15.7,73.6-15.7
	c24.5,0,60.4,5.1,91.9,29.6l2.2,1.7h98.9l-6.1-11.7c-15.9-30.2-54.9-53.5-68.8-59.9c-22.7-12.2-68-26.3-121.1-26.3
	c-26.6,0-52.2,3.5-76.1,10.5c-18.7,5.3-40.9,16.1-60.8,29.4l-0.1,0.1c-20.8,14.8-36.9,33.5-46.5,54l-3,6.7l-0.2,0.5
	c-2.6,5.8-4.5,10.1-9.3,17.5l-0.1,0.1c-8.9,14.8-21.9,22.9-28.9,26.4l-15.5,7.8l16,6.7c13.7,5.7,24.9,16.5,33.4,32
	c12.2,21.1,21.9,33.7,35.8,46.5c19.7,18.3,35.3,26.2,46.7,32l0.6,0.3c0.6,0.3,1.3,0.6,1.8,0.9l1.1,0.6
	c26.8,14.1,65.9,22.2,107.3,22.2c34.6,0,68.3-5.7,94.8-16c35.7-13.1,53.9-29.4,67.2-41.4l3.4-3.1c29-28.2,34-48.3,36.6-66.4l1.3-9.1
	H385.7z M461.1,271.6c-2.3,15.2-7.1,33.5-33.8,59.4L424,334c-12.8,11.5-30.4,27.3-64.7,39.9c-25.7,10-58.4,15.5-92.1,15.5
	c-40,0-77.7-7.8-103.4-21.3l-0.1,0l-0.1-0.1c-0.5-0.3-1.5-0.8-3-1.5l-0.5-0.3c-11-5.5-26-13.1-44.8-30.7
	c-13.3-12.2-22.6-24.3-34.3-44.6c-8.6-15.7-19.9-27.1-33.6-33.8l-3.4-1.7l3.3-1.9c8.3-4.8,20.1-13.4,28.6-27.5
	c5.1-7.9,7.2-12.6,9.8-18.5l3.2-7.1c9-19.3,24.2-36.8,43.9-50.8c19.2-12.9,40.5-23.2,58.5-28.3c23.3-6.8,48.2-10.2,74-10.2
	c51.6,0,95.5,13.7,117.4,25.5l0.1,0c12.2,5.7,47.6,26.4,63.6,53.5l1.8,3h-83l-0.5-0.4c-33.1-25.5-70.6-30.8-96.2-30.8
	c-27.3,0-56.2,6.2-77.3,16.5l0,0c-15.3,8.5-24.3,15.5-35.8,27.6l0,0.1c-17.4,21.1-26.9,57.3,4,89.8c13.9,13.5,27.8,22.7,45.1,29.7
	c17.9,7.4,39.3,11.3,62,11.3c27,0,53.7-5.6,75.2-15.9c25.2-13.1,42.3-30.6,49.5-50.5l0.5-1.3h70L461.1,271.6z"/>
<path class="st1" d="M79.1,239c8.3-9.2,14.9-32.8,28-50.8c18.7-26.3,43.4-40.1,61.7-48.9c42-20.6,102.5-26.4,161.6-12.3
	c21.4,5.1,42.9,12.7,58.2,22.7c15.3,9.1,33.3,22.2,43.3,35h-63.1c-18.8-15-39.3-22.3-57.7-26.2c-20.6-5.3-53-8.1-91.5,1.1
	c-22.8,5.7-38.5,13.6-53.9,24.5c-30.2,21.5-63.5,77.9-4.4,126.9c19.3,16.3,35.5,21.5,53.4,27.8c33.3,9.6,74.9,7.8,99,1.2
	c36.3-9.6,49.9-22.3,61.7-32.4c10.9-10.5,20.1-23.2,22.7-29.8l51.8-0.1c-3.6,19.4-17.6,35.1-31.2,48.3
	c-15.5,14.6-27.1,22.3-50.1,33.8c-53.7,25.7-132.5,24.9-181.1,7.3c-25-9.1-32-13.2-50.8-26.3c-15.3-12.3-25.4-20.5-39.8-42.8
	c-6.6-10.9-9.6-17.1-17.1-27.1c-5.2-5.7-8.7-11-18-15.3C70.4,249.7,75,245.4,79.1,239"/>
</svg>
