<?xml version="1.0" encoding="utf-8"?>
<!-- Generator: Adobe Illustrator 23.0.3, SVG Export Plug-In . SVG Version: 6.00 Build 0)  -->
<svg version="1.1" id="Layer_1" xmlns="http://www.w3.org/2000/svg" xmlns:xlink="http://www.w3.org/1999/xlink" x="0px" y="0px"
	 viewBox="0 0 500 500" style="enable-background:new 0 0 500 500;" xml:space="preserve">
<style type="text/css">
	.st0{fill:#FFFFFF;}
</style>
<title>Logos/Clubs/CIN/Primary</title>
<desc>Created with Sketch.</desc>
<g>
	<path class="st0" d="M299.4,189.1c4.2,4.4,6.5,10.5,6.5,18.1c0,7.8-2.3,14-6.4,18.5c-5.1,5.5-13,8.4-23.3,8.4H270
		c-0.2,1-0.3,2.1-0.5,3.2c-1.3,9-2.5,18.2-3.4,27.6h10c8.1,0,14,1.6,18.4,4.1c9.6,5.5,11.4,15.4,11.4,22.1
		c0,17.1-10.9,26.9-29.8,26.9h-11.8c0.4,19.2,2.2,38.3,5.4,57.2c37.5,0,68.1,0,71.8,0h0.4c63.5,0,86.6-41.8,86.6-69.9
		c0-25.4-18.6-47.6-45.2-53.9c-0.4-0.1-0.8-0.3-1.1-0.4c-2.6-1-4.4-3.4-4.6-6.1c0-0.2,0-0.3,0-0.5c0-1.5,0.5-3,1.3-4.3
		c0.5-0.7,1.1-1.3,1.8-1.8c0.5-0.4,1.1-0.7,1.7-1c22.8-8.6,34.4-23.1,36.2-45.3c-52.9,44.3-87,104.1-100.3,168.8v0
		c-6.7-47.1-0.5-96.9,15.3-143.9c10.2-30.5,24.3-59.6,41.8-86.6c-9.4-3.3-20.1-5.5-31.7-6.4c-0.1,0-0.1,0-0.2,0
		c-3.9-0.3-7.9-0.4-12-0.4h-32.5c-7,18.9-13.1,38.2-18.1,57.8C289,182,295.2,184.7,299.4,189.1"/>
	<path class="st0" d="M85.1,318.1c6.4,11.1,30.5,53.2,32.8,57.2c11.4,0,56,0,102.5,0h19.9c-2-5-4.1-10.4-6.2-16
		c-13.2-35.6-26.5-82.7-27.1-139.2c-0.3-32.6,3.6-65.1,11.6-96.7h-66.9c-3.4,19.8-5.3,39.8-5.6,59.9
		c-0.9,60.5,12.7,122.3,42.3,177.9l0,0c-26.3-18.9-52.3-46.1-71.5-75v17.7c0,7.9-6.4,14.2-14.3,14.2L85.1,318.1z"/>
	<path class="st0" d="M244.8,308.3c0.1,0,0.3,0.1,0.4,0.1h31c12,0,18.3-4.2,19.7-13.1c0.2-1.4,0.3-2.7,0.3-4.1c0-0.9,0-1.8-0.1-2.7
		c-0.6-6.5-4.2-13.8-19.9-13.8h-33.1v31.6C243.1,307.3,243.8,308.1,244.8,308.3"/>
	<path class="st0" d="M276.2,190.7h-31c-1.1,0-2.1,0.9-2.1,2v31.6h33.1c12,0,18.3-4.2,19.7-13.1c0.2-1.4,0.3-2.7,0.3-4.1
		c0-4.2-0.9-7.5-2.8-10.1C290.3,192.8,284.6,190.7,276.2,190.7"/>
	<path class="st0" d="M86.2,302.8H45l52.9,90.8l244.1,0c78.8,0,112.8-41.1,112.8-85.2c0-29.2-20.7-52.9-41.8-63.6
		c-2.2-1.1-1.9-3.1-0.3-4.2c18.4-13.7,30.9-31.2,30.9-58.3c0-32-22.9-77-112.5-77H100.1l-52.3,91.1h38.4c4.3,0,7.7,3.5,7.7,7.7
		c0,0,0,0,0,0v91C93.9,299.3,90.5,302.8,86.2,302.8 M102.6,308.3c2.5,0,4.5-2,4.5-4.5c0,0,0,0,0,0V195.2c-0.1-2.5-2-4.4-4.5-4.5H68
		l43.6-77.1h220c19,0,36.1,3,50.5,8.7c1.6,0.6,3.2,1.3,4.7,2c9.2,4.2,17.1,9.6,23.5,16c12,12.1,18.3,27.6,18.3,44.8
		c0,0.1,0,0.3,0,0.4v0.2c0,3.7-0.2,7.5-0.8,11.2c-3,21.8-15,37.2-36.4,46.9c27.8,9.2,46.8,33.5,46.8,61.5
		c0,30.8-26.2,79.6-96.3,79.6l-229.7,0l-44-76.7v0L102.6,308.3z"/>
</g>
</svg>
