<?xml version="1.0" encoding="utf-8"?>
<!-- Generator: Adobe Illustrator 23.0.3, SVG Export Plug-In . SVG Version: 6.00 Build 0)  -->
<svg version="1.1" id="Layer_1" xmlns="http://www.w3.org/2000/svg" xmlns:xlink="http://www.w3.org/1999/xlink" x="0px" y="0px"
	 viewBox="0 0 500 500" style="enable-background:new 0 0 500 500;" xml:space="preserve">
<style type="text/css">
	.st0{fill:#FFFFFF;}
</style>
<title>Logos/Clubs/CIN/Primary</title>
<desc>Created with Sketch.</desc>
<g>
	<path class="st0" d="M230.1,355.8c-1.1-1.3-4-1.8-5.6-0.8c-0.7,0.5-1.5-0.1-0.6-1.1c1.8-1.6,5.2-1.5,6.8,0.8
		C231.6,356,230.7,356.8,230.1,355.8"/>
	<path class="st0" d="M232,361.2c1.9-4.1,0.4-9.3-4.6-9.5c-5.2-0.2-6.9,5-6,7.7c-1.8-1.7-1.2-9.4,6.2-9.5
		C232.8,350,236.4,356.7,232,361.2"/>
	<path class="st0" d="M226.7,355.9c-2.4,0-4.5,1.9-4.5,4.4c0,2.4,1.9,4.5,4.4,4.5c2.4,0,4.5-1.9,4.5-4.4c0,0,0,0,0-0.1
		C231,357.8,229.1,355.9,226.7,355.9 M226.6,363.7c-1.9,0-3.5-1.6-3.5-3.5c0-1.9,1.6-3.5,3.5-3.5c1.9,0,3.5,1.6,3.5,3.5
		C230.1,362.2,228.6,363.7,226.6,363.7C226.6,363.7,226.6,363.7,226.6,363.7"/>
	<path class="st0" d="M229.3,361.2c-1.7,3.3-5.5,1.2-5.2-0.8c0.1-0.4,0.3-0.2,0.4,0.1c1,1.5,3.6,1.6,4.4,0.5
		C229.3,360.4,229.3,361.2,229.3,361.2"/>
	<path class="st0" d="M160.9,368.1c-0.5-1.1-2.3-2.6-3.2-2.8c-1-0.2-0.6-1.8,0.6-1.4c1.2,0.6,2.3,1.4,3.2,2.5
		C162.5,368.2,161.3,369.1,160.9,368.1"/>
	<path class="st0" d="M162.2,373.6c5.4-7-5.1-15.1-9.2-8.7C156.4,354.4,170.3,367.7,162.2,373.6"/>
	<path class="st0" d="M159,367.8c-1.9-2-4.6-2.4-6.1-1.1c-1.5,1.4-1.2,4.1,0.7,6.1c1.9,2,4.6,2.5,6.1,1
		C161.2,372.5,160.9,369.8,159,367.8 M159,373.5c-1.2,0.9-3.3,0.2-4.8-1.2c-1.6-1.5-1.8-3.8-0.6-4.9c1.3-1.2,3.5-0.4,4.8,1.1
		C159.4,369.7,160.4,372.5,159,373.5"/>
	<path class="st0" d="M157.9,372.9c-2.5,0.2-4.8-2.8-3.8-4.2c0,0,0.7-1,0.8-0.1c0.2,1.5,1.8,3.1,3.3,3.5
		C158.6,372.2,158.7,372.8,157.9,372.9"/>
	<path class="st0" d="M143.7,380.7c-0.4,0.3-0.9,0.7-1.4,1c-6.1,4.4-20.5,9.8-33.3,11c-2.9,0.5-5.8,0.4-8.7-0.3
		c-0.2-0.1-0.4-0.1-0.6-0.2c-1.3-0.4-2.5-1-3.7-1.8c-0.4-0.3-0.8-0.6-1.2-0.9c-0.6-0.5-1.1-1-1.5-1.6c-2.3-2.7-3.1-6.2-2-9.2
		l-0.7-1.8c-0.1-0.3-0.5-1.1-1-2.2c-0.1-0.3-0.3-0.6-0.4-1c-0.2-0.4-0.3-0.7-0.5-1.1c-0.3-0.6-0.5-1.2-0.8-1.9
		c-0.3-0.7-0.6-1.4-0.9-2.1c-0.1-0.2-0.2-0.5-0.3-0.7c-0.2-0.5-0.4-1-0.6-1.5c-0.2-0.5-0.4-1-0.6-1.6c-0.3-0.8-0.6-1.6-0.8-2.4
		c-0.2-0.5-0.3-1.1-0.5-1.6c-0.2-0.8-0.5-1.6-0.7-2.3c-0.1-0.5-0.3-1-0.4-1.5c-0.5-2-0.7-4-0.6-6c2.8,5.2,5.5,9.6,7.8,13.1
		c2.3,3.5,4.3,6.2,5.6,7.8c0.4,0.5,0.8,1,1.1,1.3c0.1,0.1,0.2,0.2,0.3,0.3c0.1,0.3,0.1,0.6,0.2,0.9c-0.2,1.4,0.3,2.7,1.1,3.8
		c0.3,0.3,0.5,0.5,0.9,0.7c0.4,0.3,0.8,0.5,1.2,0.6c1.6,0.6,4.1,0.8,7.7,0.1c-1.4,2.6-4.3,3.5-7,3.1c-3.4-0.5-6.6-3.1-6.2-7.1
		c0-0.4,0.1-0.8,0.2-1.2c0-0.1,0-0.2,0-0.2c-1.5-1.8-4.7-7-5.7-8.6c0-0.1-0.1-0.1-0.1-0.2c-0.1-0.1-0.1-0.2-0.2-0.3c0,0,0-0.1,0-0.1
		c-0.1,0.3-0.1,0.6,0,0.9c0.1,0.5,0.2,1.1,0.1,1c0.3,0.6,0.7,1.4,1,2.1c1.4,2.8,2.9,6,2.9,6c-1.9,12.1,15.5,13.1,16.8,4.1
		c0,0,0,0,0.1,0c0,0,0,0,0,0c0.3-0.1,0.6-0.1,0.7-0.1c0.1,0,0.1,0,0.1,0c0.2,0,0.3-0.1,0.5-0.1c0.1,0,0.1,0,0.2-0.1
		c-0.3,1.7-1,3.3-2.1,4.6c-0.6,0.7-1.2,1.3-2,1.7c-0.2,0.1-0.3,0.2-0.5,0.3c-0.4,0.2-0.7,0.4-1.1,0.6c-1.2,0.8-1.9,1.7-2,2.5
		c0,0,0,0.1,0,0.1c0,0,0,0,0,0.1c0,1,1.2,1.7,3.9,1.5c6.5-0.5,12.9-1.9,19.1-4.1c3.1-1.1,6.1-2.3,9-3.8l1.9-1l0.7-0.4
		c-1.9-1.2-3.9-2.1-6-2.7c-2.7-0.7-5.4-1.2-8.1-1.3c-2.1-0.1-5.1,0.2-7.9,0.7c-0.8,0.1-1.5,0.3-2.2,0.4c-0.2,0-0.5,0.1-0.7,0.1
		c0.1-0.1,0.3-0.1,0.4-0.1c0.1,0,0.1,0,0.2-0.1c2.4-0.8,4.8-1.4,7.3-1.8C131.4,374.5,138.1,377.1,143.7,380.7"/>
	<path class="st0" d="M325.9,283.6c-6.9-7.6-3.5-38.2,8.7-39.6C326,250.1,323.4,271.9,325.9,283.6"/>
	<path class="st0" d="M456.7,376.3c-1.9-25.1-7.5-50.2-17-76.8l-1.2-2.8c-2.4-6.3-6.7-7.4-13.6-6.6l-5.9,0.6
		c-12.1,1.1-31.6,3.2-47.8,0.3l-22.1-52.4c-0.2,0-0.4,0-0.6,0c-0.4,0-0.9,0.1-1.3,0.1c6,14.2,25.7,61,25.7,61c-3.8,0.7-8,1-8,1
		l-24.9-58.5c-0.5,0.5-0.9,1-1.3,1.5c-0.1,0.2-0.2,0.3-0.2,0.3s8.3,19.9,17.7,42.2c-1-0.5-1.9-1-2.7-1.7c-4.4-2.7-14.5-10-23-22.7
		c0,0.2-0.1,0.3-0.1,0.5c-0.1,0.4-0.2,1.1-0.4,2c11.7,18.1,27.6,24.9,27.6,24.9l3.9,9.6c-15.7-4.6-28.9-18.8-32.5-23.1
		c0,0.4,0,0.8,0,1.2c0,0.3,0,0.7,0,1c8.5,10.8,20,19,33,23.5c-9.3,1.2-19.3,2.3-28.8,3.4c-1.8,0.2-3.6,0.4-5.4,0.5
		c-1.1-4.5-2.6-8.9-4.4-13.2c-8.9-21-33.2-11.4-31.5,1.3c-7.4-16.3-14.9-32.9-20.5-45.3c4-4.4,8.6-8.2,13.6-11.4
		c-3.2,1.5-6.2,3.4-8.9,5.6c-1.9,1.4-3.6,3-5.3,4.6c-0.4-0.9-0.8-1.9-1.2-2.8c2.9-2.8,6.2-5.3,9.7-7.4c0.5-0.4,1.6-1.1,1.6-1.1
		c8.8-4.8,14.2-7.3,28.2-9.1c0.1,0,3.5-0.5,3.5-0.5c2.4-0.4,6.9-1.3,8.2-3.7c0.7-1.3,1-3.1,0.9-5.3c0.8-0.2,1.7-0.3,2.5-0.5
		c0.4,7.4-3.3,10.3-9.8,11.6c-4.2,0.9-7.6,1-9.4,1.6l4,0.1c0.2,0,4.6,0,10.8-2.1c4.1-1.5,7.1-4.2,5.8-11.5c0.7-0.1,1.4-0.3,2.1-0.4
		c1.1,6.9,0.1,13.7-13.4,15c2.3,1.6,23.3-2.3,35.9,0.6c0.3,0.1,5.6,2-0.4,4.6c11.7-2.6,12.3-14.3,10.1-22.9l0.5,0.1
		c1.9,0.1,3.7,0.4,5.5,0.7c0,0,0,0,0,0c1.1,0.1,2.5,0.3,3.9,0.4c8.7,0.9,7.9-9.4,3.3-10.8c-1.7-0.5-3.5-0.9-5.3-1.2l-1.2-0.1
		l-10.9-24.3l6-2.8l15.6,28.1c7.2,11.5-4.8,16.2-11.4,12.8c-0.7,0.3-1.4,0.8-2,1.3c2,1.3,4.4,2,6.8,2c4.4,0,8.2-2,10-5.2
		c1.3-2.3,2.1-6.3-1.4-11.9l-16.5-29.9l-13.2,5.8c0.2,0,0.3,0.1,0.5,0.1c0.7,0.2,1.4,0.7,1.7,1.3l0,0l2.3-0.9v0l10.2,23.1
		c-0.5-0.1-1.3-0.2-2.1-0.3c0,0,0,0-0.1,0c-1.4-0.2-2.9-0.3-3.4-0.3c0,0,0,0,0,0h0c-0.2,0-0.3,0-0.5,0c-0.2,0-0.4,0-0.6,0
		c-0.7,0-1.4-0.1-1.4-0.1c-0.8-2.4-1.7-5.1-2.5-7.8c-0.7-2.2-1.5-4.4-2.2-6.4c-0.8-2.4-1.7-4.7-2.4-6.4c-0.4-0.1-0.7-0.1-1.1-0.2
		c-0.8-0.1-1.8-0.1-2.3-0.1h-0.2c0,0,0,0.1,0.1,0.1c0.7,1.4,2.2,5.3,3.6,9.6c1.4,4,2.8,8.2,3.8,10.7c0.1,0.5,0.3,0.9,0.4,1.2
		c0.7,1.7,1.2,3.5,1.6,5.3c0.3,1.1,0.4,2.2,0.4,3.3v0l-8.2-0.2l-1.9,0c-0.1-3-3-8.5-3-8.5l-2.5-5.1l-1.3-2.6l-1-2.2l-2.1-4.4
		l-1.8-3.8l0,0c-0.5-1-0.8-2.1-1.1-3.2c-0.1-0.4-0.2-0.9-0.2-1.3c-0.1-0.8-0.1-1.7,0.2-2.5c0-0.2,0.1-0.3,0.2-0.4
		c0.1-0.2,0.2-0.3,0.3-0.5l0,0c0.1-0.1,0.2-0.3,0.3-0.4c0.1-0.1,0.2-0.3,0.4-0.4c0.1-0.1,0.3-0.2,0.4-0.3c0.3-0.2,0.6-0.3,0.9-0.4
		c0.1-0.1,0.3-0.1,0.4-0.1c0.4-0.1,0.7-0.2,1.1-0.2c0.1,0,0.2,0,0.2,0c0.1,0,0.2,0,0.2,0c1.3,0,2.6,0.3,3.7,0.9
		c1.4,0.8,2.5,1.9,3.4,3.2h0c0.3,0,0.7,0,1,0h0.3c-1.5-3-3.2-5.9-5.1-8.7c-0.6-1-1.3-1.9-1.9-3c-10.5-15.1-23.8-28.2-39.1-38.5
		c-24.2-16.2-52.1-24.2-80.1-25c-14.6-0.4-29.3,1.2-43.5,4.6c2.9-0.4,5.7-0.8,8.5-1c1.7-0.2,3.4-0.3,5.1-0.5
		c18.6-1.4,35.9-0.1,51.8,3.5c3.5,0.8,6.9,1.7,10.3,2.7c2.2,0.7,4.4,1.4,6.6,2.2h0c2.2,0.8,4.3,1.6,6.4,2.5c3.2,1.3,6.3,2.7,9.3,4.2
		c2,1,4,2,5.9,3.1c2.9,1.6,5.8,3.3,8.5,5.1c1.8,1.2,3.7,2.4,5.4,3.7c4.4,3.1,8.6,6.5,12.6,10.2c0.1,0.1,0.2,0.2,0.3,0.3
		c0.1,0.1,0.3,0.3,0.4,0.4c5,4.6,9.7,9.6,14,14.9c4.2,5.3,8.1,10.8,11.6,16.6c-1.2,0.6-2.7,1.3-4.2,2.1c-1.5,0.8-2.9,1.5-3.8,2
		c-0.6,0-2.6,0-3.9,0c-0.3,0-0.6,0-0.9,0c-0.3,0-0.6,0.1-0.9,0.1h0c0,0-0.1,0-0.1,0c-0.3,0-0.5,0.1-0.7,0.2c-0.1,0-0.1,0.1-0.2,0.1
		c0,0,0,0-0.1,0c-0.5,0.4-0.7,1-0.6,1.7c0,0.8,0.2,1.5,0.4,2.2c0.5,1.7,0.8,2.7,1.1,3.6c0.2,0.7,0.5,1.3,0.8,2.1
		c0.1,0.2,0.2,0.5,0.3,0.8c0.5,1.4,1.4,3.6,2.3,6.1c0.9,2.5,1.9,5.4,2.8,8c-0.3,0.1-0.7,0.1-1,0.2c-0.3,0.1-0.7,0.1-1,0.2
		c-0.4-1-0.8-2.1-1.2-3.3c-0.7-1.9-1.5-4-2.3-6c-0.8-2.2-1.7-4.4-2.3-6.2c-0.5-1.6-1-2.8-1.2-3.6c0-0.1-0.1-0.2-0.1-0.3
		c-0.2-0.6-0.3-1.2-0.4-1.8c-0.1-0.8-0.2-1.6-0.1-2.4c0-0.5,0.1-1,0.3-1.5c0,0-2.8,2.2-0.3,8l2.3,6.5l3.9,10.9
		c-0.3,0-0.5,0.1-0.8,0.1c-0.6,0.1-1.1,0.2-1.7,0.4c-1.3-3.9-5.5-16-5.5-16c0-0.1-0.1-0.3-0.3-0.7c-0.5-1.1-0.8-2.3-1.1-3.5
		c-0.3-1.3-0.4-2.7-0.1-4.1c0.1-0.7,0.4-1.3,0.7-1.9c0.1-0.1,0.2-0.3,0.3-0.4c0.2-0.3,0.5-0.6,0.8-0.8c0.2-0.1,0.3-0.3,0.5-0.4
		c-1.1-1.8-2.2-3.7-3.5-5.5c-0.6-0.9-1.2-1.8-1.9-2.7c-0.3-0.4-0.6-0.9-0.9-1.3c-0.3-0.4-0.6-0.8-0.9-1.3c-0.6-0.8-1.3-1.7-1.9-2.5
		v0c-0.7-0.9-1.3-1.7-2-2.5c-0.3-0.4-0.6-0.7-0.8-1c0,0-0.1-0.1-0.1-0.1l0,0c-0.4-0.5-0.8-0.9-1.2-1.4c-1-1.1-1.9-2.2-3-3.3
		c-19.2-20.8-43.9-35.7-71.3-43c-0.2-0.1-0.4-0.1-0.6-0.2c-0.1,0-0.3-0.1-0.4-0.1c-18.6-4.7-39.3-6-61.6-2.2
		c-4.9,1.6-9.7,3.4-14.4,5.4c-1.9,0.8-3.8,1.6-5.6,2.5c-1.9,0.9-3.7,1.8-5.5,2.7c-1.8,0.9-3.6,1.9-5.4,2.9c-2.7,1.5-5.3,3.1-7.9,4.8
		c-15.6,10-29.1,22.8-40,37.8c-0.2,0.2-0.3,0.4-0.5,0.7c-0.1,0.1-0.1,0.2-0.2,0.3c-23.2,32.9-33.4,77-20.2,129.7
		C74.5,334.3,86.2,353.8,99,372c0,0-0.6,8.9,14.7,4.2c3.1-1,6.3-1.8,9.5-2.3c8.9-1.3,16.3,0.5,27.2,8.6c0.6,0.5,1.3,1,2,1.4
		c25.4,17.8,67.2,25.5,94.4,11.3c7-3.6,13.1-8.9,17.5-15.4c0.1-0.1,0.1-0.2,0.2-0.4c1.9-2.6,3.3-5.6,4.4-8.6
		c1.8-5.3,2.6-10.9,2.3-16.5c1.5,0.2,2.9,0.5,4.3,0.7c-0.5,5.7-1.7,11.3-3.8,16.6c-0.6,1.4-1.1,2.7-1.8,4.1l1.2,0.1
		c18.8,1.5,32.3-1.8,41.6-8.1c0.8,1.5,1.6,3,2.5,4.4c9.1,14.4,22.9,24,40.9,28.8c18.5,4.9,39.6,4.4,59.9-1.5
		c2.4,1.3,4.7,0.5,6.3-0.3c0.5-0.2,0.9-0.5,1.2-0.9c21.9-5,25.7-6.8,27-8.1c0.1-0.1,0.3-0.2,0.4-0.3
		C457,386.4,456.7,376.7,456.7,376.3 M372.1,205.6l0.1,0l0.1,0c1.5,0.2,2.4,2.2,2.3,3.8c-0.1,0.9-0.6,2.9-3.6,2.9
		c-2.7-0.6-9.9-1.3-13.5-1.6c0-3-1.9-7.4-1.9-7.4C359.6,203.7,369.9,204.9,372.1,205.6 M422,293.9c1.4-0.4,2.8-0.6,4.2-0.8
		c2.1,0.3,3,1.6,3.2,3.3c0.1,1.7-1.1,3.3-2.9,3.6l-1,0.2c-2.4,0.7-7.2,1.9-11.9,2.8c-3,0.6-5.7,1.1-5.5,0.9
		c-0.6-1.4-1.1-2.8-2.9-6.3C411,296.6,416.6,295.4,422,293.9 M434.4,328.1c0,0-13.2,3.4-16.3,3.6l-0.7-2c0,0,11.3-2.2,15.1-3.1
		c0,0,8-2.8,9.7,3.4c0,0,1.7,5.3-2.8,7.2c0,0-3.3,1.7-18.8,4.4c0,0-1.3-4.8-1.8-7.3c0,0,13-2.7,18.1-4.6
		C437,329.8,436.9,328.1,434.4,328.1 M416.3,327.3c-2.1-7.2-4.7-14.3-7.6-21.2c13.2-1.8,17.3-3.8,17.3-3.8l0.4,0
		c2,5.1,3.8,10.3,5.2,15.6l1.7,6.7C427.7,325.9,422,326.8,416.3,327.3 M416,293.1c-2.2,0.9-12.4,2.2-12.4,2.2
		c-0.8-0.7-1.8-1.1-2.9-1.3C404.8,294.2,416,293.1,416,293.1 M372.5,293.9c7.3,1.1,14.8,1.3,22.1,0.7c-1.2,0.1-2.2,1.1-2.3,2.3
		c-5.2,1.3-17.3,2.6-17.3,2.6L372.5,293.9z M344.8,214c0,0,6.1,0,9.2,0c0,0-2.3,4.3-12,3.6C342.1,217.6,344.7,215.8,344.8,214
		 M328,179.3l2.6-1.4c0,0,0.2-0.1,0.2-0.1c-0.1,0.3-0.1,0.6-0.1,1c0,0.9,0,1.4,1,4.1c1.5,4.2,9.6,20.9,10.5,23.3
		c4.7,12.1-7.4,14.3-8.6,9c12.8-1,7.6-14.4,0.3-12.5c-2.8-6.8-4.9-13.7-4.9-13.7S326.1,181.5,328,179.3 M324,188.4
		c-1.6-4.7-0.5-7-0.5-7l2.4-1.1c-1.1,3.5,1,8.9,1,8.9l5,13.9l-2.6,0.5C329.3,203.5,326,194.6,324,188.4 M271.6,221.1
		c12.9-5.4,39.6-12.3,62.7-16c2.5-0.3,4.5,1.4,4.8,3.1c0.2,1.6-0.6,3.4-3.6,3.9l-1.4,0.3c-18.5,3.7-39.4,7.9-57,15
		c-5.5,2-8.5,3.7-11.6,6c0,0-1.7-3.7-2.3-4.8c-1-1.7-1.1-1.9-1.9-2.4C263.9,224.6,267.1,223,271.6,221.1 M254.9,231.2
		c0.9-1.5,2.5-2.5,4.3-2.6c0.6,0,1.3,0.1,1.8,0.4l35.5,78.5c-2.9,0.1-5.8-0.1-8.7-0.6c-15.1-33.1-32.8-71.8-32.8-71.8
		C254.1,233.9,254.1,232.4,254.9,231.2 M259,295.8c-0.2-0.2-0.4-0.3-0.6-0.5c-0.8-0.7-1.6-1.5-2.5-2.3c-1.3-8.2-1.6-16.6,0.1-24.3
		c1-4.8,2.9-9.5,5.4-13.8l1.4,3.1C256.5,269.9,256.6,283.2,259,295.8 M264.1,260.7l21,46.2c-9.7-1.1-16-3.9-22.6-8.6
		C260,285.7,259.3,272.9,264.1,260.7 M245.2,241.9c0.8-1.2,1.9-2.8,3-4.2c0.2-0.2,0.4-0.5,0.5-0.7c1.7-2.2,3.2-4,3.6-4.4
		c0,1.4,0.2,2.7,0.9,4c0.8,1.7,2.5,5.8,2.5,5.8c-0.2,0.3-3.9,4.9-6,8.2l-13.5,22.1l-3.6-4c0,0-1.5-1.9-3-1.9
		C236.6,255.3,243.1,245.2,245.2,241.9 M213.3,293.4L213.3,293.4l0.1-0.1c0.1-0.2,2.2-3.6,9.9-16.1c1.8,2.4,3.8,4.6,6,6.6l-9.3,14.8
		c-1.3,1-3.9,0-5.6-1.6C214.1,296.6,212.3,294.7,213.3,293.4 M238.3,311.1c-3.4-2.2-16.4-11-16.4-11l1.4-1.3
		c5.9,3.8,13.7,8.9,17,11.4c6,4.6,2.8,10,2.8,10C243.6,317,242.1,313.7,238.3,311.1 M210.4,294.1c-0.2,4.4,6.5,8,9.7,7.1l17.1,11.5
		c2.6,1.8,5.1,5,3.6,9.3c-0.2-4-5.2-7.2-5.2-7.2s-18.4-10.8-24-14.4C208.4,298.4,208.7,295.6,210.4,294.1 M201.8,307.8
		c3.4-4.8,5-7.5,5.8-8.8c0.7,1.6,3,2.9,3,2.9c5.7,3.6,17.7,10.8,21.1,12.7c3.7,2.1,4.4,3,4.4,3c4.3,4.1,3.5,8.1,1.4,11
		c-2.4,3.2-6.9,5.2-10.7,2.7l-5.2-3.2l-1.9-1.1l-16-9.9l0,0l-0.1,0c0,0-2.7-1.2-3.3-3.7C199.8,311.8,200.4,309.9,201.8,307.8
		 M205.6,321.1c-2.6,3.8-11.8,17.5-11.8,17.5c-0.7,1-1.9,1.6-3.2,1.4c-1.9-0.1-3.8-1.3-4.5-2.8c-0.4-0.9-0.3-1.9,0.3-2.7l12.2-18.6
		C199.5,317.5,205.6,321.1,205.6,321.1 M159.6,304.4c3-3,7.1-4.7,11.3-4.6c5.1,0.1,10,2.3,13.5,6.1c3.5,3.7,5.5,8.5,5.7,13.6
		l-10.8,16c-1.7,0.6-3.4,0.8-5.2,0.8c-5.1-0.1-10-2.3-13.5-6.1C153.5,322.7,153.1,311.1,159.6,304.4 M203.7,352.4
		c-13.5,14.3-40.2,14.2-55.4-5.3C174,370.9,198,355.2,203.7,352.4 M154.1,360.1c3-2.1,7.7-0.8,10.3,2.9c2.7,3.8,2.5,8.5-0.3,10.9
		c-1.2,0.9-2.8,1.4-4.4,1.2c-1.8,1.1-4.6,0.5-6.6-1.6c-1.9-1.9-2.4-4.5-1.5-6.3C151.3,364.4,152.1,361.6,154.1,360.1 M201.6,395.7
		c-16.9-0.6-34.9-8.8-45.6-14.7c-4.9-3.3-18.9-11.1-25.6-12.6c5.8,0.3,20.3,7.9,26.4,11.4c12.5,6.4,29.9,12.6,44.7,13.2
		c27,2.5,57.7-11.3,60.9-40.2c1.1,0.2,2.3,0.4,3.3,0.6C264.7,376.2,242,398.2,201.6,395.7 M219.3,356.6c0-4.4,3.6-8,8.1-8
		c4.4,0,8,3.6,8,8.1c0,3.2-1.9,6.1-4.9,7.4c-1.9,2.1-5.2,2.2-7.3,0.3c-0.5-0.5-0.9-1.1-1.2-1.7C220.2,361,219.3,358.9,219.3,356.6
		 M423.4,393.3c-0.1,1.7-0.8,3-2.1,3.7c-1.8,0.7-3.9,0.7-5.6-0.2c0,0-0.1,0.3-2.9,1.3c-18.8,4.8-39,5.1-56,0.6
		c-15.4-4.1-33.7-13-43.8-35.4c-0.6-1.2-1.2-2.4-1.6-3.6c0,0,5.2,0.1,8.6-0.2c15.7,33.7,56.2,39.9,90.9,31.1c0,0,3.2-0.5,4.1-1.5
		c0.7-1.7,0.6-6,0.6-6c0-1-0.8-21.7-4.7-35.5c-0.3-1.5-0.8-2.4-1.2-2.7c-0.6-0.2-1.2-0.4-1.8-0.4c-1.4,0-2.9,0.1-4.3,0.4
		c-21.4,5.1-54.5,9.3-80.7,12c0,0-2.1,0.3-5.6,0.4l-2.8,0.1c-7,0-14-0.5-20.9-1.7c0,0-97.5-15.9-97.1-15.9l5.2-7.1
		c0,0,93.9,15.4,93.9,15.4c14.3,2.1,21,1.1,21.2,1.1c25.3-1.4,72.1-8.3,83.4-11.4c0,0,6.1-1.5,6.9-2.2c0.5-0.5-0.8-5.1-0.8-5.1
		c0,0-0.1-0.3-0.2-0.7c-0.1-0.2-0.1-0.5-0.2-0.8c-0.1-0.5-0.3-1-0.5-1.6c-0.1-0.4-0.3-0.9-0.4-1.3c-0.2-0.7-0.5-1.5-0.7-2.3
		c-0.2-0.5-0.3-1.1-0.5-1.7c-0.1-0.4-0.3-0.9-0.4-1.3c-0.2-0.7-0.5-1.4-0.7-2.2c-0.7-2.2-1.4-4.3-2.1-6.2c-0.1-0.3-0.2-0.6-0.3-0.9
		c-0.3-0.7-0.5-1.4-0.7-2c0,0,0,0,0,0c-0.1-0.1-0.1-0.3-0.2-0.6c0-0.2-0.1-0.3-0.2-0.5c-0.1-0.3-0.3-0.7-0.4-1
		c-0.1-0.2-0.2-0.3-0.2-0.5c-0.1-0.1-0.1-0.3-0.2-0.4c-0.2-0.4-0.5-0.6-0.8-0.8l-0.8,0c0,0-1.4,0.3-3,0.6c-1.5,0.3-3.1,0.6-4.7,0.8
		c-0.6,0.1-1.3,0.2-1.9,0.3c-0.4,0.1-0.8,0.1-1.2,0.2c-0.4,0.1-0.8,0.1-1.2,0.2c-0.2,0-0.5,0.1-0.7,0.1l0,0
		c-0.6,0.1-1.2,0.2-1.7,0.3c-0.9,0.2-1.7,0.3-2.6,0.4c-2,0.3-4.1,0.6-6.3,1c-3.1,0.5-6.2,0.9-9.5,1.4c-0.8,0.1-1.6,0.2-2.4,0.3
		c-0.5,0.1-1,0.1-1.5,0.2c-1.9,0.3-3.7,0.5-5.6,0.8c-1,0.1-2,0.3-3,0.4c-1.4,0.2-2.8,0.4-4.2,0.6c-2.1,0.3-4.2,0.5-6.3,0.8
		c-1.4,0.2-2.8,0.3-4.1,0.5c-8.1,1-16,1.8-22.8,2.3c-0.7,0.1-1.4,0.1-2,0.1c-1.3,0.1-2.6,0.2-3.8,0.3h0c-0.1,0-0.1,0-0.2,0l0,0
		c-1.7,0-11.1,0.3-18.6-0.2c-12.9-0.7-27.1-3.9-41.3-19.3c-0.1-0.1-15.9-15.1-22.2-22.1c-1.4-1.9-1-4.6,0.9-6
		c1.2-0.9,3.5-1.4,4.8,0.1c2.8,3.7,18.7,20.1,26.5,27.5c8.7,6.8,15,10.3,27.1,11.7c4.9,0.5,9.8,0.7,14.7,0.7
		c16,0.4,74.4-6.7,91.5-10.1c1.2-0.1,2.4-0.4,3.5-0.8l0-0.3l0.1-0.7c0-0.2,1-1,1.9-1.4c1.8-0.8,3.9-0.6,5.4,0.7
		C414.1,319.8,426.2,361.6,423.4,393.3 M412.6,367.3c0.3,2.6,0.5,9.3,0.5,9.3c-17.6-8.6-26.9-25.6-26.9-25.6
		c1.6-0.3,8.2-1.8,8.2-1.8C401.4,359.7,412.6,367.3,412.6,367.3 M396.9,348.6c3.6-0.7,7-1.5,10.1-2.2c0.4-0.2,0.9-0.1,1.2,0.1
		c0.5,0.5,0.8,1.1,0.8,1.8l0,0.1l0,0.1c1.2,4.1,2.1,9.6,2.7,15C406,359.4,401,354.3,396.9,348.6 M413.2,379.3c0.2,3,0.3,5,0.3,5
		c0,2.5-1.4,3.4-1.6,3.6c-32.1,8.7-70.3,4.3-87.6-23.8c-0.6-1-1.2-2-1.8-3.1l-0.8-1.6c1.4-0.2,2.1-0.3,2.1-0.3
		c1.4-0.1,2.9-0.3,4.4-0.4c17.2-1.9,37.8-4.6,55.5-7.6C391.6,365.1,402.3,374.3,413.2,379.3 M266.1,314.2c8.2,3.5,16.2,4.6,23.5,5
		c0.3,0,0.7,0,1,0.1l0.5,1.1c-2.9,7.7-8.3,16-15.3,21c0,0.4,0,0.8,0.1,1.2c-2-0.3-4.2-0.7-6.4-1c-0.5-2.5-1.1-4.8-1.5-6.8
		c-0.9-4.1-4.6-12.9-7.8-23.6c1.1,0.7,2.3,1.3,3.4,1.8c3,9.3,6.4,17.6,7.8,23.7C270.3,329.6,268.2,322,266.1,314.2 M264.6,340.8
		c-0.8-0.1-1.6-0.2-2.4-0.4c-1.3-9.5-4.4-18.3-6.3-25.9C259.8,322.9,262.8,331.7,264.6,340.8 M292.6,319.5c2.9,0.3,5.9,0.4,8.8,0
		l12.8,27.6c0,0-3.2,0.6-8.8,0.2C302.9,342.4,300,335.7,292.6,319.5 M330.2,317.3c1.7-0.2,3.5-0.4,5.3-0.6
		c10.6-1.2,21.6-2.6,31.8-4.1c2.2,5.3,4.3,10.2,6.2,14.7l-37.6-6.6c0,0.2,0,0.4,0,0.7c0,0.4,0,0.8,0.1,1.2l38.1,6.5
		c0.7,2.1,3.5,8.3,3.5,8.3l-41.5-7.1c0,0.4,0,0.8,0,1.3c0,0.2,0,0.4,0,0.6l40.9,7c-13.7,2.3-27.8,4.5-43.1,6.1
		c-1.8,0.2-3.7,0.4-5.5,0.6C331.1,336.9,331.4,326.9,330.2,317.3 M386.8,328.4l-7.4-17.6c5-0.8,9.6-1.6,13.6-2.3l0.1,0l0.1,0
		c0.8-0.3,1.8-0.3,2.6,0c0.7,0.4,1.2,1.1,1.5,1.8l0,0.1l0,0c1.6,4.1,4.6,13,6.2,17.7C397.1,328.4,391.3,328.4,386.8,328.4
		 M404.4,330.5c1.2,4.3-2.9,4.5-2.9,4.5l-11,2.2l-2.9-6.7C397.4,330.6,404.4,330.5,404.4,330.5 M388.6,337.7
		c-1.3,0.6-7.7,1.5-7.7,1.5c-1.5-2.9-11.2-26.6-11.2-26.6c1.2-0.1,7.6-1.2,7.6-1.2C380.7,320.4,384.4,329.1,388.6,337.7 M420.7,344
		c5.1-0.9,14.4-3.3,17.8-4.1l0.3,1.5c1.8,9.5,4.4,23.9,5.4,32.8c0.1,0.7,0,1.5-0.1,2.2c-1.1-0.2-2.2-0.4-3.3-0.4
		c-5.4-0.9-10.7-2.4-15.7-4.6C424.2,362.1,422.7,353,420.7,344 M443.1,391c-4.1,1.2-17.5,4.7-17.5,4.7c0.7-3.2,0.6-8.3,0.6-8.3
		c25.7-5.5,1.3-7.8,1.3-7.8c5.7,1.7,5.5,3.8,5.5,3.8c-2.5,0.2-6.8-1.2-6.8-1.2c0.1-1.6-0.3-8.1-0.3-8.1c6.7,2.9,7.8,2.1,14.7,3.6
		c7.1,1.6,3.6,4.5,3.6,4.5c-0.1,0.1-0.2,0.3-0.4,0.4c-0.1,0.1-0.2,0.2-0.3,0.3c-0.1,0.1-0.3,0.2-0.4,0.4c-0.1,0.1-0.3,0.2-0.4,0.3
		c-0.3,0.2-0.6,0.4-0.9,0.6c-0.3,0.2-0.6,0.4-1,0.5c0,0-0.1,0-0.1,0.1c-0.3,0.1-0.7,0.3-1,0.5c-0.1,0-0.2,0.1-0.3,0.1
		c-0.3,0.1-0.6,0.2-0.9,0.4c-0.4,0.1-0.8,0.3-1.2,0.5c-0.8,0.3-1.7,0.5-2.5,0.8c-0.4,0.1-0.7,0.2-1.1,0.3c-0.5,0.1-0.9,0.2-1.4,0.3
		c-0.4,0.1-0.9,0.2-1.3,0.3c-0.3,0.1-0.6,0.1-0.9,0.2c-0.8,0.1-1.5,0.3-2,0.4c0.3,0,0.6-0.1,0.8-0.1c1-0.2,2-0.3,2.9-0.5
		c1.8-0.3,3.4-0.7,4.8-1c0.3-0.1,0.7-0.2,1-0.3c0.6-0.2,1.2-0.3,1.8-0.5c0.3-0.1,0.6-0.2,0.9-0.3c0.7-0.3,1.5-0.5,2.2-0.9
		c0.2-0.1,0.4-0.2,0.5-0.2c0.3-0.2,0.6-0.3,0.9-0.5c0.4-0.2,0.7-0.4,1-0.6c0.2-0.2,0.5-0.3,0.7-0.5c0.1-0.1,0.2-0.2,0.4-0.3
		c0.2-0.2,0.4-0.4,0.6-0.6c0.1-0.1,0.1-0.2,0.2-0.3c0.1-0.1,0.2-0.3,0.3-0.5c0.1-0.1,0.1-0.2,0.2-0.3c0.1-0.2,0.2-0.4,0.2-0.6
		c0-0.1,0-0.2,0-0.3c0-0.2,0-0.4,0-0.6C456.7,385.5,447.7,389.7,443.1,391 M453.5,382.6c0-1.7-2.7-5-7.4-6c0.1-1.3,0-2.7-0.1-4
		c-1.2-11.8-5.4-33.4-5.4-33.4c6.6-2.1,6-15.6-5.2-15.5c-1.7-7.5-3.9-14.8-6.6-22c6.1-3.3,3.3-9-0.1-10c0,0,6.1-1.3,8.9,9.3
		C447.9,329.7,455.8,369,453.5,382.6"/>
	<path class="st0" d="M234,318.9c-1.8-1.6-4.2-2.3-6.6-2.1c-0.9-3.5-4.3-5.9-7.9-5.7h-0.1c-4.5,0.3-5.5,2.7-6,4.1
		c0,0-1.2,3.1,0.5,5.7c0,0,2.2,4.3,7.9,3.4c0.2,0.6,0.5,1.2,0.8,1.8l0,0c0.5,0.9,1.3,1.7,2.2,2.3c6.7,4,10.5-1.1,10.5-1.1
		C235.4,327.3,238.5,323.3,234,318.9 M221.8,312.6c2.5,0.8,4.3,3,4.2,5.2l0.3,0c-0.2,1.6-1.9,3.9-5.5,3.3c-0.2-0.7-0.2-1.5-0.2-2.2
		c0.6,0.2,1.3,0.3,1.9,0.3c0-0.3,0-0.7,0.1-1c-0.7-0.1-1.4-0.3-2-0.6C220.6,315.9,221.1,314.1,221.8,312.6 M216,313.6
		c1-1,2.3-1.4,3.7-1.3c-0.7,1.1-1,2.8-1.1,4.5c-0.3-0.3-0.6-0.3-1-0.7v1.2c0.2,0.4,0.6,0.5,1,0.8c0,0.9,0.1,1.7,0.3,2.6
		c-0.2-0.1-0.3-0.3-0.6-0.4C214.9,318.4,216,313.6,216,313.6 M222.7,322.9c-4.7,1.4-10-2.4-8-7.7c-0.6,7.3,6.1,8.3,9.8,7
		c0.8,5.9,5.9,6,8.4,5.7C229.8,329.7,223.8,328.4,222.7,322.9 M234.2,326.5l-0.9,0.1c-4.4,0.6-6.9-1.2-7.6-5.1
		c1.1-0.9,1.8-2.2,2.1-3.6C232.8,317.8,236.7,322.8,234.2,326.5"/>
	<path class="st0" d="M347.1,193.3c-0.8-3.6-1.9-5-3.5-6.6c0-0.2,0-0.4,0-0.6c0-5.2-2.9-8.8-5.5-9.2c-0.6-0.1-1.2,0-1.7,0.2
		c-0.1,0-0.1,0.1-0.2,0.1c0,0,0,0-0.1,0.1c-0.1,0.1-0.2,0.2-0.3,0.3l0,0c-0.3,0.7-0.5,1.4-0.4,2.1c0,0.6,0.1,1.2,0.2,1.8
		c0,0,0,0.1,0,0.1c0,0.1,0.1,0.3,0.1,0.6c0.3,1,0.8,1.9,1.4,2.8c0.1,0.2,0.2,0.3,0.4,0.5c0.6,0.8,1.2,1.5,2,2.2
		c-0.1,1.3-0.1,2.6,0.2,3.9l0.1,0.2c0.4,1.6,1.2,3.1,2.3,4.3C345.1,199.5,348,197.4,347.1,193.3 M340.1,186.3
		c-1.5-1-3.7-4.2-3.4-6.8C340.2,179.5,341.2,184.6,340.1,186.3 M343.7,195.7c-1.8-1.7-2.8-4-2.8-6.4
		C343.7,189.9,345.3,193.3,343.7,195.7"/>
</g>
</svg>
