<?xml version="1.0" encoding="utf-8"?>
<!-- Generator: Adobe Illustrator 23.0.3, SVG Export Plug-In . SVG Version: 6.00 Build 0)  -->
<svg version="1.1" id="Layer_1" xmlns="http://www.w3.org/2000/svg" xmlns:xlink="http://www.w3.org/1999/xlink" x="0px" y="0px"
	 viewBox="0 0 500 500" style="enable-background:new 0 0 500 500;" xml:space="preserve">
<style type="text/css">
	.st0{fill:#FFFFFF;}
</style>
<title>Logos/Clubs/DAL/Primary</title>
<desc>Created with Sketch.</desc>
<g>
	<path class="st0" d="M489.1,196.7H307.4L249.5,23.6l-57.9,173.1H10l148.8,106.6l-57.1,173.2l147.8-105.6l147.9,105.4l-57.2-173
		L489.1,196.7z M385.1,459.7l-135.5-96.8L114,459.7l52.4-158.9L30.1,203.2h166.2l53.2-158.9l53.2,158.9H469l-136.3,97.6L385.1,459.7
		z"/>
	<path class="st0" d="M427,216.8H292.3L249.5,88l-42.8,128.7H72.1l110.5,79.1l-42.5,128.7l109.8-78.4L359,424.6l-42.5-128.7
		L427,216.8z"/>
</g>
</svg>
