<?xml version="1.0" encoding="utf-8"?>
<!-- Generator: Adobe Illustrator 23.0.3, SVG Export Plug-In . SVG Version: 6.00 Build 0)  -->
<svg version="1.1" id="Layer_1" xmlns="http://www.w3.org/2000/svg" xmlns:xlink="http://www.w3.org/1999/xlink" x="0px" y="0px"
	 viewBox="0 0 500 500" style="enable-background:new 0 0 500 500;" xml:space="preserve">
<style type="text/css">
	.st0{display:none;}
	.st1{fill:#FFFFFF;}
</style>
<rect class="st0" width="500" height="500"/>
<title>Logos/Clubs/DEN/Alternate-1</title>
<desc>Created with Sketch.</desc>
<g>
	<path class="st1" d="M101.7,240.5c34.9-16,70.6-26.1,106.5-30.2c-9.7-16.6-38.3-18.6-80.6-5.6c-27.1,8.3-46.4,8.2-58.9-0.3
		c-10.6-7.2-17-20.2-17.6-42.2c-8.2,25.5-4.2,45.7,7.6,59.3C68.2,232.2,84.2,239.3,101.7,240.5"/>
	<path class="st1" d="M149.6,190.1c20.7-8.5,38.1-11.1,51.6-7.7c12.2,3,23.4,12.7,30.1,26c22.4-0.9,44.8,0.6,66.9,4.8
		c-11.2-17.4-24.8-32.3-39.3-43.1c-11.8-8.9-24.2-15-36.9-18.3c-15.3-4-31.3-3.9-47.4,0.4c-10.5,2.8-34,14.4-42.9,19
		c-23.2,12-38.2-3.6-43.8-9.4l-0.2-0.2c0.8,5.1,2.2,10.2,4.2,14.9c3.2,7.3,7.9,12.9,13.8,16.2C116.1,198.6,131,197.8,149.6,190.1"/>
	<path class="st1" d="M488.2,329.3c0.1-3.8,0.6-7.5,1.8-11l-9.8-4.5l0,0l0,0c-6-6.6-71.4-47.6-72-48.1l-0.2-0.2l0.2-0.1l4.9-3.2
		l-44.3-18.8h-0.1l0,0c-17.9-26.9-53.5-28-60.3-27.9c13.5,4.2,17.6,8.3,18.7,11c0.4,1,0.4,2.1,0,3l-0.1,0.1h-0.1
		C174,187.9,48.9,283.8,43.7,287.9c6,6,19.4,14.3,67.9,24.9c10.8-8.4,62.4-45.1,140.3-43l-12.7-19.2c0,0,48.2,12.5,75.7,27.9
		c-2.5,23.9,14.9,45.1,38.7,47.6c11.8,1.2,23.5-2.5,32.6-10.2l34.6,22l-33.2-12.9c-25.3,18.3-60.6,12.6-78.8-12.6
		c-5.9-8.1-9.5-17.7-10.5-27.8c-74.7-18.8-129.8,28.5-140.8,38.9c8.4,2.6,16.6,5.8,24.5,9.6c8.6,4.1,16.8,9.1,24.4,14.9
		c5.5-6.8,27.5-29.9,69.9-30.2c0,0-41.6,10.8-54.8,44.6c11.8,13.6,17.8,28,22.5,41.8c1-12.7,5.3-25.1,12.5-35.6
		c5.9-8.6,13.8-16.4,23.7-23c10.2-6.9,21.3-12.1,33-15.4h0.1l0.1,0.1c33.7,27.1,70.7,5.7,71.1,5.5h0.1h0.1c10.4,4,19.1,8.4,26,13.2
		c5.5,3.9,9.8,7.9,13,12.1c4.8,6.5,4.9,11.2,4.9,12.2l25.1,1.6l7.3-6.3c-22.8-2.9-29.7-10-31.1-16.1c-2.5-14.7,12.5-16.4,19.3-15.6
		c15.9,2.1,35.2,16.3,42.4,26.2l5.4-14.5C489.6,343,488,335,488.2,329.3 M333.4,232c21.9,0.4,0.1-8.9,0.1-8.9s15.8,2.4,24.9,17.1
		C349.9,237,340.4,233.7,333.4,232 M393.2,267.1c1.3,0.6,2.7,1.4,4.1,2.2l-5.6,4.1L393.2,267.1z M399.1,277l-5.5,3.8
		c0,0-8.6-11.2-29.1-24.7c0,0,8.7,1.3,25.6,9.5c-2.3,2.2-2.4,5.7-0.2,8c2.2,2.3,5.7,2.4,8,0.2c1-0.9,1.5-2.1,1.7-3.3
		c13.4,7.5,30.3,18.6,50.8,35.2L399.1,277z M480.9,319.5c-12.1,4.9,3.5,18.7,3.5,18.7C450.5,311.4,480.9,319.5,480.9,319.5"/>
	<path class="st1" d="M36.9,242.9c-21.5,11-34.2-1.2-34.2-1.2s9.8,50.7,82.6,8.9C65.1,244.2,61,230.6,36.9,242.9"/>
</g>
</svg>
