<?xml version="1.0" encoding="utf-8"?>
<!-- Generator: Adobe Illustrator 23.0.3, SVG Export Plug-In . SVG Version: 6.00 Build 0)  -->
<svg version="1.1" id="Layer_1" xmlns="http://www.w3.org/2000/svg" xmlns:xlink="http://www.w3.org/1999/xlink" x="0px" y="0px"
	 viewBox="0 0 500 500" style="enable-background:new 0 0 500 500;" xml:space="preserve">
<style type="text/css">
	.st0{fill:#FFFFFF;}
</style>
<title>Logos/Clubs/DET/Primary</title>
<desc>Created with Sketch.</desc>
<path class="st0" d="M486.8,272.9c-7.1-7.4-12.1-9.1-17.8-9.6c-0.5,0-1.1-0.1-1.7-0.1c-1.3,0-2.7,0.1-4.3,0.3
	c-3.3-4.4-7.8-6.9-10.9-7.7c-0.5-0.1-1.1-0.3-1.7-0.4c-2.4-0.5-6.1-1.4-12.5-4c-3.6-1.5-7.3-4.1-10.2-6.3c2.2-3,4.7-6.5,6.3-8.7
	c2.4,1.2,5.5,2.4,8.7,2.6c0.7,0.1,1.4,0.1,2.1,0.1c3.7,0,7.6-0.7,10-1.1c2.6,0.9,6.3,2,10.3,2c2.2,0,4.3-0.3,6.2-1
	c6.4-2.1,10.1-7.7,11.8-11.2c2.2-1.4,5-3.6,6.6-6.9c1.6-3.2,1.7-6.7,1.5-9.2c4.5-7.9,2.2-16.5-6.2-23.1c-5.6-4.5-12.4-6.1-16.9-6.1
	c-0.4,0-0.8,0-1,0c-0.9,0-1.9,0.1-2.8,0.1c0,0-0.1,0-0.1,0c-2.5-2.3-5.6-3.8-9-4.5l-0.1,0l-0.2,0c-0.8-0.1-1.6-0.2-2.4-0.2
	c-5.2,0-9.7,2.3-12,4.1c0,0,0.1-0.1,0.1-0.1c3.4-5,5.7-11.2,6.6-14c1.4-1.5,4.7-4.5,7.8-6.9l6.3-5l-5.8-5.5
	c-0.8-0.8-8.4-8-14.3-12.4c-7-5.2-20.8-11.2-21-11.3l-0.3-0.1c-0.2-0.5-0.7-1.8-0.8-2.3l-0.4-1.1c-1.2-3.3-5.5-8.5-10-10.8
	c-1.9-1-5.3-2.5-8-3.7c-2.6-6.7-8.6-11.5-17.7-14.3c-5.2-1.6-18.1-5.9-24.5-8.8c-4.7-2-15.6-9.5-21.4-13.7l-8.2-5.9l-2.7,9.7
	c-0.4,1.3-0.7,2.9-0.9,4.7c-7.5,0.5-14,2.4-14.2,2.5l-19,5.6l15.4,6.4c-5.7,0.1-13.9,0.8-22.3,3.7c-12.6,4.5-22.6,16.6-25.6,20.5
	c-2.1,1.7-4.5,3-6.9,3.9C248,124.4,241,125,241,125l-7.4,0.7l1.1,7.3c0.4,3,1.9,6,3.3,8.2c-1.6,2.8-2.9,5.8-3.9,8.9l-0.1,0.2
	c-1.1,3.7-1.7,7.6-1.8,11.6c-8.6,8-15.3,18.2-16.8,25.6c-0.3,1.3-0.5,2.6-0.5,4l-3.3-0.6l-0.1,8.2c-0.1,5.5,1.8,10.3,3.6,13.6
	c-1.8,2.4-3.9,5.2-5.2,6.9c-2,2.9-7.5,12.5-9.5,15.9c-3.3,2.7-11.1,9.4-13.9,11.8c-3.2,1-6.8,2.2-8,2.6l-0.7,0.2
	c-2.8,0.8-8,2.2-13,5.5c-3.8,2.5-11.5,10.2-16.3,15.1c-2.8-0.6-8.9-2.2-14.6-6.2c-5.2-3.7-9.7-13.5-11.1-19.4
	c-1.4-5.7-4.1-16.2-13.1-27.3c-6.3-7.7-15.3-13-20.6-15.7c-1.1-3.9-3.6-10.3-9.3-14.8c-4.4-3.5-10.1-5.2-16.9-5.2
	c-4.8,0-10.2,0.9-16,2.6c-10.5,3.2-25,13.1-25.6,13.5L1.4,212l24-1c2.3,0,11.7,1.9,14,3.6c0.9,0.6,2.3,2.4,3.6,4.1
	c3.5,4.3,7.8,9.7,14.6,12.6c3.4,1.5,7,2.2,10.6,2.2c1.9,0,3.9-0.2,5.7-0.7c7.1,4.6,9.8,11.3,12.3,21.9l0.5,2.1
	c2.7,11.7,5.1,21.8,15.8,34c7.9,9,21.5,14.4,29.9,17c-0.6,5.9-0.9,13.9-1.2,21.1l0,0.7c-0.2,4.3-1.4,10.4-3.1,15.2
	c-1,2.7-2.9,4.3-5.4,6.4l-0.9,0.7c-2.4,2-8,7.3-9.2,13.5c-0.7,3.9,0.5,8.9,3.7,14.7c0.2,0.4,0.3,0.8,0.3,1.3l0,0.3
	c0,0.4-0.1,3.1-0.2,5.6c-0.3,7.5-0.9,20.1-0.8,24.7c0.2,9.4,7.4,18.4,16.5,20.3c1.5,0.3,3.1,0.5,4.7,0.5c3.7,0,6.9-0.8,9-1.6
	c1.1,0.2,2.2,0.3,3.4,0.3c2.4,0,4.7-0.4,6.9-1.2c4.5-1.8,7.1-5.5,8.6-8.6c7.1-4.5,7.3-12.6,7.4-16.1l0-0.1c0-5.6-2.4-10.9-6.6-14.5
	c-1.3-1.2-3.2-2.2-5.5-3c0-1.1-0.1-2.4-0.1-3.7c1.9-1.5,3.9-2.9,6.2-4.3c2.7-1.7,7-3.8,11.1-5.9c4.5-2.3,8.8-4.4,11.7-6.2
	c1.4-0.9,2.7-1.8,3.9-2.8c0.2,0.5,0.4,0.9,0.6,1.3c3.8,7.1,10.3,11,18.3,11c4,0,13.1-0.6,19.8-1.1c2.4-0.2,5.4-0.4,6.1-0.4l0.2,0.2
	l0.3,0.1c0.1,0,0.4,0.2,0.4,0.2c3.9,2.3,9.1,4.9,14.3,4.9c0.3,0,0.6,0,1,0l0.2,0c3.2-0.3,6.4-1.2,9.2-2.5c1.5,0.2,3.6,0.4,5.8,0.4
	c3.3,0,6.2-0.4,8.5-1.3c5.5-2,8.2-6.6,9.5-9.5c4.9-3.3,7.7-8.1,8-13.6c0.3-6.8-3.9-14.2-11.2-19.9c-1.6-1.2-3.3-2.1-5.2-2.8
	c4.5-2.1,9.9-5.5,12.6-9.1c3.5-4.5,6.6-15.2,7.5-19.9c0.2-0.9,0.3-1.8,0.4-2.8c7-1,12.5-2.5,16.3-4.3c5.2-2.4,16.7-8.6,22.5-11.8
	c4,3.5,5.4,7.1,5.4,7.1l1.6,4.8l5.1-0.1c6.4-0.1,13.6-2.4,17.8-4c9.8,5.1,28.1,9.9,38.4,9.9c6.5,0.1,13.1,2,16.1,3
	c1.7,2.6,5.1,6.7,10.4,9.3c5,2.5,11.2,3,15.6,3c0.3,0,0.6,0,0.9,0c2.2,1.3,6.1,3.1,10.8,3.1c1.6,0,3.2-0.2,4.6-0.6
	c2.9-0.8,5.6-2.3,7.8-4.5c2.5-0.4,5.9-1.4,8.9-4.1c3.1-2.8,4.6-6.6,5.3-9.6c1.6-1.4,3.6-3.5,4.7-6.1
	C494.5,289.9,494.6,281,486.8,272.9z M487.1,293.5c-1,2.4-3.4,4.4-4.7,5.3c-0.3,1.9-1.2,6-4.1,8.6c-2.7,2.5-6,2.9-7.9,2.9
	c-1.7,2.2-4,3.8-6.7,4.5c-1,0.3-2.1,0.4-3.3,0.4c-3.7,0-7.2-1.5-9.4-3.1c-0.5,0-1.3,0.1-2.2,0.1c-3.8,0-9.2-0.4-13.3-2.5
	c-5.3-2.6-8.3-7.2-9.3-9c-2.4-0.9-10.8-3.8-19.4-3.9c-10.7,0-30.2-5.4-38.1-10.4c-2.9,1.2-11.2,4.4-18.3,4.5l-1.5,0l-0.5-1.4
	c0-0.1-2.3-6.5-9.7-11.4c-4.1,2.3-19,10.5-25,13.2c-4.2,2-10.6,3.5-19.2,4.4c0.1,1.5,0.1,3.6-0.4,6.2c-0.8,4.4-3.8,14.1-6.6,17.7
	c-2.8,3.6-9.9,7.5-14,9c-1.4,0.5-2.9,1-4.4,1.5c-2.9,0.9-5.8,1.9-8.4,3.2c-2.5,1.2-5.4,3.4-8,5.4c1.6,0.3,3.1,0.6,3.8,0.6
	c1-0.1,3.3-1.1,4.9-1.8c0.9-0.4,1.7-0.8,2.5-1.1c0.7-0.3,3.2-1.2,6.7-1.2c4,0,7.6,1.1,10.5,3.3c5.9,4.6,9.5,10.5,9.2,15.6
	c-0.2,4.3-2.7,8-7.1,10.5c-0.6,2-2.5,6.4-7.1,8.1c-1.8,0.7-4.1,1-6.8,1c-2.8,0-5.5-0.4-6.7-0.6c-2.6,1.4-5.6,2.4-8.8,2.7
	c-0.3,0-0.5,0-0.7,0c-4.5,0-9.6-2.9-11.8-4.2c-0.3-0.2-0.5-0.3-0.6-0.3l-0.1,0l-0.1-0.1c-0.8-0.5-1.7-0.8-2.6-0.8
	c-0.5,0-3.5,0.2-6.6,0.4c-6.6,0.5-15.6,1.1-19.4,1.1c-6.2,0-10.9-2.9-13.9-8.4c-3.1-5.9,1.5-14.3,3.4-16.8c1.1-1.5,2.5-3.2,3.7-4.7
	c0.9-1.1,1.9-2.4,2.1-2.7l0-0.1l0,0c0,0,0.1-0.2,0-0.3c-0.5-0.3-1.7-1-2.9-1.6c-1.7,3.4-5.3,10.6-7,13.6c-2.2,4-5.2,8.7-11,12.2
	c-2.8,1.7-6.9,3.8-11.3,6c-4.2,2.1-8.5,4.3-11.5,6.1c-3.3,2-6.1,4.1-8.6,6.3c0,3.8,0.1,7.7,0.2,9.7c1.9,0.5,5.2,1.5,7.1,3.1
	c3.1,2.6,4.9,6.6,4.9,10.7c-0.1,3.5-0.2,9.8-6.3,12.7c-0.7,1.9-2.6,6-6.5,7.5c-1.6,0.6-3.3,0.9-5.1,0.9c-1.7,0-3-0.2-3.8-0.4
	c-1.4,0.6-4.7,1.8-8.6,1.8c-1.3,0-2.5-0.1-3.6-0.4c-6.9-1.5-12.5-8.3-12.6-15.5c-0.1-4.4,0.5-16.9,0.8-24.4c0.1-2.9,0.2-5.3,0.2-5.7
	l0-0.1c0.1-1.3-0.2-2.6-0.9-3.8c-1.8-3.3-3.8-8-3.2-11.4c0.9-4.8,6-9.3,7.5-10.6l0.9-0.7c2.7-2.2,5.5-4.5,6.9-8.5
	c1.8-5.2,3.2-11.9,3.4-16.7l0-0.7c0.3-9,0.8-19.6,1.6-24.9c-5.7-1.5-22.8-6.7-31.6-16.7c-9.9-11.2-12-20.3-14.7-31.8l-0.5-2.1
	c-3-12.7-6.5-20.7-16.5-26.2c-1.2,0.4-3.5,1.1-6.4,1.1c-2.9,0-5.8-0.6-8.6-1.8c-5.6-2.4-9.5-7.3-12.7-11.2c-1.6-2-3.2-3.9-4.5-5
	c-3.7-2.7-14.3-4.6-17-4.6l-7,0.3l5.7-3.9c0.6-0.4,14.4-9.9,24.2-12.9c5.3-1.6,10.2-2.4,14.6-2.4c5.7,0,10.3,1.4,13.8,4.2
	c5.7,4.6,7.5,11.6,8.1,14.4c3.4,1.5,14.2,6.9,21,15.3c8.3,10.2,10.7,19.7,12.1,25.4c1.6,6.4,6.4,17.6,13.1,22.2
	c6.4,4.5,14.2,6.9,19.3,7.5c2.8-2.9,13.2-13.6,17.3-16.3c4.3-2.9,9-4.2,11.5-4.9l0.7-0.2c1.8-0.5,7.6-2.4,9.1-3
	c2-1.7,12.4-10.6,15.3-12.9c1.2-2.1,7.6-13.3,9.7-16.3c1.7-2.4,5.4-7.1,7.1-9.4c-1.7-2.3-4.8-7.6-4.7-13.9l0-2.4l2.3,0.4
	c0.7,0.1,1.2,0.2,1.8,0.3c-0.9-2.9-1-6-0.3-8.9c1.4-6.8,8.5-17,16.9-24.4c-0.1-4.2,0.4-8.4,1.6-12.4c1.3-3.9,3-7.4,5.1-10.6
	c-1.4-1.9-3.8-5.6-4.3-8.9l-0.3-2.1l2.1-0.2c0.1,0,7.6-0.7,12.7-2.4c3.2-1.2,6.2-2.9,8.9-5.1c1.4-1.9,11.4-14.9,23.7-19.3
	c8-2.8,16-3.4,21.3-3.4c2,0,3.6,0.1,4.4,0.2c1.2-0.8,3.8-2.4,6.1-3.7c-1.8-1.8-4.4-4.1-6.5-4.9l-5.2-2.2l5.4-1.6
	c0.3-0.1,8.2-2.4,16.4-2.4c0.3,0,0.7,0,1,0c0.1-2.2,0.5-5.7,1.2-8.2l0.8-2.8l2.3,1.7c0.2,0.1,15.5,11.2,22.3,14.2
	c7.2,3.3,20.9,7.8,25.1,9c3.2,1,12.7,3.9,15.1,13.2c2.1,0.9,7.3,3.2,9.7,4.5c3.4,1.8,6.9,6.1,7.6,8.2l0.3,1c0.4,1.3,0.9,2.7,1.5,3.5
	c0.6,0.8,1.4,1.5,2.4,1.8l0.1,0c1.7,0.7,14.1,6.3,19.9,10.6c5.8,4.3,13.5,11.7,13.8,12l1.6,1.6l-1.8,1.4c-2,1.6-7.5,6.2-9.1,8.4
	c-0.5,1.6-2.7,8.4-6.3,13.6c-1.8,2.7-4.2,5-7,6.8c1.7,0.2,3.2,0.5,4.8,0.9c2,0.5,3.8,1.2,5.6,2c1.1-0.8,2.2-1.5,3.2-2.3
	c1.6-1.5,5.6-3.5,9.5-3.5c0.6,0,1.1,0,1.7,0.1l0.1,0c3.1,0.6,5.9,2.3,7.9,4.6c0.8,0,1.5,0,2.3,0c1,0,2.1,0,3.1-0.1
	c0.2,0,0.5,0,0.8,0c3.5,0,9.2,1.3,13.7,5c8.8,6.9,7.3,13.5,4.1,18c0.3,1.7,0.7,5.2-0.8,8.1c-1.5,3-4.5,4.8-6,5.6
	c-0.9,2.2-3.9,8.1-9.5,10c-1.4,0.5-2.9,0.7-4.6,0.7c-4.3,0-8.3-1.5-9.8-2.2c-1.7,0.4-6.3,1.4-10.4,1.4c-0.6,0-1.2,0-1.7-0.1
	c-4.1-0.3-8.4-2.8-10.5-4.2c-0.3,0.3-0.5,0.6-0.7,1l-0.1,0.1c-0.1,0.1-7.5,10.6-11,15c2.7,2.4,9,7.7,15.2,10.2
	c6.8,2.8,10.8,3.7,13.3,4.2c0.6,0.1,1.1,0.3,1.6,0.4c2.8,0.8,7.4,3.6,9.7,8.4c1.7-0.4,4.4-0.8,6.8-0.8c0.4,0,0.9,0,1.3,0
	c4.1,0.3,8,1.2,14.7,8.1C490.8,284.2,488.2,291.4,487.1,293.5z"/>
<path class="st0" d="M394.6,137.4c-2.1,0-9.6,1.7-9.6,1.7s7.3,1.5,9.3,2.9c1.9,1.3,8.1,6,8.1,6s-1.5-1.9-1.2-2.9
	c0.4-1,3.1-4.6,3.1-4.6C401.2,140.3,396.7,137.4,394.6,137.4 M322.7,160c-21.3-3.9-35.4,9.8-35.4,9.8s16-6.4,33-4.6
	c17,1.8,33,14.7,33,14.7S344,163.9,322.7,160 M271.3,203.4c14.2-3.4,23.1-11.4,30.6-15.1c8.7-4.2,20.2-8.1,35.3-5.9
	c0,0-21.5-9-41.9,1.8s-30.1,16.6-50.7,17.3C244.6,201.6,256.3,207,271.3,203.4 M358.5,206.1c8.5,9.1,2.4,17.5,2.4,17.5
	c8.8-1.8,33.8-11,47.4-22c0,0-9.8-5.3-17-5.7c-6.3-0.4-10.2,6.6-10.7,13.4c-5.1,3.1-12.4,4.6-12.4,4.6v-0.1
	c0.2-1.1,1.1-9.3-8.9-14.4c-10.4-5.4-30.7-8.8-52.7,3.1C328.6,194.3,351.7,198.8,358.5,206.1 M354.3,281.9c0,0-5.3-10-15.8-13.1
	c0,0-22.3-8.5-54.5-1.8c0,0,30.6-2.2,46,6.6c-7,3.9-16.5,9-21.6,11c-8.6,3.3-19.8,3.1-24.1,3.8c0,0,2.2,7.6,1.9,10
	c-0.2,2.4-2.6,14.3-6.7,17.7c-4.1,3.3-14.6,6.7-20.1,8.6s-17.7,9.5-21.5,20.1c0,0,14.3,3.1,18.2,3.6c3.8,0.5,7.4-1.7,10-2.9
	c2.6-1.2,6-1.9,9.6,0.2c2.9,1.7,5,4.4,6,7.7c0.7,2.4-1.9,4.5-6.2,5.3c0,0,0.5,5-2.1,6.2s-9.1,0.5-12.7-0.7c-1.8,2.2-4.5,3.4-7.4,3.4
	c-5,0-8.4-5.3-13.6-5.5c-5.2-0.2-21.7,1.9-27.7,1.4s-6.4-4.1-5.3-7.4c1.2-3.3,8.6-10.7,9.8-14.1c1-2.9,1.9-8-10-12.7
	c6.5-7.6,14.1-14.2,22.6-19.4c13.2-8,26.4-15.4,41.7-20.3c-6.2,0.6-15.7,2.9-28.1,8.1c-18.7,7.9-29.4,18.1-29.4,18.1
	s1.4-5.4,17.5-19.7l-0.2,0.1c-22,10-31.2,32.7-31.4,33.1c-2.8,5.7-10.5,21.1-13.4,24.2c-3.6,3.8-13.6,7.4-21,11.7
	c-7.4,4.3-17,9.8-18.2,13.4s0.3,19.8,0.7,20.8c0,0,8.4,0.7,10,2.9s1.5,6.4,0.5,7.6c-0.9,1.2-4.5,1.2-4.5,1.2s0.2,4.8-2.2,6.2
	c-2.4,1.4-7.6-0.7-7.6-0.7s-1.4,2.2-5,2.6c-3.6,0.5-6.2-0.9-7.9-3.6c-1.7-2.6-0.9-6.2-0.9-9.1s1.2-22.9,0.7-27.7
	c-0.5-4.8-4.5-8.1-3.8-11.2s9.5-8.1,12.4-13.4s5.5-12.2,6.2-24.4c0.7-12.2,0.7-23.4,2.6-29.6c0.2-0.8,0.5-1.5,0.7-2.2
	c-7.8-1.5-24.4-6-32.2-12.8c-8.7-7.6-12.7-15.3-14.5-25.1c-1.9-9.9-5.8-21-9.8-28.1c-4.2-7.4-16.9-14-16.9-14s-5.7,4.6-13.2,0.4
	c-8.4-4.6-9.2-7.5-12.2-11.3c-2.6-3.4-7.7-4.4-9.1-4.7c17.5-6.8,26.2,2.6,26.2,2.6s-0.4-4.7-7.2-6.5c-2.4-0.7-4.8-1.1-7.3-1.4
	c1.1-0.4,2.3-0.8,3.4-1.1c3-0.7,9.9-1.5,15.2,2.1c4.9,3.3,6.7,13.4,6.7,13.4c2.4,1.5,16.7,8.6,21.4,14.6s8,12,10.1,20
	c2,8,4.8,19.7,16.7,29.6c9.1,7.6,22.6,9.3,28.4,9.7c0.2-0.3,0.5-0.6,0.7-0.9c4.1-5.3,16.2-16.7,19.8-18.4c3.6-1.7,17.9-5.3,19.6-6.9
	c1.7-1.7,15.8-12.9,17-14.6c1.2-1.7,7.6-13.1,11.5-18.9c3.8-5.7,13.4-16.2,13.4-16.2s-8.1-0.3-10.3-3.8c0,0,8.9-3.9,9.6-8.9
	c0.5-3-1.6-5.1-7.6-2.6c0,0,0.8-5.7,5.8-12.8c5-7.2,14.5-15.1,18.4-17.9c4.8-3.5,6.5-7.9,5.3-10.3c-1.2-2.4-6.5-2.6-10,1.4
	c0,0,3.4-10,9.6-14.3c0,0-4.6-1-6.2-4.6c0,0,6.9,0.2,11.7-2.4c4.8-2.6,17.2-10.5,22-10.7c0,0-3.8-1.9-9.8,0.2c0,0,9.2-11,23.2-13.1
	c14-2.2,26.5,1.7,32.2-1c0,0-2.6-3.3-8.8-3.3c0,0,7.7-4.6,12.4-4.6c0,0-4.1-4.8-9.8-6.9c0,0,12.4,0.5,17,2.6c0,0-3.1-3.6-2.6-7.7
	c7,5.9,15,10.4,23.6,13.4c14.1,4.8,22.7,6.5,25.1,10.3s1,6,1,6s10.3,4.3,13.9,6.2c3.6,1.9,5,6.2,5.5,7.7c0.5,1.4,2.9,5.5,4.8,6.2
	s12.4,5.3,18.2,8.8c4,2.6,7.7,5.4,11.2,8.6c0,0-5.5,3.1-6.7,5.7c-1.2,2.6-3.6,15.3-13.9,18.6c0,0,3.1-5.3,0.7-10.5
	c0,0-12.2-0.7-20.8,4.5c0,0-1.5,10.3,3.9,13.2c5.5,2.9,11.8-5.8,12.5-7.7c0,0-0.2,4.8,0,8.1c0.1,0.3,1.4-0.1,1.5,0.2
	c0.3,3.4-0.3,8.4-0.3,8.4s4.1-3.1,10.8-1.9c6.7,1.2,8.4,3.3,10.5,3.3c2.2,0,6.4-2.9,7.9-4.3c1.4-1.4,3.8-2.4,6-1.7
	c2.1,0.7,3.3,4.1,3.3,4.1s8.1,0.7,10.8,0.2c2.6-0.5,7.9,2.4,9.3,3.6c1.4,1.2,3.1,3.1,2.6,4.6c-0.5,1.4-3.8,3.6-3.8,3.6
	s1.9,3.8,1.7,6.2c-0.2,2.4-5.3,3.3-5.3,3.3s-1.7,6.5-4.8,8.1c-3.1,1.7-12-1.9-12-1.9c-3.6,1.2-7.4,1.8-11.2,1.7
	c-3.6-0.2-7-2-9.3-4.8c-2.9-0.3-5.9,0.5-8.1,2.4c-3.6,3.1-11,16.7-18.4,23.4c0,0-20.5,20.6-38.9,30.6
	C369.6,276.9,361,281,354.3,281.9z M474.3,292.9c0,0,0.7,6.7-1.7,8.4c-2.4,1.7-6.9-0.7-6.9-0.7s-0.2,4.8-3.8,6s-7.9-3.1-7.9-3.1
	s-8.4,1.4-14.1-1.2c-3.4-1.5-5.9-4.4-6.9-7.9c0,0-9.3-4.3-18.4-5.2c-7.8-0.8-24.6-1.7-38.8-8.5c5.9-3.5,14.6-8.9,21.4-14.5
	c5.7-4.7,11.1-9.8,16.3-15.1c4.3,3.9,10.7,9.2,15.9,11.6c8.8,4.1,15.3,5.7,18.1,6.2s5,3.6,5.7,5.3c0.7,1.7,3.6,4.3,6.9,4.1
	c3.3-0.2,7.7-2.2,11.5,0s7.4,6.7,8.1,9.8C480.5,291,477.1,292.9,474.3,292.9z"/>
</svg>
