<?xml version="1.0" encoding="utf-8"?>
<!-- Generator: Adobe Illustrator 23.0.3, SVG Export Plug-In . SVG Version: 6.00 Build 0)  -->
<svg version="1.1" id="Layer_1" xmlns="http://www.w3.org/2000/svg" xmlns:xlink="http://www.w3.org/1999/xlink" x="0px" y="0px"
	 viewBox="0 0 500 500" style="enable-background:new 0 0 500 500;" xml:space="preserve">
<style type="text/css">
	.st0{fill:#FFFFFF;}
</style>
<title>Logos/Clubs/GB/Primary</title>
<desc>Created with Sketch.</desc>
<g>
	<path class="st0" d="M409.1,145.8c-42.4-28.1-99.4-43.5-160.4-43.5c-121.3,0-223.7,68-223.7,148.4c0,83.7,96.2,146.9,223.7,146.9
		c74.4,0,145-26.2,188.8-70c24.1-24.1,37.3-51.4,37.3-76.9C474.7,211,451.4,173.7,409.1,145.8 M432.5,322.7
		c-42.5,42.5-111.2,67.9-183.8,67.9c-60.7,0-116.2-14.8-156.4-41.6c-38.9-26-60.3-60.9-60.3-98.4c0-75.4,101.3-141.5,216.8-141.5
		c120.8,0,219.1,63.5,219.1,141.5C467.9,274.3,455.3,299.9,432.5,322.7"/>
	<path class="st0" d="M245.3,167.9c44.9,0,83,18,100.4,43.9l84.9-0.1c-26.1-46.8-97.7-81.6-181.9-81.3
		c-101.2,0.4-192.5,55.2-192.5,120.2s86.2,117.9,192.5,117.9c106.3,0,192.5-52.8,192.5-117.9c-0.1-2.7-0.3-5.4-0.6-8.1l-226,0.1
		l0.4,33.8l130.2-0.2c-17.2,26-54.1,45.8-99.9,45.8c-76.3,0-111.6-36.7-111.6-78.5S183.7,167.9,245.3,167.9"/>
</g>
</svg>
