<?xml version="1.0" encoding="utf-8"?>
<!-- Generator: Adobe Illustrator 23.0.3, SVG Export Plug-In . SVG Version: 6.00 Build 0)  -->
<svg version="1.1" id="Layer_1" xmlns="http://www.w3.org/2000/svg" xmlns:xlink="http://www.w3.org/1999/xlink" x="0px" y="0px"
	 viewBox="0 0 500 500" style="enable-background:new 0 0 500 500;" xml:space="preserve">
<style type="text/css">
	.st0{fill:#FFFFFF;}
</style>
<title>Logos/Clubs/HOU/Primary</title>
<desc>Created with Sketch.</desc>
<path class="st0" d="M462.3,207.2c-1.5-21.4-13.3-42-33.4-57.9c-21-16.7-49-27-81.1-29.8l-27.5-2.4l22,16.7
	c36.7,27.9,39.8,41.1,38.4,46.4c-3.7,14.4-48,20.8-80.5,25.4c-6.1-1.9-33.5-10.7-75.9-31.8c-62.6-31.1-67.5-47.4-66.7-52.9
	c0.9-6.6,12.1-19.4,76-30.9l25.9-4.7l-24.2-10.5c-28.4-12.4-58-19-85.5-19c-52.9,0-95.6,24-108.6,61.3
	c-12.7,36.2,4.6,78.3,47.5,115.7l-37.4,26.7l10.3,6.3c13.5,8.3,36.2,22.1,53.7,40.8c18.7,19.9,27.1,40.9,24.9,62.3l-38.9,27.7
	l108.8,49.3l81.2-36.8l0.1-5.1c0.2-11.6,11.6-22.2,26.1-35.6c18.2-16.9,40.7-37.8,54.9-72.4c29.7-7.4,52.7-19.2,68.4-35.1
	C456.3,245.6,463.7,227,462.3,207.2z M366.6,289.5c-24.8,65.6-82.5,82.3-83,114.6l-73.3,33.2l-92.9-42.1l30.4-21.7
	c8.8-58.2-52.4-96.3-82-114.4l36-25.7C-29.4,128.2,89.5,19.9,232.2,82.2c-89.1,16-124.8,42.6-11.4,98.9c50,24.8,78.9,32.8,78.9,32.8
	c68.4-9.8,135.1-19.7,47.5-86.4C468.2,138.1,503,258.2,366.6,289.5z"/>
<path class="st0" d="M229.2,273.6l-7.6-32.7l-14,23l-35-15.7l26.4,29.9l-14,23.1l30.2-4.6l26.4,30l-7.7-32.8l30.2-4.5L229.2,273.6z
	 M209,424.4l-68.7-31.2l17.9-12.8c13.6-58.7-26.4-96-64.1-121.3l35.5-25.4C-2.8,141.3,75.2,44.4,209,80.7
	c-107,18.8-95.6,73.1,75.8,139.3C306.4,286.2,273,354.3,209,424.4z"/>
<path class="st0" d="M360.4,281.4c-26,69-80.7,85.1-84.7,116.2l-54,24.5c58.9-54.2,114.5-124.3,96.4-200.8
	c71.7-8,112.6-37.4,53.7-83.5C462.4,166.7,482.3,254.2,360.4,281.4z"/>
</svg>
