<?xml version="1.0" encoding="utf-8"?>
<!-- Generator: Adobe Illustrator 23.0.3, SVG Export Plug-In . SVG Version: 6.00 Build 0)  -->
<svg version="1.1" id="Layer_1" xmlns="http://www.w3.org/2000/svg" xmlns:xlink="http://www.w3.org/1999/xlink" x="0px" y="0px"
	 viewBox="0 0 500 500" style="enable-background:new 0 0 500 500;" xml:space="preserve">
<style type="text/css">
	.st0{display:none;}
	.st1{fill:#FFFFFF;}
</style>
<rect x="-2" y="-2" class="st0" width="504" height="504"/>
<path class="st1" d="M433.4,224.9l-0.1-0.6c-10.7-50.1-31-80.8-44.9-100c16-5.8,14-23.6,12.9-33.6l-0.3-2.8l-2-11.4
	c-3.7-22.9-22.8-22.9-29-22.9c-1.3,0-2.8,0-4.4,0.1l-0.5,0c-18.7,0.4-23.2,0.5-34.7,2.7l-0.4,0.1c-7.4,1.7-21,6.6-29,21.5
	c-7.6,14-7.4,31.8,0.4,52.9l0.1,0.4l0.2,0.4c5,11.6,10.1,19.2,15.1,26.6c4,5.9,8.1,12.1,12.2,20.6l1.5,3.1
	c9.9,21.4,30.6,66.1,16.7,101.4l-0.1,0.2c-8,21.7-22.3,39.7-41.4,52c-16.8,10.9-36.8,17.1-56.4,17.4c-26-0.5-73.1-10.3-97-69.8
	c-13.8-35,6.8-79.7,16.7-101.1c0.5-1.2,1.1-2.3,1.5-3.2c4.1-8.7,8.3-14.9,12.3-20.8c4.9-7.3,10-14.9,15.1-26.5l0.2-0.4l0.1-0.4
	c7.9-21.1,8-38.9,0.5-52.8c-8-14.8-21.7-19.8-29.2-21.5l-0.3-0.1c-11.5-2.2-15.9-2.3-34.5-2.7c-1.8,0-3.6-0.1-5.3-0.1
	c-6.1,0-24.6,0-28.6,22.8l-2,11.6l-0.3,2.7c-1.1,10-3.1,27.7,12.9,33.6c-13.8,19.1-34.1,49.6-44.9,100.2l-0.1,0.6
	C55,291.1,76.6,330.4,87,349.3l1.1,2l0.3,0.5c24.3,40.2,49.8,58.8,71.5,71.7c36.8,23.1,88.3,23.4,88.8,23.4c1.4,0,2.5,0,3.5-0.1
	c4-0.1,17.4-0.6,33.7-3.5c22.4-4,40.6-10.7,54.1-20c21.6-12.9,46.9-31.5,71.1-71.5l0.1-0.2l1.3-2.3
	C422.8,330.3,444.5,291,433.4,224.9z M407.2,346.3l-1.2,2.2l-0.1,0.1c-23.6,39-48.3,57-69.2,69.5c-30,20.8-78.5,22.4-84.9,22.5
	c-0.8,0.1-1.8,0.1-3.1,0.1c-0.5,0-50.3-0.3-85.6-22.5c-21.1-12.5-45.8-30.6-69.4-69.7l-0.2-0.3l-1.1-2C82.2,328.1,61.2,290,72,226
	l0.1-0.3c11.5-53.8,33.6-83.9,48.2-103.8c0,0,1-1.4,1.5-2c-0.4,0-0.8,0.1-1.2,0.1l-1.1,0.1l-1.1-0.1c-17.2-2.4-15.5-17.5-14.2-28.5
	l0.3-2.6l1.9-11.4c3.1-17.8,16.3-17.8,22.7-17.8c1.6,0,3.5,0,5.2,0.1c18.6,0.4,22.5,0.5,33.5,2.6l0.3,0.1
	c6.5,1.4,18.3,5.8,25.2,18.5c6.7,12.4,6.4,28.5-0.8,47.9l-0.1,0.3l-0.1,0.1c-4.8,11.1-9.7,18.4-14.5,25.5
	c-4.1,6.1-8.4,12.5-12.7,21.6c-0.4,1-1,2.1-1.5,3.2c-10.3,22.2-31.6,68.4-16.9,105.8c25.2,62.7,75,73,102.5,73.6
	c20.7-0.3,41.9-6.8,59.6-18.4c20.2-13.1,35.3-32.1,43.8-55l0.1-0.2c14.8-37.6-6.6-83.8-16.9-106l-1.5-3.1c-4.3-9-8.5-15.3-12.7-21.4
	c-4.8-7.1-9.8-14.5-14.5-25.6l-0.1-0.2l-0.1-0.2c-7.2-19.5-7.5-35.6-0.8-48c6.9-12.7,18.7-17,25.1-18.5l0.3-0.1
	c11-2.1,14.9-2.2,33.7-2.6l0.5,0c1.5,0,3-0.1,4.3-0.1c6.6,0,20.2,0,23.1,17.8l1.9,11.3l0.3,2.6c1.3,11.1,3,26.3-14.4,28.5l-1,0.1
	l-1-0.1c-0.4,0-0.8-0.1-1.2-0.1c0.6,0.8,1.1,1.5,1.7,2.3c14.6,20,36.5,50.1,48,103.4l0.1,0.3C438.2,289.9,417.2,328,407.2,346.3z"/>
<path class="st1" d="M417.6,227.6c-12.3-57.4-37-86.4-51.1-106.3c-6.7-9.7,0.2-15.2,5.6-13.2c2.4,1,5,1.6,7.6,1.8
	c8-1,6.9-6.2,5.4-19.8L383.2,79c-1.6-9.8-6.1-9.6-17.8-9.4c-18.6,0.4-22,0.5-32,2.4c-13.4,3-30.8,16.4-17.1,53.2
	c8.5,19.7,17.4,26.4,27.1,46.8c10.4,22.6,35.7,73.5,18.6,117c-19.9,53.9-69.7,79.3-112.8,79.9c-43.1-0.8-88.4-21.6-111.8-79.9
	c-17.1-43.4,8.2-94.3,18.6-117c9.6-20.4,18.6-27.1,27.1-46.8c13.7-36.7-3.7-50.1-17.1-53.1c-10-1.9-13.3-2-31.9-2.4
	c-11.7-0.3-16.1-0.4-17.8,9.4l-1.9,11.1c-1.5,13.5-2.6,18.7,5.4,19.8c2.6-0.2,5.2-0.8,7.6-1.8c5.4-2,12.3,3.5,5.6,13.2
	c-14.2,19.9-38.8,48.9-51.1,106.3c-10.6,62.8,10.9,98.8,20.2,115.8c20.8,34.4,42.3,52.2,66.1,66.3c32.2,20.3,80.3,21.5,82.8,20.9
	c11.7-0.1,54.7-3.1,80.2-20.9c23.7-14.1,45.3-32,66.1-66.3C406.6,326.5,428.2,290.5,417.6,227.6z M341,134.1
	c-5.6,0-10.3-4.7-10.3-10.3c0-5.6,4.7-10.3,10.3-10.3c5.6,0.2,10.3,4.7,10.3,10.3C351.3,129.4,346.6,134.1,341,134.1z M158.4,113.5
	c5.6,0,10.3,4.7,10.3,10.3s-4.7,10.3-10.3,10.3c-0.1,0-0.1,0-0.1,0s0,0,0.1,0c-5.9,0-10.3-4.7-10.3-10.3
	C148.1,118.2,152.8,113.5,158.4,113.5z M107.1,253.1c-5.6,0-10.3-4.7-10.3-10.3s4.7-10.3,10.3-10.3c5.6,0,10.3,4.4,10.3,10.3
	C117.4,248.4,112.7,253.1,107.1,253.1z M133.1,354.1c-5.6,0-10.3-4.7-10.3-10.3s4.7-10.3,10.3-10.3s10.3,4.7,10.3,10.3
	S138.7,354.1,133.1,354.1z M249.5,409.5c-5.6,0-10.3-4.7-10.3-10.3c0-5.6,4.7-10.3,10.3-10.3s10.1,4.4,10.3,10.3
	C259.8,404.8,255.1,409.5,249.5,409.5z M366.3,354.1c-5.6,0-10.3-4.7-10.3-10.3s4.7-10.3,10.3-10.3c5.6,0,10.3,4.7,10.3,10.3
	C376.6,349.4,371.9,354.1,366.3,354.1z M392.3,253.1c-5.6,0-10.3-4.7-10.3-10.3s4.7-10.3,10.3-10.3c5.6,0,10.3,4.4,10.3,10.3
	C402.6,248.4,397.9,253.1,392.3,253.1z"/>
</svg>
