<?xml version="1.0" encoding="utf-8"?>
<!-- Generator: Adobe Illustrator 23.0.3, SVG Export Plug-In . SVG Version: 6.00 Build 0)  -->
<svg version="1.1" id="Layer_1" xmlns="http://www.w3.org/2000/svg" xmlns:xlink="http://www.w3.org/1999/xlink" x="0px" y="0px"
	 viewBox="0 0 500 500" style="enable-background:new 0 0 500 500;" xml:space="preserve">
<style type="text/css">
	.st0{fill:#FFFFFF;}
</style>
<title>Logos/Clubs/JAX/Primary</title>
<desc>Created with Sketch.</desc>
<g>
	<path class="st0" d="M447.8,234.3c-0.2,2-0.6,4-1.2,6c-0.7,2.2-1.1,4.6-3.8,4.7c-1.9,0-3.8,0-5.7-0.2c-1.1-0.1-3.3-0.4-3.9,0.8
		c-1.9,3.7,5.5,3.5,7.5,3.6h0.8c-7.9,8.7-20.6,11-21.4,11.1c0,0,0,0,0,0c-0.1-0.1-0.2-0.3-0.3-0.5c-2.1-2.6-8.3-8-21-9.4h-0.1
		c0.6-0.9,1.3-1.8,2.1-2.7c5.3-6,13.5-11.1,22.5-15.5c12.5-6.1,17.3-18,17.3-18c1.3,1.3,2.5,2.7,3.5,4.2c-0.5,1.6-1.9,4-5.2,6.4
		c0,0-2.2,1.3-1.4,2.9c0.8,1.6,2.6,1,3.5,0.5c1.6-0.9,2.8-2.2,3.7-3.8c0.5-0.8,1-1.6,1.3-2.4c0.9,2.1,1.5,4.4,1.8,6.7
		c0,0.3-1,1.1-1.2,1.3c-0.7,0.7-1.5,1.3-2.3,1.8c-2.3,1.5-4.7,2.5-7.2,3.5c-0.9,0.4-2.3,1.2-2.5,2.2c-0.3,1.7,2,2,3.1,1.8
		c0.1,0,0.2,0,0.3,0C439.7,239.3,444.9,238.1,447.8,234.3"/>
	<path class="st0" d="M411.2,227.4c-0.5,4.8-6.7,11.4-9,13.6c-0.5,0.5-0.9,0.8-0.9,0.8c-1.3-3.3-6.2-11.2-6.2-11.2
		c0-0.1,0.1-0.2,0.1-0.3c0.2-0.9,0.3-3.8-3.7-7.2c-4-3.5-13.7-4.1-17.2-4.2c-0.8,0-1.3,0-1.3,0s0.1-0.1,0.4-0.2c2.2-1,4.6-1.6,7-1.5
		c0.3,0,0.6,0,0.9,0.1C393.3,218.3,411.2,227.4,411.2,227.4"/>
	<path class="st0" d="M414.5,267.8c-1,4.3-15.8,20.2-23.6,23.1c0,0,6.7-10.7,8.7-21.7c-2.4,2.1-5.1,3.7-8,4.7c0,0,0.2-5.4-1.2-7.9
		c-2.7,2.6-5.6,5-8.7,7c0,0-2.9-4.6-3.6-8c-3.3,5.1-8.8,12.1-15.4,15.5c0.2-3.8-0.1-7.6-0.8-11.3c6.2-1.5,11.8-3.3,16.1-4.8
		c2.9-1.6,7.7-3.2,8.9-3.2c0.2,0,4.1-0.8,3.7,2c0,0,4.9-3.7,8.8-2.4c1,0.3,1.9,1,2.4,1.9c1.9-1.2,5.4-3.1,8.2-2.4
		C414,261.1,415.4,263.5,414.5,267.8"/>
	<path class="st0" d="M361.5,269.3c-0.1,0.4-0.4,1.1-0.7,1.9c-3.1,5.6-13.3,21.2-32.8,26.7c0,0,12-12.2,10.7-25.7
		C346.3,272.3,354.3,271,361.5,269.3"/>
	<path class="st0" d="M345.3,345.5c-4,0.3-6.8-2.8-6.8-2.8c-10.1-1.4-21.6,0.8-21.6,0.8s-5.9,6.3-14.3,7.3c-8.4,1.1-8.3-2.7-7.8-3.7
		c0.5-1.1,4.4-2.9,11.5-10.4s13.3-22.7,13.3-22.7c1.7,5,2.3,10.2,1.8,15.5c-0.1,1.5-0.4,3-0.8,4.5c-0.6,2.4-1.4,4.7-2.5,6.9
		c1.4-2.8,4.4-5,7-6.5c0.9,1.1,1.7,2.3,2.4,3.5c0.1,0.2,1.4,2.1,1.3,2.3c1.3-2.4,7.9-6.8,7.9-6.8c1.6,1.5,2.9,4.6,2.9,4.6
		c5.4-4,17.4-23.1,17.4-23.1C357.6,329.6,349.2,345.2,345.3,345.5"/>
	<path class="st0" d="M331.4,332.2c0,0.4-0.1,0.8-0.2,1.2l-3.2-2.1l-2.1-1.4l-0.7-7.6c0,0,0.3,0.2,0.7,0.5
		C327.5,324.1,331.7,327.7,331.4,332.2"/>
	<path class="st0" d="M313.2,316.6c0,0-4.2,16.5-24,27.1c0,0-15-5.1-23.2-24c-6.7-15.3-0.3-43.9-9.2-60c-3.5-6.4-9.4-11.1-16.4-13.2
		c0,0,6.5-3.7,20.1,0.6c22.3,7.2,24.7,36.4,25.1,42.4c0.7,11.8,2.7,27,10.5,31.1c0,0-4.6-6.3-4.7-21.2
		c-0.4-44.3-15.7-50.6-15.7-50.6s0.3,0.1,0.8,0.2c3.7,0.8,18.5,4.9,22.9,18.8C304.4,283.6,296.3,307.9,313.2,316.6"/>
	<path class="st0" d="M422.1,198c0,0-5.8,7.2-8.6,4.9c-0.6-0.4-1-1.1-1-1.8c0-1.7,1.6-3.9,1.7-7c0-0.7,0-1.4-0.1-2
		c-0.9-5.7-19.6-24.9-43.3-39.1c0,0,10.9,4.5,21.5,10.1c0.1,0,0.2,0.1,0.3,0.1c1.8,0.9,3.7,2,5.5,3.1c0.5,0.3,1.1,0.6,1.6,1
		c2.9,1.7,5.6,3.6,8.1,5.8c0,0,4.3-5.3,1.7-11.4c-0.1-0.4-0.3-0.7-0.5-1.1c0,0-0.1-0.1-0.1-0.1c-0.4-0.7-0.9-1.4-1.4-2.1
		c-0.6-0.4-1.2-0.8-1.9-1c-0.7-0.3-1.5-0.5-2.1-0.7c-0.6-0.2-1.2-0.4-1.7-0.6l-0.1-0.1c-1.1-1-2-2.1-2.9-3.3c0,0.1,0,0.3,0,0.4
		c0,0.6,0.1,1.2,0.4,1.8c0,0-1.8-1.5-3.3-1.8c-1.1-0.2-2.2-0.6-3.2-1c-0.3-0.1-0.6-0.2-0.8-0.4c-0.1-0.1-0.2-0.2-0.4-0.3
		c-0.5-0.4-1.1-0.9-1.1-0.9c0,0.5,0.1,0.9,0.3,1.4c-0.6-0.1-1.1-0.4-1.5-0.8c-0.2-0.3-0.4-0.7-0.4-1c0-0.2,0-0.4,0-0.6
		c0-0.8,0.5-1.4,1.1-1.8c-0.1-0.4-0.1-0.7,0-1.1c0.7,0.8,1.4,1.4,2.2,2.1c0,0,0,0,0,0c0.2-0.9,0.1-1.9-0.3-2.8
		c-0.2-0.1-0.4-0.2-0.5-0.3c-0.6-0.3-1.1-0.6-1.6-0.8c-0.2-0.1-6.4-3.6-14-7.8c-7.6-4.2-16.6-9.1-22.3-12c-0.2,0-0.4,0-0.7-0.1
		c-0.9-0.1-1.7-0.3-2.6-0.6c0,0-1.9-0.9-2.3-1.8c-0.1,0.3,0,0.7,0.2,1c0.5,0.9,1.5,1.8,1.8,3c0,0-0.4-0.3-1.1-0.6
		c-0.7-0.4-1.6-0.9-2.4-1.3c-0.5-0.2-1.1-0.5-1.8-0.8c-1.5-0.5-2.8-1.2-4.1-2c-0.3-0.2-0.6-0.5-0.8-0.8c-0.1-0.1-0.1-0.1-0.2-0.2
		c-0.1-0.2-0.2-0.4-0.3-0.6c0,0,0-0.1,0-0.1c0-0.1-0.1-0.2-0.1-0.3c0,0,0-0.1,0-0.1c0-0.1,0-0.2,0-0.3c0,0,0-0.1,0-0.1
		c0,0,0-0.1,0-0.1c0,0,0,0,0,0s0,0,0,0c0,0,0.1,0.1,0.1,0.1c0,0,0.1,0.1,0.1,0.1c0.3,0.3,0.6,0.5,1,0.8c0,0,0.1,0.1,0.1,0.1
		c0.4,0.3,0.8,0.5,1.2,0.6c0.1,0,0.1,0,0.2,0c0,0,0-0.1-0.1-0.1c0,0-0.1-0.1-0.1-0.1c-0.1-0.1-0.1-0.2-0.2-0.3
		c-0.6-0.7-1.2-1.4-1.6-2.3c-9.4-4.7-20.7-9.6-35.9-12.6c-8.7-1.8-17.7-2.4-26.6-2c-3.4,0.1-6.8,0.6-10.1,1.3c0,0,4.3,0.3,13.4,3.4
		c0.5-0.2,1-0.4,1.4-0.6c0.2-0.1,0.4-0.2,0.6-0.3c1.3-0.9,2.1-1.1,2.7-1.1c0.3,0,0.9,0.6,1.6,1.3c0.7,0.8,1.4,1.6,1.4,1.6
		c0,0-0.1-0.5-0.2-1.2c-0.1-0.8-0.3-1.9-0.6-2.9c1.1-0.1,2.2-0.1,3.3,0c1.3,0.3,2.4,0.7,2.9,0.7c0.5,0,0.7-0.6,0.7-0.6
		s0.8,0.6,0.8,1.2c0.5,0.3,0.9,0.8,1.3,1.2c0.3,0.4,0.5,0.8,0.6,1.3c0,0.8-0.1,1.6-0.1,2.4c0,0.2,0,0.4,0,0.6c0,0.2,0.1,0.3,0.1,0.5
		c0,0-0.3,0.2-0.7-0.3c-0.2-0.2-0.3-0.4-0.5-0.6c-0.7,0.6-1.5,0.9-2.4,1c-0.5,0-1,0.1-1.5,0.3c4.2,1.9,8.9,4.1,14.1,7
		c0,0,0.6,0.4,1,0.7c0,0,0.4-1.8,0.7-2c0.3,0.2,0.5,0.5,0.6,0.8c0.1-0.5,0-1.1-0.1-1.6c0,0,1.5-1.2,2.6-1.3c0.7-0.1,1.1-0.1,1.4-0.2
		c0.2,0,0.4-0.1,0.5-0.2c0.1-0.2,0.1-0.5,0.1-0.7v-0.1c0-0.3-0.1-0.7-0.2-1c0,0,0.1,0,0.1,0c0.4,0.2,1.9,1.2,2.2,2.5
		c0.1-0.5,0.1-1,0.1-1.4c0-0.1,0-0.2,0-0.3c1.2-0.2,2.4-0.2,3.5,0.1c1.5,0.4,2.5,0.9,2.8,1.4c0.1,0.2,0.3,0.5,0.4,0.8
		c0.1,0.2,0.1,0.3,0.2,0.5c0.3,0.6,0.4,1.3,0.1,1.6c-0.2,0.1-0.3,0.2-0.5,0.3c-0.5,0.2-1,0.4-1.2,0.7c-0.3,0.4-0.4,0.8-0.8,1.1
		c-0.3,0.2-0.6,0.3-0.9,0.3c0,0,0,0.2,0,0.5c0,0.6,0.1,1.2,0.3,1.8c-0.5-0.1-1-0.5-1.2-1c0.1,0.5,0,1.1-0.4,1.5
		c-0.2,0.2-0.3,0.3-0.4,0.5c-0.3,0.3-0.6,0.5-1,0.7c0,0-1.4-1.3-1.5-1.8c0,0,0,0.4,0,0.9c0,0.5,0,0.9-0.1,1.4
		c-0.1,0.2-0.2,0.3-0.3,0.2c0,0-2.9-2.5-3.4-2.8c-0.6,0.1-1.1,0.1-1.7,0.1c-0.5-0.1-2.2-0.7-2.5-1.3c0.1,0.6,0.4,1,0.9,1.3
		c0,0-0.2,0-0.4-0.1c-0.3,0-0.5-0.1-0.8-0.2c-0.4,0.4-0.8,0.7-1.3,0.8c0.2,0.3,0.5,0.6,0.8,0.9c0.2,0.2,0.3,0.3,0.5,0.5
		c-0.7-0.1-1.3-0.4-1.9-0.7c-0.2-0.1-0.4-0.3-0.6-0.5c-0.3,0-0.7,0-1-0.1c-0.4,0-0.7-0.1-1.1-0.2c-0.4-0.1-0.7-0.2-1.1-0.2
		c-0.6,0-1.1,0-1.6,0.1c-0.5,0.1-1,0.1-1.5,0c-0.1,0-0.2-0.1-0.4-0.1c-0.4-0.1-0.7-0.2-1.1-0.4c-0.8-0.4-1.6-0.8-1.6-0.8
		c0.1,0.4,0.4,0.8,0.6,1.2c0,0-0.1,0.4-0.8,0.4c-0.3,0-0.6-0.1-0.9-0.2c-1.6-0.4-1.7-0.9-2.5-1.4c-0.2-0.1-0.5-0.3-0.7-0.5
		c-0.2-0.2-0.4-0.5-0.5-0.8c0-0.2,0-0.3,0-0.5c0.1-0.2,0.2-0.5,0.3-0.6c0.1-0.1,0.2-0.3,0.3-0.4c0,0,0.1,0.1,0.4,0.3
		c0.3,0.2,0.7,0.4,1,0.6c0,0-1.5-1.9-1.6-2.5c0,0,0.5,0.1,0.9,0.2c0.1,0,0.2,0,0.3,0c0,0,0.2-0.7,1.5-1.2c0.3-0.1,0.7-0.2,1-0.3
		c0.2-0.1,0.4-0.1,0.6-0.1c0.5-0.1,1-0.2,1.3-0.2c-8.4-2.6-16.9-4.8-25.5-6.5c-0.2,0.2-0.3,0.4-0.4,0.6c-0.2,0.2-0.3,0.5-0.4,0.7
		c-0.4,0.8-0.7,1.6-1.3,2.1c0,0-1.2-0.4-2.5-0.8c-1.3-0.4-2.5-0.9-3.8-1.4c1.3,1.1,2.7,2,4.1,2.9l-0.1,0.1c-0.3,0.4-2,2.2-6.4,1.7
		c0,0-2.3,1-4.2,0.8c-1.1-0.1-2.1-0.4-3-0.9c-0.8-0.3-1.5-0.8-2.1-1.4c-0.1-0.1-0.1-0.3-0.2-0.4c-0.2-0.8-0.1-1.7,0.3-2.4
		c0.3-0.5,0.8-0.9,1.3-1.2c0,0,2.7,1.6,4,2.4c0,0-2.3-2.9-2.2-3.9c0.6-0.5,1.2-0.9,1.8-1.3c-1.2-0.2-2.4-0.3-3.6-0.4
		c-6.5-0.7-13.1-1.1-19.6-1.1c-3.2,0-6.3,0.1-9.3,0.2c0.1,0.2,0.2,0.3,0.3,0.5c0.4,0.8,0.4,1.6,0.8,2.4c0.6,1.2-0.3,1.8-0.3,1.8
		c-0.7-0.6-3.7-1.9-3.7-1.9c0.8,0.8,1.5,1.6,2.1,2.5c0,0,0,0,0,0.1c-0.4,0.2-0.9,0.4-1.4,0.5c-1.1,0.2-2.2,0.4-3.3,0.4
		c-0.8,0.1-1.6,0.3-2.3,0.5c-0.9,0.4-1.8,0.8-2.7,1.3c-1.2-0.4-2.3-1.6-3.3-2.6c-0.2-0.2-0.4-0.3-0.5-0.4c-0.1,0-0.1-0.1-0.1-0.1
		c0,0-0.1-0.1-0.1-0.1c0,0-0.1,0-0.1-0.1c0,0.1,0.1,0.1,0.1,0.2c0,0,0,0.1,0,0.1c0.1,0.2,0.1,0.2,0.1,0.3c0,0.1,0.1,0.2,0.1,0.2
		c0.1,0.2,0.1,0.3,0.2,0.5c0.1,0.2,0.2,0.4,0.3,0.6c0.3,0.6,0.7,1.2,1.1,1.8c0.2,0.4,0.4,0.7,0.7,1c0,0,0,0,0,0
		c0.2,0.4,0.5,0.8,0.7,1.1c0.1,0.1,0.2,0.3,0.2,0.4c0,0,0,0.1,0,0.1c0,0,0.1,0.1,0.1,0.1c0,0,0.1,0.1,0.1,0.2c0,0,0,0,0,0.1
		c0,0,0,0.1,0.1,0.1c-0.3-0.3-0.7-0.4-1.1-0.5c-0.1,0-0.2-0.1-0.4-0.1c0,0,0,0-0.1,0c-0.3-0.1-0.6-0.3-0.9-0.4
		c-0.4-0.2-0.7-0.4-1.1-0.6c0,0,0,0-0.1,0c-0.1-0.1-0.3-0.2-0.4-0.3c-0.3-0.3-0.8-0.6-1-0.5c0,0-0.1,0-0.2,0.1c0,0-0.1,0-0.1,0
		c-0.1,0-0.2,0-0.3,0.1c-0.1,0-0.1,0-0.2,0.1c0,0-0.1,0-0.1,0c-0.1,0-0.2,0-0.3,0.1c-0.1,0-0.3,0-0.5,0.1c-0.3,0.1-0.6,0.1-0.9,0.1
		H204c-0.2,0-0.4,0-0.6,0c-0.2,0-0.4,0-0.6,0c-1.2-0.1-2.3-0.6-3.4-1.2c-1.1-0.7-2.2-1.5-3.1-2.5c-0.5-0.5-0.9-1.2-0.9-2
		c-1.9,0.5-3.7,0.9-5.5,1.4c-2.7,0.6-17.3,3.9-32.2,7.2c0.1,1-0.3,2.2-0.3,2.7c0,0.7,0.3,1.3,0.8,1.8c-1.7,0.2-4.7-1-4.7-1
		c0.8,1.2,3.3,2.6,3.3,2.6c0,0,0,0,0,0.1c-0.2,0.8-0.7,1.4-1.4,1.8c-1.1,0.5-2,0.3-3.4,0.2c-0.3,0-0.6,0-0.9,0.1
		c-0.8,0.1-1.6,0.3-2.5,0.5c-0.3,0-0.7,0.1-1,0.1c-1.7,0.1-3.9-1-3.9-1c0.5,0,0.9,0,1.4-0.1c0.3-0.1,0.5-0.2,0.8-0.3
		c0.5-0.2,0.9-0.5,1.3-0.8c-1-0.1-1.9-0.4-2.7-0.9c-0.4-0.2-0.7-0.5-0.9-0.9c-0.4-0.5-0.8-1-1.4-1.4c-4.4,1-8.4,1.9-11.6,2.6
		c-4.8,1.1-7.8,1.7-7.8,1.7c-5.6,0.8-10.4,1.4-12,1.6c-0.4,0-0.6,0.1-0.6,0.1c-2.1,0.1-4.1,0.3-6.2,0.4c-11.3,0.6-22.7,0.3-34,1
		c-1.7,0.1-3.3,0.1-5,0.1h-0.1c0.9,0.2,1.8,0.5,2.7,0.7c1.2,0.3,2.5,0.7,3.7,1.1c1,0.3,2,0.7,3,1c3.1,1,6.2,2.1,9.3,3.2
		c2,0.8,4,1.6,5.9,2.4c2.1,0.9,4.2,1.9,6.2,2.9c0.3-0.3,0.7-0.6,1.2-0.6c0.6-0.1,1.3-0.2,1.9-0.2l-0.3-0.7c0.5,0.3,1,0.4,1.6,0.4
		c0.1,0,0.1,0,0.2,0c0.2-0.1,0.4-0.2,0.6-0.2c0.3-0.3,0.7-0.5,1.1-0.6c0.7-0.2,1.5-0.3,2.2-0.2c0.4-0.6,1.9-1.2,1.9-1.2
		c-0.3-0.3-0.7-0.6-0.7-0.6c0.9,0,1.8,0.1,2.7,0.3c0.3,0,0.5,0,0.8-0.1c0,0,0,0,0.1,0l0,0c0,0,0.1-0.1,0.1-0.1
		c0.1-0.1,0.1-0.2,0.1-0.3c0-0.1,0-0.2-0.1-0.3c-0.1,0-0.2-0.1-0.2-0.1c-0.4-0.2-0.8-0.4-1.2-0.5c-0.1,0-0.1-0.1-0.2-0.1
		c-0.2-0.1-0.4-0.3-0.4-0.6c0,0,0,0,0-0.1c-0.1,0-0.2,0-0.2,0c-0.5-0.1-1.1-0.2-1.6-0.4c0.4,0,0.9-0.1,1.3-0.2
		c0.2-0.1,0.4-0.2,0.7-0.3c0.3-0.1,0.5-0.2,0.8-0.3c0.2,0,0.3-0.1,0.5-0.1c0.7,0,1.3,0.3,1.8,0.7c0.4,0.1,0.8,0.1,1.2,0
		c0.2,0,0.4-0.1,0.5-0.1c0.9-0.2,1.7-0.3,2.6-0.3c-0.6,0.1-1.1,0.5-1.7,0.5c0.1,0,0.2,0,0.4,0.1c0.2,0,0.3,0.1,0.5,0.2
		c0.2,0.1,0.4,0.2,0.5,0.3c0.3,0.1,0.5,0.4,0.6,0.7c0,0.1,0,0.1,0,0.2c0.1,0.9-1.3,1.8-2.1,2.2c-0.9-0.1-1.8,0-2.6,0.4
		c0,0,1.4,0,1.8,0.3c0.1,0.1,0.2,0.2,0.2,0.3c-0.1,0.6-1,1-2,1.2c-0.2,0.1-0.5,0.1-0.7,0.3c-0.4,0.2-0.8,0.6-1.1,0.9
		c0.2,0,0.4,0.1,0.5,0.3c0,0,0,0,0.1,0c0.1,0.1,0.2,0.1,0.2,0.2c-0.4,0-0.8,0.1-1.2,0.2c-0.2,0.1-0.7,1.3-1.1,1.9c0,0,0,0-0.1,0
		c-0.6,0.4-1.2,0.7-1.9,0.9c0.9,0.3,1.9,0.6,2.9,0.6c-0.3,0.1-0.6,0.2-1,0.3c-0.7,0.1-1.5,0.2-2.2,0.3c0.1,0.1,0.2,0.2,0.5,0.3
		c1,0.7,3.3,2.1,3.4,2.2c0.2,0.1,3,1.9,4,2.4c4,2.4,8.3,4.5,12.7,6.2c1.4,0.4,2.7,0.9,4,1.4c1.5,0.5,3,0.9,4.6,1.2
		c1.4,0.3,2.8,0.6,4.2,0.8c2.5,0.4,5.1,0.5,7.6,0.5c2.6-0.1,5.1-0.4,7.7-0.9c1.4-0.3,2.9-0.6,4.3-0.9c0,0,0.1,0,0.1,0
		c1.3-0.3,2.6-0.6,3.9-1c0.1,0,0.3-0.1,0.4-0.1c0.5-0.1,0.9-0.3,1.4-0.4c4-1.3,7.8-2.9,11.5-4.8c1-0.5,1.9-1,2.9-1.5
		c0,0,0.1-0.1,0.1-0.1c0,0,0,0,0.1,0c-0.1,0.1-6.9,5.7-10.2,7.8c-0.7,0.4-1.4,0.9-2.2,1.3c-0.2,0.1-0.4,0.2-0.6,0.3
		c-1,0.6-2.1,1.1-3.1,1.7c-0.1,0-0.1,0-0.2,0.1c-1,0.5-2,1-3,1.4c-0.6,0.3-1.1,0.5-1.7,0.7c0,0-0.1,0-0.1,0
		c-7.1,2.8-14.3,3.8-21.9,4.3c-8.6,0.6-17.3,0.5-25.9-0.5c-16.1-2-24.6-7.4-24.6-7.4c14.7,2.6,22.5,2.1,26,1.5
		c-5.4-3.4-10-7.7-16-11.5c-14.3-9-27.9-14.6-42.6-13.2c3.3,1,6.1,3,8.2,5.7c-1,4.5,4.7,14.3,13.4,21.9c1.5,1.3,3.1,2.7,4.9,4.2
		c-1.6,0-6.6-0.1-6.6-0.1c4.6,3,16.8,7,16.8,7c-2.4,0.7-4.8,1.2-7.3,1.6c0.3,0.3,9.1,4.9,25.6,5.6c9,0.4,18-1.2,26.3-4.7
		c0.1,0,0.1-0.1,0.2-0.1c0.1-0.1,0.2-0.1,0.3-0.1c0,0,0,0,0.1,0c-0.1,0.1-0.2,0.3-0.4,0.4c-0.1,0.1-0.2,0.2-0.3,0.3
		c-5,4.6-11.4,7.4-17.9,9.1c-3.5,1-7.1,1.7-10.7,2.1c-0.6,0.1-1.1,0.1-1.7,0.2c-0.1,0-0.1,0.1-0.2,0.1c-0.1,0-0.2,0.1-0.3,0.2
		c-1.2,4.2-1.8,8.5-1.7,12.9c0,1.5,0.1,2.9,0.1,4.4c0.2,3.1,0.5,6.2,1.1,9.2c0,0,0,0,0,0c0.4-0.4,0.9-0.8,1.4-1.3
		c1.3-1,2.9-1.6,4.5-1.8c0,0-0.1-0.1-0.1-0.1c0,0-0.1-0.1-0.1-0.1c-0.7-0.5-1.5-0.8-2.4-0.9c-0.1,0-0.2,0-0.3,0c-0.1,0-0.2,0-0.3,0
		c0.1,0,0.2-0.1,0.5-0.1c1.8-0.4,3.9-0.7,5.7-0.3c0,0,0.1,0,0.1,0c1.1,0.3,2,0.9,2.5,1.9c0.1,0.1,0.1,0.2,0.2,0.3
		c0.1,0.1,0.1,0.2,0.2,0.4c0,0,0,0.1,0,0.1c0.1,0.1,0.1,0.2,0.1,0.4c0,0.1,0.1,0.2,0.1,0.4v0.1c0,0.1,0,0.3,0,0.4
		c0,0.5-0.1,1-0.3,1.4c-0.7,1.5-1.9,4.4-1.9,5.5c0,0.5-2.6,2.3-3.3,3c0,0-0.1,0.1-0.1,0.1c0,0,0.1,0,0.1,0h0.1c0,0,0.1,0,0.2,0
		c0.8-0.1,1.5-0.2,2.3-0.3c0.2,0,0.3-0.1,0.5-0.1c0.2,0,0.4,0,0.6,0c0,0,1.8,3.3,3.2,4.4c1.4,1.1,2.6,3.4,3,5.2c0.2,0,0.4,0,0.6-0.1
		c0,0,0,0,0.1,0c0,0,0,0,0.1,0c0.1,0,0.1,0,0.2-0.1c0.2-0.1,0.4-0.2,0.5-0.3c0.2-0.1,0.5-0.2,0.8-0.3c0.2-0.1,0.5-0.2,0.8-0.4
		c0,0,0.1,0,0.1,0c-1.3,1.8-2.8,3.5-4.6,4.9c-0.3,0.3-0.7,0.5-1.1,0.7c0.8,0.1,1.7,0.2,2.5,0.1c0.4,0,0.9-0.1,1.3-0.3c0,0,0,0,0,0.1
		c-0.1,2.3-0.8,4.5-2,6.4c-0.6,1.1-1.4,2.1-2.2,3c0,0,0,0.1,0,0.1c0.1,0.3,0.2,0.6,0.4,0.8c1,1.5,3.4,4.3,5.1,6.2
		c0.1,0.1,0.2,0.2,0.2,0.3c0.1,0.1,0.1,0.1,0.2,0.2c0.2,0.2,0.3,0.4,0.4,0.5c0.1,0.1,0.1,0.2,0.2,0.2c0,0,0.1,0.1,0.1,0.1
		c0,0.1,0.1,0.1,0.1,0.1c6.4-5.9,14.2-10.1,22.7-12.2c-9.6-3.2-21.9-2-21.8-2.1c0.1-0.2,0.3-0.4,0.4-0.6c0.1-0.1,0.1-0.1,0.2-0.2
		c1.1-1.2,2.3-2.3,3.6-3.2c2.1-1.5,4.4-2.8,6.7-3.9c6.8-3.4,14-5.8,21.4-7.4c-0.1-0.2-0.2-0.4-0.3-0.5c-1-1.9,0.7-4.8,1.4-5.9
		c0.7-1.1-0.5-1.8-0.5-1.8c0.8-0.6,1.4-1.4,1.9-2.2c0,0,0,0-0.1,0c-1.6,0.3-3.2,0.5-4.8,0.7c-1.3-1.2-1.9-2.9-1.6-4.7
		c0.3-1.2,0.8-3.2,0.8-3.2h0c-0.5,0-0.9,0-1.4-0.1c-0.6-0.1-1.1-0.2-1.7-0.3c5.2-0.7,7.8-2.6,7.8-2.6h-0.1c-1.4,0.3-3.8,0.4-3.8,0.4
		c0.1-0.9,0.5-1.7,1.2-2.3c0.4-0.2,1.2-0.2,2.2-0.1c0.5,0.1,1.1,0.2,1.7,0.3c0.3,0.1,0.6,0.1,0.9,0.2c1,0.3,2,0.6,2.8,0.8
		c2.1,0.7,3.1,3.4,3.1,3.4c1.3,4,4.6,5.9,8.6,6.7c0.1,0,0.1,0,0.2,0.1c1.4,0,2.9,0,4.4,0.1c3.3,0.2,6.7,0.5,10,1
		c-13.1-10.5-21.1-10.5-21.1-10.5s35.4-8.6,131.6,17.8c4,1.1,4.8,3.1,4.8,3.1s-69.1-20.7-122.2-18.2c10.1,3.9,17.5,11.4,17.5,11.4
		c-10.7-1.5-21.5-1.7-32.2-0.7c2.4,1.3,9.9,3.9,15.6,8.5c-13.5-0.4-35.6,2.4-47.6,9.8c7.6,1,19.5,1.9,27.6,7
		c-16.1,1.5-31.1,12-35.5,15.3c4.9,4.6,10.1,8.9,15.7,12.7c3.3,2.2,6.6,4.4,10,6.4c12.1,7.2,24.8,13.3,37.7,18.9
		c8,3.5,15.5,8.1,22.2,13.7c4.3,3.6,8.1,7.7,11.4,12.2c3.9,5.3,6.7,11.1,10.2,16.6c5.8,9.1,12.7,17.6,20.8,24.6
		c4.6,4.1,9.8,7.5,15.3,10.3c1.5,0.7,3,1.4,4.6,2c0.6,0.3,1.3,0.5,1.9,0.6c-0.2,1.5-1.7,2.7-2.8,3.6c9.2,1.8,18.8,1.5,28-0.1
		c-1.7,1.8-3.3,3.5-5,5.3c9.4-0.4,19-3.2,27.4-7.2c8.1-3.8,15.5-9.1,21.5-15.8c3.5-3.9,6.6-8.3,9-12.9c0.3-0.6,0.4-0.6-0.2-0.8
		c-3.5-1.8-7.6-2.6-11.5-3c-11.7-1.3-23.1,2.7-34,6.5c-4.6,1.6-9.4,3.5-14.2,4.3c-6.9,1-14,1.1-20.4-2.2c-6-3.1-11-8-15.3-13.1
		c-4.1-4.9-7.8-10-11.1-15.4c-6.7-10.9-12.1-22.4-16.3-34.5c-3.5-10.2-6.3-20.9-5.9-31.7c0.3-8.7,2.5-17.9,7.2-25.4
		c2.2-3.8,5.3-6.9,9.1-9.3c2-1.2,4.2-2.1,6.4-2.7c1.2-0.3,2.4-0.5,3.6-0.7c-11-2.5-23.1-4.9-36.2-6.9c-8.6-1.3-16.6-2.4-24-3.2
		c7.5,0.5,15.7,1.2,24.5,2.1c75,8.2,115.9,28.2,115.9,28.2s3.3,2.2,1.5,5c-0.9,1.3-2.7,1.1-3.9,0.8c-1.4-0.7-4.3-2.1-8.4-3.8
		c-4.7-2.1-11.2-4.8-19.4-7.7c1.6,3.1,3.5,6.1,5.7,8.9c3,3.9,6.6,7.3,10.7,10.1c5.5,3.5,11.8,5.5,18.3,5.9
		c6.3,0.4,12.6-0.4,18.5-2.5c4.2-1.4,8.1-3.5,12.3-5c5.7-2.1,11.3-4.4,17.3-5.6c3.4-0.7,6.8-1,10.2-1c0.4,0,0.9,0,1.3,0.1
		c0.3,0,0.1-4.7,0.1-5.2c-0.2-1.4-0.5-2.8-1-4.2c-1-2.7-2.7-5.4-5.1-7.2c-0.1,0-0.1-0.1-0.1-0.1c-1.2-1.1-2.4-2.1-3.7-3
		c-6-4.1-12.8-7.2-19.5-10.1c-0.6-0.3-1.2-0.5-1.8-0.8c-5-2.2-10.1-4.2-15.2-6.1c6.1,3.6,16.7,11.3,18.8,20.9l0.2,0.7l-0.6,0.3
		c-1.7,0.9-3.4,1.7-5.1,2.5c-2.4,1.1-4.9,2-7.4,2.6c-2.2,0.6-4.5,0.8-6.9,0.7c-0.7,0-1.4-0.1-2-0.2c-0.6,0-1.2-0.2-1.7-0.4
		c-1.4-0.7-4.2-2.2-8.3-4c-15.5-7.3-51-21.8-104.9-31.4c-8.4-1.5-16.1-2.7-23.3-3.7c-0.1,0-0.2,0-0.3,0c0,0-0.1,0-0.1,0
		c1.3,0.1,2.7,0.2,4.1,0.4c0.2,0,0.4,0,0.7,0.1c7.8,0.8,15.7,1.7,23.5,2.8c9.8,1.4,19.6,3,29.4,4.9c8.9,1.8,17.7,3.9,26.5,6.1
		c3.7,0.9,7.4,1.9,11.1,2.9c0.6,0.2,1.1,0.3,1.7,0.5c3.6,1,7.1,2.1,10.6,3.2c5.9,1.9,11.6,3.9,17.4,6.2c0.3,0.1,0.7,0.3,1.1,0.4
		c0.5,0.2,1,0.4,1.4,0.6c2.5,1,5,2.1,7.4,3.2c0.8,0.4,1.7,0.7,2.5,1.1c0.8,0.3,1.5,0.6,2.2,1.1c1.1,0.8,1.8,2,1.8,3.4v0
		c1.5,0.1,3-0.1,4.4-0.4c1.3-0.3,2.5-0.6,3.8-1.1c2.2-0.8,4.4-1.8,6.5-2.9c-3.3-11.6-21.6-22.8-23.4-23.8c-0.1,0-0.1,0-0.2-0.1
		c0,0,0,0,0,0c0,0,0,0,0.1,0h0.1c3.6,0,7.3-0.1,11-0.1c1.2,0,2.5,0,3.7,0c0.5,0,5.3,0.2,5.6,0.2c1.4,0.1,2.8,0.2,4.2,0.3
		c3,0.3,6.1,0.6,9.1,1c0.7,0.1,1.5,0.2,2.2,0.3c3.8,0.6,7.6,1.3,11.4,2.2c0,0,0.1,0,0.1,0c1.1,0.4,2.3,0.6,3.4,0.9
		c1,0.2,2.1,0.4,3.1,0.7c1.2,0.3,2.4,0.6,3.6,1c2.6,0.7,5.2,1.5,7.8,2.3c1.4,0.5,2.8,0.9,4.2,1.4c0.2,0.1,0.5,0.2,0.7,0.2
		c0.8,0.4,1.7,0.7,2.6,1c0.1,0,0.1,0,0.2,0c0.8-0.6,5.4-3.8,9-4.5c3.9-0.7,7.7-2.2,7.7-6.7C429.7,206.1,426.1,201.3,422.1,198
		 M145.7,136.5c0.9,0.6,1.4,1.6,1.4,2.6c0.1,1.9-0.4,2.7,0.1,3.9s-0.3,2.2-2.1,3.2c-1.2,0.2-2.4,0.3-3.6,0.2
		c0.6,0.3,1.3,0.6,1.9,0.8c-1.3,1-3.1,1.4-4.7,1c0,0-3.3,2-5.9,1.7c-2.5-0.4-3.1-1.4-3.1-1.4s3-0.5,5.2-0.8c0,0-3.9-0.9-5.2-1.7
		c0,0,0.4-1.8,1.2-2.6c0.8-0.8,0.6-1,0.6-1s-3.2-0.8-4.4-1.2c1.7-0.2,3.4-0.6,5-1c0,0-0.5-0.9,1.1-2.1c1.2-0.9,2.3-2,3.4-3.1
		c0.6-0.7,3.5-0.7,5.1-0.3c1.7,0.5,1.6,0.5,2.5,0.5c0.9,0,4.7-0.4,4.7-0.4S148.2,135.8,145.7,136.5 M144,221.7
		c-1.4,1.1-5.1,4.1-7,6.4c-1.9,2.2-4,4.6-8.3,3.5c-4.3-1.1-4.9-7.3-4.9-7.3c1.1-1.6,6.2-3.9,6.2-3.9c-2.1,0.1-4.1,0.3-6.1,0.6
		c0.1-1.3,0.2-5.1,0.2-8.1c-0.1-2.1-0.6-4.1-1.6-5.9c1.1-1.1,3.8-2.5,3.8-2.5c-5.3,0.8-8,0.2-8,0.2c1.4,0,3.5-1.1,3.5-1.1
		c-0.3-1.6,0.3-3.8,1.1-4.6c0.8-0.8,3.2-3.8,4.3-4.6c1.1-0.8,4-0.3,6.8,0.2c2.9,0.5,3.3,2.2,3.3,2.2c0.9,0.2,1.9,0.2,2.9,0.2
		c-1.8,1.3-6.2,2.7-6.2,2.7c1.3,0.2,2.5,0.3,3.8,0.3c0,0,1.3,4.6,1.9,7c0.3,1,0.8,1.9,1.5,2.7c-1.6,1-3.4,1.8-5.1,2.5
		c2.2-0.1,4.3-0.5,6.3-1.2c0.6,0.6,1.3,1.3,2.1,2C146.8,215.1,145.4,220.6,144,221.7 M169.2,179.9c-0.5,0.5-1.2,0.9-2,1
		c-0.6-0.1-1.1,0.4-1.1,0.9c0,0.2,0,0.3,0.1,0.5c0.2,0.6,1.3,2.8,0,4.3c-1.3,1.5-4.4,1-4.4,1s-3.1,2.3-6.4,1.8
		c-2.1-0.3-4.1-0.9-6.1-1.8c-1.6-0.4-3.2-0.9-4.8-1.6c2.5,0.2,5,0.3,7.4,0.2c0,0-3.5-1.1-4.5-2.3c0,0,1.2-0.7,1-1.8
		c-0.2-1.1-0.6-2.6-0.1-3.5c1.5,0.7,3,1.3,4.6,1.9c0,0-2-1.7-2.7-3.1c0.9-0.1,1.8-0.4,2.5-1c1.2-1,2.5-2.8,4.7-2.7
		c0.6-0.6,1.3-1,2.1-1.3c0.6-0.1,1.3-0.2,1.9-0.2c1.1,0.4,2.2,0.7,3.3,0.9c0,0-2.8-1.8-3.4-2.7c0.7,0.2,1.5,0.4,2.3,0.4
		c1-0.2,2-0.1,3,0.2c1.8,0.5,3.1,1.9,3.1,3.1c0,1.2-1.7,2.8-1.1,3.8c0.5,0.9,4.4,1.9,5,2.1C172.2,179.8,170.7,179.8,169.2,179.9
		 M166.5,270c-0.4,0.6-0.2,1-1.1,2.9c-0.9,2-3,1.9-4.5,2.1c-1.5,0.2-4-1.7-4-1.7c-0.9,0.3-2.5,1.8-2.5,1.8c0.7-2.4,3.4-4.9,3.4-4.9
		c-1.1,0.6-2.1,1.2-3.1,1.9c-1.1-0.9-5-2-7.7-3.4c-1.5-0.8-2.4-2.5-2.3-4.2c0.2-1.7,1.6-3.9,1.6-3.9c-0.7,0.4-1.3,0.9-1.8,1.5
		c0-0.3,0-0.6,0-0.9c0-0.6,0.3-1.2,0.6-1.7c0.3-0.3,0.8-0.6,1.2-0.7c0.2-0.1,0.4-0.2,0.5-0.4c0.1-0.1,0.1-0.1,0.2-0.2
		c0,0,0.1-0.1,0.1-0.2c0-0.1,0.1-0.2,0.1-0.2c0-0.1,0.1-0.1,0.1-0.2c0.1-0.3,0.2-0.5,0.3-0.8c0.1-0.4,0.3-0.7,0.6-1
		c0.7-0.7,1.6-1.3,2.5-1.8c-0.6,0.7-0.9,1.5-1,2.4c0,0,0,0,0,0c1.1-1.7,2.9-2.7,4.9-2.7c-0.5,0.2-1,0.4-1.4,0.6c0,0,1.4,0.5,2.7,0.9
		c2,0.4,4.1,0.6,6.1,0.6c1.7,0.1,3.4,0.3,5,0.6c1.4-0.5,5.8-1.6,5.8-1.6c-1.5,0.9-4.2,2.3-4.2,2.3c5.5,3,0.8,9.2,0.8,9.2
		s-1,0.2-3,1.7c-1.2,0.9-2,2.1-2.5,3.5C164.8,271.1,165.6,270.5,166.5,270 M214.2,286.5c-1.3,2.2-3,2.4-3,2.4l0.4-0.8
		c-1.5,0.4-3.1-0.4-3.2-0.5c0.6,0.9,0.9,1.9,1,2.9l-0.6,1.1l2-0.2l-1.1,1.4c0.3,3.3-2.4,4.5-5.5,4.2c-3.2-0.3-7-3.5-7-3.5
		c0.2-1.3,2.6-4.7,2.6-4.7c-1.7,0.5-4.8,2.7-4.8,2.7c-2.9-1.8-2.3-1.2-10.6-2.3c-8.2-1.1-12.4-3.3-12.4-3.3
		c-0.1-1.5,1.1-3.3,1.1-3.3c-1.2,0.6-2.2,1.4-2.9,2.5c-0.7-0.5-3.1-2.8-2.2-6.1c0.9-3.3,5.8-3.8,5.8-3.8c1.6-1.3,4-1.3,4.1-1.3
		c-0.6,0.3-1.4,1-1.4,1c1.3-0.3,8.6,0.5,11.8,0.7c3.2,0.3,6.6,0.2,6.6,0.2l3.2-0.8c-1.4,0.9-5.2,3.4-5.7,3.7
		c2.4-1.5,8.2-2.6,8.2-2.6c0.9,0,1.7,0.1,2.5,0.5c1.5,0.7,2.1,3.1,2.1,3.1c1.3-1.3,3.4-0.5,5.6,1.8c1.3,1.3,2.1,2.9,2.3,4.7
		L214.2,286.5z M207.3,246.1c1.6-0.6,3.2-1,4.9-1.2c-1.4,0.8-2.8,1.8-4,2.8c0,0,1.4,2.8,1.5,5.2c0.1,2.4-1.8,3.2-3.8,3.9
		c-2,0.8-4.1,0.3-4.8-0.1c-0.5-0.3-1.1-0.4-1.7-0.3c0.7-0.9,3.4-2.7,3.4-2.7c-1.8,0.2-3.5,0.9-5,1.8c-2.1,0.3-4.2,0.6-6.3,0.7
		c-2.2,0-5.5-2.1-5.5-2.1c-1.1,0.1-2.2,0.4-3.2,1c1-1.6,5.2-4.7,5.2-4.7c-2,0.4-4.5,2.1-4.5,2.1c-0.8-0.8-4.5-3-5.5-3.8
		c-1-0.8-1.6-1.8-1.3-4c0.3-2.2,2.8-2.4,5.1-2.5c2.3-0.1,5.4-0.1,5.4-0.1c-0.7,0.6-1.2,1.3-1.6,2.2c0.4-0.7,3.9-2.3,3.9-2.3
		c2.1-0.6,4.2-1.3,6.2-2.1c2.3-1.1,5-0.9,7.1,0.5C205.1,241.7,207.3,246.1,207.3,246.1 M372.1,145.7c0.6-0.2,1.2-0.2,1.8-0.2
		c0-0.4-0.1-0.8-0.4-1.1c1.4,0.8,2.7,1.8,3.9,2.9l-0.3-1.1c0,0,2.1,0.5,3.1,1.5c0.7,0.7,1.3,1.6,1.8,2.5c0.3,0.5,1.1,2.2,0.7,2.7
		c-0.2,0.3-0.5,0.5-0.8,0.5c0,0-3-1.8-3.7-2.2c0,0,1.5,2.3,1.7,2.8c0,0-2.6-0.4-3.2-1.3c0,0-2.9-0.7-3.9-1.4c-1-0.7-1.9-1.8-1.9-2.4
		c0,0,1.6,0.8,2.5,1.1c0,0-2.2-2.7-2.9-3.3C370.8,146.3,371.4,145.9,372.1,145.7 M354.9,134.8c0,0-1.4-2.1-1.4-3.3
		c0.8-0.1,1.6,0,2.3,0.3c1.3,0.5,1.6,0.1,1.6,0.1c-0.3-0.4-0.6-0.9-0.8-1.5c0.7,0.6,1.5,1.2,2.3,1.7c0,0,2-0.6,3.6,0
		c1.3,0.7,2.5,1.6,3.6,2.7c0.4,0.4,0.9,0.8,1.4,1.2c-0.5-0.6-0.9-1.3-1.1-2.1c0.1,0.1,1.1,0.7,1.6,1c0.7,0.4,1.3,1.1,1.6,1.9
		c0.2,0.6-0.8,1.6-0.8,1.6s1.3,1.7,1.3,2.4c0,0.4-0.2,0.9-0.5,1.2c0,0-2.4-2.1-3.2-2.8c0,0,1.2,2.8,1.3,3.4c0,0-2.3,0.1-3.5-0.9
		c-1.2-0.9-3-2.1-2.5-2.1c0,0,0.5,0,1,0.1c-1-1.1-2.3-1.7-3.8-1.8c-1.1,0.2-2.1,0-3.1-0.5c-0.9-0.4-1.7-1-2.4-1.7
		c-0.5-0.7-0.9-1.5-1.1-2.3C353.2,133.9,354,134.4,354.9,134.8 M343.6,144.2c0.6-1,1.6-1.6,2.7-1.6c0,0-1.6-1-2.6-1.5
		c2.2,0.6,4.3,1.5,6.3,2.6c-0.1-0.6-0.4-1.2-0.9-1.7c1.4-0.3,2.9,0,4,0.9c2.1,1.4,2.2,2.8,3.8,3.9c1.6,1.1,0.6,2.8-0.1,3.2
		c0,0,0.5,1.3,0.8,1.9c-1-0.4-2.2-0.7-3.3-0.7c-0.6,0.7-1.5,1-2.3,0.7c-1.2-0.3-2.2-0.8-3.2-1.6c0,0,1.4,0.1,2.6,0.1
		c-0.5-0.5-1.2-0.8-1.9-0.9c-1.1-0.1-2.2-0.6-3.2-1.3c-0.1,0.5,0,1,0.4,1.3c0,0-2.2,0.6-2.6-1.6C344,145.6,342.8,145.8,343.6,144.2
		 M324.5,132.8c0,0-1.8-2-1.9-2.7c0.8-0.2,1.5-0.6,2-1.2c0.6-0.8,2.4-1.2,3.8-1.3h0.3c1.4,0,4.8,1.8,6.5,3c-0.8-1.1-1.6-2.1-2.5-3
		c1.1,0,2.2-0.1,3.3-0.2c1.1-0.3,2.2-0.3,3.3,0.1c0.7,0.4,1.3,1,1.7,1.7c-0.7-0.3-1.3-0.5-2-0.7c0,0,0,0.9,1.7,2.1
		c1.8,1.2,2.2,1.9,2.1,2.9c-0.1,1.1-1,1.9-2.1,2c-1.2,0.1-2-0.3-2.4,0.2c-0.4,0.6-1,1.1-1.8,1.3c0,0-4.2-2.6-6-3.6
		c0.7,0.9,1.3,1.8,1.9,2.8c0,0-2.5,0.2-4.3-0.5c-1.7-0.7-2.9-1.4-4.1-1.9c-1.2-0.5-2.6-2.3-2.6-2.3
		C322.3,132.1,323.4,132.5,324.5,132.8 M322.9,154.2c0,0-2.8-2-3.3-2.9c0,0,0.8-0.5,0.7-1.2c-0.1-0.7-0.3-1.4,0.4-2.2
		c1.3,0.5,2.7,0.8,4.1,1.1c0,0-1.7-1.7-3.4-3.1c0.8,0,1.5,0.1,2.3,0.4c0.6-0.2,1.2-0.6,1.7-1.1c1.2-0.9,3.4-0.7,4.7,0.2
		c1,0.7,1.8,1.6,2.6,2.6c1,0.6,1.9,1.5,2.5,2.5c0,0-2.6-1.7-4.7-2c0,0,1.9,1.7,2.4,2.7c-0.5,0.4-0.9,0.9-1.3,1.4
		c-0.3,0.6-1.2,1.9-2.1,2.2c0,0-1,1.3-2.1,1.4c-0.9,0-1.7-0.1-2.6-0.2c-0.7,0-3.6,0-5.8-2.2C319,153.8,322.1,154.2,322.9,154.2
		 M296.8,137.9c-0.1-0.6-0.3-1.2-0.6-1.7c-0.5-0.9,0.4-1.7,0.9-2c0.4-0.2,2.5-1,3-1.4c-0.9-0.7-1.8-1.3-2.8-1.9
		c1.4,0.1,2.9,0.4,4.3,0.7c0.8,0,1.7-0.1,2.4-0.4c0.8-0.4,1.8-0.6,2.7-0.4c1,0.1,1.1,0.4,1.8,0.5c0.4,0,0.9,0,1.3,0
		c-0.4-0.5-0.9-0.8-1.5-1c0,0,2.3,0.3,3.4,1c1.1,0.2,2.1,0.7,3,1.4c1.1,1.1-0.1,2.5-0.1,2.5s-1.5-0.4-2.1-0.6
		c0.5,0.7,0.9,1.4,1.2,2.2c-0.8,0.5-1.6,0.9-2.4,1.1c-0.8,0.1-1.5,0.5-1.9,1.2c-0.9,0.9-2.2,1.4-3.5,1.2c-1.4-0.2-4.2-1-4.4-1.1
		c0.7,0.7,1.4,1.5,1.9,2.3c-1.3,0.6-2.8,1-4.2,1.2c-1.1,0-2.3-0.1-3.4-0.3c-1-0.3-2-0.8-2-1.5c0-0.5,0.2-1,0.5-1.4
		c1.1,0.4,2.2,0.8,3.3,1c0,0-3.1-2.9-4.2-3.7C294.5,137.2,295.6,137.5,296.8,137.9 M289.4,155.8c0,0-0.3-1.6,2.6-3s3.8-2.3,4.4-3.2
		s0.9-1.8,1.6-2.4c0.9,0.5,1.7,1.1,2.5,1.7c-0.6-1.4-1.5-2.5-2.7-3.3c1,0.1,2,0.4,3,0.7c0,0,1.7-0.9,3-0.7c1.3,0.2,3.6,1.3,3.8,2.1
		c0.2,0.7-0.4,3-0.9,3.9c-0.4,0.9-2.7,2.3-4,2.8c0-0.1-0.1-0.2-0.2-0.3c0-0.1-0.1-0.1-0.1-0.2c-0.4-0.6-0.8-1-1.4-1.4
		c0,0,0,0.1,0.1,0.2c0,0.1,0,0.1,0.1,0.2c0,0.1,0,0.1,0.1,0.2c0,0.1,0,0.1,0,0.2c0.1,0.2,0.1,0.5,0.2,0.8c0,0.2,0.1,0.4,0.1,0.7
		c0,0-0.3,0.1-0.7,0.4c-0.7,0.5-1.4,1.1-2.1,1.7c-1.5,1.4-2.4,3.4-2.5,5.5c-0.7-0.3-1.3-0.7-1.9-1.1c0.3,1.1,1,2.1,2.1,2.7
		c0,0,0.9,1.2,0.5,2.1c0,0-2.8-0.2-3.5-0.8c-0.9-0.5-1.8-1-2.8-1.3c0.5-0.1,1-0.1,1.4-0.1c0,0-0.8-1.8-1.5-2.5
		c-0.7-0.6-2.2-1.7-1.9-3.2c0.9,0,1.7,0.2,2.6,0.4c0,0-2.7-2.4-4.4-2.7L289.4,155.8z M287.6,150.3
		C287.6,150.3,287.6,150.4,287.6,150.3C287.6,150.4,287.6,150.4,287.6,150.3c-1-0.2-3.1-0.5-4.1-0.6c-0.3,0.3-1,1-1.2,1.3
		c-0.5,0.8-0.8,1.8-1,2.8c-0.1,1,0.3,2,0.9,2.7c0.6,0.6,2.7,2.5,3,3.4c0.4,0.9-0.3,2.3-0.1,2.9c-0.8-0.5-1.6-0.9-2.5-1.3
		c0.2,0.2,2,2.1,1,2.3c-0.7-0.8-1.6-1.4-2.6-1.8c-1.6-0.7-4.7-2.2-5.6-3c-0.7-0.8-1.2-1.7-1.4-2.6c0.1,0.1,0.6,0.8,1.1,0.9
		c0.7,0.3,1.4,0.6,2,1.1c-0.3-0.6-0.6-1.2-1.1-1.7c-0.6-0.5-2-1.2-2.7-2.1l0.8-0.3c0.1-1.1,0.1-2.1-0.1-3.2c0-0.1,0-0.1,0-0.2
		c-0.4-1.7-0.2-2.6,0.2-2.9c1.2,0,2.4,0.2,3.6,0.4c-0.8-0.4-1.6-0.9-2.4-1.4c0.2-0.1,0.3-0.2,0.4-0.4c0.2-0.4,0.1-1.2,0.8-1.3
		c0.7-0.2,2.1,0.5,2.4,0.7s2.2,1.3,2.8,1.6c0.3,0.2,0.5,0.7,0.6,1.2C284,149.2,285.7,149.7,287.6,150.3
		C287.5,150.3,287.5,150.3,287.6,150.3 M260.6,128.9c1-0.5,2.2-0.7,3.3-0.7c0,0,4.3,2,6.9,2.6c0,0-3.3-2.2-4.1-3.5
		c0,0,2.3,0.1,3-0.4c0.7-0.4,1.1-1.5,2.4-1.9c0.8-0.3,1.7-0.4,2.6-0.5c-0.5-0.3-1-0.6-1.5-1c1.1,0.3,2.2,0.5,3.3,0.7
		c0,0,2.2,0.1,3.1,0.2c1,0.1,2.8-0.5,4.3,0c1.5,0.5,0.9,2.5-0.3,3.5c-0.8,0.7-1.7,1.2-2.7,1.6c0.1,0.7,0.4,1.4,0.9,2
		c-0.9-0.1-1.8-0.4-2.5-0.8c-0.5,0.5-0.8,1-1.1,1.6c-0.1,0.5-1.6,2.4-2.5,3.1c-0.9,0.6-1.8,1-2.8,1.4c0,0,1.7,2.4,3.1,3.4
		c-0.4-0.1-5-2.2-6.9-4.1c0,0-0.2,1.4,0.3,2.2c-1.5,0.6-3.2,0.8-4.8,0.4c-1.9-0.5-3.6-1.4-5.1-2.5c1.3,0.3,2.7,0.4,4,0.5
		c0,0-3.3-1.6-3.9-3.2C258.6,131.6,258.8,129.7,260.6,128.9 M258.2,165.9c3.1-0.9,6.4-1.6,9.6-1.9c10.5-1,21,0.8,30.8,4.1
		c9.5,3.2,18.3,8.2,28.1,10.8c1.2,0.3,2.5,0.6,3.8,0.9c0.2,0.1,0.5,0.1,0.7,0.1c4.1,0.8,8.4,1.5,12.5,0.5c2.6-0.6,5-1.8,7.1-3.6
		c0.1-0.1,0.2-0.2,0.3-0.2c0.8-0.8,1.5-1.8,2-2.9c1.2-2.6,1-5.1,0.8-7.9c0-0.1,0-0.3,0-0.4c-0.1-0.3-0.1-0.7-0.2-1
		c-0.2-1-0.5-1.9-0.8-2.9c-0.3-0.9-0.6-1.7-0.9-2.3c-0.1-0.2-0.2-0.4-0.3-0.6c0-0.1-0.1-0.2-0.1-0.3c-0.1-0.2-0.2-0.3-0.2-0.5
		c0-0.1-0.1-0.2-0.1-0.2c0,0-0.1-0.1-0.1-0.2c0-0.1-0.1-0.1-0.1-0.2c0-0.1,0-0.1-0.1-0.1c1.1,1,2.1,1.9,3.1,2.8
		c13.4,13.9,3.9,25.7,3.9,25.7s-16.9-3.5-29.7-2.8c-6.1,0.4-13.4,3.1-19.2,5.9c0.1,0,0.1,0,0.2,0c0,0,0.1,0,0.1,0
		c0.9,0.3,1.6,1.5,2.2,2.1c0.7,0.8,1.5,1.6,2.2,2.4c1,1.1,1.9,2.3,2.8,3.5c1.6,2.1,3,4.4,4.3,6.7c0.6,1.2,1.2,2.3,1.7,3.6
		c0.3,0.6,0.5,1.2,0.7,1.8c0.1,0.3,0.2,0.6,0.3,0.9c0,0.2,0.1,0.7,0.2,0.8c-0.8-0.5-3.1-1.9-4.6-2.7c-1.6-0.8-14-7.7-19-9.8
		c-1.4-0.6-7.1-2.6-9.5-2.9c-5.2-0.4-10.4-0.2-15.5,0.8l8.2-3.3c-2.7-0.1-8.1-0.2-11.9-1c-7.5-1.4-18.4-6.4-23.2-11.5l-1.6-2.1
		l5.6-0.2c0,0,1.7,0,2.8,0.1c-2.2-1.4-5-4-6.1-6.1V172c-1,0.2-2.1,0.5-3,0.7c0,0-0.4,0.1-0.5,0.1c-0.1,0-0.3,0.1-0.3,0.1
		c1.6-1.4,3.3-2.7,5.1-3.8C252.3,167.7,255.3,166.8,258.2,165.9 M244,145.6c0.8,0.1,2.3,1.1,4,1.6c-0.5-0.4-0.9-0.9-1.2-1.4
		c1,0.1,2,0.2,2.9,0.5c0.9,0.4,1.4,1.4,1,2.2c-0.5,0.7-1.1,0.8-1.1,1.3c0,0.5,1.3,1.4,1.9,1.9c0,0-0.9-0.3-1.9-0.5
		c0,0,1.1,1.2,0.9,2.4c-0.2,1.2-0.6,1.5-1,2.3c-0.3,0.8-1.4,1.5-2.5,2c1,0.4,1.9,0.9,2.9,1.5c-0.3,0-3.1-0.4-3.9-0.5
		c-0.9,0.5-1.6,1.2-2.2,2c-0.8,1.2-2.2,2-3.7,2.1c0,0-2.2-0.7-3.1-0.9c0,0,1.2,1,1.6,1.5c-0.8,0.3-1.7,0.4-2.5,0.2
		c-1.2-0.3-4-1.4-4.9-1.7c0,0,2,0.1,2.7,0.2c0,0-4.1-3.3-4.7-4c0,0,1.8,0.3,2.5,0.5c-0.3-0.2-2.6-1.6-2.7-3.4c0-1.1,0.7-2,1.6-2.5
		c0.9-0.5,2-0.5,2.3-1.2c0.3-0.5,0.4-1,0.5-1.5c0,0,3,0.6,4.4,0.9c0,0-1.2-1.8-2-2.1c0.3-0.5,0.7-0.9,1.3-1.2c1-0.5,2.7-0.9,3.8-1.7
		C242.1,145.2,243.3,145.4,244,145.6 M221.8,125.3c0,0,1.6,2.1,2.7,2.7c0,0-1-2.4-1-4c0.5-0.3,0.8-0.8,1-1.4c0.2-0.7,1.9-1.8,3-2
		c0.7-0.1,1.4,0,2.1,0.2c0,0,1.3,2.8,2.2,3.9c0,0-0.4-5.6,0.1-7.6c0.5,1.2,1.1,2.3,1.8,3.4c0,0,1.3-0.1,3.1-0.4
		c1.8-0.3,3.4-0.1,4.5,0.9c0.9,0.9,1.4,2.2,1.2,3.4c-0.2,1.1-0.9,3.8-2.4,4.4c-1.5,0.6-1.8,0.7-1.8,0.7v3.2
		c-0.9-0.8-1.8-1.7-2.6-2.6c-0.7,0-1.4-0.1-2.1-0.2c-1.5-0.2-3.4,2.4-6.2,2.1c0,0-4.6-1-5.4-2.9
		C221.2,127.4,221.4,125.8,221.8,125.3 M212.8,175.6c0.7,0,2.2,0.2,2.7-0.2c0.5-0.4,0.6-1.4,1.5-1.9c0.9-0.5,2.5-0.1,3.9,0.3
		c1.4,0.4,3.2,1,3.2,1c-1.7,0.1-3.4,0.1-3.4,0.1c2.1,0.6,4.1,1.5,5.9,2.6c1.9,1.2,1.1,2.3,2.8,2.9c1.6,0.6,1,1.2,1,1.2
		c-1.9-0.4-5.1-0.7-5.1-0.7c2.4,0.9,4.2,1.6,4.2,1.6c-0.2,0.2-0.5,0.3-0.8,0.3c-0.4,0.1-1.2-0.4-1.9-0.3c-0.7,0.1-1.2,1.2-1.9,1.8
		c-0.5,0.4-1.1,0.5-1.6,0.4c-0.2,0.6-0.5,1-0.9,1.4c-0.7,0.6-1.9,0.3-3.3,0.1c-1.5-0.2-2-3.4-2-3.4c-1.2-1-2.5-1.9-3.9-2.6
		c0.8,0,1.5,0.1,2.3,0.3c-0.5-0.8-3.4-2.2-3.4-2.2c-0.5-0.2-2-1-2-1c1.5,0.1,6,1.1,6,1.1c-1.4-0.8-2.9-1.5-4.4-2.1
		C211.7,175.9,212.2,175.6,212.8,175.6 M176.1,138.1c-0.8-1.5-1.2-1.6-1.2-1.6c-1.8,0.8-5.5,0.8-5.5,0.8c3.6-1.5,6.7-4.9,6.7-4.9
		c-1.3,0.5-2.7,0.9-4.1,1.1c-0.3-0.5-0.4-1.1-0.3-2.2c0.1-0.7,0.5-1.3,1.1-1.7c0.1-0.6,0.4-1.1,0.8-1.6c0.8-1,3.3-2.3,4.7-2.4
		c1.5-0.2,2.9-0.7,4.2-1.5c1-0.7,4.4-2.1,6.1-1.9c0.8,0,1.6,0.2,2.4,0.4c1-0.1,3.1-0.4,3.1-0.4c-1.4,1.2-3,2.2-4.6,3.1
		c2.1-0.3,4.2-0.9,6.1-1.7c3.4,0.2,4.4,1.8,4.2,3.8c-0.2,2-2.8,3.7-3.4,4.2c-0.7,0.5-1.9,1.4-2.3,2.6c-0.4,1.1-1.4,2-2.5,2.2
		c-0.8,0.1-1.9,1.3-1.9,1.3c1,0.1,2.1,0,3.1-0.3c-0.2,0.1-1.6,1.3-2.2,1.8c-1.1,0.6-2.4,0.9-3.7,1c-0.8-0.1-1.7,0-4.2-0.1
		C179.8,139.9,176.9,139.7,176.1,138.1 M202.9,198.3c-1,1.4-4.8,2-6.9,1.7c0,0-3.9,1.7-6.1,1.4s-6.2-1.8-6.2-1.8
		c0.8-0.4,1.6-0.7,2.4-0.8c-0.7-1.2-1.5-2.3-2.5-3.2c-1.8-1.7-4.1-3.8-4.5-5.2c1.3-0.5,2.7-1,4.1-1.4c0,0-2.9,0.1-4.5-0.6
		c0,0-0.1-3,0.5-4.2c0.5-0.9,0.9-1.8,1-2.8c0-0.6-0.1-0.6,0.8-0.9c0.9-0.3,5.2-1,5.2-1s-0.4-1-3.1-1.4c1.6-0.5,3.4-0.7,5.1-0.5
		c2.7,0.4,4.5,3.6,5.4,5.3c0.9,1.7,2.2,3.2,3.7,4.4c1,0.8,4.9-0.1,5.2-0.2c-0.3,0.3-2.7,2.6-4.2,2.5c0,0,0.8,3,2.2,4.2
		S203.9,196.9,202.9,198.3 M203.4,166.6c0,0-3-0.7-3.9-0.8c0.7,0.7,1.5,1.4,2.3,2.1c-0.8-0.1-1.6-0.2-2.4-0.1
		c-1.2,0.2-4.9,0.5-6.9-1.1c-2-1.6-1-2.8-0.5-3.3c0.5-0.5,0.6-1.1-0.7-2.6c-1.3-1.5-1.1-1.5-0.9-2.4c0,0,4.6,0,6.2,0.5
		c0,0-4.5-2.5-6.2-2.9c0,0,0.1-0.6,1.1-1.3c1-0.7,2.3-1.3,2.7-3.2c0,0,3.3,0.6,5.2,0.9c-2.1-0.8-3-1.9-6.4-2.9c0,0,2.3-0.1,3.2-0.2
		c0.8-0.1,1.7-0.5,2.3-1c0.4-0.4,0.8-0.7,1.2-1c0.9-0.6,1.9-0.9,2.9-0.9c2.1,0,4.2,0.3,6.2,1c0.8,0.3,1.5,0.6,2.3,0.9
		c0,0-2.2-0.3-3.7-0.4c0.4,0.2,0.8,0.5,1.1,0.9c0,0.5,0,0.9-0.1,1.4c-0.2,0.7-0.3,1.4-0.1,2.1c0.3,0.8,1.1,2.7,1.2,3.3
		c0,0-2.5-0.2-4-0.2c0,0,4.1,2,5.3,2.7c-0.5,0-0.9,0-1.4,0c0,0-1.4,0.8-1.7,1.4c-0.3,0.5,0,3-1.4,4c-1.4,1.1-3.2,0.8-3.7,1.5
		C202.5,165.7,203.4,166.6,203.4,166.6 M347.1,223.2c0,0,3.2,2.3,1.4,5c-0.9,1.3-2.7,1.1-4,0.7c-1.4-0.8-4.2-2.2-8.3-4.1
		c-11.5-5.5-34-15.2-66.9-24c-11.3-3-23.9-5.9-37.6-8.5c-8.6-1.6-16.5-2.9-23.9-3.9c7.5,0.7,15.7,1.7,24.4,2.9
		c11.4,1.6,22,3.5,31.8,5.5C318.2,207.9,347.1,223.2,347.1,223.2 M375.6,198.8c-2.1,4.2-12.8-1.4-24.3-2.5c-11.5-1-27,3.4-27,3.4
		c0.1-0.1,0.2-0.2,0.4-0.3c1.1-0.8,2.3-1.5,3.5-2.1c1-0.5,2.1-1,3.1-1.4c3.7-1.6,7.5-2.8,11.4-3.8h0c2.9-0.7,5.9-1.1,9-1.2
		c8.2-0.1,19.7,2.3,23.1,5.3C375.6,197.1,376,197.9,375.6,198.8"/>
	<path class="st0" d="M316.6,180.4c0,0-11.7,7.4-20.1,5.2c-8.5-2.2-23-13.7-23-13.7s5.5-0.7,14.7,0.8c0.1,0,4.9,0.9,7.6,1.6
		c1.2,0.3,2.3,0.6,3.4,0.9c0,0,1.4,0.6,1.4,1.8c0,1-0.8,1.8-1.7,1.8c0,0,0,0-0.1,0c-0.3,0-0.6-0.1-0.9-0.2c0,0.1,0,0.3,0,0.5
		c0,2.2,1.7,3.9,3.9,3.9s3.9-1.7,3.9-3.9c0,0,0,0,0,0c0-0.8-0.2-1.6-0.7-2.3C312.6,179,316.6,180.4,316.6,180.4"/>
	<path class="st0" d="M312.4,200.9c-3.5-1.9-7.2-3.6-10.9-5c-1.4-0.5-5.1-1.8-8-2.5c-0.6-0.2-1.2-0.3-1.8-0.4
		c-1.2-0.2-2.3-0.4-3.3-0.5l3.1-1.6l-4.2,0.2c-4.8,0.1-9.5-0.3-14.2-1.2c-6.5-1.3-14.3-5.8-18.4-9.8c0.6,0.1,1.3,0.1,1.9,0.1
		l1.9-0.1l-1.2-1.4c-1.2-1.3-4.1-4.9-5.2-7.2c0,0,0,0,0-0.1c0.2,0,0.3-0.1,0.5-0.1c0.8-0.1,1.7-0.2,2.5-0.3c0,0,1.2-0.1,1.2-0.1
		c1-0.1,2.1-0.1,3-0.1c0.8,0,1.6,0.1,2.3,0.2c0.1,0,0.2,0.1,0.3,0.2c1.3,1.3,3,2.1,4.4,3.2c3.1,2.2,6.3,4.2,9.6,6.1
		c2.4,1.4,4.9,2.7,7.4,4c4,1.6,7.9,3.4,11.7,5.5c2.5,1.3,5.2,2.9,7.2,4.2c1,0.6,1.9,1.2,2.8,1.8c0.6,0.4,1.2,0.8,1.8,1.2
		C308.9,198.3,310.7,199.6,312.4,200.9"/>
</g>
</svg>
