<?xml version="1.0" encoding="utf-8"?>
<!-- Generator: Adobe Illustrator 23.0.3, SVG Export Plug-In . SVG Version: 6.00 Build 0)  -->
<svg version="1.1" id="Layer_1" xmlns="http://www.w3.org/2000/svg" xmlns:xlink="http://www.w3.org/1999/xlink" x="0px" y="0px"
	 viewBox="0 0 500 500" style="enable-background:new 0 0 500 500;" xml:space="preserve">
<style type="text/css">
	.st0{fill:#FFFFFF;}
</style>
<title>Logos/Clubs/KC/Primary</title>
<desc>Created with Sketch.</desc>
<path class="st0" d="M472.9,243.1c-1.7-3.5-4-7-9.1-11c-4-3.6-5.4-5.2-6.5-6.1c-5.9-4.7-2.8-2-7.7-5.7c-3.8-2.9-5.8-4.2-9.7-6.9
	c-8.1-5.6-4.6-2-10.5-7.4c-4.6-6.8-13.2-16.5-21.4-17.9c-9.1-1.5-12.8-3.9-13.7-5.3c-4.2-6.7-12.7-13.2-16.3-15.2
	c-11.1-6-23.6-5.6-33.6-14.5c-13.7-9.7-23.2-8.3-34.4-9c-8.7-0.6-18.6-6.3-22.7-9c-3.7-2.4-10.4-5.3-14.2-5.1
	c-20.5,0.9-20.5-0.7-32.8-7.9c-4.4-2.6-7.5-4.2-12.5-5.6c-4.3-1.2-6-0.6-10.2-1.2c-13.3-1.7-12.7,3.4-22.2-1.8c-4-2.3-8.3-4-12.8-5
	c-4.4-1-8.9-1-14.2-1.3c-9.5-0.4-12.8,4-26.7,1.4c-15.9-3-29.6-5.6-36.3,0.3c-9.3,6.3-11.9,18-8.7,29.5c2.7,12.1,4.7,15.9,6.7,23.6
	c4.2,13,0.9,5.1-3,2.8c-9.2-6.5-18.4-4.1-23.7-1.1c-11.1,6.9-10,0.3-17.5-0.3c-3-0.8-6.6,0.2-6.6,0.2c-3.7,0.6-7,2.6-9.2,5.6
	c-2.1,2.4-3.6,5.3-4.5,8.4c-1.1,3.5-1.5,6.2-0.8,11.9c0.6,5,2,7,2.5,10.8c1.4,9.8-1.6,12.5-4.3,18c-1.6,3.3-4.3,10.3-5.3,13.2
	c-3,9-3.8,13.9-4.1,17.4c-0.5,6.2-0.8,10.4-0.8,14.9c0,3,0.6,7.5,1.3,12.8c1.2,8.6,2.2,11.2,4.1,18.7c2.3,9.1,2.4,12.4,1.2,20.5
	c-1.2,7.7-2.4,11.8,1.2,17.3c3.1,4.9,6.7,5.9,9.4,7.1c3.8,1.3,7.9,1.7,11.9,1.1c6.5-1,9.7-3.3,14.8-5.9c5.2-1.8,12,3.8,20.6,0.6
	c8.5-4.5,5,3.5,5,3.5c-2.1,5.5-6.7,21-9,31.8c-0.5,6.2,0.1,10.8,4,15.6c2.4,3.3,9.1,6.9,15.1,8.1c4.4,1,9,1,13.4-0.1
	c0-0.3,2.4-0.4,2.4-0.6l6.7-1.5l4.5-0.7c6.4-0.7,4.6-0.3,12.3-0.5c7.5-0.2,14.8,2.2,21.8,2.2c3.7,0,7.6,0.4,11.1-0.3
	c9.6-2,9.8-1.4,22-7.2c9.4-4.5,13.1-1.9,17-2.1c8.9-0.4,20.5-3.2,24.3-5.3c4.6-2.5,8-4,11.1-5.5c12-5.7,17.2-4.5,29.7-6.9
	c10.8-2.1,11.8-5.5,21.6-8.1c3.9-1,8.4-1.5,12.6-2.1c3.2-0.4,9.5-3.2,13.5-6.5c6.9-5.7,5.2-4.7,7.9-6.4c8.1-5.1,9.6-2,21.5-7.2
	c6.2-2.7,15.3-8.6,21.1-13.1c7.1-5.6,14.6-5.4,25.7-10.6c5.5-2.6,11.4-6.6,18.8-18.9c5-8.4,13.7-6,25.5-13c5.2-3.1,4.7-3.2,10.4-8.6
	c5.1-4.8,8.3-10.5,10.3-14.1C473.4,253,475.8,248.9,472.9,243.1 M460.4,257.6c-2.1,3.1-3.8,6-8.5,10.4c-5.2,4.9-8.1,6.4-14.9,8.4
	c-10.2,3.1-15.3,4.5-21,14.4c-5.8,10.1-12.8,13.5-18.1,15.4c-9,3.3-19.9,5.2-26.9,12.2c-4.8,4.8-10.9,7.2-16.9,10
	c-6.4,3-13.7,2.9-20.1,6.5c-3.9,2.2-3.3,2.4-8.3,6.9c-2.9,2.7-8,5.3-11,5.7c-3.8,0.5-7.7,0.5-11.3,1.4c-9,2.4-12.1,6.2-20.1,8.2
	c-11.4,2.8-23.4,2.1-33.5,7.6c-2.8,1.5-3.9,1.7-8.1,4c-3.5,1.9-8,5.4-16.3,5.8c-7.9,0.4-7.9-1.1-16.8,0.1c-10.8,1.5-15,5.4-24,8.2
	c-3.1,1-6.3,1.6-9.5,2c-6.4,0.7-12.6-0.5-19.1-1.4c-6.9-0.9-8.8-1.4-16.6-0.6L135,383c0,0.2-4.9,0.1-4.9,0.4
	c-2.8,0.4-5.5,0.9-8.3,1.6c-7,1.8-12.6,2.2-17.9,0.1c-12.6-5-6.4-17.3-5.1-22.9c1.2-5.4,3.8-12.7,6.2-20.6c0-0.1,1.4-6.4,1.4-6.4
	c0.4-6-1-7.9-3.4-9.7c-1.5-1.1-5.6-0.9-7.6-0.8c-2.4,0.2-7.5,3.1-10.4,3.5c-3.3,0.4-8.2-2.9-15.8-1.8c-4.1,0.6-8,3.3-13.2,5.6
	c-5.2,2.3-11.5-0.3-14-3.2c-3.9-4.6,0.2-10.8,0.4-17.4c0.2-6.4-0.7-11.6-2.7-19.9c-1.4-5.7-2.7-10.1-3.8-16.9
	c-0.4-2.7-1-12-0.9-12.7c0.4-4,0.3-8.9,1-13.2c1.4-8.5,1-6.9,3.9-16c0.9-2.7,3.6-10.1,5.7-12.8c3.3-4.2,4.6-10.1,4.3-18
	c-0.1-3.2-1.6-5.9-2.7-10.5c-0.7-3.1-0.5-5.8,0.1-8.7c0.7-3.6,1.4-7,4.3-8.6c1.6-0.9,4.4-2.8,7.3-1.5c4.3,2,5.1,5.4,11.4,3.8
	c6.2-1.7,13.3-7.7,19.2-6.5c4.4,0.9,6.5,5.1,10.4,8c2.5,1.9,7,1.9,9.6,0.6c5.5-2.6,5.6-10.6,3.3-17.1c-2-5.7-3.3-10.2-5.8-18.6
	c-1.2-3.9-1.9-4.3-2.3-10.2c-0.3-4.4-0.3-6.9,1.8-11.4c1.6-3.3,6.2-6.3,8.6-6.5c13.9-1.3,27.1,6,41.5,3.1c7.3-1.4,14.4-2.3,20.6-1.1
	c4.3,0.8,8.5,2.2,12.4,4.3c4,2.2,6.5,4.4,10.9,4.1c9.2-0.8,15.9-1.8,23.5-0.2c4,0.9,6,1.6,8.6,3.1c4.1,2.4,7.9,5.2,12.1,7.2
	c14.4,7,21.4,1.6,31.7,4.7c3.4,1,6.5,2.7,9.2,4.9c3.4,2.9,14,8,22.1,8.2c14.6,0.4,18.3-1.4,32.2,8.5c9.2,8.2,21,7.3,31.2,12.9
	c3.3,1.8,9.5,4.9,13.3,11.1c1.2,2,6.3,7.7,13.6,9.4c7.5,1.7,14.9,2.9,19.7,11.6c5.5,6.6,6.2,7.7,13.1,11.6c3.8,2.1,4.9,4,8.6,6.4
	c5.3,3.3,0.6-0.1,6.1,4.2c2.7,1.8,5.2,3.8,7.7,5.9c4.7,3.6,7,7.3,9.2,9.3C467.6,248.2,462.8,254.1,460.4,257.6"/>
<path class="st0" d="M452.3,250.3c-1.2-2.3-4.2-5.1-6.6-6.9c-5.8-4.2-6.4-4.9-9.5-7c-7.9-5.3-9.5-6.5-13.4-11
	c-3.8-4.3-4.9-5.8-9.2-8.2c-1.6-0.9-12.5-4.7-10.6-4.3c-10-1.8-10.3-3.9-14.4-7.6c-3.3-4.8-7.2-10.5-10.6-12.7c1.3,0.8-6.1-4-6-3.9
	c-5.7-2-7.7-1.4-14.8-1.8c0.2,0-7.8-1.1-9.9-2c-3.6-1.6-5.6-3.6-8.2-5.4c-5.6-4.2-4.1-3.3-9.6-7.3c-7.5-5.4-8.5-4.1-18-5.1
	c-8.1-0.8-13.9-2.7-20.2-7.3c-11.3-8.2-22.2-5.3-29.1-6.3c-7.4-1.1-14.4-3.8-20.6-7.9c-8-5.1-6.2-2.7-14.7-6.7
	c-10.2-4.8-19.8,3.2-31.7-0.1c-6.3-1.8-8.7-5.1-12.7-6.5c-11.5-4.2-15.7-2.2-25.5-2.1c-11.9,0.1-22.4-3.1-33.7-3
	c-3.1,0-5.6,2.6-5.1,6.3c0,0,0.2,4.3,0.2,4.4c0.6,3.6,1.9,7.4,3,11.4c1.4,4.9,2.1,6.5,4.1,14.2c0.7,6.2,0,7.9-0.5,10.5
	c-0.4,2.1-1.7,6.3-2.8,7.8c-1.2,1.8-2.7,2.4-4.8,3.7c-3.3,2.1-7.1,3.1-11,3c-4-0.1-2.9-0.1-9.2-2.4c-2.3-0.9-7-3.5-11.7-1.5
	c-9.1,3.8-10.1,0.7-14.9,1c-1.5,0.1-2.9,0.8-4.3,1.4c-2.2,1-3.3,2.4-4.8,5.4c-1.1,2.4-1.4,5-1.1,7.6c-0.5,0,0.9,4.3,0.9,4.4
	c1.1,5.8,1.4,10.4-0.8,15.5c-2.1,4.9-2.7,6.5-5.4,10.5c-2.6,3.8-7.3,14.8-7.6,25.1c0.4-0.3-0.1,12.1,1.4,19.4
	c1.6,8.1,3.9,8.8,4.5,22.2c0.2,5.1-0.3,9.5-0.4,14.1c-0.1,2.9,0.9,7.1,4.6,6.5c5.3-0.8,11.2-3.8,15.4-3.9c2.4,0,4.7,0.4,7,1
	c8.4,3,5.6,0.8,18.7-1.6c4.3-0.8,10.3,0.1,12.7,1.5c7.7,4.4,7,14.3,4.8,24.1c-0.3,1.6-2.3,11.7-2.7,13.3c-1.3,5.1-1.2,5.4-1.9,11
	c-0.3,2.6-0.1,4.7,1.3,7.1c1.2,2,2.7,3.3,4.6,3.4c8.5,0.2,13.2,0.1,22-1.5c11.3-2.1,17-2,24.9-1.3c8,0.7,19.3,0.5,24.1-1.2
	c4.3-1.6,9.9-4.8,14.4-5.8c14.8-3.2,15.5-1.7,27.4-3.3c9.7-1.3,14.7-6.1,19.6-8.7c6.8-3.6,12.7-4.8,20.4-4.8c4.6,0,11.1-1.6,14.3-3
	c12.8-5.8,8-5.4,25.9-8.7c9-1.7,15.6-8.9,21.1-12c3.6-2,6.8-3.7,10.8-4.9c5.4-1.6,11.6-2.5,16.7-4.3c8.4-2.9,11-5.8,15.6-9.9
	c3.8-3.4,5.1-3.3,9.3-6c4.3-2.7,10.7-4.7,13.1-5.4c5.5-1.7,13.6-10.9,21.1-18.5c8.9-9.1,17.1-7.6,27-12.9
	C451.2,258.2,455.1,256.1,452.3,250.3z M339.2,219.8l8.4-5.5h11.8l-0.1,35.4l-13.1,0.1c-13.3-20.1-43.7-27.2-72.1-20.4L261,215
	C271,211.9,299.3,202.2,339.2,219.8z M190.5,267.2h-49.4V257h8.4v-70.5h-8.4v-8.8h49.4v8.8l-8.4,0.1v38.3l67.2-38.4h-5.9v-8.8
	l50.9-0.1v8.8l-11.3,0.2l-34.5,20.3l46.4,50.1h1.6v10.2h-51.2v-10.3l7.1,0.1l-31.7-33.9l-38.3,22V257h8.1V267.2z M346.9,296
	c-7.8,7.3-9.4,8.2-17.3,12.4c-13.5,6.8-27.6,9.7-43.7,10.1c-22.5,0.9-42.5-3.9-54.7-9c-7.5-2.8-18.7-9.7-25.6-21.6
	c-5.7-11.5-2.9-23.8-0.9-29.8c2.6-7.3,6.6-14.8,18.3-22.8l14.8,16c-7.4,6.5-12.9,18.4-1.2,31.9c14,17.5,46,22.5,79.3,12.6
	c17.2-5.2,24.6-12.3,30.1-21.2h13.5C357.5,285,352.8,289.3,346.9,296z"/>
</svg>
