<?xml version="1.0" encoding="utf-8"?>
<!-- Generator: Adobe Illustrator 23.0.3, SVG Export Plug-In . SVG Version: 6.00 Build 0)  -->
<svg version="1.1" id="Layer_1" xmlns="http://www.w3.org/2000/svg" xmlns:xlink="http://www.w3.org/1999/xlink" x="0px" y="0px"
	 viewBox="0 0 500 500" style="enable-background:new 0 0 500 500;" xml:space="preserve">
<style type="text/css">
	.st0{fill:#FFFFFF;}
</style>
<title>Logos/Clubs/LAC/Primary</title>
<desc>Created with Sketch.</desc>
<path class="st0" d="M486.8,290c-6.6-29.9-18.3-55.9-34.9-77.2c-9.3-13.5-19.7-25.6-31.9-37c-18.6-17.5-40.6-32.5-65.4-44.7
	l-0.4-0.2l-0.4-0.1c-1.5-0.6-3.3-1.4-5.4-2.4l-0.5-0.2c-7.8-3.6-19.7-9.1-36.4-13.6c-19.8-5.3-41.9-8-65.6-8c-4.5,0-9.2,0.1-14,0.3
	l-17.3,0.7l12.1,15.1c-19.4,0.2-55.8,2.8-94.9,17.6c-18.3,6.9-35.1,15.7-49.8,26.2c-16.7,11.8-30.9,25.9-42.2,41.8l-9.4,13.2
	l16.2,0.6c0.4,0,0.8,0,1.2,0c-7.1,9.9-17.2,25.6-25.9,45.7c-7.1,16.3-12.1,32.7-14.7,48.5c-3.2,19.1-2.9,37.6,0.7,54.9l4.8,23.2
	l11.4-20.8c23.1-42.2,49.5-74.2,80.9-97.9c26.9-20.3,53-31.2,75.9-40.7l13.7-5.7l-4.5-8.4c-0.8-1.5-1.9-3.3-3.4-5.3
	c2.4,0,4.8-0.1,7.1-0.1c68.5,0,135.9,20,200.2,59.3l19.1,11.7l-5.3-18.5c31.9,34.1,55.9,76.6,67.5,104.7l7.6,18.5l7.7-1.2L492,370
	C494,342.5,492.2,314.9,486.8,290z M485.3,369.5l-3.8,0.6c-16.1-39-49.2-91.9-88.5-125.8c0.3,0.6,0.5,1.3,0.8,1.9
	c2.2,5.6,4.2,11.9,6.7,20.5l1.4,4.9l-4.4-2.7c-65.4-40-133.9-60.3-203.7-60.3c-6.9,0-13.9,0.2-20.8,0.6c0.1,0.2,0.3,0.3,0.4,0.5
	c0.3,0.3,0.6,0.6,0.9,1c3.4,3.9,7.9,9.4,9.9,13.2l1,1.9l-6.9,2.9c-45.2,18.8-107,44.5-160.1,141.6l-2.6,4.8l-1.1-5.3
	c-1.8-8.8-2.8-18-2.7-27.4c0.1-64.7,43.6-119.5,48.6-125.5l0.1-0.1c0.3-0.3,0.6-0.7,0.8-1c0.1-0.1,0.2-0.2,0.3-0.4
	c-0.5,0-0.9,0-1.4,0c-1.2,0-2.4,0-3.5,0c-1.1,0-2.3,0-3.6,0c-1.9,0-3.9,0-6.2-0.1l-3.7-0.1l2.2-3c43.7-61,123.4-82.8,183.5-82.8
	c3.6,0,7.1,0.1,10.4,0.2c0.6,0,1.1,0.1,1.7,0.1c0.1,0,0.1,0,0.2,0l-10.4-12.9l-3.1-3.1l4.6-0.2c4.6-0.2,9.3-0.3,13.7-0.3
	c53.6,0,83.2,13.7,99.2,21c2.5,1.1,4.6,2.1,6.4,2.8l0.1,0.1c40.2,19.8,72.1,46.6,94.9,79.7c32.8,42,39.7,94.4,39.7,130.9
	C486.1,354.8,485.8,362.2,485.3,369.5z"/>
<path class="st0" d="M254.4,123.8l-5.4,0.1c0,0,7.6,10.9,11,15.7c-25.9-2.1-125.4-5.3-192.2,61.1l-4.7,4.7c0,0,17.2,0.5,19.2,0.6
	c-1.7,2-3.3,4.1-3.3,4.1c-20.1,24.3-47.5,57.6-57,121.9l-1.8,12.4l7.1-10.4c36.1-53,82.8-90.2,139.1-110.7l3.6-1.3l-2.2-3.1
	c-5.9-8.1-11.6-13.4-16.8-17.8c98.4-9.9,169.6,16.7,226.3,44.4l6.9,3.4l-3-7.1c-5.5-13.2-10.5-22.1-15.7-30.4
	c42.5,25.2,72.4,62.3,103.2,109.7l6.3,9.7l-1-11.6C462.7,190.8,337,122.2,254.4,123.8"/>
<path class="st0" d="M268.4,141.5c0,0-4.9-7-8.2-11.8c39.9,0.8,87.3,18.2,125.2,46.4c32.3,24.1,71.7,66.1,81.3,131.8
	c-31.4-47-62.8-83.5-108.9-107.6l-9.9-5.2l6.2,9.4c6.5,9.9,12.3,18.9,18.5,32.5c-54.8-26.1-129.3-52.7-229.1-41l-6.6,0.8l7.9,6.7
	c4.9,4.1,10.4,8.9,16,16c-52,19.8-96,53.9-130.9,101.4c10.7-54.9,35.3-84.8,53.7-107l10.7-13.2l-5.9-0.1L77,200.2
	c75-69,187.4-54.3,188.5-54.2l6.7,1L268.4,141.5"/>
</svg>
