<?xml version="1.0" encoding="utf-8"?>
<!-- Generator: Adobe Illustrator 23.0.3, SVG Export Plug-In . SVG Version: 6.00 Build 0)  -->
<svg version="1.1" id="Layer_1" xmlns="http://www.w3.org/2000/svg" xmlns:xlink="http://www.w3.org/1999/xlink" x="0px" y="0px"
	 viewBox="0 0 500 500" style="enable-background:new 0 0 500 500;" xml:space="preserve">
<style type="text/css">
	.st0{fill:#FFFFFF;}
</style>
<title>Logos/Clubs/LA/Primary</title>
<desc>Created with Sketch.</desc>
<g>
	<path class="st0" d="M351.4,356.8L351.4,356.8c0,0-4.8,0.3-5.1,2c3.2,2.9,2.9,11,2.9,16.6c0,0.8,0,1.6,0,2.2
		C349.5,376.5,354.8,368.8,351.4,356.8"/>
	<path class="st0" d="M380.6,303c0,6.8,5.5,12.3,12.3,12.3l0,0l0,0c0.4-0.9,0.7-1.9,0.9-2.9l0,0c-4.2,0-7.7-3.4-7.7-7.6
		c0-2.7,1.4-5.3,3.8-6.7c1.2-0.7,2.5-1.1,3.9-1.1l0,0c0.1,0,0.2,0,0.4,0l0,0c-0.5-2.3-1.2-4.5-2.2-6.6c-1.1-2.5-2.5-4.8-4.2-6.9l0,0
		c0,0,0.1,1.4,0,3.3c-0.1,1.7-0.3,3.5-0.7,5.1C383.1,294.2,380.6,298.4,380.6,303"/>
	<path class="st0" d="M391.3,307c-0.7-0.1-1.4-0.3-2-0.7c0.8,2.1,3.1,3.1,5.2,2.4c0.1-0.2,0.2-0.4,0.2-0.6c0.3-0.8,0.4-1.7,0.4-2.6
		c0,0-0.1,0.1-0.2,0.2c-0.4,0.4-0.8,0.7-1.3,0.9C392.9,306.9,392.1,307.1,391.3,307"/>
	<path class="st0" d="M328.6,349.6c0.6,1.3,1,2.7,1.4,4.1c0.4,2.3,0.7,4.6,0.8,6.9c0.2,5-0.4,9.9-1.9,14.7c0,0,5.7,3.2,9.9,5.5
		c2.5,1.4,4.5,2.4,4.4,2.3c0.3-1.1,0.5-2.2,0.7-3.2c1.4-6.8,0.3-11.7-1.6-15.8c-1.3-2.9-3-5.4-4.5-8c0.9-0.5,2-1.2,3.3-1.9
		c4.5-2.6,10.8-6,14.1-7.4c4.3,5.9,6.5,15.8,1.9,29.8c-1,3.1-2.4,6.3-3.6,9c-0.4,0.9-0.7,1.7-1,2.4c0.1,0.1,0.1,0.1,0.2,0.1
		c1.8,1.1,3.6,2,5.4,2.9c3.8-0.8,7.4-2.5,10.4-5c2.8-2.3,5-5.2,6.3-8.6c0.8-2.1,0.4-3.7,0.2-5.4c-0.4,0.4-0.8,1-1.3,1.6
		s-1,1.1-1.6,1.6c-1.9-4.4-1.9-7.8,0.5-10.5c1.1-1.2,2.6-1.9,4.3-1.9c0.6,0,1.3,0.1,1.9,0.3c1.5,0.5,2.7,1.6,3.3,3.1
		c0.5,1.2,0.8,2.5,0.8,3.8c0.6,7.7-5.6,14.6-5.7,14.7l0,0c0,0,8.1-0.4,10.4-1.5c1.4-2.8,3.6-7.5,6.2-13.5
		c6.3-14.5,14.6-36.9,17.5-59.4l7.5-6.7c0.1-2.4,0-4.8-0.2-7.2c-2.8-34.9-31.3-57.7-31.4-57.8l0,0c0,0,16.2,20.3,20.3,47
		c1,5.9,1.2,11.9,0.8,17.8l-4.3,4l-2.2,2.1c0.2,9.3-0.8,18.6-2.8,27.6c-1.6,6.9-3.8,13.7-6.8,20.1c-3.4-6.3-8.4-11.7-13.8-16.3
		c-5.4-4.6-11.3-8.4-17.6-11.5c-2.5-1.2-5.1-2.2-7.8-3c-3.4,1.9-9.1,5.1-14.7,9c-4.3,3-8.6,6.3-11.9,10
		C327.3,346.7,328,348.1,328.6,349.6"/>
	<path class="st0" d="M245.6,322.6l0.1,0.1c1.7,1.5,3.3,2.9,4.9,4.4c12.8,11.8,19.2,20.1,19.4,20.5l4.3,5.9l5.6-4.8
		c3.6-3.2,6.6-7.1,8.7-11.5l0.9-1.7l0.8-1.7l1.4,1.3l1.4,1.3c1.9,1.7,4.1,3.7,6.7,6c3.3,2.9,6.4,4.8,10.7,9.9l0.2,0.2l0.1,0.3
		c0.4,0.7,0.8,1.5,1,2.3c0.8,2.2,1.2,4.5,1.2,6.9c0.1,3.8-0.6,7.5-2.2,10.9c-0.2,0.4-0.3,0.7-0.5,1.1c-0.7,1.8-1.7,3.8-2.5,5.4
		L357,407l2.5-0.7l11.4-2.9c11.5-2.8,19.8-5,24.4-6.8c0.6-0.3,1.2-0.5,1.7-0.8l1.8-0.9l1.1-1.8c0.2-0.3,1.5-2.6,3.5-6.4
		c2.2-4.2,5.2-10.5,8.4-18.2c6.2-14.8,10.9-30.2,14-45.9l0.2-0.9l0.7-0.6c0.6-0.5,1.3-1.2,2.2-2c2.7-2.5,6.6-6,8.2-7.5l0.2-2.6
		c0.3-3.1,0.4-6.2,0.4-9.2c0-0.4,0-0.7,0-1.1c-0.1-7.1-0.8-14.2-2.2-21.1l-0.4-2.2l2-1c12.4-5.9,20.3-13.6,25.8-21.9
		c0.1-0.1,0.1-0.2,0.2-0.3c0.2-0.3,0.4-0.6,0.6-0.9c2.9-4.6,5.4-9.5,7.4-14.6c3.5-8.5,5.4-18.5,5.7-29.2c0-0.8,0.1-1.6,0.1-2.4
		c0-33.5-17.1-73-59-97.7c-15.1-8.9-36.4-14.5-59-14.4c-29.8,0-61.7,9.5-85.1,32.6c-3.4,3.4-6.6,7-9.5,10.8
		c-1.4,1.8-2.6,3.6-3.9,5.5c-0.6,0.8-1.1,1.7-1.6,2.5l-0.7,1.1l-0.6,0.1l-0.6,0.1c-0.5,0.1-1,0.2-1.4,0.3c-1,0.2-2,0.4-2.5,0.5
		c-42.7,6.6-82,21.8-114.1,37.7c-48.9,24.3-81.2,50.7-83.2,52.5l-12.8,10.6l16.6,1.3C154.2,256.3,214.8,295.9,245.6,322.6
		 M90.6,233.6c0.1-0.1,62.9-58.7,159.9-79.7l0,0c-1,2.2-1.9,4.5-2.7,6.8c-3.1,4.8-5.7,10-7.6,15.5c-5.5,15.3-8.7,39,4.5,68.2
		c23.3,51.5,86.9,53.5,108.3,21.3c0.7-1,1.3-2,1.8-3c0.7-1.2,1.3-2.4,2-3.6c1.3-2.1,2.3-4.4,3.3-6.7c0.8-2,1.4-4,1.9-6.1
		c7.6-29.8-16.4-51.9-36.3-50.3c26.5,13.5,19.3,38.7,8.5,47c-11.5,8.8-30,7.8-41.3-7.9c-23.5-32.3-3.6-71.9,29.2-85
		c14.6-5.9,31.9-6.5,48.9,1.1c6.1,2.7,11.8,6.2,17,10.4c2.1,1.7,4.1,3.5,5.9,5.5c15.9,16.5,19.7,38.8,15.5,53.8
		c-0.1,0.4-0.3,0.8-0.4,1.2s-0.3,0.8-0.4,1.2c0,0.1,0,0.2-0.1,0.3c-0.5,1.4-1.2,2.8-2,4.2c-0.5,0.8-1,1.7-1.6,2.5
		c-0.5,0.7-1,1.3-1.5,1.9c-0.1,0.1-0.2,0.2-0.3,0.3c0,0.1-0.1,0.1-0.1,0.2l-0.1,0.1l-0.1,0.1c-0.4,0.5-0.9,0.9-1.3,1.3
		c0,0,1.8,1.9,4,4.6c1.5,1.7,3.1,3.8,4.6,6c5.8,8.1,6.6,11.1,9.1,12.3c0.4,0.2,0.8,0.3,1.3,0.4s1,0.1,1.4,0.1c0.7,0,1.4-0.1,2.1-0.2
		l0,0c1.8-0.4,3.5-1.1,5-2c0.9-0.5,1.9-1.1,2.7-1.7c3.5-2.5,8.2-8,11.5-13c0.9-1.4,1.7-2.8,2.4-4.2c2-4.2,8-17.5,8.3-37.3v-1.6
		c0-5.6-0.5-11.2-1.3-16.7c-0.2-1.5-0.5-3-0.8-4.5c-1.4-6.9-3.7-13.7-6.9-20c-8-16.1-20.7-29.2-34.1-38.1c-5-3.3-10.3-6.2-15.8-8.5
		c-27.1-11.2-54.2-9.6-58.9-9.3c-0.2,0-0.4,0-0.5,0s-0.2,0-0.2,0l0,0c0,0,28.3-4.9,59.2,4.5c0.3,0.1,0.6,0.2,0.9,0.3h0.1
		c12.2,3.8,23.7,9.8,33.7,17.8c12.1,9.7,23,23.1,30.7,41.7c14.1,34,9.2,63.3-2.6,82.8c-5.8,9.7-13.3,17-21,21.3
		c-2.1,1.1-4.2,2.1-6.4,2.9c-0.9,0.3-1.8,0.5-2.6,0.8l0,0c0.5,2.2,1,4.4,1.4,6.6c0.2,1.1,0.4,2.2,0.6,3.4c0,0.1,0,0.2,0,0.3
		c0.5,3,0.8,6,1.1,9.1c0,0.6,0.1,1.2,0.1,1.8c0,0.7,0.1,1.4,0.1,2c0,0.8,0.1,1.6,0.1,2.4c0,0.6,0,1.2,0,1.8l0,0c0,0.9,0,1.8-0.1,2.7
		c0,0.5,0,1,0,1.4l0,0c-0.1,1.4-0.1,2.9-0.3,4.3l-10.8,9.8l0,0c-4.6,25.1-13.2,46.1-19.2,58.8c-2,4.2-3.7,7.5-4.9,9.7
		c-1.1,2-1.7,3.1-1.7,3.1c-5.9,2.8-27.4,7.5-36.5,10.1l-41.1-22.5c1.7-3.5,2.7-7.3,3.2-11.2c0.2-1.5,0.3-3,0.2-4.5
		c0-4.3-1.1-8.5-3.2-12.3c-1.4-2.6-9.5-9.4-16.3-15.4c-0.2-0.2-0.5-0.4-0.7-0.6c-0.6-0.5-2-1.8-3.6-3.4c-2.7-2.7-6-6.1-7-7.5
		c-3.8-5.4-7.6-13.1-9.6-23.5c0,0-0.1,0.5-0.3,1.4c-1.7,9.8,0.3,19.9,5.6,28.4c-1.6,4.8-4.3,10.6-9.3,14.9c0,0-5.8-9.7-19-23.5
		C231.5,293.7,179.7,252.1,90.6,233.6"/>
	<path class="st0" d="M299.7,333.2c0.4,0.3,0.7,0.4,0.7,0.4v0.2v-0.2C300.4,333.6,300.2,333.5,299.7,333.2"/>
	<path class="st0" d="M211.1,312.5c32.8,22,48.6,42.8,48.6,42.8l6.1,8.3l6.4,8.7l16.2-13.9c1.7-1.5,3.4-3.1,4.9-4.9l1.3,1.1
		c1.9,1.4,3.6,3,5.2,4.8c0.3,0.8,0.4,1.6,0.4,2.4c-0.1,3.5-0.2,3.5-1.2,5.9l-0.5,1.1c-0.5,1.3-1.4,3-2.1,4.3
		c-0.3,0.7-0.7,1.3-0.9,1.7c-0.1,0.2-0.2,0.3-0.3,0.5l-4.9,8.9l64.8,36.4l1.2-0.3c0.1,0,5.1-1.4,6.2-1.7c1-0.3,11.3-2.9,11.4-2.9
		c13.9-3.5,22.8-5.7,28.5-8.4l5.3-2.6l3.1-5.1c0.8-1.4,18.1-30.6,26.8-71.4c3.1-2.8,10.9-9.9,10.9-9.9l0.8-0.8l0.4-3.9l0.3-3.7
		c0.3-3.5,0.5-6.9,0.5-10.4c0-5.8-0.4-11.6-1.2-17.3c19.7-11.5,28.4-27.9,33.7-40.9c4.5-11.1,6.7-23.5,6.7-36.3
		c0-13.1-2.2-26-6.5-38.4c-7-20.5-23-49.4-58.9-70.5C406.5,85.7,383,80,358.9,80c-6.3,0-12.7,0.4-18.9,1.2
		c-35.4,4.4-65.9,21.2-86,47.2c-1.3,1.7-2.6,3.5-3.8,5.4c-111.3,17.6-199,89.7-202.9,92.9l-37.3,31l48.3,3.9
		C130.3,267.3,181.1,292.5,211.1,312.5 M28,252l23.8-19.7c3.5-2.9,75-61.6,170-85.3c9.8-2.5,19.9-4.5,30.2-6.1
		c0.5-0.1,1.4-0.2,2.5-0.5c1.1-1.7,2.2-3.3,3.4-4.9c0.6-0.9,1.1-1.8,1.8-2.6c25.2-32.7,63.8-45.6,99.2-45.6
		c10.5,0,20.9,1.2,31.2,3.5c6.1,1.4,12.2,3.2,18,5.5c4.4,1.8,8.7,3.8,12.8,6.2l0,0l0,0l0,0c4.1,2.4,7.8,5,11.4,7.6
		c21.4,15.6,35.4,35.4,43,55.7c4.8,12.6,7.3,25.9,7.4,39.4c0.1,10.3-1.6,20.5-5,30.2c-0.4,1.2-0.8,2.4-1.2,3.5
		c-5.6,13.9-14.6,29.5-34.8,39.8c0.3,1.5,0.5,3,0.7,4.5c0.8,5.5,1.2,11.1,1.2,16.7c0,1.6-0.1,3.2-0.2,4.9c-0.1,1.6-0.1,3.2-0.2,4.9
		l-0.5,4.8l-0.8,0.8c0,0-1.5,1.3-3.4,3.1c-1.6,1.5-3.5,3.2-5.2,4.7c-0.7,0.7-1.4,1.3-1.9,1.8c-1.6,8-3.6,15.6-5.8,22.6
		c-8.1,26.3-18.3,44.7-20.4,48.2c-0.2,0.3-0.3,0.5-0.3,0.6l-2,3.2l0,0l-0.8,0.4l-2.6,1.3c-5.1,2.5-14,4.7-27.2,8l-5.7,1.4l-5.7,1.5
		l-4.7,1.3l-56.1-31.5l1.4-2.5c0,0,2.4-4.4,3.6-7.4c0.9-2.2,1.5-3.3,1.9-5.2c0.2-1.4,0.4-2.9,0.4-4.4c0-0.1,0-0.1,0-0.2
		c0-0.5-0.1-1.1-0.2-1.6c-0.1-1.6-0.5-3.1-1.2-4.6c-0.5-0.6-1-1.2-1.5-1.7c-2.9-3.1-5.1-4.5-8.3-7.3c-1.5-1.3-2.8-2.5-4.1-3.6
		c-2.1,3.5-4.8,6.7-7.8,9.5c-0.2,0.2-0.3,0.3-0.5,0.5l-10.3,8.8l-3.4-4.6l-4.6-6.3c-0.4-0.5-64-85.2-206.6-96.7l-15.4-1.2L28,252z"
		/>
	<path class="st0" d="M299.7,333.2c0.2,0.2,0.5,0.4,0.7,0.6v-0.2C300.4,333.6,300.2,333.5,299.7,333.2"/>
	<path class="st0" d="M402.5,233.2l0.5-0.5l0.1-0.1c0-0.1,0.1-0.1,0.1-0.2c0.1-0.1,0.2-0.2,0.3-0.3
		C403.2,232.5,402.8,232.9,402.5,233.2"/>
</g>
</svg>
