<?xml version="1.0" encoding="utf-8"?>
<!-- Generator: Adobe Illustrator 23.0.3, SVG Export Plug-In . SVG Version: 6.00 Build 0)  -->
<svg version="1.1" id="Layer_1" xmlns="http://www.w3.org/2000/svg" xmlns:xlink="http://www.w3.org/1999/xlink" x="0px" y="0px"
	 viewBox="0 0 500 500" style="enable-background:new 0 0 500 500;" xml:space="preserve">
<style type="text/css">
	.st0{fill:#FFFFFF;}
</style>
<g>
	<path class="st0" d="M500.1,149.1c0-1-0.2-2-0.4-3v0c-2.3-7.9-10.4-12.8-21.4-12.8c-1.2,0-2.4,0.1-3.5,0.2
		c-8.5,0.8-23.5,5.9-28,7.5c-13.1-3.4-26.6-5.2-40.1-5.3c-6.7,0-13.4,0.5-20,1.4l-2.7,0.4c0,0-1.1-3.5,1.7-11.6
		c1-2.8,2.1-5.5,3.4-8.1c0,0-30.5,15.9-34.3,10.8c-3.8-5.1,13.3-45.3,13.3-45.3s-29.4,32.7-35.2,31.2c-2.3-0.6-2.5-12.4-2.6-25.2
		c-0.2-17.3,0.4-37,0.4-37s-24.2,60.2-30.1,59.9c-5.1-0.3-12.6-32.4-12.6-32.4s-4.7,27.7-13.1,31.1c-8.4,3.4-30-48.4-30-48.4
		s-1,51.9-7,53c-5.9,1.2-24.7-17.7-25.2-18.2c0.2,0.7,8.9,25.9,5.9,29.2c-1.8,2-20.2-9.4-39.4-23.1c-11.1-7.9-20.3-14.6-20.3-14.6
		s10.8,17.9,19.4,36.7c5.9,12.9,9.5,25.3,8,27.7c-3.7,5.8-31.6-2.3-32.2-2.5c0.5,0.5,16.1,15.6,15.1,19.6
		c-0.5,1.9-16.6,0.5-32.9-1.7c-17.3-2.4-35-5.6-35-5.6s57.7,33.6,55.9,39.6c-1.4,4.8-37.4,0.9-37.4,0.9s31.3,14.3,31.1,19
		c-0.1,4.7-61.1,20.2-61.1,20.2s55.3,11.6,56.3,17.7c1.1,6.2-21.8,25.9-21.8,25.9s26.6,2.4,27.9,5.9c1.3,3.5-6.5,17.2-13.2,19.4
		c-8.3,2.7-16,4.4-25.2,4.4c-1.3,0-2.6,0-3.9-0.1c0.5-0.6,0.9-1.2,1.3-1.8c2.2-3.1,3.8-6.6,4.9-10.3v0l0,0c0.5-1.8,0.7-3.7,0.7-5.5
		v-0.2c0-1.8-0.7-3.6-1.9-5c-2.3-2-4.4-1.7-5.9-1.1l-5.3,2.6c-0.4,0.2-0.9,0.4-1.4,0.5c-1,0.3-3.1,0.7-7.5,0.7
		c-4.2,0-9.1-0.3-13.9-0.6c0,0-2.9-0.2-3.5-0.2c-5.7,0-9.5,1.8-11.8,3.5l-1.3-0.7c-11.7-6.2-25.3-8.7-33.8-10.3
		c-0.7-0.1-1.3-0.2-1.9-0.3c-5.7-1-10.9-3.8-14.9-7.9c-0.9-1.1-2-2-3.2-2.7c0,0-2.4-1.5-6.1-0.4c-1.4,0.5-2.6,1.4-3.4,2.7
		c-2,3.4-0.1,8.3,2.5,13.9c2.9,6.3,12,22.1,33.7,32.2c7.1,3.3,16.5,5.7,27.8,7c6.2,0.7,12.4,1.1,18.6,1.1c7.7,3.7,15.7,6.7,23.9,9.2
		c13.9,4.3,35.6,9.5,60.5,9.6c0,0,8.8,0.1,13.6-0.2c0.5,2-3,9.1-7.1,17.4c-4.8,9.7-11,21.2-11.2,21.5c0.3-0.3,11.5-10.2,22-17.5
		c10.7-7.5,22.7-13.5,25.5-10.1c5.3,6.6-0.4,33.7-0.4,33.7s21.6-19.1,26.6-16.5c2.3,1.2,2.5,15.5,2.5,30.5c0,17.8-0.5,36.7-0.5,36.7
		s29.7-60.1,35.9-58.4s13,29.1,13,29.1s11.3-33.4,18.2-32.6c2.8-0.3,8.7,10.5,14,21.6c5.8,12.1,10.7,24,10.7,24s0.1-12.4,1-25.1
		c0.8-11.5,2.2-22.6,4.8-23.3c5.3-1.3,20.7,19.3,20.7,19.3s-5.4-28.7-1.2-31.2c4.2-2.4,54.7,41.2,55.4,41.8
		c-0.5-0.9-33.6-62.3-29.5-67c4.1-4.8,40,4.9,40,4.9c-3.6-4.3-6.9-8.8-9.9-13.5c-4.8-7.5-8.8-15.8-6.9-17.8
		c1.7-1.8,20.4,0.1,39.7,3.8c22.3,4.3,36.8,7.4,36.8,7.4s-13.1-7.1-32.5-18.7c-16.8-10.1-31.5-21.4-30.9-23.3
		c1.3-4,41.4-7.8,41.4-7.8s-6.7-4-13.9-8.4c-7.8-4.8-16.2-10.8-16.2-12.9c0-1.9,10-6.6,23.3-10.7c15.9-4.9,30.5-8.2,30.5-8.2
		s-54.6-4.4-58-12.2c-2.3-5.3,2-12.2,5.1-16.7c2.3-3.1,4.8-5.9,7.6-8.5c14.9-13.8,33.9-26.4,39.9-30.2c0.4-0.3,0.8-0.5,1.3-0.8
		c0,0,14-10.3,15.4-11.5c1.2-1.1,4.4-4.4,5.2-8.7C500.1,151.2,500.2,150.2,500.1,149.1 M155.2,286.5c-3.9-2.1-21.9-2.9-21.9-2.9
		s20.3-13.6,19.8-23.5c-0.5-9.9-32.8-14.9-45.6-17.7c11.3-2.4,47.9-10.6,49.4-18c1.6-7.4-11.4-12.6-16.9-15.1
		c6.1,0.1,21.7,2.7,23.8-4.9c2.4-8.7-35.9-31.3-44.6-34.5c1.9,0.5,38.4,9,51.7,6.1c9.9-2.2-1.6-15.5-3.5-17.1
		c2.9,1.4,19.6,4.9,24.4-3.1c4.8-7.9-11.4-39.5-20.5-52.9c8.1,8,44.9,34.2,50.4,29.8c5.5-4.5,1.3-18.9-1.6-23.6
		c5.9,5.6,11.8,13,19.3,12.8c3.8-0.1,8.5-12.6,9.3-40.8c5.1,15.8,17.3,37.3,26.3,36c9-1.3,12-14.6,13.3-20.3
		c1,6.1,5.7,21.7,11.7,22.3c7.3,1.2,21.4-31.5,26.5-46.3c0.8,7.3-4.6,44.7,3.3,47.8c7.9,3.1,21-12.6,28.4-21.5
		c-4.5,8.5-13.3,29.2-8.1,34.1c5.2,4.9,23.3-0.2,30.4-6.1c-2,4.3-2.4,7.8-1.9,11c-8.5,1.7-16.8,4.1-24.9,7.1
		c-20-13.2-43.5-20.2-67.5-20.1c-68,0-123,55.1-123,123c0,15.9,3,31.6,9,46.3c-6.4,4.9-13.3,9-20.6,12.5
		C156.5,301.1,160.9,289.6,155.2,286.5 M78.7,299.4c9.4,0.6,19.8,1.3,24.7-0.1c4.2-1.3,5-3.1,6.8-3.3c0.3,0,2-0.4,2.1,2.3
		c0,1.5-0.2,3-0.6,4.5c-0.9,3.2-2.4,6.3-4.3,9c-1.1,1.6-2.3,3.1-3.6,4.5c-1.2,0.1-2.3,0.1-3.5,0c-1.4-0.1-3-0.4-3.6-0.5
		c-11.8-2.3-25.6-10.3-29.9-12.7C68.3,301.5,71.9,299,78.7,299.4 M461.3,242.3c-15.9,2.2-43.8,13.7-38.5,19.9
		c5.3,6.2,20.7,14.7,22.9,15.8c-7.4,0-31.6,2.5-34.3,9.4c-2.7,6.9,35,29.8,48.8,35.2c-17.2-4.8-58.1-12.9-60.9-7.4
		c-2.7,5.5,4.4,22.6,10.8,27.7c-4.7-1.4-29.5-8.4-33.4,0.7c-4.4,10.1,19.8,47,22.6,53.9c-11.1-11.1-41.7-35.9-46-33
		c-4.3,2.8-3.3,16.7-2.1,23.7c-4.2-5.1-11.4-13.3-17.6-10.9c-6.2,2.5-5.5,26.2-5.9,36.3c-5.1-11.9-13.5-35.8-21.3-35
		c-7.7,0.9-16.4,17.2-18.1,23.4c-1.2-6.2-6.3-19.9-13.9-19.9c-7.7,0-25.5,36.3-30.9,48.1c0-9.1,2.2-53.6-2.7-55.8
		c-4.8-2.2-21.2,7.9-24.7,12.6c1.3-5.9,2.4-25.6-2-28c-4.4-2.4-16.8-3.1-39.2,17.6c3.7-8,9.9-16.6,11.4-25
		c9.3-0.5,18.6-1.6,27.8-3.3c21,15.2,46.2,23.3,72,23.3c68,0,123.1-55.1,123.1-123.1c0-5.3-0.3-10.5-1-15.7c4.6-4.3,8.9-8.4,13-12.3
		c-1,2.6-1.5,5.4-1.4,8.2C420.1,238.9,447,241.1,461.3,242.3 M345.2,311.1c0-2,4-11.7,6.1-31.6c19.8-15,33.6-27.8,41.3-34.6
		c-4.3,13-9.5,25.7-15.6,37.9c-8.5,17.3-21.3,28.1-25.8,30.6c-0.3,0.2-2.9,1.8-4.7,0.7C345.6,313.5,345.3,312.3,345.2,311.1
		 M494.3,153.8c0,0.2-0.1,0.3-0.2,0.4l-0.2,0.4c-0.1,0.1-0.1,0.3-0.2,0.4c-0.2,0.5-0.4,0.8-0.6,1.1c-1,1.2-2.1,2.4-3.3,3.4
		c-2.6,2.2-6.9,5.6-14.1,10c-6.9,4.2-26,17.2-40.7,30.7c-0.1,0.1-1.4,1.3-3.5,3.3c-0.2,0.2-0.5,0.4-0.7,0.7c-1.1,1-2.3,2.2-3.7,3.5
		c-0.3,0.3-0.6,0.6-1,0.9c-9,8.5-22.5,21.3-28.7,27.1c-0.2,0.2-6.2,5.6-6.6,5.9c-4.9,4.4-11.3,10.1-16.5,14.6
		c-6.6,5.7-23.3,19-23.3,19c-0.4,0.3-15.6,11.2-19.4,13.7c-4,2.7-22.5,14.2-33.7,20.3c-4.3,2.4-10.7,5.6-16.5,8.4l-1.7,0.8
		c7.4-6.9,17.1-16.4,23.2-24.3c8.4-10.9,17.8-25.2,21.9-31.3c0.1-0.1,0.3-0.2,0.4-0.3c54.4-42.7,97.4-89.9,141.9-105.5
		c1.5-0.5,2.9-1,4.3-1.5c0.1,0,0.1,0,0.2-0.1c15.9-5.4,22.3-6.2,22.8-3.2C494.5,152.8,494.5,153.3,494.3,153.8 M437.9,159.6
		c-1.6,0.6-7.4,3.2-15.2,7c-1,0.5-2,1-3.1,1.5s-2.1,1.1-3.2,1.6c-2.2,1.1-4.5,2.3-6.9,3.5c-1.2,0.6-2.4,1.2-3.6,1.9
		c-3.7,2-7.4,4-11.2,6.2c-13.7,7.8-27.6,16.8-36.6,25.4c-15.3,14.3-21.8,30.7-34.8,52.1c-2.8,4.4-13.8,21.7-23.7,33.3
		c-17.2,20.3-32.2,32.7-32.4,32.9c-0.3,0.3-0.7,0.6-1,0.8c-0.1,0.1-0.2,0.1-0.3,0.2c-9,7.2-15.9,10.5-17.8,10
		c-1.3-0.3-1.8-1.9-1.8-2c-0.1-0.3-0.2-0.5-0.2-0.8c-0.1-3.3,2.7-8.7,2.7-8.7s7.3-15.7,7.8-16.7c0,0,0,0,0-0.1
		c0.2-0.4,0.3-0.9,0.5-1.3c0.5-1.3,1-2.7,1.5-4c2.3-6.6,4.2-13.4,5.7-20.3c-17.8,12-45.7,28.9-74.1,39.3
		c-11.6,4.3-23.5,7.4-35.7,9.3c-8.4,1.3-16.8,2.1-25.2,2.4c-6.5,0.1-13.1-0.1-19.6-0.7c-0.1,0-0.2,0-0.2,0c-0.1,0-0.1,0-0.2,0
		c0,0,0,0-0.1,0l0.7,0.2c6.8,2.2,14.1,3.5,21.2,4.4c16.2,2.2,32.6,1.1,48.6-2c15.1-2.9,30-7.2,44.4-12.7c4-1.5,7.9-3.1,11.8-4.8
		c0.5-0.2,1-0.4,1.5-0.7c4.7-2.1,9.2-4.2,13.3-6.2c-1,2.4-3.4,8.2-5.5,12c-3.9,7.2-4.5,10.9-4.6,12.5c-35.2,12.6-63,12-63.1,12
		c-34.5,1.6-64.1-7.1-80.1-13.2c-3.1-1.2-6.1-2.6-9.2-3.8c-1.2-0.5-2.4-1.1-3.5-1.7c-0.1,0-0.4,0-0.8,0c-4.9,0-29-0.4-44.8-7.7
		c-17.3-8-27.3-20.6-31.6-30.1c-3.2-7-3.4-9.3-2.4-10.2c0,0,0.1-0.1,0.1-0.1c0,0,0,0,0,0c0,0,0,0,0.1,0c0.4-0.2,0.8-0.4,1.2-0.5
		c2.2-0.6,3.6,2.1,5.6,3.7c4.4,4,9.9,6.6,15.8,7.6c5,1,12.5,2.2,20.4,4.6c1.3,0.4,2.6,0.8,3.9,1.3c4.9,1.6,9.6,3.9,14,6.6
		c10.4,6.2,36.3,27.4,82.3,9.4c21.2-8.3,40.2-24.9,68.3-52.8c4.6-4.5,9.1-9.3,13.7-14.2c-0.7-3.3-2.5-9.3-6.4-11.7
		c-6.2-3.9-15.5-4-21.7-3.6c-6.2,0.5-9.4,1.3-11.5-0.4c-0.1-0.1-0.1-0.1-0.2-0.2c-0.3-0.4-0.5-0.8-0.6-1.3c-0.1-1.5,0.9-3.4,1.8-4.5
		c1-1.2,2.1-2.3,3.3-3.3c2.5-2.1,5.2-3.8,8.1-5c1.6-0.7,3.2-1.4,4.8-2c6.5-2.5,13.2-4.3,20-5.4c2-0.4,4-0.7,6-0.9
		c7.7-1,15.4-1.5,23.1-2.3c1.9-0.2,3.8-0.5,5.7-0.9c3.9-0.7,7.7-1.7,11.5-2.9c6.8-6.1,14-12.2,21.9-18.2
		c8.3-6.3,16.9-12.1,25.7-17.5c50-30.4,90.7-29.4,125.1-20.5c0,0,18.8-6.8,28.2-7.7c7.4-0.7,15.1,1.2,18.7,6.1
		c0.9,1.2,1.5,2.6,1.9,4.1C491.3,141,449.7,154.8,437.9,159.6"/>
	<path class="st0" d="M431.8,150.9C431.8,150.9,431.8,150.9,431.8,150.9c-0.1,0.3-0.5,0.6-1.2,1h0c-2.5,0.9-11.4,3.6-24.1,3.6
		c-11.2,0-16.3,4.9-16.3,4.9c1.6-0.4,3.2-0.7,4.9-0.8c1.6-0.1,4.4,0,4.4,0c-0.3,0.5-0.5,1.1-0.6,1.8c0.1,0.4,0.2,0.8,0.4,1.1
		c-4,1.3-7.9,2.9-11.8,4.6c-0.5,0.2-1,0.5-1.5,0.7c-3.2,1.5-6.3,3.4-9.1,5.6c-0.4,0.4-0.9,0.7-1.3,1.1c-0.7,0.7-1.4,1.5-2,2.3
		c0.2-0.4,2.9-6,5.1-9.1c1.8-2.9,6-8.2,12.2-10.9c8.6-3.7,14.2-3.2,18.2-3.2c4,0,13.3-0.3,17-1.2c3.8-0.9,5.4-2.1,5.6-1.6
		C431.8,150.8,431.8,150.8,431.8,150.9"/>
</g>
</svg>
