<?xml version="1.0" encoding="utf-8"?>
<!-- Generator: Adobe Illustrator 23.0.3, SVG Export Plug-In . SVG Version: 6.00 Build 0)  -->
<svg version="1.1" id="Layer_1" xmlns="http://www.w3.org/2000/svg" xmlns:xlink="http://www.w3.org/1999/xlink" x="0px" y="0px"
	 viewBox="0 0 500 500" style="enable-background:new 0 0 500 500;" xml:space="preserve">
<style type="text/css">
	.st0{fill:#FFFFFF;}
</style>
<title>Logos/Clubs/MIN/Primary</title>
<desc>Created with Sketch.</desc>
<g>
	<path class="st0" d="M252.3,339c3.1-12,11.4-21.8,13.3-23.3c0,0-12.9,17.2-9.2,44.2c0,0,3.5-22.1,20.2-43.8s32.7-31.9,46-48.1
		c6.3-7.5,11-16.1,14-25.4c1.7-5.1,2.9-10.3,3.4-15.7c-3.6,0.3-7,0.8-10.5,1.1c0,0.1-0.1,0.3-0.1,0.4c-3.5,11.6-10.2,19.9-20.8,24.8
		c-13.9,14.2-34.6,24-46.2,31.4c-20.4,13.1-23.8,38.9-23.8,38.9c2.3-39.6,26.5-44.7,53.1-64.2c0.6-0.4,1.9-1.2,2.4-1.6l-0.8,0.3
		c-4.4-0.1-8.9-0.5-13.2-1.4c-2.7,1.9-5.5,3.6-8.3,5.2c-13.9,7.6-23.5,19.9-23.5,19.9c3.8-12.5,12.5-17.8,25.7-27.1
		c-5.3-2.2-10.1-5.3-14.2-9.2c-7.8,4-24.9,14.4-36.3,25.2c-9.1,8.6-26.1,20.9-46.1,30.3c15.7-10.4,42.3-33.8,51.6-42.7
		c0,0-34.9,20.2-44.9,26.9c0,0,13-14.3,29-23.2c0,0-35.5,14.5-55.9,28.5c-10.6,7.2-26.8,21.9-36.1,31.9c3.9-0.8,18.4-3.8,22.3-4.2
		c26.3-2.7,55-0.7,80.1-30.9c0.4-0.5,0.8-1,1.2-1.4c-2.2,7.5-3.1,18-2.7,29.7c0.9,25.3,20.5,35.3,28.1,40.6
		C250,353,249.6,349.9,252.3,339"/>
	<path class="st0" d="M193.7,316.3l-0.5,0c0,0,7.4,3.9,13.6,3.9c3.8,0,7.6-0.7,11.2-2c0,0-1-14.5,0.4-19.2
		C218.4,299,206.7,313,193.7,316.3"/>
	<path class="st0" d="M254.9,207.8C254.9,207.8,254.9,207.8,254.9,207.8c0,0,12.6,3.7,20.3,9.5c0,0-8.3-1.7-16.7-2.7
		c10.4,15.5,31.4,19.7,46.9,9.3c1.5-1,2.9-2.1,4.2-3.3c-1.2,0.9-2.5,1.6-3.9,2.3c-2.5,1.2-5.2,1.9-7.9,2c-3.6,1-7.3,1.3-10.9,0.7
		c0.1,0,0.2-0.1,0.3-0.1c14.6-2.5,28.1-13.6,26.6-30.6c-0.7-7.2-2.9-15-7.4-19.9c9,7.6,12.6,19.9,9.1,31.1c1.9-4.1,2.9-8.5,3-13.1
		c1,4.3,0.8,8.7-0.5,12.9c1.5-3.7,2.3-7.6,2.3-11.6c0.1,0.5,0.1,0.9,0.2,1.4c0,0,0-0.1,0-0.1c0-2.4-0.3-4.8-0.8-7.1l0-0.3
		c-1.9-12.7-11.2-24.7-23-30c-3.5-1.8-14.3-5.8-26-6.9c-5.9-0.6-11.9-0.5-17.9,0.2c-3.1,0.3-6.1,0.7-9.1,1.1
		c-15.8,2-30.8,3.9-46.8-5c-19.8-10-34.5-32.3-37.3-56.8l-0.3-2.7c-0.4-3.4-0.5-7-0.7-10.4c-0.3-3.1-0.8-4.7-0.9-4.3
		c0,0.2,0,0.5,0,0.7c0,2.6-0.6,5.2-1,7.8c-0.5,3-1.1,8.8-1.1,8.6c0-0.2-0.1-0.5-0.1-0.7c-0.1-0.8-0.2-1.7-0.2-2.5
		c0-1.7,0-3.4-0.1-5.1c-0.2-4.3-0.9-16.8-1.3-18.4c-0.1-0.4-0.3-1.8-0.7-2.1c0,1.5,0,3-0.1,4.4c-0.2,3.8-1,8.4-1.4,12.2
		c-0.4,3.8-1,7.6-1.6,11.4c-0.2,1.1-0.4,3.1-0.4,2.8c0-0.1,0-0.2,0-0.2c-0.2-2.3-0.8-9.9-0.7-18.4l0-1.8c0,0.3-0.1,0.7-0.2,1
		c-1.9,10.6-3,21.2-3.2,32c0,0.4,0,1.4,0,1.9c0,12.8,2.3,25.4,6.9,37.4c10.4,26.8,30.6,44.5,60.1,52.8
		C227.1,201.3,243.5,204.4,254.9,207.8"/>
	<path class="st0" d="M278.1,380.8c-3.5-2.7-13.7-10.3-19.9-13.7c-7.6-4.2-16-8.9-19.2-11.8c0,0-0.1,13.4,6.5,23.6
		c4.9,7.6,18.2,14.6,26.9,19.8C273.2,395.9,275.2,388.6,278.1,380.8"/>
	<path class="st0" d="M261.8,364c6.3,3.9,14,8.7,18.2,12c1-2.5,2.1-4.9,3.3-7.2c6.8-13.3,13.4-18.1,16-31.9c2.6-13.9-4-24.5-9-29.8
		c0,0-15.1,16.5-21,30C263.9,349.1,262.1,358.8,261.8,364"/>
	<path class="st0" d="M232.6,207.3c-1.2-0.3-2.4-0.6-3.5-0.9c-2.4-0.6-4.8-1.2-7.2-1.7c-2.7-0.6-5.4-1.2-8-1.9
		c-0.1,0.7-0.3,1.3-0.4,2c-0.4,2.3-0.7,4.7-1,7.1c6-1.6,13.1-3.2,20-4.4c0.2,0,0.3-0.1,0.5-0.1C232.8,207.4,232.7,207.4,232.6,207.3
		"/>
	<path class="st0" d="M249.8,119.8c-22.3-13.8-27.9-26.9-31.3-45.6c-0.5-2.9-1.2-5.8-2.1-8.6c0.4,4.6,0.4,9.2,0.1,13.8
		c-0.9-6.9-5.2-18.9-5.2-18.9c1.7,7.7,2.1,20.2,2.1,20.2c-0.5-4.4-2.4-11.2-3.9-16c0.5,3.5,0.9,6.7,1.3,9.4
		c1.1,9.2-1.1,25.8,5.5,43.1c4.2,11.2,13.5,19.4,19,23.6C240,134.2,245.8,125.9,249.8,119.8"/>
	<path class="st0" d="M409.3,239.1c-6.8,2.7-22.8-2.1-32.7-2.8c-5.9-0.4-11.8,0.9-16.9,4c-2.7-6.8,0.4-16.1,0.4-16.1
		c-2.1,0-9.6,1-11.7,1.1c0,0.1-0.8,0.2-2,0.4c0,0.2,0,0.5,0,0.7c0,0-3.1,24.1-14.6,39.9c3,1.7,10.5,3.9,13.2,6.4
		c4.9,4.5,5.2,11,5,13.6c-0.2,2.6-0.6,7.2-3,16.3c0,0-0.6-13.1-1.7-17c-1.2-3.9-5.6-7.4-9.8-8.7c-1.9-0.6-5.4-1.5-9.3-2.4
		c-7.5,8.6-15.1,14.6-22.3,21c0.7,1.3,1.9,2.2,3.3,2.6c4.3,1.1,9.7-1.4,9.7-1.4s-3.4,16,5.7,29.6c6.8,10.2,20,7.6,20,7.6
		s2.8-20.1,15.4-36.1c11.5-14.8,25.6-22.5,35.4-25.4c-0.4-1.8-1-5.6-0.3-7.4c1.2-2.8,3.9-4.7,6.9-4.7c3.3,0,7,1.8,7,1.8
		c-1.8-0.4-6.3-0.6-8.7,1.9c-1.8,1.9-1,5.7-0.5,7.4c9-1.7,17.4-0.5,19-0.1c1.7,0.4,3.3,0.1,3.8-2c0.6-2.1,0.6-4.7-0.6-5.5
		c-1.1-0.9-3-1.1-4.8-2.6c-1.9-1.4-3.4-4.8-3.3-9.8C412.3,245.9,409.3,239.1,409.3,239.1 M386.1,243c1.2,1.4,3.3,4.4,3.4,5.5
		c0,0.3,0,0.5,0,0.8c0,0,0,0.1,0,0.3c0,0,0,0,0,0c-0.1,1.6-0.9,9.2-2.7,11.3c-0.3,0.4-0.6,0.8-0.9,1.2c-2,1.9-5.5,3.6-12.1,8.2
		c-7.3,5-13,15.3-13,15.3s2.1-9.7,6.6-15.3c5.6-6.9,12.8-11.5,17.3-13.8l2-9c-1.6-1.2-3.4-2-5.3-2.4c-3.9-0.7-10.5-0.6-14.5-1.9
		c0,0,0-0.1,0-0.1c4.8-0.6,7.6-2,14.8-3.2c4.2-0.7,8.6-0.4,12.7,0.9C391.4,241,388.6,241.7,386.1,243"/>
	<path class="st0" d="M367,224.4c-3.5,2.3-2.7,9.4-2.7,9.4s2.8-2.9,9.7-4.7s16.1-0.5,16.1-0.5c-2.9,0.5-5.6,1.4-8.2,2.8
		c9.8,1.3,11.6,4.5,24.7,3.5s14.8-13.4,14.8-13.4s-3.1,1.4-9.8,2.9c-6.8,1.5-20.5-0.6-24.6-1.1S370.6,222.1,367,224.4"/>
	<path class="st0" d="M236.7,148.2c2.1-0.2,4.2-0.5,6.4-0.8c3-0.4,6-0.8,9.2-1.1c6.3-0.8,12.7-0.8,19-0.2c11.1,1,21.7,4.5,26.8,6.9
		c14.1,5.9,25.1,20.2,27.1,35.2h0c0.1,0.4,0.2,0.8,0.2,1.3c0,0.2,0,0.3,0.1,0.5c0.1,0.5,0.2,1.1,0.2,1.6v0
		c3.5-0.4,21.8-2.5,37.1-2.4c10.6,0.1,21.1,0.9,31.6,2.5c-6-13.3-15.2-29-29.2-42.2c-31.6-29.9-70.6-44.2-103.2-45.7
		c-0.6,4.6-2,9.1-4,13.3c-1.4,3-3.1,5.8-5,8.4c-3.1,4.1-9.2,12.6-14.9,21.1C237.8,146.9,236.7,148.2,236.7,148.2"/>
	<path class="st0" d="M278,426c0,0,3.3-5.8,7-12.3c-2.9-2.5-6-4.7-9.3-6.7c-3.5-2.2-9.5-5.1-14.7-8.1c0,2.8,0.3,10,4.4,15.9
		C268.7,419.4,273,423.2,278,426"/>
	<path class="st0" d="M256.6,240.9c-0.5-0.7-1-1.4-1.5-2.2l-1.1-0.9c-3.6,0.7-52.1,7.1-110.7,46.5c-19.4,13.1-43.2,36.2-55,49.1
		c5-2.2,15.9-6.7,24.5-9.4c8.8-9,23.2-23.6,36.4-32.9C179.8,269.7,232.1,247.6,256.6,240.9"/>
	<path class="st0" d="M398.9,304.3c15.1-10,28.2-13.3,28.2-13.3s-0.5-8.2-8.8-15.9c0,0-12.5-3.5-28.2,3.6
		c-15.7,7.1-30.7,21.4-37.1,36.2c-6.4,14.8-7,30.4-7.7,41.9c-0.7,11.5,1.2,28.7-3.3,44.1c0,0,7.4-10.9,10.1-41.9
		c2.4-28,9.4-47.3,22.3-56.4c0,0-10.3,14.3-13.8,37.7c-3.5,23.4-2.8,32.6-7.2,52l-1.1,3.6c0,0,10.3-13.8,15.9-49.8
		c4.9-31.5,14.1-45.6,26.8-53c0,0-16.9,18.4-20.8,44.8C374.2,338,383.8,314.3,398.9,304.3"/>
	<path class="st0" d="M314.9,327c-4.7-6.9-8-20.8-8-20.8s-5.9-0.1-9.4-4.9c-0.6,0.6-1.2,1.2-1.8,1.8c0,0,5.3,7.4,8.6,21.3
		c2.5,10.6-4.1,27.8-4.1,27.8c2.3,6.2,4,12.6,4.9,19.1c0.2-0.1,0.4-0.3,0.6-0.4c0,0,18.4-9.8,28.3-13.9c1.6-0.7,3.5-1.4,5.7-2.1
		c0.2-5.1,0.7-10.1,1.4-15.1c-1.9,0-3.7,0.1-5.1,0.1C326,339.9,319.7,334,314.9,327"/>
	<path class="st0" d="M416.1,339.7c-5-0.1-24.8-0.8-37-0.8H379c-1.3,2.2-2.4,4.4-3.3,6.8c3.4-0.7,6.7-1.3,9.7-1.7
		c16.7-2.5,30.4-3,32.7-3.3c2.2-0.3,6.2-0.1,7.7-1.3C425.8,339.5,421.1,339.8,416.1,339.7"/>
	<path class="st0" d="M267,433.3c0.9,3.2,3.3,4.9,5.7,6.1c1.5-4.8,3.5-10.1,3.5-10.1c-2.5-1.4-4.9-3-7-4.9
		C267.8,426.1,265.4,428.1,267,433.3"/>
	<path class="st0" d="M422,319.4c-3.5-1.4-9.5-1.1-9.5-1.1s4.6-11.1,4.1-17.2c0,0-26.5,11.4-34.1,32.5c0,0,15.9,0.4,24.8,1.5
		c8.9,1.1,14.7,1.1,16.7,1.2s6.1,0.4,4.8-6.9C427.5,322.1,425.5,320.8,422,319.4"/>
	<path class="st0" d="M264.9,463.5c-2.1,2.6-3,7.8-1.7,9.4c0.9,1.2,2.6,1.5,3.8,0.6c0.2-0.1,0.4-0.3,0.5-0.5
		c1.1-1.3,1.5-3.4-0.1-5.5C266.5,466.2,265.7,464.9,264.9,463.5"/>
	<path class="st0" d="M296,359.5c-1.1,1.8-2.9,4.6-4,6c-3.3,4.5-11.5,22.2-14.9,36.1c1,0.6,2,1.3,2.8,1.8c2.7,1.8,5.2,3.9,7.4,6.3
		c1.7-3,4.9-6,6.2-8.3c4.8-8.7,8.4-18.9,7.3-28.3C299.9,366.6,297,361.5,296,359.5"/>
	<path class="st0" d="M270.4,455.4c-1.7-1.1-3.2-2.5-4.6-4c-3.7,6.4-1.9,7.8,3.2,11.6c3.5,2.6,2.8,6,2.8,6s4.8-2.4,4.5-5.5
		C276.1,461.5,273.2,457.3,270.4,455.4"/>
	<path class="st0" d="M282.8,424.9c-3,5.3-5.6,12.3-6.9,16.1c0.3,0.2,0.5,0.3,0.8,0.5c2.8,1.9,6.3,6.9,6.3,6.9s7.6-8.5,10.7-18.1
		c3.1-9.6-0.6-21.1-0.6-21.1C289.4,414.2,286,419.5,282.8,424.9"/>
	<path class="st0" d="M272.9,443.8c-2.2-1-4.2-2.5-5.8-4.4c0,0-2.3,3.1-1.4,6.7s4.2,5.2,7.8,7c2.2,1.2,4,3.1,4.9,5.5
		c2.6-1.8,3.8-4.5,2.4-7.5S276.7,445.6,272.9,443.8"/>
	<path class="st0" d="M438.5,324c-1-6.2-6.6-11.6-11-12.6c-0.3-0.1-0.7-0.1-1.2-0.3c0.9-3.2,1.6-6.4,2-9.6c2.5-1.2,5.5-2.4,6.7-2.9
		l4.3-1.7l-0.9-4.5c-1.8-9.4-6.7-17.1-9.5-21c1-3.2,1.6-5.3,1.6-7c0-3.6-2.9-7.3-8.6-10.9c-0.5-0.3-1-1.1-1-5c-0.1-2.5-0.4-5-1-7.5
		c3.1-2.1,6.9-5.5,8.8-10.9c1.5-4.2,2.4-8.5,2.9-12.9c0.1-1.7,0-3.4-0.1-5.1l-0.6-7c0,0-3.5,2.8-5.5,4.3c-0.5,0.4-0.9,0.7-1.1,0.8
		c-0.3,0.2-0.6,0.4-0.9,0.6c-1.4,0.9-3,1.5-3.7,1.9c-2,1-4.2,1.8-6.4,2.4c-3.7-19-17.1-52.2-49.6-81.5
		c-39.1-35.2-103.7-41.8-106.4-42l-6.1-0.6c0,0-0.1,9.1-0.7,11.7l-0.1,0.3c-0.2,1.3-0.5,2.4-0.8,3.5c-7.3-4.6-12.5-9.2-15-13.6
		c-4.6-8.1-6.1-15.6-7.5-22.8c-1-5.1-2-9.9-4-14.6c-5-11.9-12.6-22.6-22.3-31.1c-1.7-1.5-3.5-3.1-6.2-3.1c-1.6,0-3.1,0.6-4.4,1.6
		c-1.2,1-4.7,4.5-0.8,10.3c0.1,0.1,6.4,11.8,8.8,28.5c0.8,5.5,1,12.3,1.1,19.5c0.4,14.5,0.8,31,6.5,43.4c2.5,5.2,5.6,10.2,9.2,14.7
		c0.3,0.4,1.6,1.8,1.9,2.1c0.6,0.7,1.2,1.4,1.8,2c-6-0.5-11.8-2.2-17-5.2l-0.2-0.1c-16.5-8.3-29.2-27.8-31.5-48.4l-0.3-2.7
		c-0.4-3.7-0.5-7.5-0.5-11.3c0-2.2,0-4.5-0.1-6.8c-0.3-5.8-0.9-11.7-1.9-17.4c-0.4-2.4-0.9-4.9-1.5-7.3l0-0.2
		c-0.3-1.6-0.7-3.2-1.2-4.8c-0.3-1-0.6-2-1-3c-0.8-2.5-2-5-3.4-7.2c-1.6-2.6-3.4-5.1-5.5-7.4c-1.3-1.5-2.8-2.8-4.4-4l-0.2-0.1
		c-1.3-0.9-2.9-1.3-4.5-1.4c-1.1,0-2.2,0.3-3.2,0.8l-0.6,0.4c-2.5,1.8-4,5.6-1.7,10.2l0.2,0.4c0,0.1,0.2,0.3,0.3,0.6
		c0.2,0.4,0.3,0.7,0.4,1.1c0.1,0.4,0.2,0.9,0.3,1.3c0.8,4,1.4,13.6-2.2,32.8l-0.2,1c-0.4,3.4-0.8,6-1.2,8.4
		c-1.6,9.2-3.2,20.2-3.5,31.9c0,0.4,0,1.1,0,1.7l0,0.5c-0.1,7.8,1.1,75,67.5,98.3l0,0l-0.2,0.1c-3,19.3-3.2,31.3-3,37.1
		c-14.5,5.7-28.6,12.4-42.1,20.2c-21.3,11.7-40.9,26.1-58.4,42.9c-3.6,3.4-7,6.9-10.4,10.5c-0.8,0.9-1.6,1.7-2.3,2.5l-0.2,0.2
		c-8.5,9.1-16.3,18.8-23.4,29c-0.4,0.6-0.8,1.2-1.1,1.9c-0.8,1.8-1.6,5.2,0,7c1,1.1,2.9,2,6.5,0.5c0.4-0.1,0.8-0.3,1.1-0.5
		c0.7-0.4,1.4-0.8,2.1-1.3c22-16.8,72.5-26.1,87.2-27c12.4-0.7,24.6-2.5,29.2-3.2c4.1,1.9,8.3,3.4,12.7,4.4c2.4,0.5,4.9,0.8,7.4,0.8
		c2.1,0,4.2-0.2,6.2-0.5c3.8,11.9,11.3,20.1,15.2,23.7c-0.2,7.2,1,20.6,6.3,29.4c4.4,7.2,10.6,12.6,14.1,15.4c0,3.4,0.3,8.9,2,13.6
		c1.5,3.8,3.5,7.3,6,10.4c-0.9,2.4-1.5,5-1.7,7.6c-0.2,2.8,0.3,5.6,1.5,8.1c-0.9,1.6-1.6,3.4-2,5.2c-0.3,2.4-0.1,4.9,0.7,7.3
		c-0.7,1.4-1.2,2.9-1.5,4.5c-0.3,2.1-0.2,4.2,0.4,6.1c-1.7,5.1-3.6,15.1,2.8,20.5c1.9,1.6,4.3,2.5,6.8,2.5c5,0,9-3.5,10.9-5.6
		c3.3-1.6,6.2-4,8.3-7c1.2-1.9,2.1-4,2.6-6.2c1.8-1.8,3.3-3.9,4.4-6.1c1-1.9,1.7-3.9,2.1-6c2.8-3.4,9-11.6,11.7-21.9l0.6-2.8
		c0.1-0.3,0.1-0.7,0.2-1.1c1.1-7.3,0.9-14.8-0.5-22.1c2.2-3.9,6.5-12.9,7-23.2c7.4-4.9,15.1-9.2,23.2-12.9
		c0.6,7.4,0.1,14.9-1.4,22.3c-2.3,11.8-10.9,21.6-15.3,25.9c-1.5,1.5-5.2,5.7-5.2,5.7c-0.9,1-1.4,2.3-1.1,3.7
		c0.1,0.3,0.1,0.6,0.2,0.9c0.1,0.2,0.3,0.4,0.4,0.6c2.1,2,7.7,1.3,7.7,1.3c24.4-2.6,40.9-23.1,47.9-40c4.4-10.5,8.3-24.6,10.7-33.2
		c14.1-2.6,27.2-3.9,36.1-4.7c4-0.4,7.1-0.7,9.2-1c5.4-0.8,15.5-2.3,16.1-11.9C440.1,335.6,439.7,330.9,438.5,324 M434.3,338.1
		c-0.2,3.3-2.4,5.3-11.3,6.6c-6.7,1-26.8,2.1-48.9,6.4c-2.1,7.5-6.5,24.2-11.4,35.9c-6,14.4-21.1,34.4-43.7,36.8
		c0,0,16.2-13.3,19.7-31.5c2.8-14.6,1.4-22.5,1-31.6c-11.9,4.7-23.3,10.8-33.8,18.1c0.4,13.5-7.4,25.3-7.4,25.3
		c1.6,7.3,1.9,14.8,0.9,22.2c-2.1,13.5-12.5,24.4-12.5,24.4s0.3,2.3-1.6,5.7c-2.2,4.2-4.8,5.9-4.8,5.9c-0.1,2.1-0.8,4.2-2,6
		c-1.7,2.4-4.1,4.3-6.9,5.3c0,0-5.9,7.5-10.6,3.5c-4.8-4-1.5-14-0.4-16.1c0,0-1.4-2.8-0.9-5.1c0.5-1.8,1.2-3.6,2.1-5.2
		c0,0-1.7-4-1.2-6.7c0.4-2.7,3.1-6.1,3.1-6.1c-1.9-2.1-2.9-4.9-2.6-7.7c0.2-3.1,1.1-6.1,2.6-8.9c0,0-5.1-5.5-7.3-11.5
		c-2.2-6-1.6-14.4-1.6-14.4s-9.4-6.2-15.1-15.5c-5.3-8.6-6-24.1-5.3-28.8c-2.9-2.3-13.8-12.3-16.9-27.9c0,0-8.4,2.6-16.5,0.8
		c-4.5-1-8.9-2.6-13.1-4.7c0,0-15.3,2.6-30.3,3.5c-14.4,0.9-61.4,7.4-91.4,29.1c7.1-10.3,14.9-20.1,23.4-29.3c0.1,0,0.1-0.1,0.1-0.2
		c0.8-0.8,1.6-1.7,2.3-2.5c3.2-3.4,6.6-6.8,10.2-10.3c17.1-16.4,36.3-30.5,57.1-42c14.5-8.3,29.6-15.4,45.3-21.3c0-0.2,0-0.3,0-0.3
		s-1.7-12,2.8-40.4c0.2-1.3,0.5-2.6,0.8-4c-66.6-20.3-68.4-84.7-68.3-94.5c0-0.3,0-1.7,0-2.2c0.3-11,1.8-21.7,3.4-31
		c0.5-2.9,0.9-5.8,1.2-8.7l0-0.1c3.9-20,3.2-30.5,2.3-35.4c-0.1-0.6-0.2-1.3-0.4-1.9c-0.2-0.6-0.4-1.1-0.6-1.7
		c-0.2-0.4-0.4-0.9-0.6-1.3c-1.2-2.4-0.1-3.1-0.1-3.1c0.8-0.4,2,0.3,2,0.3c1.3,0.9,2.5,2,3.6,3.2c1.8,2,3.4,4.2,4.8,6.6
		c1.2,1.9,2.1,3.9,2.8,6c0.3,1,0.6,1.9,0.9,2.8c0.5,1.4,0.8,2.9,1.1,4.3c0,0,0,0.1,0,0.1c0.6,2.4,1.1,4.8,1.5,7.2
		c1,5.5,1.6,11.1,1.8,16.7c0.3,6.2,0,12.3,0.7,18.5l0.3,2.7c2.6,22.4,16.4,43.7,34.6,52.8c11.3,6.3,21.9,6.7,33.3,5.7l-1.8-1.8
		c-0.2-0.2-0.4-0.3-0.6-0.5c-5.5-4.9-13.7-13.4-18.7-24.2c-8-17.3-4.8-44.2-7.2-61.3c-2.4-17.1-9-29.7-9.7-30.7
		c-0.8-1.1-1.3-2.2-0.4-2.9c0.9-0.7,1.5-0.2,3.3,1.3c3.1,2.7,13.6,12,20.8,29c4.4,10.4,3.4,23.1,11.8,37.9
		c4.3,7.6,13.7,14.2,22.7,19c0.1-0.2,0.3-0.4,0.4-0.6c1.6-3.2,2.6-6.6,3.1-10.1c0.5-2.2,0.8-4.4,0.7-6.7c0,0,64.9,6.2,103.1,40.6
		c38.1,34.3,47.5,72.3,48.7,84c0,0,13.9-2.1,17.4-7.3c-0.2,4.7-1.1,9.3-2.7,13.6c-2.7,7.5-11.2,10.3-10.6,10.5
		c0.7,0.2,2.4,5.6,2.4,9.8c0,4.2,0.4,7.8,3.5,9.8c3.1,2,6,4.6,6,6.2c0,1.6-1.6,5.8-2.2,8.2c0,0,8,9.1,10.2,20.8c0,0-6.6,2.7-10,4.4
		c0,0,0,6.7-3.8,17.3c0,0,5.1,1.3,7.1,1.8c2,0.4,6,4,6.6,8C433.6,328.8,434.5,334.8,434.3,338.1"/>
</g>
</svg>
