<?xml version="1.0" encoding="utf-8"?>
<!-- Generator: Adobe Illustrator 23.0.3, SVG Export Plug-In . SVG Version: 6.00 Build 0)  -->
<svg version="1.1" id="Layer_1" xmlns="http://www.w3.org/2000/svg" xmlns:xlink="http://www.w3.org/1999/xlink" x="0px" y="0px"
	 viewBox="0 0 500 500" style="enable-background:new 0 0 500 500;" xml:space="preserve">
<style type="text/css">
	.st0{fill:#FFFFFF;}
</style>
<path class="st0" d="M494.7,197.3c-3.4-3.6-8.5-5.1-13.3-3.9l0,0c-29.2,6.9-42.9,1.4-63.6-6.9c-19.3-7.7-43.2-17.3-87.1-20.4
	c-77.4-5.5-146.6,13.3-207.6,29.8c-35.9,9.7-69.9,18.9-100,21.4c-14.9,1.2-20.6,10-21,17.2c-0.5,9.1,6.7,17.2,17.2,19.4
	c25.4,5.9,53.3,7.1,85.1,3.7c1.2,2.7,3,4.5,4.1,5.5c17.9,15.2,84,11.6,84.7,11.6c1.9-0.1,4.4-0.3,7-0.5c0.8,6.1,4.9,12.6,14.9,15.2
	C297,312.3,336,348,383.2,410.1l3.1,4.1l5.2-0.7c13.1-1.7,26.2-10.9,33.4-23.6c5.2-9.2,6.6-18.8,4.2-27.5l1.1-2.8l16.7-7.7l-4-31
	l18.6-8.7l1.3-3.4c3.4-9.1,33.2-89,35.1-95.6C499.6,207.1,498.5,201.3,494.7,197.3z M388.6,406c-27.2-35.8-47.8-57.6-71.2-75.5
	c-27.7-21.1-59.7-36.3-100.6-47.7c-9.5-2.5-10.1-8.8-9.8-11.4c0.1-1.7,0.7-3.4,1.5-4.8c-4.9,0.4-11.7,1-15.8,1.2
	c-4.7,0.3-10.2,0.4-16.1,0.4c-46.4,0-60-7.2-63.6-10.3c-2.4-2-3.3-4.7-2.8-7.9c-13.9,1.8-26.9,2.6-39.4,2.6
	c-17.8,0-34.7-1.8-50.1-5.4c-7-1.4-12-6.5-11.6-12.1c0.3-4.5,4.2-9.7,14.6-10.6c30.8-2.6,65-11.8,101.3-21.6
	c52.9-14.3,112.8-30.5,178.2-30.5c9.1,0,18.2,0.3,27.1,0.9c42.8,3,66.2,12.4,85,19.9c14.7,5.9,26.3,10.5,42.3,10.5l0,0
	c7.7,0,16.1-1.1,25.5-3.3c0.5-0.1,1.1-0.2,1.7-0.2c2.2,0,4.2,1,5.4,2.7c1.6,2.1,1.9,5.1,0.9,8.5c-1.9,6.4-33.6,91.5-35,95.1
	l-0.3,0.8l-20.6,9.7l4,31l-14.5,6.7l-3.2,7.8c2.9,7.4,1.9,15.9-2.8,24.3c-6.1,10.8-17.2,18.7-28.2,20.1l-1.1,0.1L388.6,406z"/>
<path class="st0" d="M244.9,214.4c-59.6,3.5-131.1,37.2-222.2,22.2c80.7-10.9,142.3-37.5,217.3-48.2L244.9,214.4L244.9,214.4z"/>
<path class="st0" d="M251.3,249.2c-33,3.9-71.2,13.1-126.4,2.7c47.6-1.3,83.2-17.2,122.4-25L251.3,249.2L251.3,249.2z"/>
<g>
	<path class="st0" d="M477.4,213c-53.6,11.1-71-23.5-147.2-28.2c-31.1-1.9-56.9-1.3-83.1,2.1l4.3,26.5c17.5-0.6,31.9,2.4,47.6,9.5
		c-17.2-1.1-30.8-1-46,1.8l3.8,22.7c24.2-2.6,43.6-0.4,66.8,13.7c-48.5-5.2-72.2,8.3-102.4,11.3c106.7,28,145.8,87.7,172.2,120.8
		c18.5-7.8,19.5-23.9,14.8-29.6l4.8-10.2l0.2-6.5l12.7-6l-4-31.7l23.9-9.8L477.4,213z M401.3,334.7l-3.1,3.4l9.1,4.4l-0.3,5.1
		l-9-0.5l-11.8,8l11.6-2.1l10.3,0.6l-3.8,6.6l-8.3-0.5l7.3,8.9c2.5,3.1,0.1,12-7.5,15.2c-15-19.6-29.8-41.9-58.7-62.1l0,0
		c7.8-9.3,18.1-3.4,27.9,5l10.9,15.8l-3.4-19.8L346,301.1c4.8-15.4,38.9-14.4,45.9-4.7c-12.5-1.6-19,2.7-23.3,12.3l30,1.8
		c2.4-9.7,8.1-13.2,14.7-12.3l4.9,37.6L401.3,334.7z M414,260.6l-25.8,6.1l16-18.6L391,230.7l22,7.6l12.8-13.5l0,0l0,0l0,0l2.1,18.9
		l21.3,8l-20,5l2,25.5L414,260.6z"/>
	<path class="st0" d="M254.8,248.8L254.8,248.8L254.8,248.8z"/>
</g>
</svg>
