<?xml version="1.0" encoding="utf-8"?>
<!-- Generator: Adobe Illustrator 23.0.3, SVG Export Plug-In . SVG Version: 6.00 Build 0)  -->
<svg version="1.1" id="Layer_1" xmlns="http://www.w3.org/2000/svg" xmlns:xlink="http://www.w3.org/1999/xlink" x="0px" y="0px"
	 viewBox="0 0 500 500" style="enable-background:new 0 0 500 500;" xml:space="preserve">
<style type="text/css">
	.st0{fill:#FFFFFF;}
</style>
<title>Logos/Clubs/NO/Primary</title>
<desc>Created with Sketch.</desc>
<path class="st0" d="M387.1,210.8c-13.5-7.8-27.7-11.8-42.3-11.8c-20,0-37.3,7.5-49.1,14.5c0-0.5,0-1,0-1.5c0-10.8-2.2-22-7-36.4
	c-4.9-14.6-10.3-28.6-15.1-41l-0.7-1.8c-6.5-16.8-12.1-31.3-14.2-41.3l-6-28.4l-7.2,0l-6,28.5c-2,9.6-7.2,23.3-13.3,39.1l-1.1,3
	c-0.8,2.2-1.7,4.5-2.6,6.9c-4.1,10.7-8.7,22.8-12.7,35.1c-4.8,14.1-6.9,25.3-6.9,36.2c0,0.5,0,1,0.1,1.5c-11.8-7-29.1-14.4-49-14.4
	c-14.6,0-28.9,4-42.4,11.9c-23.4,13.6-35.9,37.2-32.6,61.4c2.8,21.7,17.7,38.9,38.9,44.8l9.7,2.5l2.4-9.8
	c0.1-0.3,7.6-31.4,35.5-31.4c0.2,0,0.5,0,0.7,0c21.7,0.4,36.5,20.9,41.2,28.6c-2.1,4.7-3.3,10-3.3,15.2c0,7.3,2.4,14.7,7,21.5
	c-2,2.1-4,3.3-5.7,3.4c-0.1,0-0.2,0-0.3,0c-3.4,0-8.3-3.9-12.8-10.1l-5.9-7.9l-7.9,5.9c-2.5,1.8-11,8.7-16.4,20
	c-5.2,10.9-5.7,22.2-1.3,32.6c4.1,9.9,12.8,16.4,25,18.9c3.3,0.6,6.9,1,10.7,1c7.7,0,15.7-1.3,22.7-3.8c2.8,12.4,9.2,29.5,23.5,44.6
	l7.2,7.5l7.2-7.5c14.2-14.9,20.6-32.1,23.4-44.7c7,2.4,14.9,3.8,22.5,3.8c3.9,0,7.6-0.4,11-1c12.2-2.5,20.9-9,25-18.9
	c9.8-23.9-7.4-44.9-17.8-52.6l-7.9-5.9l-5.9,7.9c-4.8,6.4-9.5,10.1-12.9,10.1c-0.1,0-0.2,0-0.3,0c-1.6-0.1-3.6-1.3-5.6-3.4
	c4.5-6.8,6.8-14.1,6.8-21.4c0-5.3-1.1-10.5-3.3-15.2c5.8-9.2,20.4-28.2,41.2-28.7c0.3,0,0.5,0,0.8,0c24.3,0,33.3,23.9,35.5,31.2
	l0.1,0.2l2.3,9.6l9.8-2.5c21.1-5.8,35.9-23,38.7-44.8C423.1,247.8,410.3,224.3,387.1,210.8z M378.6,307.5c0,0-9.7-39.6-46.1-38.8
	c-31.5,0.7-51.2,35.1-52.4,38.6c0,0,13.3,17.3-4.5,36.5c0,0,15.6,30.6,39-0.7c0,0,24.1,17.8,14.6,40.9c-8.6,21-47.2,14.4-57.1,4.5
	c0,0-0.2,29.7-22.6,53.3h-0.1c-22.4-23.5-22.8-53.2-22.8-53.2c-9.8,10-48.4,16.6-57.1-4.4c-9.5-23.1,14.4-41,14.4-41
	c23.4,31.2,39,0.5,39,0.5c-17.8-19.1-4.5-36.5-4.5-36.5c-1.2-3.5-20.9-37.7-52.4-38.4c-36.3-0.8-46,39-46,39
	c-38.2-10.5-45.6-63.6-3.7-88.1c53.2-31.1,99.7,16,99.7,16c-4.4-17.6-5.6-30.9,3.1-56.6c11.7-35,26.1-66.2,30.1-85.1
	c4,18.9,18.5,50.1,30.3,85c8.8,25.8,7.4,39,3.2,56.6c0,0,46.4-47.2,99.6-16.2C424.1,243.8,416.7,297,378.6,307.5z"/>
<path class="st0" d="M344.9,217.7c-43.3,0-78.8,49.2-78.8,49.2c1.5-8.1,20-44.3,3.3-87.5c-16.7-43.3-20.1-60.7-20.1-60.7l-0.1,0.4
	v-0.4c0,0-3.4,17.4-20,60.7s2,79.5,3.5,87.5c0,0-35.7-49.1-78.9-49c-43.3,0-79.3,49.3-39.4,78.4c0,0,11.7-36.3,52.1-36.4
	c29.7-0.1,59.4,31.8,60.7,47.6c0,0-13.6,19.1,5.3,35.2c0,0-20.4,42.9-48.7,12c0,0-21.8,27.2,6.7,33.8c22.5,5.3,44.9-17.7,44.9-17.7
	s-2.4,36.2,14.3,55.9v-0.1l0.1,0.1c16.6-19.8,14.2-56,14.2-56s22.3,22.9,44.9,17.6c28.4-6.7,6.6-33.8,6.6-33.8
	c-28.2,31-48.7-11.9-48.7-11.9c18.8-16.1,5.3-35.2,5.3-35.2c1.2-15.8,30.9-47.7,60.6-47.7c40.4,0,52.2,36.3,52.2,36.3
	C424.4,267,388.1,217.7,344.9,217.7"/>
</svg>
