<?xml version="1.0" encoding="utf-8"?>
<!-- Generator: Adobe Illustrator 23.0.3, SVG Export Plug-In . SVG Version: 6.00 Build 0)  -->
<svg version="1.1" id="Layer_1" xmlns="http://www.w3.org/2000/svg" xmlns:xlink="http://www.w3.org/1999/xlink" x="0px" y="0px"
	 viewBox="0 0 500 500" style="enable-background:new 0 0 500 500;" xml:space="preserve">
<style type="text/css">
	.st0{fill:#FFFFFF;}
</style>
<path class="st0" d="M86.9,399h299.6c10.3-0.6,18.3-1.7,24.6-3.4c11.6-3.6,31.2-14.4,31.2-45.5c-0.1-0.9-0.1-3.6-0.1-13.3
	l-0.2-232.9h-61.2v134.7c0,1.7,0,3.3-0.1,5c0,0.3,0,0.7-0.1,1c0,0.3,0,0.5,0,0.8v0.1l0,0.1c-0.8,5.5-4,10.3-8.9,13.1
	c-2.9,1.7-6.2,2.6-9.5,2.6c-5.1,0-10.1-2-13.6-5.6c-3.2-3.2-4.9-7.4-4.9-11.8l0.1-140.1h-86v49.2h14.6c5.6,0,10.1,4.5,10.1,10.1
	v29.6v38.8v35.6c0.9,15.7,10.3,31.2,23.2,38.5l0.1,0.1l0.1,0.1c8.3,6.6,25.6,11.2,41.9,11.2c7,0,13.1-0.9,17.8-2.5
	c0.1,0,7.7-2.5,11.8-5.3l3.1-2.1v3.8v13.2c0.1,2.7-0.3,5.4-1.2,8.2l0,0.1l-0.1,0.1c-2.6,5.5-7.9,8.2-16.3,8.5l-276.4,0V399z"/>
<path class="st0" d="M86.8,312.9V163.5c0-5.6-4.5-10.1-10.1-10.1H57V104h89.6v12.2l3.2-2.5c10.4-7.9,24.2-12.3,39-12.3
	c6,0,11.9,0.7,17.6,2.2c13.2,3.4,22.2,9.6,29.3,19.9c2.9,4.3,5,9.2,6.1,14.3c0.4,2.2,0.7,3.9,0.8,5.6l0,111.8
	c0,5.6,4.5,10.1,10.1,10.1h13v47.2H208c-14.2-0.1-25.4-11.3-25.5-25.5V171.6c-0.2-9.4-8.3-17-18-17c-10,0-18.1,7.8-18.1,17.3v141
	H86.8z"/>
</svg>
