<?xml version="1.0" encoding="utf-8"?>
<!-- Generator: Adobe Illustrator 23.0.3, SVG Export Plug-In . SVG Version: 6.00 Build 0)  -->
<svg version="1.1" id="Layer_1" xmlns="http://www.w3.org/2000/svg" xmlns:xlink="http://www.w3.org/1999/xlink" x="0px" y="0px"
	 viewBox="0 0 500 500" style="enable-background:new 0 0 500 500;" xml:space="preserve">
<style type="text/css">
	.st0{fill:#FFFFFF;}
</style>
<title>Logos/Clubs/NYJ/Primary</title>
<desc>Created with Sketch.</desc>
<path class="st0" d="M459.4,181.2L459.4,181.2c-21.4-21.4-51.6-39.6-87.2-52.6c-37.6-13.7-79.9-21-122.4-21
	c-59.2,0-120,15.7-167,42.9c-48.1,27.9-75.6,64.1-75.6,99.2c0,22.4,11.3,45.5,32.5,66.8c21.7,21.7,52.4,40.3,88.6,53.8
	c38.1,14.1,80.1,21.6,121.5,21.6c42.4,0,84.7-7.3,122.4-21c35.6-13,65.8-31.2,87.2-52.6c21.6-21.6,33.1-45.3,33.1-68.6
	C492.5,226.5,481,202.8,459.4,181.2z M249.8,381.1c-124.6,0-234.2-68.3-234.2-131.3c0-63,109.5-131.3,234.2-131.3
	C380,118.5,484,186.4,484,249.8C484,313.2,380,381.1,249.8,381.1z"/>
<path class="st0" d="M249.8,126.1c-117.4,0-220.6,64.4-220.6,123.7c0,59.3,103.2,123.7,220.6,123.7c122.7,0,220.6-64,220.6-123.7
	C470.4,190.1,372.5,126.1,249.8,126.1z M267.1,300.1h-34.5c-5.9,0-10.7,4.1-11.6,9.4h-18.9c1.8-12.8,23.3-26,47.8-26
	c25.5,0,46.1,13.2,47.8,26h-18.9h0h0C277.8,304.2,273,300.1,267.1,300.1z M260.4,312.9c-0.1,1-0.2,2.1-0.5,3.1l-3.1,0
	c0.3-1,0.5-2,0.6-3h-5.9v2.9h-3.3v-2.9h-5.9c0.1,1,0.3,2,0.6,3l-3.1,0c-0.2-1-0.4-2-0.5-3.1h-5.8c0.1,1.5,0.4,2.9,0.8,4.3l-3.3,0
	c-0.5-1.9-0.8-3.8-0.8-5.8c0-1.7,0.2-3.4,0.6-5c0.1-0.3,0.2-0.7,0.2-1l3.3,0c-0.1,0.3-0.2,0.7-0.3,1.1c-0.3,1-0.4,2.1-0.5,3.2h5.8
	c0.1-1,0.2-2,0.5-3l3.1,0c-0.3,0.9-0.5,1.9-0.6,2.9h5.9v-2.8h3.3v2.8h5.9c-0.1-1-0.3-2-0.6-2.9l3.1,0c0.2,0.9,0.4,1.9,0.5,3h5.8
	c-0.1-1.1-0.3-2.2-0.5-3.2c-0.1-0.4-0.2-0.7-0.3-1.1l3.3,0c0.1,0.3,0.2,0.6,0.2,1h0c0.4,1.6,0.6,3.3,0.6,5c0,2-0.3,4-0.7,5.8l-3.3,0
	c0.4-1.4,0.7-2.8,0.8-4.3H260.4z M270.4,210.6c-3.9-6.5-7.6-13.5-13.3-13.4h-12.4c-5.2,0.7-6,4-5.8,6.9c0,0.4,0,6.2,0,14.9l-4,0
	v-8.6c0-10.4,0.2-16.1,9.8-16.5h13.7c7.3,0.5,11.2,9,16.3,17.8l4.3,7.3l-3.7,0l0,0L270.4,210.6z M254.3,222.7l-7,13.2H216l-2.9,6.1
	H242l-7.2,13.4h-30.7l-3.3,6.3h34.5l-7.1,13.2h-63.1h0h0l27.9-52.2H254.3z M238.9,262.9L238.9,262.9c0,6.2,0,12.3,0,18
	c-1.3,0.2-2.7,0.5-4,0.7v-11.3L238.9,262.9z M287.8,274.8h-33h0h0l20.8-39h-18.5l7.1-13.2h66.7l-7.3,13.5h-15.2L287.8,274.8z
	 M203,183.8l115.1,0v13.3h-15.3l-0.1,0h-0.1c-1.7,0.1-2.6,0.4-3.1,1.4c-0.3,0.6-0.6,2.1,1.9,5.9l9.1,14.5l-3.9,0l-8-12.7
	c-8.5-13.5,4.2-12.4,4.2-12.4h12v-6.7l-108.5,0v6.6h11.2c10.8,0,12,6.9,12,17.3v7.9l-3.3,0v-7.9c0-5.8-0.4-10.1-2.5-12.2
	c-1.2-1.2-3.3-1.8-6.2-1.8H203V183.8z M194.8,219l-4.2,0l-2.6-3.4l1.7-3.2L194.8,219z M110.4,183.9h57.5l15,19.6h0l0,0l0,0h-4.2
	l-12.4-16.2h-52.5v7.3h15.6c9.9,0,8.8,7.8,9,15.4v23.8l-3.3,6.3l0-32.3c0-3.6,0-7.3-1.5-8.7c-0.8-0.8-2.2-1.1-4.2-1.1h-18.9V183.9z
	 M147,217.3l-3.3,6.3v-16.8l5.4,6.6l-1.9,3.6l-0.2-0.2L147,217.3L147,217.3z M97.3,241h28.9h0l-6.2,10.1c-3.6,6.1-5.6,10.3,1.6,11.1
	c4.5,0.5,5.9-1.3,8.4-5l26.6-50h31.6l-28.2,52.7c-10.6,19.3-19.5,20.9-44.8,21.1C87.4,281.1,77.9,267.7,97.3,241z M171.9,312.9
	h-61.7v-12.3h18.3c5,0,6.4-3.5,6.4-16.2v-0.7l0,0c1.2-0.2,2.3-0.4,3.3-0.6v1.3c0,10.4-0.4,19.5-9.7,19.5h-15v5.6h55v-5.8h-14.1
	c-9.4,0.1-10.9-1.4-10.9-19.4v-2.9c1.2-0.4,2.3-0.9,3.3-1.5v4.4c0,6.5,0.1,13.6,1.8,15.2c0.7,0.7,2.8,0.9,5.8,0.8h17.4V312.9z
	 M198,278.6h4.5l10.1,12.3c-1,0.7-1.9,1.3-2.8,2L198,278.6L198,278.6z M249.8,338.9c-24.4,0-46-13.3-47.8-26H221l0,0
	c0.8,5.4,5.7,9.5,11.6,9.5h34.5c5.9,0,10.7-4.1,11.6-9.5h18.9C295.9,325.7,275.4,338.9,249.8,338.9z M297.3,300.5h1.5
	c1.6,0,5.2,0,5.2-8.3v-24.4c-0.7-1.2-2.3-3.9-4.4-7.4l1.8-3.4l5.9,9.9v25.3c0,7.7-2.9,11.4-8.2,11.6
	C298.7,302.7,298.1,301.6,297.3,300.5z M358.1,312.9h-57.2c0.1-0.6,0.1-1.1,0.1-1.7c0-0.5,0-1.1-0.1-1.6h53.8v-5.9h-10.1
	c-8.1-0.4-10.2-4.6-10-12.9v-10.5c1.1,0.2,2.2,0.4,3.3,0.5v10c-0.2,7.7,1.6,9.2,6.8,9.5h13.4V312.9z M394.1,240.5h-24.5
	c0.3-2.7-0.6-5.3-2.6-5.9c-2.6-0.8-6-0.1-6.3,2.6c-0.4,3,1.4,4.3,6.6,5.3c8.1,1.6,16.6,4.5,19,7.9c3.5,4.7,1.3,11.2-2.4,16.9
	c-5.5,8.3-17.3,10.2-38.5,10.3c-19.6,0-27.2-7.4-22.1-19.8h0l0,0c0,0,0,0,0,0h24.5c0.5,2.6,0.3,4.1,1.8,5.3c2.3,1.8,5.9,0.9,7.4-1.1
	c1.3-1.7,1-4.5-1.3-5.3c-3.8-1.4-16.5-3.3-21.1-6.3c-3.7-2.4-4.1-7-1.6-12.9c5.1-12.8,14.7-17.4,39.8-16.6
	C393.1,221.6,400.8,229.8,394.1,240.5z M398.4,197.2h-12.1c-7-0.1-7.5,0.7-12.7,8.6L367,217l0,0c-1.4,0-2.8,0-4.1,0.1l5.4-9.1
	c7.5-11.3,7.9-14.3,18.1-14.1h8.7v-6.7h-54.5v6.7h17.8c0,0,13.2-1.1,3.8,13.5l-6.2,10.3c-1.5,0.2-2.9,0.4-4.3,0.7l7.6-12.7
	c2.9-4.6,3-6.9,2.7-7.5c-0.4-0.7-2.3-1-3.4-0.9l-0.1,0h-21.2v-13.3h61.2V197.2z"/>
<polygon class="st0" points="182.9,203.4 182.9,203.4 182.9,203.4 "/>
<polygon class="st0" points="323.2,257.7 323.2,257.7 323.2,257.7 "/>
</svg>
