<?xml version="1.0" encoding="utf-8"?>
<!-- Generator: Adobe Illustrator 23.0.3, SVG Export Plug-In . SVG Version: 6.00 Build 0)  -->
<svg version="1.1" id="Layer_1" xmlns="http://www.w3.org/2000/svg" xmlns:xlink="http://www.w3.org/1999/xlink" x="0px" y="0px"
	 viewBox="0 0 500 500" style="enable-background:new 0 0 500 500;" xml:space="preserve">
<style type="text/css">
	.st0{fill:#FFFFFF;}
</style>
<title>Logos/Clubs/OAK/Primary</title>
<desc>Created with Sketch.</desc>
<path class="st0" d="M251.9,282.9c0.7,3.5,0.1,3-0.3,6.2c-0.3,2.9,2.1,3.5,2.1,0.3C253.7,277.2,252.9,280.6,251.9,282.9z"/>
<path class="st0" d="M254.9,271.3c3-1.7-2.3-2.2-1.3,2.9c-0.1-0.5,0.9-0.2,1-0.4C254.8,273,254.9,272.1,254.9,271.3z"/>
<path class="st0" d="M281.7,273.7c-0.2-0.2-0.2-0.6-0.5-0.8c-1.2-0.9-3.1-0.6-4.5-0.6c-4.3,0.2-7.6-1.9-11.9-0.4
	c-1.3,0.5-2.7,0.3-4,0.5c-0.4,0.1-0.7,0.2-0.9,0.5c-0.1,0.1,0.3,0.3,0.2,0.6c0.7,0.1,1.3-0.4,2.1,0.1c1.1,0.7,1.8,1.8,3.3,1.5
	c0,0.1,0.6-0.4,0.6-0.3c2.6-0.1,4.8,0.4,7.2,0.7c0.7,0,7,0.5,5.7,1.2c1-0.6,2-0.5,3.1-1c0.7-0.4,2.1-0.8,1.5-1.5
	C283.3,273.9,282.3,274.1,281.7,273.7z"/>
<path class="st0" d="M232.5,316.3c2.4,0,4.8,0.8,7.2,1.3c4.3,0.9,8.2,0,13.4-0.3c6.3-0.4,7.4,1.1,9.4,0.9c3.8-0.5,6.1-2.4,4.5-1.9
	c0.4-0.1-3.2,0.3-2.9-0.2c-1-0.2-1.7,0.4-2.6,0.5c-2.1,0.3-4.3,0.1-6.4-0.6c-3.2-1.1-6.8,0.5-10.2,0.5c-5.5,0-11.6-2-18.5-1.3
	c-0.7,0.1,5.6-5,5.1-4.4c1.6-1.9,2.1-4.5,2.4-4.5c-0.4-0.4-2-1.3-4.4,1.7c-1.4,1.8,0,2-3.3,5.2c-1,0.9-2.6,1.5-3.5,2.7
	c-0.1,0.5-0.2,1-0.1,1.4C224.7,318,228.5,316.4,232.5,316.3z"/>
<path class="st0" d="M255.3,294.4c-0.4,0-0.8,0.3-0.8,0.7c0,0.4,0.3,0.8,0.7,0.8s0.8-0.3,0.8-0.7C256,294.8,255.7,294.4,255.3,294.4
	z"/>
<path class="st0" d="M283.8,302.7c0.3,0.3,0.6,0.5,1,0.5c0.3,0,0.7-0.5,0.8-0.8c0.2-0.7,0.2-1.4,0.2-2.1c-0.3,0.7-0.7,0.7-1.3,1.1
	C284.1,301.6,283.6,302.2,283.8,302.7z"/>
<path class="st0" d="M257.4,306.5c1.6,0.2,2.7,1,4.2,1.4c0.5,0.2,0.9,0.5,1.3,0.8c-0.1,0-0.1,0-0.2,0c0.1,0.6,1,0.8,1.2,0.4
	s-0.6-0.5-0.9-0.7c-1-0.7-1.2-2.2-2.5-2.6c-0.9-0.3-2-0.8-2.9-0.3C257,305.8,257.2,306.4,257.4,306.5z"/>
<path class="st0" d="M233.9,306.3c0,0,0.1,0.1,0.1,0.2C234,306.4,234,306.4,233.9,306.3z"/>
<path class="st0" d="M258.3,267.9c4.3-0.2,6.6-0.4,10.7-0.8c1-0.1,4.9-2.8,5.9-2.2c1.5,0.9,3,1.9,4.3,3c-0.1,0,1.8,1.2,1.7,1.2
	c0.3,0,2.1,0.6,2.3,0.5c0.2-0.6,0.4-1.1,0.5-1.7c0.6,0.5-0.5-1.7,0.1-1.1c-0.8-2.7-0.3-1-2.2-2.3c-1-0.7-2-3.5-2.6-2.9
	c0.7-0.6-6.8-0.6-11.9-0.4c-1.5,0.1-6.4,0.3-6.4,0.3c-1.5,4.3-4.1,1.4-5.4,3.1c-0.4,0.7-0.5,1.6-0.1,2.4
	C255.9,268,257.4,267.9,258.3,267.9z"/>
<path class="st0" d="M262.2,278.3c0-0.1,0-0.3,0-0.4c0.1-0.4-0.6-0.3-0.4-0.7c-1.1-0.3-2,0.6-3,0.2c-0.6-0.2-1-0.8-1.5-1.1
	c0,0.8-0.3,1.9,0.4,2.2C259.1,279.1,260.6,277.3,262.2,278.3z"/>
<path class="st0" d="M251.7,135.7c0-4.6-2.5-6.7-7.5-6.7h-0.5v13.4C249.1,142.3,251.7,140.4,251.7,135.7z"/>
<path class="st0" d="M133.3,130.7c0-2.1-1.3-3.4-3.7-3.4h-1.9v6.7h1.9C132,134,133.3,132.8,133.3,130.7z"/>
<path class="st0" d="M264.8,310.9c-0.4,1.1,0.7,1.8,1.3,1.2c0.1-0.1,0.1-0.2,0.2-0.3c0.2-0.7-0.1-1.5-0.8-1.7
	C265.6,310.6,264.9,310.5,264.8,310.9z"/>
<path class="st0" d="M332.8,130.7c0-2.1-1.3-3.4-3.7-3.4h-1.9v6.7h1.9C331.5,134,332.8,132.8,332.8,130.7z"/>
<path class="st0" d="M177.2,136.2c-0.8-2.5-1.2-5-1.4-7.6h-0.2c-0.2,2.6-0.7,5.1-1.4,7.6l-1.1,3.9h5.2L177.2,136.2z"/>
<path class="st0" d="M254.6,326.2c-4.1,1.5-13-0.9-17.7-0.5c-3.6-0.6-6.1-0.5-5.8,0.3c1.1,3,5,2.4,5.4,2.4c8.5,0.3,10-1,14.1-0.1
	c1.5,0.4,7.2,0.8,7.4-1.5C258.1,325.1,254.6,326.6,254.6,326.2z"/>
<path class="st0" d="M277.3,281.3c-2.4,0-4.8-0.6-7-1.6c-0.8-0.3-1.6,0.3-2.4,0.4c-1,0.1-2.2-0.3-3.1,0c-0.7,0.3-1.3,1.3-0.7,1.6
	c1.1,0.5,2.4,0.3,3.4-0.4c1.4-0.9,3-0.6,4.6-0.2c0.4,0.2,0.9,0.3,1.3,0.4c1.6,0,3,0.4,4.5,0.2C277.6,281.7,277.5,281.3,277.3,281.3z
	"/>
<path class="st0" d="M139.3,180.5c2.3,0.6,5.3-4.6,1.8-6.5c0,0-2,0.3-0.9,0.8c2.9,1.2,0.8,4.9-1.5,4.6
	C138.7,179.4,136.7,179.9,139.3,180.5z"/>
<path class="st0" d="M162,214c-1,0.5-2.2,0.5-3.3,0c-1.7-0.9-2.4-3.1-1.5-4.8c1-2-1.8-4.2-3.2-3.6c-2.5,1.1-5.7-2.4-4-5.8
	c0.6-1.2-2-4.7-4.1-3.8c-2.7,1-6.8-3.4-4.6-5.4c2.9-2.6-0.3-5.1-4-0.6c-18.2,13.1,8.2,42.3,26.3,27C163.6,217,165.6,212.1,162,214z"
	/>
<path class="st0" d="M420.2,104.6c-64.2,7.2-128.8-0.3-170.4-34.5c-41.8,34-107.7,42.4-170.6,33.2C69.9,253.4,118.8,400.1,248.5,434
	C378.4,400.8,428.7,254.8,420.2,104.6z M315.1,118.5h15.6c9.2,0,13.9,4.2,13.9,11.6c0,4.9-2.7,8.3-6.7,8.8l9.2,14h-13.9l-6-11.4
	l0.1,11.5h-12.2V118.5z M277.8,118.4h23v9.4h-10.9v3.3h9.9v8.8h-9.9v3.6h11.2v9.4h-23.3V118.4z M233.1,118.4h10
	c6,0,10.5,0.6,13.7,2.2c2.4,1.3,4.5,3.1,6.1,5.3c5.4,7.6,3.6,18.2-4,23.6c-4.5,3.1-9.8,3.4-16.7,3.4h-9.1V118.4z M205.9,118.4h12.6
	v34.5h-12.6V118.4z M169,118.1h13.7l12.1,34.5h-13.3l-1.1-4.3H171l-1,4.3h-13.3L169,118.1z M115.6,118.5h15.6
	c9.2,0,13.9,4.2,13.9,11.6c0,4.9-2.7,8.3-6.7,8.8l9.2,14h-13.9l-6-11.4l0.1,11.5h-12.2V118.5z M136.8,182.8c-2-1-3.4-3.1-3.2-5.5
	c0.2-3.2,2.9-5.7,6.1-5.5s5.7,2.9,5.5,6.1c0,0.3-0.1,0.6-0.2,0.9h3.5c6.4,7.2,22.4,28.1,22.4,28.1l-2.4,5.9c6.3-5.3,9.9-8.7,12.2-12
	c4.5-4.9,8.6-1,5,2.2c-2.4,4.6-13.8,13.8-21.2,20.2C143.5,242.1,103.8,212,136.8,182.8z M186.4,225l-0.7,4.7
	c-3.7,0.2-6.4,4.6-8.1,7.7c-1-0.5-9.1-13.1-9.1-13.1l9.2-9.2L186.4,225z M203.1,349.9c-11.4,8.5-39.2,11.9-53.3,6.4
	c0,0,34-13.4,43.4-21.9l2.2-1.2c0,0,4.7,7.5,6.4,8.5C201.8,341.7,203.9,343.5,203.1,349.9z M211.4,332.6c0.8,2.2,2.7,3.2,3.3,4.1
	c0.9,1.4,1.3,2.9,2.2,4.3c-1.5,0.8-2.6,3.2-4.1,2.5c-0.7-0.3-1-1.9-1.4-3C210.3,337.7,211.8,335.4,211.4,332.6z M214.1,329.1
	c-1.6-5.8-0.8-6.2-0.1-11.1c0.2-1.8-0.1-6.4-1.8-6.7c-1.6,1.6-0.4,2.8-0.9,5.1s1.6,2.4,0,7.5c-0.4,1.4-1.2,1.1-1.7,0.1
	c-1.7-3.6-0.8-11.4-4.6-14.5c-0.9-0.7-0.9-2.8-0.2-3.4c1.1-0.8,2.3,0.5,3.8,0.2c0.3,0,0.1-1.9-0.1-2.1c-1.3-1.5-4-0.9-4-1.1
	c0.4-3,0.3-5.6-0.7-7.1c-1.4-2-3.5-2.3-4.3-4.3c-1.8-4.1-1.2-6.4-1.3-7.5c-0.3-1.4-0.6-3.8-0.2-5.3c-0.4,0.1-0.2-3.4-0.2-3.6
	c0.2-2.5,0.7-2.4,1.1-4.8c0.1-1.5,3.8-2.4,3.8,1c-0.9,4.5,0.5,8.1,0.6,12.6c0,0.5,0.9,1,1.5,1.2c9.9,2.9,17.3,1.8,27.2,1.6
	c2.7,0,4.2-3.3,4.8-5.9c1-4.3,1-5.7,1-10.4c0.4-1.3,1.6-0.9,2.5,0.1c1.7,2,0.4,2.7,0.8,5.2c0.3,1.9-2.2,4.8-2.2,4.8
	c0.3,0-0.9,6.6-0.6,6.6c0.5,0-0.4,5.8-0.5,5.7c-0.4,3.1,1.8,2,1.5,4.3c-0.1,1-0.6,2.5-0.6,2.7c0.3,2.1-4.5,1.7-3.7,1.7
	c-1.1-0.1-1.9-0.5-1.9-1.4c0-1.2-0.3-2.1-0.3-3.2c-2.4-0.1-1.4,1.8-1.5,4.2c-0.1,1.1,0.6,2,2.4,2.3c1.9,0.3,2.1,0.5,3-0.1
	c0.5-0.3,2-0.7,2.2-1.4c0.9,3.5,1.9,4,4.5,3.9c1.1,0,3.6,0.4,4.6-2.1c0.2-0.7,2-0.6,2.2-1.2c4.4,0.9,1.7,2.7,7.1,1
	c1.6-0.5,2.9-2.9,1.5-4.7c-0.3-0.2-0.7-0.2-1-0.1c-0.6,4.7-2.4,3.3-4.1,3.2c-5.7-0.4-2.7-2.7-7.5,0c-0.6,0.3-2.3,2.6-4.5,0.8
	c-3.1-2.8,0.2-4.7,0.6-7.7c0.4-2.7,0.2-11.2,0.1-13.7c-0.3-5.8,1.2-2.3,2.2-4.8c-0.9,0.2-0.4-7.1-0.5-7.5c-0.5-2.6-3.5-1.6-4.3-2.6
	c0,0-0.4-2,0.1-2.1c3.5-0.6,7.9-2.6,11-4.1c5.1-2.4,10.1-5.1,14.9-8c1-0.6,1.4-2,2-2c6.6,0,13-1.4,18.9,1.9c4.1,2.2,5.1,4.5,6.2,8.4
	c-0.5,0.1,0.4,4.1,0.4,4.5c0.1,2.5,0,7.2,0,8.5c0.2,8.5,0.6,11.4-0.5,17.1c0,0.1-0.9,2.1-1.2,2.1c-0.9,1.4-2,2.7-3.3,3.8
	c-0.4,0.4-0.2,1.6,0.1,1.4c0.8-0.6,2.6-0.9,3.9-1.5c-0.1,4-0.5,8-1.3,11.9c-0.7,3.2-1.1,6.6-2.2,9.7c-1,2.8-1.5,4.8-5.1,7.8
	c-0.8-6.2-2.6-9.3-2.2-11.6c-2.4,1-2,4.5-2.3,7.8c-0.3,2.5-0.1,5.1,0.6,7.6c-0.1,0.7-1.8,2-2.5,3.1c-2.1,3.6-4.7,6.8-7.7,9.7
	c-0.4,0.4-0.5,1.3-1,1.5c-1.7,0.7-2.1,1.8-3.1,2.9c-0.8,1-2.9,1.7-4,2.3c-1.1,0.5-2.2,0.9-3.4,1.1c-1.4,0.2-2.9,0.2-4.3,0.1
	c-1.9-0.1-4.4-2.4-6.4-2.9c-5.8-1.4-7.2,3.8-16.2,1.9c-3.7-0.8-4.5-3.3-6.6-5.9c-0.4-0.5-2.6-3.1-3-3.6
	C221,339.5,215.3,333.7,214.1,329.1z M200.1,259.7c2-4.4,1.4-4.7,4.3-7.9c0.7-0.8,3.3-1.2,3.3-1.2c6.1-1.9,36.8-2,51.9-0.4
	c1.2,0.1-5.3,4.1-6.2,4.6c-5.5,3.3-6.2,3.7-11.4,5.8c-1.4,0.6-4.2,2-5.8,1.4c-3.1-1.3-17.6-1.2-23.8-1.2c0.1,0-5.6,1-5.5,1
	c-3.3-0.2-3.5,1.4-4.6,2.9c-0.6,0.8-3.5,0.9-3.1-0.8C199.4,263.3,201.4,256.8,200.1,259.7z M280.8,333.5c0.3-0.2,0.5-0.7,0.8-0.9
	c0.7-0.6,1.3-1.4,2-2.2c0,0.1,0,0.3,0,0.4c0.1-0.4,0.8-0.2,0.7-0.8c0.4,0.5,1,0.8,0.9,1.5c-0.4,2-1.4,3.8-2.9,5.1
	c-0.6,0.5-1.5,0.7-1.9,1.3c-0.8,1.2-2.1,0.6-2.7,0c-0.8-0.6-0.2-2.1,0.7-2.7C279.3,334.6,280,334.1,280.8,333.5z M279.8,329.7v-0.1
	C279.9,330,279.8,330,279.8,329.7z M293,359.6c-0.8,6.1-7.4,9.2-10.9,11.6c-9,8.1-23.6,10.8-35.1,9.3c-1.4,2.5-5.3,4-5.3,4
	c-2.2,0.8-3.2-4-3.2-4c2.1-0.6,4.1-1.3,6.1-2.1c-7.7-8.5,11.8-13.5,17.1-16.6c5.2-2.3,8.4-5.1,9.8-8c3.8-8.4,11.8-13.9,14-15.1
	c2.7-2.4,3.8-7.5,3.8-7.5c7.6-23.6,9.8-52.9,6.5-67.6c-1.5-11.6-4.9-13.8-11.6-15.4c-16.5-3.1-60.5-2.1-78.9-0.9
	c-17.5,16.2-10.1,59.9-0.8,78.9c2.4,3.1,2.9,3.5,2.7,6.5c1.9,21.5,5.1,24.6,5.1,24.6c6.8,9.3,5.1,1.1,5.1,1.1
	c6.1,6.7,17.8,11.2,17.8,11.2c-0.8,0.4-8.8,5.5-8.8,5.5c-16.9-12-20.6-24.2-20.8-35.7c-1.3-11.9-3.2-4-3.2-4c-5-3.2-3.4-8.7-3.4-8.7
	c0.5-9.3-2.2-6.5-2.2-6.5l-3-0.1c-4.7-9.2-15-56.3-15-56.3c-2.9-26.2,6.7-30.8,11.5-32.3c-0.6-5.2,8.4-38,8.4-38
	c5.3-16.3,22.9-20.6,40-20.6l-2.8,68.2l25-0.1l-3.8-68.1c27.9,0.6,37.1,8.2,43.2,23.9l-0.9,0.6c-7.2-9.8-0.3,8.2-0.3,8.2
	c1.3,8.6,4.4,13.9,5.4,35.7c2.1,17.2-2.6,63.5-2.6,63.5c2.9,1.9,6.3-25.6,6.3-25.6c1.3-13.9-2.2-62.4-7.4-77l1.4-1.7
	c0,0,5.7,14.9,7.7,30.4c3.2,1.1,3.7,3.7,6,14.2c-0.4,7.1-1.6,0.6-2.1-2.4c-3.4-8.6-2.8-2.2-2.8-2.2c2.4,18.5,1.7,39.2,1.7,39.2
	c-2,13,1.7-0.6,1.7-0.6c1.8-8.8,2-11.9,2-11.9c-0.8-17.5,2,0.9,2,0.9c-2.4,31.2-22.2,54-22.4,54.3c0.5,6-3.3,13.9-5.4,18.3
	C296.8,352.5,293,359.6,293,359.6z M312.1,225.1l6.4-8.4c1.2,0.7,8.7,7.5,10.6,8.7c-1.1,4.7-8.5,19-10.1,21.5
	c-0.2-8.6-1.4-18.2-6-18.3L312.1,225.1z M297,347.1c-0.5-2.5-1.4-4.8-2.6-7c2.2-3.5,4-7.3,5.3-11.2l2,1.4c8.1,7.7,39.8,23.5,44.8,25
	C318.2,362.1,307.1,354.9,297,347.1z M331.1,224c-7.5-6.2-19.2-15.1-21.7-19.6c-3.7-3.1,0.2-7,4.9-2.3c2.4,3.3,6.1,6.6,12.5,11.6
	l-2.6-5.8c0,0,15.3-21.4,21.5-28.8l3.5-0.1c0,0,0,0,0,0c-0.1-0.3-0.2-0.6-0.3-0.9c-0.2-3.2,2.2-7.8,5.4-8.1c2.3-0.2,4.5,1,5.6,3.1
	c1.5,2.8,0.4,6.3-2.4,7.8C391.6,209,352.7,242.3,331.1,224z M370.8,153.9c-4.8-0.1-9.5-1.4-13.6-3.9l4-9.6c3.3,2.3,6,3.6,8.6,3.6
	c1.8,0,2.8-0.7,2.8-1.8c0-1.6-1.7-1.8-4.6-2.4c-5.9-1.3-8.9-4.5-8.9-9.5c0-7.2,5.6-12.5,14.4-12.5c4,0,8.1,1.1,11.6,3.1l-3.8,9
	c-2.4-1.8-4.9-2.7-7.1-2.7c-1.7,0-2.7,0.6-2.7,1.6c0,1.6,2.3,1.9,6.4,2.8c4.6,1,7.7,4.4,7.8,9.3
	C385.7,148.3,379.8,153.9,370.8,153.9z"/>
<path class="st0" d="M355.2,178.7c2.4-0.7,0.5-1.1,0.5-1.1c-3.3,0.5-5.7-2.8-1.7-4.6c1.1-0.5-0.9-0.8-0.9-0.8
	C348.5,174.8,351.8,179.6,355.2,178.7z"/>
<path class="st0" d="M358.1,187.5c-3-3.1-5.5-1.3-4.6,1.3c1,3-2.7,8.6-4.5,7.4c-2.5-1.5-4.9,2.5-4,4c1.5,2.4-1.4,7.2-3.8,5.9
	c-1.3-0.7-4,1.9-3.1,3.7c1.5,3-1.7,5.7-4.7,4.9c-3.9-1-1.5,3.1-1.5,3.1C350.4,232.5,376.6,200.2,358.1,187.5z"/>
<path class="st0" d="M272.2,365.4c-1-0.8-3.2-1-4.3,0.1c-1.9,1.8-3.1,2.1-4.8,3.6c-1.2,1-2.3,0.6-3.6,1.1c-1.1,0.4-2.7,1.3-3.1,2.6
	c-0.5,1.3,1.7,3.3,2.4,3.7c4.1,2.3,14.5-0.5,14.7-7.6c0-0.1,0-0.2,0-0.2c0,0,0,0.1-0.1,0.2C273.9,366.9,273.2,366.2,272.2,365.4z
	 M270.9,370.2c-0.2,0.6-0.5,1.2-0.9,1.8c-1,0.7-2.1,1.4-3.2,1.9c-1.9,1.1-4.1,1.6-6.2,1.3c-1.9-0.4-1.1-2-0.7-2.1
	c5.4-0.7,6.5-3.8,9.9-5.1C270.8,368.2,271,369.8,270.9,370.2z"/>
<path class="st0" d="M284.6,349.7c-0.9,1.1-1,3.2-2,4.2c-2.9,2.9-4.6,3.4-6.3,5.2c-1.7,1.9-2.3,3.2-0.6,5.7c0.2,0.2,0.4,2.8,2.3,4.2
	c2.3,1.7,5.6-0.1,9-4.4c0.8-1,0.6-2.3,0.8-3.4c0.4-2.8-0.1-5.7,0.3-8.5C288.5,350.1,286.3,347.7,284.6,349.7z M280.4,366.4
	c-5.1-2.7,0.3-5.2,4.7-8.1c0.2-0.2,0.4,4,0.5,3.8C284.8,364.7,281.6,367,280.4,366.4z"/>
<path class="st0" d="M267.4,313.3c-0.3,0-0.6,0.4-0.6,0.8c0,0.4,0.3,0.8,0.6,0.8s0.6-0.4,0.6-0.8C268,313.7,267.7,313.3,267.4,313.3
	z"/>
</svg>
