<?xml version="1.0" encoding="utf-8"?>
<!-- Generator: Adobe Illustrator 23.0.3, SVG Export Plug-In . SVG Version: 6.00 Build 0)  -->
<svg version="1.1" id="Layer_1" xmlns="http://www.w3.org/2000/svg" xmlns:xlink="http://www.w3.org/1999/xlink" x="0px" y="0px"
	 viewBox="0 0 500 500" style="enable-background:new 0 0 500 500;" xml:space="preserve">
<style type="text/css">
	.st0{fill:#FFFFFF;}
	.st1{fill:#231F20;}
</style>
<title>Logos/Clubs/PHI/Primary</title>
<desc>Created with Sketch.</desc>
<g>
	<path class="st0" d="M470.4,163.9c0,0-23.8,2.8-35.2,3.9c23.6-33.5,41.3-73,41.3-73s-54.2,9-139.6,35.4l24.2-23.7
		c0,0-83.3,28.4-122.8,45.8l20-20.9c-35.5,15.8-64.6,32.3-92.3,49c-59.4,35.8-66.7,67.9-119.3,90.6c1,2.2,4.9,8,10.1,11.3
		C30.5,303.5,17,328.1,17,328.1s2.2,31.8,13.1,41.2c18.4,15.9,35.8,16.6,47.1,14.3c18-3.7,28.2-15,28.2-15s-22.3-7.5-18.4-16.3
		c5.5-12.5,27.9-17.3,30.7-12.9c0.9,1.4,2.6,4.8,1.3,13.4c-6.1,39.4,11.4,52.9,11.4,52.9s19.3-9.8,36.7-31.2
		c10-12.4,20.1-33.4,22.3-41c1.9-7,26.3-20,42.3-14.9c20.6,6.5,7.2,39,7.2,39s30.2,11.5,66.4-22.6c0.2,0.9,0.3,1.8,0.3,2.7
		c0,1.4-0.1,2.8-0.4,4.1c0,0,20.9,4.9,67.9-36.3c36.9-32.3,58.1-63.8,58.1-63.8s-16-3.6-19.9-4.2
		C446.6,203.7,470.4,163.9,470.4,163.9z M413.7,246c-18.1,29.3-72.2,86.9-102.4,89.3c-0.3-4.5-1.9-8.8-4.7-12.3
		c-11.3,20.7-46,33.4-60.3,30.1c17.5-63.9-56.6-39.6-62.3-22c-14.7,45.6-52.2,67-52.2,67s-12-13.6-6.8-44.3
		c3.8-22.6-10.5-21.9-10.5-21.9c-5.7-0.3-27.4,2.4-34.2,17.5c-5.5,12.2,13.8,20.7,13.8,20.7s-27.8,22.2-60.1-5.3
		c-7.9-6.8-10.8-35.3-10.8-35.3c15.5-25.7,35.9-42,44.4-48.1c-9-3.4-11.8-8.1-11.8-8.1c43.3-19.8,60.2-52.8,97-77.3
		c40.6-27,71.6-40.3,71.6-40.3l-11.7,14.8c0,0,9.8-4.2,14.1-6.3c38.6-19,104.1-39.6,104.1-39.6l-20.4,19.8
		c25.1-8.3,50.6-15.2,76.5-20.7c22.7-4.8,70.2-14.8,70.2-14.8s-11.2,32.8-34.8,66c14.3-1,29.7-1.8,29.7-1.8s-16.6,33.4-54,69.1
		C400.2,242.5,408.9,244,413.7,246z"/>
	<path class="st1" d="M222.2,197.6c-0.5,0.2-0.9,0.3-1.4,0.5c0.4-0.2,0.9-0.3,1.3-0.5C222.1,197.7,222.2,197.6,222.2,197.6z"/>
	<path class="st1" d="M220.6,198.2c0.1,0,0.2-0.1,0.2-0.1L220.6,198.2z"/>
	<path class="st0" d="M136.5,272.4c1.7,1.2,4.3,1,4.3,1c-1.8-1.4-2.8-3.6-2.6-5.9c-1,1-2.1,2-3.2,2.9
		C135.2,271.1,135.7,271.8,136.5,272.4z"/>
	<path class="st0" d="M302.3,193.4c-10.2,1.6-21.2,4-31,6.4c-16.3,4-29.2,8.1-29.2,8.1s2.3-1.1,6.6-3c10.5-4.5,33.2-13,65.8-19.5
		c30.7-6.1,66.4-7.6,80.8-9c20.5-19.8,28.5-44.8,28.5-44.8s-35.7,2.9-76.2,10.4c-42.1,7.8-69.3,18.8-74.8,21.1c-0.7,0.3-1,0.4-1,0.4
		s8.2-5.9,17.4-12.1c6.8-4.5,16.7-11.6,16.7-11.6s-39.8,9.5-93.7,35.1c-15.2,7.2-23.2,11.5-23.2,11.5c2.3-2.7,13.1-12.2,15.8-15.6
		c-40,19.6-54.6,32.6-78.4,57.8c-21.2,22.5-20.2,26.4-52.4,43.8c0,0,23.7,9.7,47.7-5.9c4.2-2.7,8.1-6.5,11.8-10.5
		c8.5-9.9,5.7-20,17-27.2c-1.6,3.7-4.3,8.5-4.5,13.4c5.4-7.5,16.1-17.3,28-24.4c30.3-18.1,50.4-21.2,50.4-21.2
		c-0.8,0.3-1.5,0.5-2.3,0.8c-0.4,0.2-1.4,0.5-1.5,0.5c-37.9,14.2-57.9,36.6-54.9,48c1.1,4.3,8.5-0.1,8.5-0.1s-10,8.5-14.1,17.7
		c0,0.4,0,0.8-0.1,1.1c0.2-2-0.2-4-1.1-5.7c-1.2-2.2-3.6-3.4-6.4-3.8c0.2-0.5,1.6-4.1,6.2-9.6c-6.2,4.4-10.2,9.8-12.2,12.2
		c2.9,0.3,5.4,1.7,6.8,4c2.8,4.6,0.2,11.3-5.8,14.9c-6,3.6-13.1,2.7-15.9-1.9c-0.3-0.6-0.6-1.2-0.8-1.8c-0.3,0.2-0.6,0.4-1,0.5
		c-1.9,1-5.7,2.6-5.7,2.6c1.9,0.4,3.8,0.6,5.7,0.3c0.5,6.6,4.6,17.1,27.7,11.1c-6.6,6.5-22.5,6.1-32.1,1c1.3,1,2.8,2,4.6,3.1
		c29,18,62.3,1.1,70.5-3.6c1.9-1.3,4-2.4,6-3.4c-5.8,5.5-10.6,11.9-14.2,19c-0.8,1.6-1.5,3.2-2.2,5c9.2-8.6,18.9-15.6,41.5-21.2
		c53.5-13.3,90.7,2.8,95.1,19.7c0,0,0.2-0.1,0.5-0.3c2.2-1.2,10.5-4.7,23-17c13.1-12.9,21.4-23.3,24.6-30.3
		c-54.7-27.4-115.1-10.9-144.7,0.5c-6.3,2.4-12.4,5.1-18.4,8.1c0,0,2.9-2.1,8.3-5.3c21.4-12.7,82.1-42.4,159.2-26
		c0,0,5-3.9,18.4-18.6c14.2-15.6,17.3-25.2,17.3-25.2S349.7,186.1,302.3,193.4z M159.6,266.9l0,0.1
		C159.5,267,159.5,266.9,159.6,266.9z M159.3,267.6c0,0.1-0.1,0.2-0.2,0.4C159.2,267.9,159.2,267.8,159.3,267.6L159.3,267.6z
		 M154,282.4c-8.7,3.9-14.7,2-16.8,0.6c-0.8-0.6-1.5-1.3-2-2.2c4.2,1.2,9.9,0.2,15.2-3.1c3.5-2.1,6.4-5.2,8.3-8.9c0,0,0,0,0,0
		c0.9,0.2,1.9,0.3,2.9,0.3c2.6-0.3,5.6-2.1,5.6-2.1s0.1,5.4-5.7,10.7C159.3,279.6,156.8,281.2,154,282.4L154,282.4z"/>
	<path class="st0" d="M201.6,309c0,0,13.5-10.1,36.4-6.5c33.8,5.4,32.9,26.8,32.9,26.8s15.2-6.6,22.9-20c0,0-9.6-9.1-26.8-12.2
		C221.9,289.2,201.6,309,201.6,309z"/>
	<path class="st0" d="M109.1,284.4c-8.7,2.7-19.7,1.9-25.8,0.3c-7,4.8-32.3,15.6-48.3,42.8c0.8,9.2,1.8,21,5.6,27.5
		C56,379.3,83,370.3,83,370.3s-41-18.2,2.8-44.7c14-8.5,52.7-14.8,75.8-7.4c2,0.7,4.4,2.5,4.2,2.9c-2.4,11.7-12.1,44.6-28.1,54
		c-8.9-13,14.6-42.7-9.4-43.9c3.7,6.6,4.9,14.2,3.4,21.6c-1.1,5.4-4.8,20,1.8,35c0,0,36.3-21.7,47.1-71.9c1.4-4.9,2.3-9.1,4.5-12.9
		C138.4,321.4,109.1,284.4,109.1,284.4z M95.1,300.4c-3.3,1-10.6,2-7.1-3.1c0,0,4.4-2.3,10.2-5.4c2.5,2.1,5.1,3.5,11.9,4.1
		C110,296,97.8,299.5,95.1,300.4z"/>
</g>
</svg>
