<?xml version="1.0" encoding="utf-8"?>
<!-- Generator: Adobe Illustrator 23.0.3, SVG Export Plug-In . SVG Version: 6.00 Build 0)  -->
<svg version="1.1" id="Layer_1" xmlns="http://www.w3.org/2000/svg" xmlns:xlink="http://www.w3.org/1999/xlink" x="0px" y="0px"
	 viewBox="0 0 500 500" style="enable-background:new 0 0 500 500;" xml:space="preserve">
<style type="text/css">
	.st0{fill:#FFFFFF;}
</style>
<title>Logos/Clubs/PIT/Primary</title>
<desc>Created with Sketch.</desc>
<path class="st0" d="M250,65.3c-102,0-185.1,83.1-185.1,185.1S148,435.5,250,435.5s185.1-83.1,185.1-185.1S352,65.3,250,65.3
	 M250,426.1c-97,0-175.7-78.6-175.7-175.6S153,74.8,250,74.8s175.6,78.6,175.6,175.6S347,426.1,250,426.1"/>
<path class="st0" d="M250.8,251c2.7,55.5,37.7,72.4,72.8,74.3C319.7,267.9,284.9,252.8,250.8,251"/>
<path class="st0" d="M323.4,178.2c-14.2-1.3-70.9,12.8-72.6,72.8C298.5,244.9,319.2,229.9,323.4,178.2"/>
<path class="st0" d="M158.9,246.4h4.4C164.2,242.5,158.2,242,158.9,246.4"/>
<path class="st0" d="M198.6,246.4h4.4C203.9,242.5,197.9,242,198.6,246.4"/>
<path class="st0" d="M175,246.4h4.4C180.3,242.5,174.3,242,175,246.4"/>
<path class="st0" d="M250,104.3c-80.9,0-146.5,65.6-146.5,146.5S169.1,397.4,250,397.4s146.5-65.6,146.5-146.5
	S330.9,104.3,250,104.3 M140.3,256.7c-0.2,0.6-0.6,1.2-1.1,1.6c-3.1,2.8-7.5,3.4-11.2,1.6c-1.6-0.7-2.7-1.5-3.6-3.4
	c-0.8-1.9-1-3.6-0.8-6.4h6.3c-0.1,0.9,0.1,3.1,0.7,3.7c0.6,0.6,3,1.2,3.9-0.4c0.3-0.6,0.4-3-0.6-4c-1.9-1.8-3.5-2-5.7-3.4
	c-3-1.9-4.8-5.3-4.7-8.9c0.1-1.5,0.5-2.9,1.3-4.1c0.8-1.5,2-2.6,3.5-3.3c4.2-1.9,9.4-0.8,11.7,3.2c0.6,1,1.2,2.6,1.1,5.4h-4h-2.2
	c-0.1-1-0.2-2.2-0.8-2.8c-0.9-0.9-3.1-0.4-3.7,0.8c-1,2.1,0.3,4.2,3.6,5.2c-0.1,0,1,0.4,0.9,0.4c3.1,1.5,4,2.3,5.2,3.9
	c0.7,1,1.1,2.2,1.3,3.4C141.7,251.8,141.4,254.4,140.3,256.7 M152.3,253.7v6.6c-2.8-0.1-8.1,0.9-8.1-5.3v-11.7l-2.2,0.1v-5.1
	l2.3-0.1v-2l5.9-3.2v5.3h2.2v5.2h-2.3v8.7C150.2,253.3,150,253.7,152.3,253.7 M168,250.9h-9.3v3c0,2,4.3,2.4,4.4-0.1v-0.6h4.8v2.6
	c0,1.7-0.7,3.6-3.6,4.6c-3.1,1-5,0.4-6.8,0c-2.4-0.9-3.5-2.7-3.6-5.4v-10.7c-0.1-2,1-3.8,3-5c3.3-1.5,5.1-1.1,7.6-0.2
	c2.4,1.3,3.4,2.9,3.5,5.1L168,250.9z M173.7,260.4c-2.4-0.9-3.5-2.7-3.6-5.4v-10.7c-0.1-2,1-3.8,3-5c3.3-1.5,5.1-1.1,7.6-0.2
	c2.4,1.3,3.4,2.9,3.5,5.1v6.8h-9.3v3c0,2,4.3,2.4,4.4-0.1v-0.6h4.9v2.6c0,1.7-0.7,3.6-3.6,4.6C177.4,261.4,175.5,260.8,173.7,260.4
	 M323.6,325.3c-14.3-1.3-70.3,11.4-71.9,71.4c-3.9-57.4-38.9-70.7-73-72.4c47.8-6.1,67.9-21.6,72.1-73.3
	c-3.9-57.4-38.4-70.9-72.5-72.6c47.7-6.1,68.5-20.8,72.7-72.4c2.7,55.5,37.3,70.4,72.4,72.3c2.7,55.5,36.6,72.3,71.8,73.6
	C381,250.5,325.3,265.3,323.6,325.3 M185.9,260.4v-31h5.9v31H185.9z M198.4,254c0,2,4.3,2.4,4.4-0.1v-0.6h4.8v2.6
	c0,1.7-0.7,3.6-3.6,4.6c-3.1,1-5,0.4-6.8,0c-2.4-0.9-3.5-2.7-3.6-5.4v-10.7c-0.1-2,1-3.8,3-5c3.3-1.5,5.1-1.1,7.6-0.2
	c2.4,1.3,3.4,2.9,3.5,5.1v6.8h-9.3L198.4,254z M210,260.2v-22l5.7-0.1v2.8c0.9-1.5,1.4-2.4,3.3-2.9h1.4v6.7
	c-4.9-0.3-4.6,1.4-4.7,2.7v12.7L210,260.2z M230.2,252.6c-1-1.5-3-1.7-4.8-2.1c-3.2-0.8-4-4-3.9-6.3c0-1.2,0.3-2.3,1-3.3
	c1.5-1.8,2.2-1.8,3.1-2.2c3-1.4,6.7-0.4,8.7,1.6c1.1,1.1,1.5,3.2,1.5,5.2h-5.1c0-0.5,0-0.9-0.1-1.4c-0.3-0.7-0.9-1.1-1.7-1.1
	c-0.8-0.1-1.6,0.4-1.9,1.2c-0.4,1.1-0.2,2.6,2.6,2.9c-0.1,0,1.5,0.3,1.4,0.3c1.6,0.5,3.1,1,4.3,3.2c0.2,0.5,0.4,1.1,0.5,1.6
	c0.6,1.8,0.4,3.7-0.5,5.4c-0.5,0.8-1.2,1.5-2,2.1c-2.2,1.3-5.1,1.5-7.7,0.7c-1.5-0.4-2.7-1.4-3.4-2.7c-0.7-1.4-0.7-2.6-0.8-4.5h4.9
	c-0.1,0.8,0.4,1.6,1.1,2c0.8,0.3,2.7,0.3,3-0.6C230.7,253.8,230.7,253.1,230.2,252.6"/>
</svg>
