<?xml version="1.0" encoding="utf-8"?>
<!-- Generator: Adobe Illustrator 23.0.3, SVG Export Plug-In . SVG Version: 6.00 Build 0)  -->
<svg version="1.1" id="Layer_1" xmlns="http://www.w3.org/2000/svg" xmlns:xlink="http://www.w3.org/1999/xlink" x="0px" y="0px"
	 viewBox="0 0 500 500" style="enable-background:new 0 0 500 500;" xml:space="preserve">
<style type="text/css">
	.st0{fill:none;}
	.st1{fill:#FFFFFF;}
</style>
<title>Logos/Clubs/SEA/Primary</title>
<desc>Created with Sketch.</desc>
<path class="st0" d="M0,0h500v500H0V0z"/>
<path class="st1" d="M400.7,349.7c0.1-0.1,9.5-11,12.5-21.1c0.2-0.7,0.3-1.2,0.3-1.4c-0.4-0.3-1.6-0.7-2.2-0.8l-0.7-0.1l-0.1,0
	c-21.2-4.2-49.1-5.4-61-5.4l-288.7,0.1c-19.4,0-41.4,0-53.6-18.8c-13.2-20.3-4-40.2,11.6-68.1c1-1.7,30.8-57.7,50.6-94.9l6.4-12
	l8.6,10.6c0,0.1,4.5,5.5,8.7,8.8c2.6,2,5.3,4.1,18.4,4.1c25,0,183.1-0.4,183.8-0.4c32.8,0,66.3,3.3,89.7,26.7
	c14,1.7,46.9,6.9,74.6,20.1c19.3,9.2,32.2,23.3,37.1,40.6c1.5,5.2,2.3,10.8,2.3,16.5c0,15.9-5.7,32.9-17,50.5
	c-19.6,30.7-38.1,44.6-45.1,49.2l-0.1,0.1c-14.4,10.1-28.5,10.6-29.1,10.7l-20.8,0.7L400.7,349.7z M402.9,357.8l4.6-0.2
	c0.5,0,12.7-0.5,25.4-9.5l0.2-0.1c6.7-4.3,24.2-17.5,43-47.1c10.5-16.5,15.9-32.2,15.9-46.7c0-5.1-0.7-10-2-14.6
	c-4.4-15.3-15.9-27.9-33.4-36.2c-28.7-13.7-63.7-18.5-74.9-19.7c-21.6-23.2-54.2-26.4-86.3-26.4c-0.6,0-158.8,0.4-183.9,0.4
	c-13.2,0-18-1.9-22.7-5.6c-4.8-3.8-9.8-9.9-9.8-9.9l-1.9-2.4l-1.4,2.7c-0.5,0.9-49.4,92.9-50.6,95c-16.7,30-22.1,45.1-11.8,60.9
	c10.1,15.6,29.2,15.6,47.7,15.6l288.7-0.1c12.1,0,40.6,1.1,62.3,5.5l0.2,0c0.1,0,5.2,0.6,7.4,4c1.2,1.8,1.4,4.2,0.5,7.1
	c-3.5,11.7-13.9,23.6-14,23.8L402.9,357.8z"/>
<path class="st1" d="M452.2,212.7c33,15.8,38.8,45.9,15.3,82.7c-21.1,33-42.3,47-42.3,47s20.5-26.8-11.3-33.1
	c-23.9-4.8-54.5-5.7-64.3-5.7c-11.3,0-111.9,0.2-124.5,0.2s-16-1.7-18.8-5.5c-2.8-3.8-3.2-8.9,1.9-16.7c5.2-7.7,13-19.9,13-19.9
	l-33.9-27.3c28.5-28.4,51.2-37.9,71.1-37.9c20.1,0,29,3,62.2,16.9c33.1,13.9,44.1-0.9,44.1-0.9c-13.9,5.9-26.3,0.9-49.7-9.5
	c-23.4-10.4-37.3-15.1-58.3-15.1c-21,0-38.8,5.9-61,22.3c-20.9,15.4-22.5,18.6-54.1,18.6H41.2l38.6-72.3c0,0,2.9,11.4,31.7,11.4
	c24.8,0,183.9-0.4,183.9-0.4c31.6,0,62.9,3.3,81.4,25.9C376.8,193.5,419.2,196.9,452.2,212.7L452.2,212.7z M393.8,218.6
	c-15-3.6-2.2-12.3-2.2-12.3c-21.6,4.4-29.6,22-31.5,26.9c-0.3,0.7-0.7,1.4-1.1,2.1c-12,24-22.7,22.7-43.1,22.7h-35
	c-28.3,0-41.5,14-55.1,37.9h16c14.6-21.7,25.6-27.6,54.5-29.2c66.1,0,118.7,19,146.5,33.5C482.6,233.8,423.9,222.8,393.8,218.6
	L393.8,218.6z M270.9,295.7c7.4-11.2,22.4-15,46.6-13.6c59.8,3.5,94.1,15.1,120.8,25c-32.9-19.3-91.6-33.1-132.4-33
	c-19.9,0.1-37.3,3.5-47.5,21.5L270.9,295.7L270.9,295.7z M335.1,229.8c-7.8,10.9-18,14.6-47.1,12.6c-33.9-2.3-25.1-16.6-21.2-23.6
	l-0.1,0c1.1-2,2.9-5.4,4.8-8.8c-25.9-1.6-44.9,18.4-44.9,18.4c19.3,19.1,32.2,21.1,49.7,21.1H309c30.4,0,37.8-13.7,40.5-19.8
	C344.3,230.5,339.5,230.4,335.1,229.8L335.1,229.8z M320.3,226.6c-0.6-0.2-1.3-0.5-1.9-0.8c-3,3.1-8.1,5-13.1,4.3
	c-6.6-0.8-10.3-5.6-8.5-10.6c0.3-0.7,0.7-1.4,1.1-2.1c-3.4-1.3-6.7-2.6-10-3.7c-6.7,10.9-10.7,18.1,12.7,20.1
	c14.6,1.2,18.5-1.3,21.6-6.5C321.5,227.1,320.9,226.9,320.3,226.6"/>
<path class="st1" d="M202.9,268c-12.1,20.9-16.8,25.7-8.4,35.7H60.9c-19.7,0-32.5-0.7-39.1-10.9c-6.4-9.9-5.1-19.3,12.2-50.3h113.6
	c19.6,0,24.6,1.1,35.2,9.3C193.4,260,202.9,268,202.9,268"/>
</svg>
