<?xml version="1.0" encoding="utf-8"?>
<!-- Generator: Adobe Illustrator 23.0.3, SVG Export Plug-In . SVG Version: 6.00 Build 0)  -->
<svg version="1.1" id="Layer_1" xmlns="http://www.w3.org/2000/svg" xmlns:xlink="http://www.w3.org/1999/xlink" x="0px" y="0px"
	 viewBox="0 0 500 500" style="enable-background:new 0 0 500 500;" xml:space="preserve">
<style type="text/css">
	.st0{fill:#FFFFFF;}
</style>
<title>Logos/Clubs/SF/Primary</title>
<desc>Created with Sketch.</desc>
<path class="st0" d="M251,106.9c-57.7,0-116.5,13.6-161.4,37.2C38.3,171.1,10,208.4,10,249c0,25.5,11.4,50.3,33,71.9
	s52.9,39.7,90.6,52.5c36.8,12.5,77.4,19,117.4,19c81.7,0,162.3-27.7,205.2-70.6c21.8-21.8,33.3-47,33.3-72.8
	c0-25.6-11.4-50.5-32.8-72C414.1,134.4,333.4,106.9,251,106.9 M450.8,316.3c-2.6,2.6-5.3,5.2-8.2,7.6
	c-43.2,37.2-116.7,60.8-191.6,60.8c-39.2,0-78.9-6.4-115-18.6c-32-10.8-59.3-25.6-79.5-43c-2.9-2.5-5.6-5-8.2-7.6
	c-20.1-20.1-30.7-43.1-30.7-66.5c0-24.7,11.6-48.2,33.3-68.6c11.4-10.7,25.5-20.7,42.2-29.5c11.4-5.9,23.2-11.1,35.2-15.4
	c31.1-11.2,66.1-18.3,101.4-20.3c7.1-0.4,14.1-0.6,21.2-0.6c80.4,0,159,26.6,200.2,67.8c20,20,30.6,43.1,30.6,66.6
	C481.9,272.7,471.1,296,450.8,316.3"/>
<path class="st0" d="M425.1,187.9c-32.4-32.4-87.6-54-148-58.9c-8.6-0.7-17.4-1.1-26.2-1.1c-3.2,0-6.4,0-9.7,0.1
	c-48.4,1.5-95.9,14-131.6,34.9c-39.7,23.2-61.5,54-61.5,86.6c0,21.7,9.9,43,28.5,61.6c23.1,23.1,57.9,40.8,97.9,50.8
	c4,1,8.1,1.9,12.2,2.8c12.5,2.6,25.2,4.4,38,5.4c8.6,0.7,17.4,1.1,26.2,1.1c8.8,0,17.6-0.4,26.2-1.1c12.8-1,25.4-2.8,38-5.4
	c4.1-0.8,8.1-1.8,12.2-2.8c40-10,74.8-27.6,97.9-50.8c18.7-18.7,28.5-40,28.5-61.7C453.7,227.9,443.8,206.6,425.1,187.9z
	 M314.7,159.8h4.3v35.7h-24.3l-0.8-0.5c-18.6-12.1-40.2-18.6-62.4-18.7c-4.1-0.1-8.2,0.2-12.3,0.8c-0.6,0.1-0.9,0.2-1,0.2
	c-3.2,0.4-6.2,1.6-8.7,3.5c-2.1,1.5-3.1,3.3-3.3,4.4c-3.2-1.5-4.2-3-4.3-3.9c0-0.1,0-0.2,0-0.3c0-0.4,0.1-0.7,0.2-1
	c0.7-1.6,1.8-2.9,3.2-3.9c2.6-1.9,5.6-3.2,8.7-3.6c0,0,0.4-0.1,1-0.2c4.1-0.6,8.2-0.8,12.3-0.8c22.2,0.1,43.8,6.6,62.4,18.7l0.7,0.7
	h24.3V159.8z M227.7,246.4h-13.9V234c4.1,0,9.7,0,15.9,0c5.2,0,10.8,0,16.4,0c5.6,0,11.1,0,15.9,0c10.1,0,14.5,3.8,14.6,8.1
	c0.1,2.4-1.2,4.9-3.5,7.1c-4.6,4.3-13.1,7.7-23.5,7.9c-3.7,0.1-7.4-0.2-11-0.9C238.6,256.2,237.3,246.5,227.7,246.4z M234.9,254.8
	c-1-0.3-1.9-0.5-2.9-0.5h-15.7v-4.6h11.4c3.6,0.1,5.1,1.5,6.3,3.3C234.4,253.6,234.6,254.2,234.9,254.8z M275,233.8
	c-1.3-0.8-2.7-1.4-4.2-1.8c-2.9-0.8-5.8-1.2-8.7-1.2c-5.2,0-11.1,0-17,0c-11.9,0.1-24,0-31.2,0h-3.2c-10.3-0.6-21.3-0.9-33.7-4.5
	c-1.1-0.3-2.2-0.6-3.3-1c-7.4-2.5-12.6-6-16.1-10.8c3.9,3.4,9.1,6.2,15.6,8c18.2,5.2,32.6,5.9,47.6,5.9c5,0,10.1-0.1,15.5-0.1
	c4.6,0,9.4,0.1,14.6,0.3c6.1,0.3,11.6,0.5,15.8,1.2c1.2,0.1,2.5,0.4,3.8,0.8c3.6,1.1,6,2.5,7.5,4.1c0.7,0.8,1.2,1.6,1.6,2.6
	c0.1,0.1,0.1,0.2,0.1,0.3c0.2,0.7,0.4,1.5,0.4,1.5c0.1,0.3,0.1,0.7,0.1,1.1c0,0.7,0,1.4-0.2,2.1c0-1.4-0.4-2.7-1-4
	c-0.4-0.7-0.7-1.3-1.2-1.9C277,235.4,276.1,234.5,275,233.8z M167.7,234.2c31.2,33.8,84.6,28,84.6,28s0.2,0,0.7,0
	c3.2-0.2,16.5-1.6,25.6-10.2c8.1-9.8,6.8-20.4-7.1-24.5c-4.9-1.5-12.1-1.8-20.3-2.1c-3.7-0.1-7.2-0.2-10.6-0.2c-1.7,0-3.4,0-5,0
	c-4.9,0-9.5,0.1-14.1,0.1c-15.2,0-29.2-0.6-47.4-5.8c-33-9.5-27.1-40.7,3.1-53.2c44.9-19.7,99-4.6,99-4.6l6.2-4.7h29.2v30.6h-20.1
	c-19-12.4-41.1-19.1-63.7-19.3c-1.5,0-2.8,0-4.1,0.1c-3.3,0.1-6.7,0.4-10,1c-12.4,1.6-24.5,15.3-3.3,20.6c6.8,0.9,13.7,1.1,13.7,1.1
	c38.4-0.2,43.7,2,57.1,4.7c34.7,6.9,53.9,50.8,3.4,70.9c-52.1,20.7-107-1.6-107-1.6c-4.6,17.1-11.7,16-11.7,16h-11.7l0.2-46.9H167.7
	z M184,273.9c-1.5,4.6-3.3,7.8-5.2,10.1c-0.5,0.7-1,1.3-1.6,1.8c-0.1,0.1-0.2,0.2-0.3,0.3c-0.2,0.1-0.4,0.2-0.6,0.4
	c-2.3,1.8-4.4,2.4-5.7,2.4h-0.2c-0.2,0-0.3,0-0.4,0h-13.3v-4.6h9.7c2.8,0,9.3-2.5,13.3-15c9.5,3.2,19.2,5.6,29,7.2
	c9,1.5,18.1,2.3,27.3,2.3c15.6,0,32.8-2.3,49.8-9c13.2-5.2,22.1-12.3,27.3-20.1c2-3,3.5-6.3,4.5-9.7c0.1-0.1,0.1-0.2,0.1-0.3
	c0.7-2.6,1-5.2,1-7.8c0-8-3.1-15.7-8.2-22.2c7.7,7.2,12.4,16.7,12.5,26.8c0,2.5-0.3,4.9-0.9,7.3c-2.5,10.4-10.7,20.3-25.4,27.6
	c-2.1,1-4.2,2-6.6,2.9c-7.5,2.9-15.3,5.1-23.3,6.6c-8.8,1.6-17.6,2.4-26.5,2.4C221.1,283.2,202.1,280,184,273.9z M311,353.4H203.8
	v-4.6h102.9v-11.5c0.4,0.1,0.8,0.2,1.3,0.2l3,0.3V353.4z M313.3,303.6h-32.7v18.8c0.1,0,0,0,0.1,0.2c0,0.5,0.1,0.9,0.3,1.3
	c0.2,0.8,0.5,1.4,0.9,2.1c-0.3-0.2-0.7-0.5-1-0.8c-0.5-0.5-1-0.9-1.5-1.4c-1.2-1.2-2.1-2.7-2.7-4.4c-0.1-0.4-0.2-0.8-0.3-1.2
	c-0.1-0.2-0.1-0.2-0.1-0.2v-18.8H309c0.7,0.1,1.5,0.3,2.2,0.5c5,1.5,9,5,12,8.6C320.4,305.8,317,304.2,313.3,303.6z M309.3,296H273
	v22.1c0,0,0.1,4.8,5.5,9.6c4.2,3.7,11.7,7.4,25,8.5v9.4H201.4v-9.4c0,0,36.9-1.5,38.1-18.8v-30.9c0.3,0,0.5,0,0.8,0
	c11.8,0.1,23.6-1.4,35.1-4.2c14.8,2.3,47,6.5,55.8-16c0.6-1.6,1.1-3.2,1.4-4.9H343v57.8h-10.7C332.3,319.2,325.9,298.4,309.3,296z
	 M350.6,327.1h-15l-0.7-2.3c0,0-0.1-0.1-0.1-0.2c-0.1-0.3-0.4-1.1-0.8-2.2h12.3v-58.5v-0.1v0.1h4.3V327.1z M371.4,256.7
	c-2.1-0.8-4.2-1.2-6.4-1.3h-44.5c0.9-1.5,1.8-3,2.5-4.6h37.7c4,0.2,7.1,1.3,9.4,3c1.6,1.3,3,2.8,4.3,4.4
	C373.4,257.6,372.4,257.1,371.4,256.7z M360.7,247.5h-36.4c1.2-3.3,1.8-6.8,1.9-10.4v-0.8c0-0.4-0.1-0.9-0.1-1.3
	c0-0.4-0.1-0.9-0.1-1.3h67.3v43.1l-11.4-0.1C381.9,276.7,383.5,248.2,360.7,247.5z M400.7,284.6h-18.1l0.2-3.4c0-0.1,0-0.2,0-0.3
	c0-0.2,0-0.4,0-0.8V280h13.7v-43.5v0h4.2V284.6z"/>
</svg>
