<?xml version="1.0" encoding="utf-8"?>
<!-- Generator: Adobe Illustrator 23.0.3, SVG Export Plug-In . SVG Version: 6.00 Build 0)  -->
<svg version="1.1" id="Layer_1" xmlns="http://www.w3.org/2000/svg" xmlns:xlink="http://www.w3.org/1999/xlink" x="0px" y="0px"
	 viewBox="0 0 500 500" style="enable-background:new 0 0 500 500;" xml:space="preserve">
<style type="text/css">
	.st0{fill:#FFFFFF;}
</style>
<title>Logos/Clubs/TB/Primary</title>
<desc>Created with Sketch.</desc>
<g>
	<path class="st0" d="M447.6,59c0,0,1,18.3-2.5,35.1c-3.3,16.2-5.2,22.4-5.2,22.4c-7.1,4.2-18.5,9.3-35.3,12
		c-31.3,5.2-59.6-3.2-90.6-15.3c-31-12.2-72.4-25.3-110.9-20.8c-28.1,3.2-54.9,13.2-78.1,29.2c-14.2,9.8-16.8,12.4-28.9,15.9
		c0,0,9.6,3.8,14.5,3.8c0,0-2.3,9.6-1.5,12.7c0,0,20.3-9.3,22.6-4.9c2.3,4.3-7.2,7.2-13.9,9c-6.7,1.7-24,1.4-24,1.4s8.1,6.3,11,10.7
		c0,0-15.4,6.7-32.4,4.4c0,0-0.6,6.3,13.5,16.7c-3,1.1-6.8,2.8-9.1,5.3c0,0,14.7-3,24,7.3c2.4,3.1,3.2,5.8,3,9.2
		c-0.5,6.3-2.9,8.6-8.8,12.5c-3.6,1.5-7.1,3.2-10.4,5.2c-16.3,10-28.2,25.2-36.5,42.6c-3.6,7.8-6.5,15.9-8.6,24.2
		c-1.6,6.4-2.7,12.9-3.3,19.5c-0.5,4.4-1.1,18.3-1.1,18.3s7.3-10.2,10.7-15.1c3.4-4.9,25-32,56.4-39.9c9.7-2.4,19.7-3.7,29.6-3.6
		c23,0,43.6,6.2,55.7,12.2c17.7,8.5,46.7,28.7,84.7,35c9.5,1.5,19,2.3,28.6,2.2c9.9,0,19.7-0.7,29.5-2.1c-5.6,8.4-11,16.2-16.1,23.4
		c-5.2-4.9-12.2-5.4-12.2-5.4c-8.5-0.8-12.8,4.4-12.8,4.4c-1.8,2-3.1,4.5-3.5,7.1c-0.6,2.6,0.1,5.7,0.6,7.3c1.6,5.2,6,7.5,7.8,8.3
		C281.6,385.9,278,405,278,405l-5.7,5l2.1,8.3c-3.2,10.2,1.8,17.9,8.3,21c3.9,1.9,8.4,2.4,12.7,1.4c4-1.1,7.4-3.6,9.7-7.1
		c0.3-0.5,0.7-1.1,1-1.6c1.2-0.7,2.4-1.5,3.4-2.4c1.8,0.2,6.4,0.3,6.4,0.3c9.4-0.1,18.6-2.8,25.7-8.7c5.5-5,11.6-13.4,11.8-25
		c0-2.2,0.4-10.9-6.8-18.5c45.6-66.9,75.1-110,94-153.8C490.5,107.8,447.8,59.4,447.6,59 M366.4,338.9c-9.7,14.8-19,28.4-26.6,39.3
		c5.5,4.4,8.5,11.1,8.2,18c-0.2,9.7-5.3,16.9-10,21.1c-5.9,5-13.9,7.4-22.3,7.5c-0.3,0-6.3-0.2-8.4-0.7c-1.4,1.8-3.3,3.3-5.4,4
		c-0.3,0.9-0.8,1.8-1.3,2.6c-2.2,3.4-6,5.4-10,5.4c0,0-4-0.1-6.7-2c-3.4-2.2-5.4-6-5.4-10.1V424c0-1.9,0.5-3.8,1.4-5.5
		c-0.4-1-1.8-6.7-1.8-6.7l3.7-3.3c0.3-0.2,1.2-1.6,2.3-5.1c1.1-3.5,2.4-8.6,5.1-14.6c3.5-7.6,8.3-15.5,11.9-20.9
		c-0.3-1.7-2.2-2.5-3.5-2.9c-1.8-0.5-3.5-1.5-4.8-2.9c-1.8-2-2.6-4.8-2-7.5c0.5-2.8,2.4-5.3,5-6.5v0c2.6-1.4,5.9-0.7,5.9-0.7
		c7.8,0.7,13.5,7.9,13.5,7.9c7.7-10.8,25.7-37.5,26.1-38.1c-23.6,4.5-47.9,5.1-68.1,1.8c-36.7-6.1-65-25.7-83.3-34.6
		c-18.3-8.9-53.1-18-88.9-8.9c-35.9,9.1-59.6,42.2-59.6,42.2c10.7-75.5,57.5-88.2,62-89.5c6.8-6.4,15.7-25.8-5.4-39
		c-4.7-3-9.2-6.4-13.3-10.2c4.4,0.5,14.8-0.8,20.6-3.1c4.3-1.7,8.7-2.9,13.3-3.6c-5.5-5.2-13.8-7.8-13.8-7.8
		c8.3-0.5,21.4-3.4,29.5-7c8.1-3.6,12.5-10.2,11.2-13c-1.3-2.9-8.6-1.3-8.6-1.3c2.6-3.9,8.9-5.5,8.9-5.5c-18-1-31.1,8.8-31.1,8.8
		c2-4.3,8.6-12,8.6-12c-2.5,0.8-9.4,3-9.8,3.1c28.2-21.8,59.6-40.9,103.6-41.1c44-0.3,86.9,19.4,115.5,28.6
		c28.6,9.2,43.8,13.8,74.7,9.2c14.8-2.2,27.7-8.2,37.2-13.9c0,0,6.6-16.9,7.1-41.1c0,0,7.9,14.3,8,36.5
		c0.1,76.2-36.8,131.9-48.7,152.1C399.4,287.6,384.6,311.4,366.4,338.9"/>
	<path class="st0" d="M389.8,142.2c-42.5-0.3-88.5-24.2-129.3-33.3c-86.1-19.2-127.7,25.7-127.8,25.7c0,0,13.9-5.1,21-0.5
		c7.6,5,0.9,17.8-1.6,20.3c-7.1,7.4-17.2,12.8-28.4,12.8c0,0,11.9,2.8,15.7,6.4c0,0-11,1.4-17,3.5c-6,2.1-17.7,5.5-20.3,5.5
		c0,0,30.9,14.1,11.7,44.3c0,0,13.4-2.1,24.6,3.3c0,0-61.2-9.9-81.9,57.7c7.8-6.4,32.3-23.7,70.5-23.9c46.1-0.2,65.8,10.4,84.1,21.5
		c27.9,16.9,49,21.9,65,24.9c46.1,8.6,92.3-6.9,112.4-16.2c58.2-89.2,64.9-139.5,65.9-175.5C435.5,137.6,404,142.3,389.8,142.2
		 M358.2,245.2c-20.6,14.6-52.8,19-52.8,19c-0.4,1.4-2.5,2.9-2.5,2.9s3.3,1.2,11.4,7.3s5.9,5.8,8.5,7.5c2.6,1.7,4.1,1.2,4.1,1.2
		c0.5,1.2,0.8,2.6,0.9,3.9c1.1,1,6.4,6.1,1.4,11.3s-10.6,0.4-10.6,0.4c-1.3,0.2-2.7,0.2-4-0.2c0,0-10.5,6.6-20.9-0.6
		c-8.5-5.9-8-12.8-7.5-15.2c-2.9,1.6-5.9,2.9-9.1,3.9c-8.5,2.7-19.4,3.8-30.2,0.2c-6.6-2.3-12.7-6.1-17.6-11.1
		c-4.2-4.1-7.7-9-10.3-14.3c-0.3-0.7-0.7-1.4-0.9-2.1c-0.7,1.8-4.3,8.5-15.3,8c-12.7-0.5-17.1-12.2-17.1-12.2
		c-1.3-0.5-2.4-1.2-3.3-2.2c0,0-7.4,0.4-8.2-6.7c-0.8-7.1,6.5-8,8-8.1c0.8-1,1.9-1.9,3-2.6c0,0,0.9,1.3,4,1.4
		c3.1,0.2,1.2-0.9,11.3-0.9c10.1,0,13.5,1,13.5,1s-0.8-2.5-0.3-3.8c0,0-23-23-30.7-47.1c-7.6-24-5.3-33,4-58.3c0,0,6.9,43.2,28,70.3
		c12,15.5,25.6,27.6,35,35.1c0.2,0,0.4,0,0.6,0c-2.1-2.2-3.5-4.9-4.3-7.9c-1.9-7.4-5-14.3-6.4-19.8c-1.4-5.5,1.7-16.5,1.7-16.5
		c-4.2-6.8-2.2-17.9-2.2-17.9c1.5-0.8,2.9-1.9,4-3.2c1.7-2.1,1.1-8.4,2.5-17.6c1.4-9.2,7.4-18.8,20.7-24.2
		c13.2-5.4,33.1,1.7,33.2,1.7c0.2,0.1,20.3,6.4,27.6,18.7c7.3,12.3,6.3,23.6,1.9,31.8c-4.4,8.2-8.7,12.8-8.6,15.6
		c0.1,1.7,0.5,3.4,1.3,5c0,0-5.1,10.1-12.6,13c0,0-4.1,10.7-8.6,14.2c-4.4,3.5-11.1,7.2-17.1,12c-2.3,1.8-5.1,3.1-8,3.7
		c0.2,0.1,0.4,0.3,0.6,0.4c12-0.3,30.1-1.8,48.9-6.9c33.2-8.9,64.7-39.3,64.7-39.3C382.3,222.1,378.8,230.6,358.2,245.2"/>
	<path class="st0" d="M280.8,185.4c0.1,0,0.2,0.1,0.3,0.1C281,185.4,280.9,185.4,280.8,185.4"/>
	<path class="st0" d="M306.2,136.7l-1-0.4c-0.6-0.3-1.1-0.5-1.6-0.8c-0.5-0.2-1-0.5-1.5-0.6c-0.4-0.2-0.7-0.3-1-0.4
		c-0.3-0.1-0.5-0.2-0.7-0.3c-0.8-0.3-1.4-0.5-1.9-0.7c-0.1,0-0.2-0.1-0.3-0.1c-1-0.3-4.7-1.4-9.3-2.4c0,0-0.1,0-0.1,0
		c-0.8-0.2-1.7-0.3-2.5-0.5c-2.3-0.3-4.5-0.5-6.8-0.5c-20.4,0.1-26.2,15.3-27.1,18.8c-0.9,3.7-0.9,8.4-1.1,10.5
		c2.6-0.4,5.1-1.1,7.6-2.1c2-0.7,3.8-1.9,5.4-3.3c-0.3,0.4-5.8,6.7-11.7,7.3c0,0-1.3,5.7-2.9,8.5c-1.2,1.9-2.7,3.6-4.6,4.8
		c0,0-0.2,2.3-0.2,4.5c0,0.9,0,1.7,0.1,2.6c0,0.4,0.1,0.7,0.2,1c0.7,2.4,0.8,3.9,6,6.2c1.8,0.8,3.5,1.6,5.2,2.6
		c2.5,1.4,5.3,3.1,6.3,6c0,0,0,0,0,0.1c0.3,0.8,0.3,1.6,0.1,2.4c0-0.1,0-0.2-0.1-0.4c-0.2-0.5-0.6-0.8-0.9-1.2c0,0,0,0,0,0
		c-0.5-0.7-1.2-1.2-1.9-1.7v0l0,0c-0.3,1.2-0.8,2.3-1.4,3.3c-0.6,0.9-1.1,1.9-1.6,3c0,0,0,0,0,0.1c-1.1,2.8,0.2,5.7,0.5,5.7
		c0.3,0,1.1-0.3,2.5-4.2c0.1-0.2,0.1-0.3,0.2-0.5c0-0.3,0-0.5-0.1-0.8l0,0c0.2-0.6,1-0.6,1.5-0.5c0.2,0,0.4,0,0.5,0.1
		c0.1,0,0.2,0,0.2,0.1c0.5,0.2,0.8,0.5,0.8,0.7c-0.2,0.1-0.4,0.3-0.5,0.5c-0.2,0.3-0.6,1.2-0.7,1.4c-0.4,0.9-0.6,1.6-0.9,2.5
		c0,0,0,0.1,0,0.1c-0.2,0.5,0.1,1,0.5,1.1c0,0,0,0,0,0c0,0,0.1,0,0.1,0c0.7,0.1,1.4,0.3,2.2,0.4c0.6,0.1,1.1-0.2,1.4-0.7
		c0.3-1,0.6-1.8,1-2.7c0-0.1,0-0.1,0.1-0.2v0l0-0.1c0,0,0.2-0.7,0.3-1.1c0.1-0.4,0.5-1,0.8-1c0.4,0,0.8,0.3,0.8,0.7
		c0,0.1,0,0.2,0,0.2c0,0.5-0.1,0.9-0.2,1.3c0,0,0,0.1,0,0.1c-0.3,1.2-1,3.7-1,3.7c-0.3,1,0.7,1.3,0.7,1.3c0.6,0.2,1.6,0.3,2.3,0.5
		c0,0,0.1,0,0.1,0c0.3,0.1,0.7,0.2,1.1,0.2c0.3-0.1,0.5-0.5,0.5-0.7c0-0.1,1.1-3.8,1.2-4.2c0.1-0.4,0-0.8-0.1-1.2
		c0.5,0.1,1,0.2,1.6,0.4c0.5,0.2,0.9,0.4,1.4,0.6c-0.4,0.3-0.7,0.7-0.8,1.1c0,0,0,0,0,0c-0.1,0.2-0.2,0.5-0.2,0.7
		c-0.3,1-0.8,2.3-1.1,3.3c-0.1,0.5,0.2,1.1,0.7,1.3c0,0,0.1,0,0.1,0c0.7,0.3,1.5,0.5,2.1,0.8c0.1,0,0.3,0.1,0.5,0.1
		c0.4,0,0.8-0.2,0.9-0.6c0.2-0.5,0.5-1.6,0.8-2.5c0.3-1,0.6-1.9,0.6-2c0.1-0.2,0.2-0.5,0.4-0.6c0.3,0,0.6,0,0.9,0.1
		c0.3,0.2,0.5,0.4,0.8,0.6c-0.3,0.5-0.5,1.1-0.6,1.7c-0.1,0.4-0.5,2.1-0.8,2.9c0,0.1,0,0.2-0.1,0.2c0,0,0,0.1,0,0.1c0,0,0,0,0,0.1
		c0,0.5,0.2,1,0.7,1.2c0.7,0.3,1.4,0.7,2,1c0,0,0.1,0,0.1,0c0.5,0.2,1-0.1,1.1-0.5c0,0,0,0,0,0c0,0,0,0,0-0.1
		c0.3-0.9,0.5-1.6,0.7-2.5c0.1-0.2,0.1-0.5,0.2-0.7c0-0.1,0-0.1,0-0.2c0.1-0.3,0.1-0.5,0.2-0.8c0-0.1,0-0.3,0-0.4c0,0,0.5,0.2,1,0.4
		c0,0,1.1,0.5,1.3,0.6c0.2,0.1,0.5,0.2,0.6,0.4c0.1,0.2,0.2,0.3,0.3,0.5c-0.3,0-0.5,0.1-0.8,0.1c-0.1,0-0.8,0.2-0.8,0.4
		c-1.2,4-0.9,4.7-0.6,4.8c0.2,0.2,3-1.4,3.8-4.3c0,0,0.5-2.4,0.6-3.4c0.2-1.2,0.5-2.4,0.9-3.5l0,0c0,0,0,0,0,0c-1.5-0.1-3,0.2-4.4,1
		c0.2-0.4,0.4-0.8,0.7-1.1c0,0,0,0,0,0c2.1-2.4,5.8-2.3,8.7-1.9c2.2,0.3,4.4,0.7,6.6,1.3c5.6,1.3,6.5,0.2,8.5-1.4
		c1.7-1.4,3.1-3.2,4.2-5.1c0,0,0-0.1,0.1-0.1c0.5-0.7,0.8-1.2,0.8-1.2c-0.7-2.1-1-4.4-0.8-6.6c0.5-3.2,2.9-8.6,2.9-8.6
		c-4.4-4.2-4.9-12.9-4.9-12.9c0.3,1.8,1,3.6,1.9,5.2c1.3,2.3,2.9,4.4,4.7,6.4c1.2-1.9,3.9-5.3,5.3-8.8
		C326.7,169.4,332.5,149.4,306.2,136.7 M267.2,185C267.2,185,267.1,184.9,267.2,185c-3.4-0.2-8.6-3-10.6-4.9
		c-0.3-0.3-0.7-0.8-0.7-0.8c-0.1,0.1-0.1,0.1-0.2,0.1c0.1,0,0.1-0.1,0.2-0.2c0,0-0.6-1.2-0.7-1.3c-1.1-2.6-0.8-5.8-0.2-8.3
		c0.2-0.8,0.4-1.5,0.7-2.2c0,0,1.1-2.5,0.5-3.5c-0.1-0.1-0.2-0.2-0.3-0.3l0,0c0,0,0,0,0,0c2.3,1,4.4,2.4,6.2,4.2
		c0.3,0.3,0.6,0.5,0.8,0.8c3.1,3.3,6,6.4,8.8,7.4c0.9,0.3,1.9,0.4,2.8,0.3c0,0,0,0,0,0c0.2,0,0.5,0,0.7-0.1v0
		c0.9-0.1,1.8-0.3,2.6-0.6c0,0-1.5,2.3-2.5,3.6C274.6,180.6,270.4,185.3,267.2,185 M282.9,196.9l-0.5,1.5c-0.3,0.8-1.1,1.4-2,1.5
		c-0.4,0.1-0.9,0-1.3-0.1c-1.3-0.4-2.1-1.8-1.7-3.1c0.1-0.2-0.1-0.5-0.3-0.5c-0.2-0.1-0.4,0-0.5,0.3c-0.5,1.3-2,1.9-3.3,1.4
		c-0.4-0.2-0.8-0.4-1.1-0.7c-0.6-0.6-0.9-1.5-0.6-2.4l0.5-1.5c0.5-1.5,1.8-1.4,3.3-3.3c0.9-0.9,1.7-2.1,2.1-3.3
		c0.5-1.2,1.8-1.9,3-1.5c0.1,0,0.2,0,0.2,0.1c0.1,0,0.2,0.1,0.3,0.1c1.2,0.5,1.8,1.8,1.5,3c-0.4,1.3-0.5,2.6-0.3,3.9
		C282.3,194.8,283.4,195.4,282.9,196.9 M284.3,175c-2.9-0.9-7.8-5.4-10.9-9c-3.2-3.4-9.2-6.9-9.2-7c4.4-1.1,11.6,5.6,15.8,9.1
		c3.6,3.2,5.1,3.5,5.5,3.6c0.3,0.1,1.8,0.8,6.5,0.5c5.5-0.3,15.2-1.3,18.1,2.3c0,0.1-6.9-0.7-11.6,0.1
		C293.8,175.4,287.2,176,284.3,175 M313.7,182.9L313.7,182.9L313.7,182.9c-0.2,0-0.3,0.1-0.4,0.1c-1.1,0.4-1.7,3.1-1.7,3.1
		c-0.2,0.8-0.5,1.6-0.8,2.4c-0.7,1.8-1.8,3.4-3.1,4.8c-1,0.9-2.1,1.7-3.3,2.2l0,0c-0.3,0.1-0.7,0.2-1.1,0.3
		c-2.7,0.3-8.5-0.5-11.3-2.4c0,0,0,0-0.1,0h0c-2.8-1.7-3.3-8-3.3-9.6s0.2-4.4,0.2-4.4c0,0,0,0,0.1,0.1c0.5,0.7,1.1,1.4,1.7,2v0
		c0.2,0.2,0.3,0.3,0.5,0.5c0,0,0,0,0,0c0.7,0.6,1.5,1.1,2.4,1.4c2.9,1,7,0.3,11.5-0.5c0.4-0.1,0.8-0.1,1.2-0.2
		C308.7,182.3,311.3,182.4,313.7,182.9"/>
	<path class="st0" d="M304.8,209.3c0,0-2.7,6.3-4.3,9c-1.1,1.9-2.6,3.6-4.5,4.7c-1.6,1.1-8.5,5.7-10.3,7c-1.8,1.3-6.7,5.6-10.9,6.4
		c-1.9,0.4-3.8,0.4-5.6,0.2c-1.7-0.2-3.4-0.6-5.1-1.2c0,0,0,0,0,0c0,0,0,0,0,0c-3.5-1.2-6.3-2.6-9.2-5.7c-2.6-2.8-3.8-8-4.6-10.7
		c-0.1-0.4-0.2-0.7-0.3-1c-0.7-2.1-3.4-9.9-4-11.7c-0.6-1.7-0.9-3.6-0.8-5.4c0-0.3,0-0.7,0.1-1.1c0.3-2.9,1.8-9,2-9.8
		c0,0,0-0.1,0-0.1s2.4,1.2,3.2,1.6c0,0,0,0.1,0,0.1c-0.1,0.7-0.7,5.5-0.8,7.8c0,0.3,0,0.6,0,0.9c0,0,1.4,1.5,1.7,2.6s0,7.1,2.4,11.3
		v-0.1c0.1-0.4,0.4-0.8,0.6-1.2c0.5-0.8,1.5-1.8,2.1-1.4c0.6,0.4,0.5,1.6,0.5,2.9c0,1.1-0.3,2.1-0.8,3c0.4,0.7,1.1,1.3,1.8,1.7
		c0-0.4,0-0.8,0-1.2c0.2-1.2,0.8-2.2,1.2-3.3c0.1-0.4,0.4-0.6,0.8-0.6c0.1,0,0.2,0,0.2,0.1c0,0,1.1,0.6,2.1,1.1
		c0.5,0.4,0.7,1,0.4,1.6c0,0,0,0.1,0,0.1c0,0,0,0.1,0,0.1c-0.4,0.9-0.7,1.8-1.2,2.8c0,0-0.2,0.9-0.7,0.9c0.4,0.3,0.8,0.5,1.2,0.7
		c0.5,0.2,1.1,0.5,1.6,0.6c-0.2-0.4-0.4-0.9-0.3-1.4c0.2-1.2,0.6-2.8,0.9-4.2c0.1-0.5,0.5-0.8,1-0.7c0,0,0.1,0,0.1,0
		c0.7,0.3,1.5,0.6,2.3,0.9c0.4,0.2,0.7,0.6,0.6,1.1c-0.4,1.5-0.7,3.3-1.2,4.8c-0.1,0.2-0.2,0.4-0.3,0.6c0.4,0.3,0.7,0.5,1.1,0.6
		c0.5,0.1,1.3,0.3,1.3,0.3c-0.1-0.4-0.1-0.8,0-1.2c0,0,0,0,0,0c0.3-1,0.7-1.9,1-2.9c0.1-0.3,0.3-0.8,0.5-1.2c0.1-0.4,0.6-0.7,1-0.6
		c0.9,0.3,1.8,0.5,2.7,0.7c0.7,0.2,0.3,1.2,0.3,1.2s-1,2.4-1.6,3.9c-0.1,0.3-0.3,0.6-0.6,0.8c0.3,0.2,0.7,0.3,1.1,0.4
		c0.6,0.1,1.2,0.2,1.8,0.2c-0.2-0.5-0.2-1.1,0.1-1.6c0,0,0-0.1,0-0.1c0.3-0.7,0.6-1.4,0.9-2.1c0.1-0.2,0.2-0.4,0.2-0.6
		c0.2-0.5,0.8-0.8,1.4-0.6h0.1c0.6,0.1,1.3,0.2,1.9,0.3l0,0c0.5,0.1,0.8,0.5,0.8,1c0,0.1,0,0.2-0.1,0.3c-0.6,1.3-1.2,2.5-1.8,3.8
		c0.7,0.1,1.4,0.1,2.1,0.1c0,0-0.1-0.1,0.2-0.8s1.1-2.5,1.2-2.7c0.1-0.2,0.4-1.2,0.8-1.3c0.4,0,2,1.2,1.6,3.7
		c4.4-1.9,7.8-6.9,8.7-7.6c0.9-0.5,1.8-0.8,2.8-1c0,0,0.1,0,0.1,0c1.1-1.2,4.2-6.6,4.6-7.3c0,0,0,0,0-0.1
		C302.2,208.8,304.8,209.3,304.8,209.3"/>
	<path class="st0" d="M313.8,286c-0.1,0.4-0.2,0.9-0.4,1.2c-0.3,0.4-0.7,0.6-1.2,0.7c-3.7-2.5-7.6-4.7-11.6-6.5
		c0.3-0.7,0.6-1.6,1-2.6c0.2-0.6,0.3-1.2,0.4-1.9c0.1-1.9-0.4-3.7-1.5-5.3c0.1,0.1,0.3,0.2,0.4,0.2c0.7,0.4,1.4,0.8,2.2,1.2
		c1.5,0.9,3,1.8,4.5,2.7c1.1,0.7,2.1,1.4,3.1,2.1c0.1,0.1,0.3,0.2,0.4,0.3c1,1.1,1.9,2.4,2.5,3.8C313.9,283.3,314,284.7,313.8,286"
		/>
	<path class="st0" d="M325.5,294.4c-0.6,1.1-2,1.5-3.1,0.9c-1.1-0.6-1.5-1.9-1-3c-0.2,0.2-0.4,0.4-0.6,0.5c-0.8,0.7-1.9,1.2-3,1.2
		c-0.3,0-0.5-0.1-0.7-0.2c0-0.3,0-0.5-0.1-0.8c0-0.1,0-0.1-0.1-0.2c0.3,0,0.5,0,0.8,0c1.1-0.2,3-0.9,3.9-3.8
		c-0.2,0.2-0.4,0.4-0.6,0.6c-1.3,1.3-3,1.9-4.8,1.8c-1.1,1-8,6.4-16.2,3.5c-9-3.2-9.1-8.7-8.8-10.6c0.2-1.1,0.5-2.2,0.8-3.2
		c0.7-2.3,4.4-10.5,4.5-11.7c0-1.3,0.7-5.9,3.7-8.4c0,0,0.5-0.4,0.8,0c0.2,0.3,0.2,0.6-0.1,0.8c0,0,0,0,0,0c-1,0.8-1.8,1.9-2.2,3.1
		c-0.6,1.8-0.4,3.8,0.5,5.5c0.8,1.4,1,2.9,0.8,4.5c-0.1,0.5-0.3,1.1-0.5,1.6c-0.6,1.2-1,2.5-1.5,3.7c-0.4,1.2-1.1,2.4-2,3.4
		c-0.9,0.8-2.3,0.6-3.2-0.1c0,0-0.1-0.1-0.1-0.1c0.2,1.2,1.2,2.2,2.4,2.5c-0.5,3.2,0.6,5.5,4.5,7.4c3.9,1.9,10.7,1.9,15.8-2.9
		c-0.5-0.5-1.1-1-1.7-1.5c0,0,0,0,0,0c0.5-0.1,0.9-0.4,1.2-0.7c0.2-0.3,0.3-0.7,0.4-1c0,0,0,0,0,0c0,0,0,0,0,0
		c0.1-0.3,0.1-0.5,0.1-0.8c0-1.1-0.1-2.2-0.5-3.2c-0.6-1.6-3.2-4.4-3.6-4.8c0.3,0.2,1.7,1.4,1.9,1.5c0.7,0.5,2.1,1.9,2.8,2.5
		c0.5,0.5,1.1,1.1,1.6,1.6c0.4,0.4,2.1,2,2.6,2.4c0.4,0.3,0.8,0.6,1.3,0.8c0.4,0.2,0.8,0.4,1.3,0.5l0,0c0,0.2,0.1,0.5,0.1,0.7
		c0.1,1.1-0.2,2.1-0.7,3c1-0.8,2.5-0.6,3.3,0.4C325.9,292.6,326,293.6,325.5,294.4"/>
	<path class="st0" d="M213.1,242.4c-1.8,0.5-3.3,1.7-4.3,3.2c-0.4,0.6-0.6,1.2-0.8,1.8c-0.3,1.1-0.6,2-0.8,2.7
		c-5.1-1.4-13.2-1.8-13.2-1.8c-0.3-0.4-0.4-0.8-0.5-1.3c0-0.4,0.2-0.9,0.4-1.2c0.6-1.2,1.5-2.2,2.7-2.9c1.3-0.8,2.8-1.3,4.3-1.6
		c0.7,0,1.4,0,2.1,0.1c1.1,0.1,2.2,0.1,3.3,0.2C208.3,241.7,210.9,242,213.1,242.4"/>
	<path class="st0" d="M217.6,243c-0.8,1-2.8,9.8-3.5,12.1c0,0-0.9,2.3-1.3,3.1c-0.8,1.6-4.3,6-13.4,3.1
		c-8.3-2.6-10.6-11.1-10.9-12.5c-2.8-1.8-2.8-5.3-2.8-5.3c-1.4,3.8,0.9,5.5,1.4,5.9c-0.1,0-0.5,0.5-0.6,0.5c0,0.1-0.1,0.1-0.1,0.2
		c-0.7-0.2-1.2-0.6-1.6-1.2c-0.4-0.6-0.7-1.2-0.8-1.8c-0.1-0.3-0.1-0.6-0.2-0.9c0,0,0,0.1,0,0.1c-0.2,1.3-1.4,2.1-2.7,1.9
		c-1.3-0.2-2.1-1.4-1.9-2.7c0.2-1.3,1.4-2.1,2.7-1.9c1,0.2,1.7,0.9,1.9,1.9c0.1-1.4,0.7-2.7,1.8-3.7c0.4,0.2,0.9,0.3,1.3,0.4
		c0.5,0.1,1,0.1,1.5,0.1c1.7-0.1,3.4-0.2,5.1-0.5c2-0.3,4-0.5,6-0.5c0.3,0,0.9,0,0.9,0c-2,0.1-4,0.7-5.8,1.7c0,0,0,0,0,0
		c-1,0.6-1.9,1.4-2.4,2.4c0,0.1-0.2,0.4-0.3,0.5c-0.5,0.8-0.4,1.7,0.2,2.4h0c-0.2,0-2.3,0-2.3,0.1c1.1,6.9,6.6,11.1,10.8,11.9
		c4.2,0.8,6.5-0.4,8-3.2c1.1,0.6,2.5,0.3,3.4-0.5c-1.8,0.1-2.6-1-2.8-1.9c-0.4-2.1,1-5.3,1.5-7.8c0.5-2.1,1.9-3.8,3.9-4.6
		c1.8-0.8,3.1-2.2,3.7-4c0.4-1.2,0.5-2.6,0.1-3.8c-0.1-0.3,0.1-0.7,0.4-0.8c0,0,0,0,0,0c0.5-0.1,0.7,0.5,0.7,0.5
		C220.6,237.9,218.3,242,217.6,243"/>
	<path class="st0" d="M289.1,266.7c-2.8-8.4-12.2-21.5-26.8-26.4c-17.5-5.9-36.6,2.8-40.7,8.1c-0.2,0.2-0.3,0.4-0.5,0.7
		c0,0,0,0.1-0.1,0.1c-0.1,0.2-0.2,0.3-0.2,0.5c-1.7,5,8.4,26.1,27.4,32.5c19,6.4,39.6-3.8,41.5-9.4c0.1-0.2,0.1-0.5,0.2-0.7
		C290.1,270.8,289.8,268.9,289.1,266.7 M273.4,260.3c0,0.2,0,0.5,0,0.7c-0.6-0.3-1.3-0.6-1.9-1c-0.2,1.4-0.6,2.9-1.1,4.3
		c-1-0.6-1.9-1.1-2.9-1.6c0.4-1.3,0.8-2.7,1-4.1c-1-0.5-2.1-0.9-3.2-1.4c-0.3,1.3-0.6,2.6-1,3.9c-1-0.5-2-0.9-3-1.3
		c0.4-1.3,0.7-2.5,1.1-3.7c-1.1-0.4-2.2-0.8-3.3-1.2c-0.4,1.2-0.8,2.4-1.2,3.6c-1-0.4-2.1-0.7-3.1-1.1c0.4-1.2,0.8-2.4,1.3-3.6
		c-1.1-0.4-2.2-0.7-3.3-1c-0.5,1.2-1,2.4-1.4,3.6c-1.1-0.3-2.1-0.5-3.2-0.8c0.4-1.3,0.9-2.5,1.5-3.7c-1.1-0.3-2.3-0.6-3.4-0.8
		c-0.6,1.2-1.2,2.5-1.6,3.8c-1.1-0.2-2.2-0.3-3.3-0.5c0.5-1.4,1-2.7,1.7-4c-0.7-0.1-1.4-0.3-2.1-0.4c0.2-0.2,0.3-0.4,0.5-0.7
		c-5.6-1-11.3-1.6-17.1-1.7c3.9-0.9,10.6-1.3,18.6-0.3c0.1-0.1,0.1-0.2,0.2-0.2c0.6,0.1,1.2,0.2,1.8,0.2c0.5-0.8,1.1-1.5,1.7-2.3
		c1,0.1,2,0.3,3,0.5c-0.6,0.8-1.1,1.5-1.6,2.4c1.1,0.2,2.2,0.4,3.3,0.7c0.4-0.8,0.9-1.6,1.4-2.4c0.9,0.2,1.9,0.4,2.8,0.6
		c-0.4,0.8-0.8,1.7-1.2,2.5c1,0.3,2.1,0.6,3.1,0.9c0.3-0.9,0.7-1.7,1-2.6c0.9,0.3,1.7,0.6,2.6,0.9c-0.2,0.9-0.5,1.8-0.8,2.7
		c1,0.4,2,0.7,3,1.1c0.2-0.9,0.4-1.8,0.5-2.7c0.9,0.4,1.7,0.7,2.6,1.1c-0.1,0.9-0.2,1.8-0.4,2.8c1,0.5,2.1,0.9,3,1.4
		c0.1-0.9,0.1-1.9,0.1-2.8c0.9,0.5,1.8,0.9,2.7,1.5c0,0.9,0,1.9,0,2.8c0.5,0.3,1.1,0.6,1.6,0.9c0,0.1,0,0.3,0,0.4
		c6.7,3.9,11.6,8.1,14.2,11.1C283.1,265.7,278.4,262.8,273.4,260.3"/>
	<path class="st0" d="M380,211.8L380,211.8l-0.2,0.5c-2,5.9-5.8,11.3-9.9,15.9c-3,3.3-6.3,6.4-9.7,9.2c-5.4,4.3-11.3,7.9-17.6,10.7
		c-6.2,2.9-12.6,5.2-19.2,7c-10.4,2.8-21.1,4.4-31.8,4.9c-0.9-1.7-1.8-3.3-2.9-4.8c34.4-2.5,57.1-16,57.1-16l0.2-0.1
		c-1.2,0.5-2.4,1.1-3.8,1.6c-10.6,3.9-21.5,6.9-32.7,8.8c-6.2,1.1-12.6,1.9-18.9,2.4c-0.5,0-4.2,0.3-4.2,0.3c-1.2-1.5-2.5-3-3.8-4.3
		c8.5-0.3,17-1.3,25.4-2.7c34.8-6.3,56.2-20.8,66.4-28.9c0.9-0.7,1.8-1.4,2.5-2C378.8,212.7,379.9,211.8,380,211.8"/>
	<path class="st0" d="M196.6,189.2l-0.1-0.1c0.3,0.8,10.3,24.9,36.1,47.4c-1.8,0.6-3.5,1.3-5.2,2.1c-0.3,0.1-2.8-2.4-3.2-2.7
		c-2.6-2.3-5.1-4.6-7.5-7.1c-5.7-5.6-10.9-11.8-15.5-18.4c-3.8-5.3-7-11-9.8-16.9c-2.7-5.8-4.8-11.8-6.1-18
		c-1.3-5.9-1.8-11.9-1.5-17.9c0.1-3.6,0.7-7.2,1.8-10.6l0.2-0.5c1.9,8,7.6,37.9,37.2,70c5.9,6.3,12.1,12.2,18.8,17.6
		c-1.9,0.3-3.8,0.7-5.7,1.2c-4.7-4.1-15.6-14.9-15.6-14.9c-7.7-7.7-14.5-16.1-20.4-25.3c-1-1.7-1.8-3.1-2.5-4.1
		c-0.1-0.2-0.2-0.4-0.3-0.5C197.1,190.1,196.9,189.7,196.6,189.2"/>
	<path class="st0" d="M325.3,398.9c0.1,2.1-2.4,5.3-4.6,6.1c-1.9,0.7-3.8,1-5.8,1c-0.6,0-1.3,0-1.9-0.1c0.6-1,1.3-2.2,2.1-3.5
		c1.8-2.9,4-6.3,5.9-8.8c1.3,0.6,3.2,1.9,4,3.7C325.2,397.9,325.3,398.4,325.3,398.9"/>
	<path class="st0" d="M379,306c-5.8,9.1-37.2,56.5-44.7,67.3c-0.1,0-0.1-0.1-0.2-0.1c-1.1-1-2.5-2.2-4.1-3.5
		c2.5-3.6,31.6-46.9,40.2-60.3C373.2,308.3,376.1,307.2,379,306"/>
	<path class="st0" d="M363.9,311.5c-4,6.1-35.9,51.7-38.1,54.6c-0.2-0.1-5.6-4.8-5.8-5c8.1-11.3,31.1-45.5,31.5-46.2
		c4.1-1,8.1-2.1,12.1-3.3C363.6,311.6,363.7,311.5,363.9,311.5"/>
	<path class="st0" d="M316,386.9c-4.9,6.3-11.8,18.2-11.8,18.2c-3,0.2-4.5-0.8-6.1-4.4c-0.2-0.5-0.4-1.1-0.6-1.7v0
		c-0.9-3.7-0.1-8.4-0.1-8.6c0.1-0.2,3.4-6.6,5.1-9.5c1.8-3,3.6-5.9,5.5-8.8c0.1-0.1,0.2-0.3,0.3-0.4c-0.2,2.4,0.1,4.9,0.8,7.2
		c0.7,1.8,1.9,3.4,3.3,4.7C313.8,385,315,386,316,386.9"/>
	<path class="st0" d="M332.8,411.2c-3.9,3.4-10.7,5.6-17.7,5.5c-6.2-0.1-10.6-1.1-14.6-3.3c0,0,0,0.1,0,0.1
		c-0.3,0.3-0.9,1.7-5.5,2.4c-3.1,0.5-4.9-0.1-5.1-0.2c5.4,5.5,10.3,2,10.3,2c0.1,0.6,0.3,1.1,0.6,1.6c0,0-1.6,2.4-6.6,1.6
		c-0.6-0.1-1.1-0.2-1.6-0.4c0.1,0.1,0.2,0.1,0.3,0.2c1.9,1.2,2.5,3.8,1.3,5.8c-1.2,1.9-3.8,2.5-5.8,1.3c-1.9-1.2-2.5-3.8-1.3-5.8
		c1-1.5,2.9-2.3,4.7-1.8c-2.2-1.1-3.9-3.1-4.7-5.5c4.8-4.2,4.6-11.8,9.5-22.4c0.2-0.5,0.5-1,0.7-1.5c0,0,0,0,0,0.1
		c-1.1,2.6-2.1,7.2-1.6,10.5c0.1,0.7,0.2,1.3,0.4,2v0c0.1,0.3,1.7,6.9,6.1,5.8c0,0.1-0.7,1.5-0.7,1.6c1.9,1.2,6.4,3.3,14,3.4
		c10.7,0.1,16.5-6.9,18.1-12.1c1.3-4.1-0.7-8.6-4.7-12.5c1.4-1.6,1.8-3.9,1.1-5.9c0.4,1.2-1.9,3.4-4.3,3.2c-0.2,0-0.4-0.1-0.7-0.1
		c-3.6-1-7.7-5.4-11.2-8c-3.5-2.6-4.5-6.7-4.4-9.5c0.1-3.3-1.2-6.5-3.7-8.8c-1.6-1.6-3.7-2.6-6-3c-0.8-0.2-1-0.7-0.9-1.2
		c0.2-0.9,1.3-0.7,1.3-0.7c6.6,1.3,11.5,7.9,12.5,9.8c1,1.8,11.5,9.9,15.5,13.5c1.9,1.4,10.1,7.7,11.6,14.1
		C341.4,400.5,336.7,407.8,332.8,411.2"/>
</g>
</svg>
