<?xml version="1.0" encoding="utf-8"?>
<!-- Generator: Adobe Illustrator 23.0.3, SVG Export Plug-In . SVG Version: 6.00 Build 0)  -->
<svg version="1.1" id="Layer_1" xmlns="http://www.w3.org/2000/svg" xmlns:xlink="http://www.w3.org/1999/xlink" x="0px" y="0px"
	 viewBox="0 0 500 500" style="enable-background:new 0 0 500 500;" xml:space="preserve">
<style type="text/css">
	.st0{fill:#FFFFFF;}
	.st1{fill:none;}
</style>
<path class="st0" d="M161.5,279.5c0.5,5.9,2.6,17.5,9.3,30.6c8.3,16.1,25.8,37.6,61.9,49.7c5.8,9,12.5,17.4,20.1,25
	c56.7,56.5,148.5,56.3,205-0.4s56.3-148.5-0.4-205c-21.4-21.4-49-35.5-78.9-40.4c-40.6-36.7-87.9-23.6-90-23c-0.7,0.2-1.7,0.5-3,0.9
	c-14.6,4.8-22.1-0.7-27-4.5c-5.4-4.2-11.3-8.6-17-11.8c-19.4-10.9-46.9-11.3-70-1.9c-15.3,5.2-23-1.5-27.5-4.7
	C113.8,73.2,76.6,68.2,37.2,76.9C10.6,82.7,0,88.1,0,88.1c12.8,2.1,25.2,5.7,37.2,10.6c15.6,6.5,28,14.9,37.4,29.9
	c0,0,5.9,8.7,2.1,11.2c-4.3,2.9-8.8-4.1-8.8-4.1c-0.2,4.6-0.1,9.3,0.2,13.9c2.2,40.1,10.4,64.2,29.7,82.5
	c8.8,8.4,23.6,16.5,46.6,25.5C154.8,261.8,160.4,267.2,161.5,279.5z M490.8,281.9c0.1,74.9-60.6,135.8-135.5,135.9
	c-36,0.1-70.5-14.2-96-39.6c-7.9-7.9-14.8-16.6-20.6-26.2c-68.3-21.3-68.3-76.5-68.3-76.5s6.9,9.9,16.6,11.6
	c8.6,1.4,14.1-6.2,1.2-17.8c-11.1-9.9-22.9-13.4-37.8-19.1c-23.3-9-38.2-17-46.4-24.7c-19.1-18.2-25.6-42.2-27.4-76.1
	c10.2,26.2,27.2,40.2,40.2,45.2c10.6,4.1,24.6,7.8,25.9,0.2c0.9-5.2-2.3-6.1-14-10.7c-18.8-7.4-27.7-18.9-39.1-46.1
	S59.8,95,32.2,87.2c42.2-10.4,93.3-8,129.4,34.5c5.4,6.3,14.3,15,24.3,20.8c6.2,3.6,18.6,5.5,23.6,1.8c5.7-4.3-1.3-13.4-6.7-17.9
	c-9.8-8.1-26.2-12-39.8-13c22.8-14.6,54.3-15.9,74.2-4.8c10.7,6,22.6,16.5,29.9,22.4c7,5.7,15.8,11.9,26,11.8
	c3.2,0,10.2-0.3,11.8-4.5c2.5-6.4-3.9-12.1-13.6-13.6c0,0,45.5-13.2,83.2,22.8C441.1,157.3,490.7,214.4,490.8,281.9z"/>
<path class="st0" d="M272.9,143.8c-24.3-0.7-34.2-10.3-49.2-22.4c-18.4-14.8-38.9-10.7-38.9-10.7c12.3-7,36.4-7.3,53.7,7.9
	C254,132.2,261.6,139.6,272.9,143.8z"/>
<path class="st0" d="M65.8,90.4c0,0,22.7-0.6,42.6,35.1c16.7,29.9,48.5,35.9,71.8,29.3c0,0-30.7-0.8-47.5-30.5
	C115.5,93.8,92.9,85.4,65.8,90.4z"/>
<path class="st0" d="M194.3,262.8c0,0-3.2-33.1-50.4-42.7c-47.5-9.7-53.6-34.4-53.6-34.4s0.3,35.6,41.2,46.6
	C160.1,240,181,244.4,194.3,262.8z"/>
<path class="st1" d="M354.9,172.6c-60.1,0.1-108.8,48.9-108.7,109s48.9,108.8,109,108.7c60.1-0.1,108.8-48.9,108.7-109
	C463.9,221.2,415.1,172.5,354.9,172.6L354.9,172.6z"/>
<path class="st0" d="M443.7,192.9C423.6,172.7,397.3,160,369,157c-24.3-24.2-48.5-23.1-48.5-23.1c10.6,6.7,5.1,21.5-18.5,24.8
	c-23.4,3.2-53.2-4.7-67.6-21.6c-14.9-17.4-26.2-18.2-26.2-18.2c12.9,8.1,13.9,17.8,21.7,32.6s24,20.1,38.1,21
	c14.8,1,15.2,7.7,3.2,14.8c-13.1,7.7-24.6,0.4-33-7.8c-13.3-13.1-26.5-15.6-44.7-15.4s-42.4,2.6-62.8-5s-33.8-34.4-33.8-34.4
	c10.1,35.6,32.5,52.5,53.2,56.5c27.5,5.4,46.4,11.9,58,21.3c11.3,9.2,17.4,18.4,21.6,31c3.3,9.8,3.9,22.7,0.6,23.5
	c-3.8,0.9-4.6-4.3-9-13.4c-4.9-10-10.8-17.9-22.7-24.3c-16.1-8.6-31.8-8.1-47.8-7.9c-12.7,0.2-20.2-1.3-20.2-1.3s0.5,1.7,21.2,6.4
	c23.1,5.2,45.4,18.2,60.2,49.9c12.6,27,6,45.9-22,37.4c0,0,13.1,29.1,55.8,39.4c5.6,9.8,12.5,18.8,20.5,26.8
	c48.9,48.9,128.3,48.9,177.2,0S492.6,241.8,443.7,192.9L443.7,192.9L443.7,192.9z M355.1,402.4c-66.8,0-121-54.2-121-121
	s54.2-121,121-121s121,54.2,121,121S421.8,402.4,355.1,402.4z"/>
<path class="st0" d="M299.6,294.9L286.3,310l-18.5-8.1l10.3,17.3l-13.4,15.1l19.6-4.4l10.2,17.4l1.9-20.1l19.7-4.3l-18.5-8
	L299.6,294.9z M355.3,390.4c-60.1,0.1-109-48.6-109-108.7c-0.1-60.1,48.6-109,108.7-109c60.1-0.1,109,48.6,109,108.7
	C464.1,341.5,415.4,390.3,355.3,390.4z M371.5,227.4l-6.5-19.1l16.3-11.8h-20.2l-6.3-19l-6,19l-20.2,0.3l16.4,11.7l-6.1,19.1
	l16.2-12L371.5,227.4z M394,323.4l19.7,3.9l2.2,20.1l9.9-17.6l19.7,4.1l-13.6-14.8l10-17.5l-18.3,8.4L410,295.1l2.3,20L394,323.4z
	 M424.3,278.4l14.3-40.5H271.3l14.3,40.5l10.6-19h32.3L355.2,377l26.9-117.5h31.7L424.3,278.4z M355.2,245.5v112.6
	c-5.3-23.2-20.1-88.4-22.9-100.8l21.5-11.8h-75.4c-0.5-1.3-0.9-2.5-1.2-3.5h155.6c-0.3,1-0.8,2.2-1.2,3.5L355.2,245.5z"/>
</svg>
