<?xml version="1.0" encoding="utf-8"?>
<!-- Generator: Adobe Illustrator 23.0.3, SVG Export Plug-In . SVG Version: 6.00 Build 0)  -->
<svg version="1.1" id="Layer_1" xmlns="http://www.w3.org/2000/svg" xmlns:xlink="http://www.w3.org/1999/xlink" x="0px" y="0px"
	 viewBox="0 0 500 500" style="enable-background:new 0 0 500 500;" xml:space="preserve">
<style type="text/css">
	.st0{fill:#FFFFFF;}
</style>
<title>Logos/Clubs/WAS/Primary</title>
<desc>Created with Sketch.</desc>
<g>
	<path class="st0" d="M131.1,137.2c-1.2,5.4-5.1,24.1-4.2,35c0.3,0.3,0.5,0.5,0.8,0.8c1.1-13.9,4-27.6,8.6-40.8l0.5-1.4h-8.1
		l6.6,4.3c-0.4,1.3-0.8,2.7-1.2,4L131.1,137.2z"/>
	<path class="st0" d="M113.8,168c0.9-4.3,7.6-28.9,6.6-27.6c-5.6,8-9.7,20.6-11.8,29.6C111.2,168.7,111.4,168.8,113.8,168"/>
	<path class="st0" d="M293.9,11.6c-89.4-0.1-131.6,60.8-137.5,66.2l-14.8,9.4l-8.7-24.7l-12.3,32.7l-3.2-2.4l-7.1,16.3h-6.8
		l-0.1,27.4C85.7,166.7,61.5,216.1,51,246.7c-8.2,22-17.7,51.1-19.7,84.8c-1.2,19.1-1,38.3,0.8,57.4c1.2,17,3.4,21.6,5.8,43.6
		c0.3,3.2-2.9,18.9-7.7,28.3c18.9-3.9,19.9-6.8,28.3-17.9c0.8,1.4,1.2,1,2,2.9c0.5-1.5,4-4.4,6.2-10.3c1.4-5.8,2.1-6.6,4.1-9.6
		c2.2-2.6,2-3.5,3.1-6.7c2.2-1.5,4.8-4.7,6.9-10.3c0.9,1.9,2.6,2,5.1,1.4c0.4-0.1,0.8-0.3,1.2-0.5c1.1,6.7,2.5,12.4,5.2,18.9
		c6.6,16.9,14.7,23.7,17.1,28.9c2.1,4,3.5,8.3,4.3,12.7c0,0.2,4.3-1.7,5.9-3.2c1.1-0.9,1.9-2.1,2.4-3.4c2.3,2.2,4.2,4.8,5.6,7.7
		c6.1,10.3,12.9,13.7,19.2,16.9c0.5-5.9,1.5-11.8,3-17.6c2.3-6.7,3.1-7.7,4.3-10.4c0.6,0.8,1.6,1.1,3,2c7.6-7.8,8.4-25.9,7.5-35.2
		c2.4,1.2,5.1,1.4,7.6,0.5c-3.2-11.1-10.2-22.4-7.9-38.9l-2.2-1.7l1.8-2.2c0,0-1.1-2.9-2.2-11.2c0,0,3.2,0.9,4.7,0.3
		c-14.4-31.5-11.1-65-12.7-81.9c24.5,33.5,70.8,70.1,142.7,70.1c92.7,0,173.1-75.9,173.1-174.3C469.7,79.3,380.5,11.5,293.9,11.6
		 M294.1,353.7c-60.9,0-117-33.2-146.3-86.6c-0.1,1.8-0.2,3.8-0.1,6.1c-0.1,2.6-0.4,5.2-0.8,7.8c-4.3-3.4-3.9-3.2-5.1-2.9
		c1,3.4,1.7,3.4,3.7,6.1c0,20.3,0.7,41.2,2,50.4c0.7,6.6,1.9,14.3,2.4,16.7c1,3.1,1,5.8,4.1,12.3c-1,0-3.9,0.1-5.8-2.4
		c2.7,5.1,2.7,4.1,4.4,5.8l2.4,17.7l-2.7,3.1l3.7,2.4c-0.5,5.1-0.4,10.2,0.2,15.3c0.5,3.4,1.5,6.8,3.9,11.6
		c-4.9,0.2-5.8-3.9-5.8-3.9c-1.4-1.5-3.8-4.9-4.4-4.9c-0.3,4.9,2.4,6.8,3.6,9.7c3.5,8.3,3.9,16.3,0.9,31.8c-3.4-3.2-3.6-6.1-6.1-7.7
		c-0.3,8.9-0.7,11.6-2.4,15.5c-3.6,7-4.6,10.6-4.8,17.3c-6-4.9-7.5-11.7-11.6-15.6c-2.9-2.9-8.7-8.3-10.7-11.9
		c-0.3,4.3,0,5.8-1.7,9.9c-1.4-4.7-1.5-6.1-4.8-10c-4.3-6-13.8-19.2-16-33.4c-0.5-2.4-1.9-9.4-3.4-18.9c-1.2,3.2-3.2,5.8-5.3,6.3
		c-1,0.5-1-0.9-1-0.9c0.8-2.9,1.1-6,0.8-9c-0.5-3.7-1.5-12.1-3.4-14.1h-0.9c0.2,5.6-2.1,8.2-3.4,10c-0.2-4.4,0-7.8-1-10
		c-0.5-1.5-1.7-2.9-2-1.4c-0.9,4.4-1.2,5.3-1.2,9.4c-0.3,6.1-0.3,8.2-1,13.3c-0.4,4.7-2.1,9.2-4.9,12.9c-0.5-2.7-1.6-5.2-3.2-7.3
		c0,4.9,1,12.3-2.1,16.2c-3.7,5.1-4.3,7.6-5.4,11.4c-0.5-4.4-1.9-3.1-2.6-5.4C53.5,437.8,45,446.6,42,448.7c2-4.8,3.7-10.2,4.1-13.6
		c0,0-0.5-12.6-2.4-19.7C39,393,36.8,341.6,40.3,322c8.5-69.6,44.4-133.6,74.9-191.1h-3.8v-13.4h4.1L121,105l3.6,2.8l7.6-23.1
		l3.3,16.9L150,90.4l-11.7,26.7h4c26.4-57.4,84.4-97.4,151.8-97.4c92.2,0,167,74.8,167,167S386.3,353.7,294.1,353.7"/>
	<path class="st0" d="M294.1,43c-79.3,0-143.7,64.3-143.7,143.7c0,79.3,64.3,143.7,143.7,143.7S437.8,266,437.8,186.7
		C437.8,107.3,373.4,43,294.1,43 M407.1,193.3c-2.8,1.4-8.2,0.9-8.2,0.9c-0.9-0.3-2.2-0.7-2.2-0.7c4.4,5.8,3.8,12.4,3.7,13.8
		c-0.1,1.3-0.7,1.5-0.7,1.5c-0.9,0.4-1.8,0.5-2.8,0.4c-2.3,0.6-0.9,2.1-0.9,2.1c2.5,1.5,0.7,4.6,0.7,4.6c-2.6,2.6-4.4,7.1-4.4,7.1
		c-1.2,2.1,0.8,8.7,0.8,8.7c2,7.3-1,10.6-1,10.6c-2.7,2.5-4.9,4.3-7,4.9c-1.8,0.6-7.8-0.3-7.8-0.3c-2.5,0.2-8.8,2-8.8,2
		c-6,1-10.3,2.8-18,1.7c-3.6-0.5-2.9,4.8-2.9,5.5c-0.2,8.7-1.7,12.9-1.7,12.9c-1.2,6.3-2.7,15.5-2.7,15.5
		c-1.4,19.8,0.2,25.1,0.2,25.1c0,0.8-0.7,0.4-0.7,0.4c-14.3,0-34.7-8.9-34.7-8.9c-9.2-5.8-28.1-14.4-35.9-16.7
		c-20.5-5.9-33.9-3.7-54.1,0l-1.2-1c13.6-12.4,24.5-23.8,25.9-45.1c0.2-6.6,0.2-17.4-5.4-24.3l-1.4-1.5c-0.2,6.1-2.6,12-6.8,16.5
		c1.2-7-1.2-6.6-1.2-6.6c-3.1,8.8-11.1,18.6-11.1,18.6l-1.4-0.7c-1.2,3.4-2.9,6.4-3.6,9c-0.9,3.4-4.8,8.3-4.8,8.3
		c-0.2-2.3-0.7-4.5-1.4-6.6c-1.7,5.6-6.1,12.6-6.1,12.6c-2.9,3.4-4.6,9-4.6,9c-8-20.3,2.6-55.7,2.6-55.7c-1.3-1.4-4.9,7-4.9,7
		c-0.5-22.5,11.2-50.9,11.2-50.9c0.3-0.5,0.4-1,0.2-1.5c-0.7-0.3-1.4,1-1.4,1c-0.6,0.9-1.3,1.7-2.1,2.4c0.2-5.1,0.8-8.3,3.5-13.3
		c-2.1,1-9.2,10.4-9.2,10.4c-3.4,4.1-5.8,6.6-5.8,6.6c-1.4,1-4.6,7-4.6,7c0.2-2.4,0.7-4.8,1.4-7.1c-6.3,4.6-13.1,19.4-13.1,19.4
		c-0.9-5.6,0.5-10.6,1-15.7c7.7-33.5,23.2-52.9,23.2-52.9c6.1-7.5,16.7-19.4,28.9-28.4c6.3-4.3,17.7-11.7,22.8-16.9
		c4.8-3.4,11.1-8.7,15.3-10.9c5.8-3.6,11.1-4.6,14.8-5.8c0,0,7-1.3,10.6-2.1c10.9-3.1,26.9-2.5,32-0.7c3.1,0.3,3.1,0.3,7.3,0.9
		c14.6,1,27.4,11.1,32,18.2c0.5,3.1,3.7,6,3.7,6c5.5,6.5,8.5,8,10.6,10.6c2,2.2,4.3,6,6.3,9.4c1.5,3.2,4.6,9.5,8.7,13.6
		c4.3,4.4,5.1,10.9,2.7,14.5c-3.1,3.1-1.2,6.1,2.9,8c6.8,5.6,7.3,9.7,10.6,17.9c2.7,7.7,5.4,11.7,6.8,18.5
		C413.2,190.3,409.6,192,407.1,193.3"/>
	<path class="st0" d="M404.2,167.1c-0.5-1.4-1.5-4.4-2.7-7c-0.1-1-2.2-5.8-3.6-7.7c-3.4-4.9-6.2-5.4-8.1-7.4c0,0-0.7,0-0.7,0
		c-2,1.3-2,4.2-3.7,6.5c-0.3,0.3-0.7,0.5-1.1,0.4c-0.5-0.3-0.8-0.7-1.4-1.6c-0.6-0.8-1-0.2-1.6,0.4c-0.4,0-0.7,0.3-1,0.6
		c-0.5,0.5-0.1,0.8,0.3,1.5c0.4,0.6,0,0.6,0.3,1c0,0.2-0.1,0.3-0.2,0.5c-0.2,0.4-0.8,0.3-1.2,0.2c-0.7-0.1-1.3-0.3-1.8-0.6
		c-1.3-0.6-1.8-2.2-2.8-2.7c-0.7-0.3-1.4-0.2-2,0.2c-0.5,0.3-0.7,0.9-0.4,1.4c0,0.1,0.1,0.1,0.1,0.2c0.7,0.8,1.5,1.5,2.3,2.2
		c1.1,0.9,2.4,1.5,2.6,2.7c0.2,1.6-2.1,2.1-3.2,1.3c-0.6-0.5-1.3-1-1.8-1.5c-0.1-0.1-0.2-0.6-0.3-0.7c-0.5-0.3-0.9-0.7-1.3-1.2
		c-0.5-0.8-1.2-1.4-2-1.8c-0.2-0.1-0.4-0.4-0.5-0.6c-0.4-0.7,0-1.5-0.3-2.2c-0.2-0.5-0.4-1.4-1.1-1.1c-0.7,0.7-0.6,0.7-1.4,0.6
		c-1-0.1-0.2-1.9-0.2-1.7c0.1-0.2,0.2-0.4,0.3-0.6c-0.7-0.2-1.7-0.8-0.9-1.8c0.7-0.9,1.3,0.4,1.6-0.1c0.2-0.5,0.5-1,0.9-1.4
		c0.3-0.2,0.7-0.2,1,0.1c0.1,0.1,0.1,0.2,0.1,0.3c-0.3,0.9,0.7,1.5,1.6,1c0.1-0.1,0-0.8,0.1-0.9c0.9-1.5,2.2-2.3,3.6-3.4
		c0.1-0.1,0.5-0.2,0.6-0.3c0.4-0.8,0.9-2,0-2.4c-0.7-0.3-2.2,0-1.9-1.3c0.1-0.6,1-0.8,1.4-1c1.6-0.8,3.3-1.5,5-2.2
		c0.4-0.2,1.1-0.8,1.6-0.8c2.1-0.2,1.6-0.1,4.2,0.3c0.6,0.2,1.2,0.4,1.8,0.7c1.4,0.5,3.4,0.3,4.3-1.2c0.9-1.5,0.7-3.9-0.3-5.6
		c-1.1-2-2.5-3.7-4.2-5.3c-1.8-1.8-4.2-2.8-4.7-5.3c-0.6-3.1-3-7.2-4.3-9.6c-1.3-2.3-2.8-4.5-4.5-6.5c-0.4-0.5-3.1-3.2-3.5-3.7
		c-3-2.9-4.3-3.9-7.5-5c-1.6-0.6-8-0.2-11.3-0.6c-1.3-0.1-2.6-0.3-3.9-0.8c-1.1-0.9-1.4-2.4-2-3.6c-0.5-0.9-1.3-1.7-2.2-2.2
		c-4-2.1-8.7-5.7-11.7-5.4c-0.5,0-1,0.4-1,1c0,0.2,0.1,0.5,0.2,0.7c1,1,2.8,1.3,3,3c4,2,11,3.3,10.7,7.7c-1.3,0.9-2.7-0.2-4.4,0.3
		c-0.9,0.3-1.9,0.4-2.9,0.3c-0.7,0.1-1.4,0.1-2.1-0.1c0.1-0.1,0.3-0.1,0.3-0.2l-4.4-2.5c-0.5-0.4-0.9-0.8-1.3-1.3
		c-0.1-0.2-0.3-0.4-0.5-0.6c-1.1-1-1.7-2.3-3-3.1c-1.7-1.1-3.2-2.5-5.1-3.2c-0.2-0.1-0.4,0-0.7-0.1c-0.1,0-0.2-0.2-0.2-0.3
		c0,0,0,0,0,0c-0.2,0-0.4,0.1-0.5,0c-0.3-0.3-0.6-0.4-0.9-0.5c-1-0.3-2.1,0.3-3-0.5c-0.5-0.4-1.1-0.7-1.6-1c-1.5-1-3.2-0.4-4.9-0.1
		c-0.4,0.2-0.8,0.4-1.1,0.8c-0.6,0.5-1.6-0.4-2.4-0.2c-0.4,0.1-0.7,0.4-0.9,0.7c0,0,0,0,0,0c-0.6,0.6-0.4,0.9,0.1,1h0
		c0.7,0.7,1.7,1.2,2.7,1.5c2.9,0.7,6,0,8.8,1.2c0.8,0.4,1.8,0.8,2.1,1.8c-0.3,0.1-0.5,0.3-0.8,0.1c0,0,0,0-0.1,0
		c-0.6-0.4-1.3-0.5-2.1-0.5c-4.7-0.4-9.3-0.8-13.9-0.1c0,1.2,0.5,2.4,1.6,2.6c1.4,0.2,3-0.3,4.4-0.2c1.5,0.1,3.1,1.1,4.6,2
		c0.3,0.1,0.6,0.1,0.8,0c0.7-0.3,1.3-1.3,2-0.9c0.5,0.2,0.9,0.4,1.4,0.5c1.1,0.2,1.8,0,2.8,0.1c2.1,0.3,4,1.8,6.1,1.4
		c1.1-0.2,2.3,0.2,3.1,1c-0.4-0.4,2.7,1.8,3.2,1.4c1.1,4.1,2.9,13.4,2.2,27.3c-1,8.2-1.5,9.7-3.4,16.3c0,0-2.7,10.6-1.7,17.9
		c0.9,20.6-4.2,41-14.6,58.7c-3.1,3.7-4.8,5.8-1.7,8.5c6.5,6,11.8,7.3,20.9,9.4c2.7,0.9,5.5,1.4,8.3,1.4c4.8,0,12.3,2,15.7,4.6
		c3.2,1.7,11.9,4.9,17.2,4.1c4.6,0.3,6,0.7,8.2,1.5c1.5,0.7,3.2,0.7,4.8,0.2c1.4-1,0.8-0.6,2.6-2c0.3-0.9,2.8-2,2.3-5.4
		c-0.2-2.5-1.2-5.2-1.7-7.6c-1.5-2.1-1.4-3.7-0.8-5.9c1.5-3.1,3.3-4.6,4.2-6.1c2-2.3,0.9-3.9-2-4.7c-1.4-0.6-4-0.3-6.7-0.6
		c-1.5,0-2.6-0.6-4.7-0.2c0,0-1.4,0.9-2.1,1.6l-1-0.6c0.6-1.7,1.6-3.2,2.9-4.3c2,0.3,4.8,0.6,6.3,0.2c1.8-0.8,3.8-1.1,5.3-1.7
		c2.5-0.3,3.7-0.1,6.8,0.1c0.8-4.3-0.7-8.7-3.8-11.7c-1.3-1.2-2.3-2.7-4.2-2.8c-6.5,0.8-10-1.9-11.1-2.6c-1.6-0.1-2.1,0.6-3,1.6
		c-2.2,3.7-4.9,5-4.9,5l-1.4-0.2c1.2-1.9,2.5-3.7,3.9-5.4c1.2-2.7,2.9-6.1,4.4-7.8c0.9-1.6,1.2-5.3,3.5-6.3c1.1,0,1.3-0.3,2.1,0.3
		c-1.7,1.6-6.5,7.4-1.5,11c2,1.7,5.1,1.7,5.9-0.1c0.4-0.8,0.9-1.5,1.6-2c2-0.3,4,0.2,5.5,1.4c2,2.4,3.2,3.5,4.3,4
		c1.1,0.9,3.1,0.7,4.2,0.7c3.3-0.6,5.1-2.5,5.7-3.7c1.8-3.7,1.4-7.4-1.1-11.8C406.4,173.6,405.3,170.7,404.2,167.1 M371.6,203.1
		c-0.1,0.2,0.1,0.4,0.1,0.6c0,0,0,0,0-0.1v0.2c0,0,0-0.1,0-0.1c-0.4,1.3-0.9,2.5-1.4,3.7c-0.6,1.3-0.3,2.9-1.2,4.2
		c-0.4,0.4-1.1,0.4-1.5,0c-0.1-0.1-0.1-0.2-0.2-0.3c-0.6-2.3-0.3-4.8,0.8-6.9C368.9,203.2,370.3,202.7,371.6,203.1 M372.2,176
		c-0.9,0.8-2.1,1.6-2.9,3.1c-0.5,0.7-1.1,1.3-1.7,1.8c-2.7,2-3.4,3.8-5.4,6.3c-1.1,1.4-1.5,3.3-2.3,4.9c-0.4,1-0.8,2-1.3,2.9
		c-0.3,0.4-1.2,0.2-1.5,0.5c-1.8,1.6-3.3,3.3-4.6,5.3c-0.2,0.3-0.9,0.3-1,0.1c-1.1-2.1-2.6-3.7-5.2-3.7c-0.5,0-1-1.1-0.9-2
		c0-0.3-0.2-0.5-0.4-0.6c-0.4-0.1-0.6-0.4-1-0.5c-0.4,0-0.8-0.7-0.9-1c-0.5-1.6-0.3-3.5-0.7-5.2h0.2c-0.9-0.3-1.5-1.2-1.4-2.2
		c0.3,0.1,0.1-0.4,0.3-0.4c2,0.1,3.9,0.9,6,1c2.3,0.1,4.6-0.4,6.8-1.4c2.6-1.2,5.1-2.7,7.4-4.3c1.3-0.7,2.7-1.2,4.1-1.5
		c2.2-0.5,2.1-1.7,3.7-2.7c2.4-1.4,2.2-2.4,3.6-1.9C373.4,174.8,372.6,175.6,372.2,176 M396.9,178.2c-0.3,0.2-0.7,0.2-1.1,0
		c-2.8-2.7-3.7-2.7-6.8-3.3c-0.1,0-0.6-1,0.1-1.2c2.9-1,4.3,0.4,7.6,2.6C397.2,176.7,397.7,177.7,396.9,178.2"/>
	<path class="st0" d="M382,145.6C382.1,145.5,382,144.8,382,145.6"/>
	<path class="st0" d="M381.4,141.4c-0.3-0.8-1.2-1.1-1.9-0.9c-0.7,0.5-1.3,1-1.9,1.5c-0.9,1.8-2.4,2-3,3.2c-0.6,1.1-0.9,1.3-1.2,2
		c-0.1,0.3-0.3,0.6,0.1,0.8c1,0.5,1.4,0.4,3.5,0.7c1.3,0.1,2.5-0.3,3.5-1.2c0.3-0.2,1.7-0.9,1.6-1.5c0-0.2,0-0.3,0-0.5
		c-0.1-0.6-0.2-1.1-0.3-1.7C381.7,143,381.6,142.2,381.4,141.4"/>
	<path class="st0" d="M275.4,245.7c2.7-3,6.1-5.7,9.6-4.8c-1.5,0.5-6.9,3.2-8.6,7.2c-0.1,0.2,0.7,1.7,1.7,2.4
		c1.4,2.3,1.9,3.2,2.6,3.7c0.5,0,1.5-1,1.8-1.5c3.8-5,7.5-8.1,17.9-9.4c3-0.5,4.7-1.4,4.9-4.1c0,0,0.6-1.4-0.6-4.1l0,0.2
		c-0.4-1.7-3.2-1.6-5.2-1.3c-3,0.2-5.9,1-8.6,2.4c1.9-2.9,4.3-3.1,8.7-4.8c1-0.4,0.8-2.2,0.1-3.2c-0.4-0.8-1.2-1.3-2.1-1.3
		c-3.7-0.7-4.9,0.1-6.8,0.6c-6.8,1.7-13.4,6.8-17.1,11.7c-0.8,0.9-0.9,2.1-0.5,3.2C274,243.4,275.1,246,275.4,245.7"/>
	<path class="st0" d="M328.9,300.7c-0.7-1.1,0.3-2.3,0-3.2c-0.3-1-2,0.7-2.6,0.1c-2.7-2.8-4.5-6.2-8.2-7.8c1.5-4.3,2.2-9,1.9-11.2
		c-1-0.9-1.4,0.5-1.7,0.7c-0.8,0.8-0.5,2.5-1.5,3.9c-0.2,0.2-1.5-0.1-1.8-0.4c-2.5-2.1-4.8-4.7-6-7.7c-0.1-0.1-0.5-0.7-0.7-0.9
		c-1.9-2.7-1.7-6.3,0.4-8.8c0.2-0.3,0.6-1.9,0.3-2.1c-0.4-0.3-1.2,0.3-1.6,0.7c-1.2,1.2-2.2,3.6-4.1,3.4c-2.2-0.2-3.1-2.5-4.4-4
		c-0.4-1.5-1.2-2.4-1-2.5c-1.9-2.7-2-4.9-3.8-8.3c-0.3-0.7-0.9-1.2-1.7-1.4c0.2,2.6-0.2,3.7,0.5,5.4c0.7,1.6,2.1,2.9,2.7,4.6
		c0.4,1.2,1.9,2.8,1.9,3.7c0.4,0.3,0.7,0.8,0.8,1.3c0.9,1.2,3.6,2.6,2.6,3.3c-1.1,0.8-4.4,0.3-6.4-0.1c-2.6-0.4-1.1,1.9-0.5,2.1
		c2.6,1.1,8.1,1.5,9.9,2.4c1.1,0.6,2.5,1.5,3,2.6c0.4,0.8,0.9,1.5,1.5,2.2c1.7,2.3,2.3,3.3,4.1,4.8c0.9,0.7,1.9,2,1.6,3.1
		c-0.4,1.3-1.2,1.6-2.4,1.4c-1-0.2-1.9-0.5-2.8-0.9c-2.4-0.8-2.9-1.6-4.6-0.8c-0.9,0.5,0.4,2.1,1.5,2.6c4.3,2.3,9.4,2.3,13.6,4.7
		c3.6,2.1,5.7,4.6,5.5,9.9c0,0.1,1.3,0.8,1.4,0.7c1.2-1.9,4.3,0.5,5.8,0c0.1,0,0.2-0.8,0-1.2C331,301.8,329.5,301.7,328.9,300.7"/>
	<path class="st0" d="M301.7,291.1c-0.8-1.4-1.5-2.8-2.2-4.3c-0.9-2-2.5-3.5-5.3-6.1c-1.4-1.3-3.5-3.7-4.4-5.4
		c-1.3-2.7-2.1-7.4-5.3-9.7c-2.5-1.7-1.9-3.7-4-7.1c-0.8-1.3-2.5-1.4-3.7-2.7c-3.1-3.1-1.1-4.4-3.9-7.2c-1.2-1.3-1.7-1.5-2.7-3.4
		c-1.4-2.5-0.3-5.7-2.6-6.9c-1.6-0.8-3.3-1.4-5-1.8c-2.7-1-5.2-2.3-7.5-4c-2-1.6-6.2-5-10.6-8.9c2.7,20.9-1,38.8-21.8,57.5
		c38.5-7.2,55.3,1.9,82.7,15.8c2.2,1.1-0.3-1.5-0.3-1.5C304.1,294.9,302.1,291.9,301.7,291.1"/>
	<path class="st0" d="M338.6,273.8c-2-5.3-6.6-11.2-8.4-16.7l-0.9-3c-0.6-2.9-0.9-5.8-1-8.7l-5.7-2.7c-4.5-1.8-9.5-3.4-14-5.1
		c0,2.4,0.3,4.1-1.5,6.5c1.2,2.9,2.2,9.3,3.6,10.8c3,2.8,5.4,5,7.3,11.7c0.4,1.6,1.8,2.5,1.9,3.7c0.1,1.7,0.7,1.4,1.6,3.8
		c0.6,1.4,1.5,2.7,2.5,3.8c3.9,3.3,6.7,8.4,6.4,13.7c0.2,2.6,0.4,2.4,2.9,4.2c0.7,0.4,1.4,1,2,1.6c0.5,0.4,4.2,4.3,4.7,4.8
		c-0.1-1.5,0.1-4.1,0.1-4.9C339.8,289.1,341.4,280.8,338.6,273.8"/>
	<path class="st0" d="M191.9,161.2c-0.1,0-0.1,0-0.1,0C192.2,161.4,192.1,161.3,191.9,161.2"/>
	<path class="st0" d="M207.6,154c1.9,0.5,7.7-7.5,10.7-12.9c0.9,1-0.2,3.5,0.9,2.4c3.5-3.3,6.6-6.8,8.5-10.1
		c2.2-3.8,4.6-5.5,5.4-12.1c0.7,0.4,1.2,0.9,1.7,1.5c0.9-1,0.9-2.1,2.3-3.6c1.5-1.7,1.8-2.9,3.6-4.1c0.6-0.4,2.1-3.1,2.3-4.5
		c0.3-1.3,3.2-5.6,3.4-7c2.4-4.4,6.5-6.8,9.4-10.2c2.7-2.4,0.7-6.6-5.1-4.4c0,0-3.4-0.3-11.4,5.8c-8.9,5.5-20.6,13.3-29.1,23.7
		c-6.2,6.2-15,15.7-18.2,22.3c0,0-5.3,8.3-8.7,22c0,0,1.2,4.4,4.6-1.4c6-10.1,28.6-44.2,60.9-69l1.5-0.1
		c-16,13.8-36.8,32.3-56.9,63.9c-0.7,1.2-1.7,3.3-1.8,3.4c-0.5,1,0,1.5,0.4,1.6c1.7,0.3,2.4-2.1,3.6-2.6c0.7-0.3,1,1.9,2.2,1.3
		c4.1-2,7.2-6.2,8.9-8.8C206.8,152.1,207.1,153.1,207.6,154"/>
	<path class="st0" d="M241.4,183.8c-1.5-6.8-2.4-18.2-0.9-26c3.1,16.3,4.9,18.7,4.9,18.7l0.7,0.3c1.3-2,1.6-5.4,2-8.4
		c1.5-6.5,4.3-5.8,4.3-7.2c-0.9-5.3-2.2-13.6-1.4-20.8c1.7,7.8,2.6,7.3,3.8,10.2c1.5,3.6,1.7-0.9,1.7-0.9c-0.3-4.6,2.9-9.2-0.2-19.9
		c-1.2-7.3-4.6-23-3.2-26.6c0.9-4.4-0.7-2.9-0.7-2.9s-4.4,1-11.1,19.7c-9.7,31.1-18,64.3-27.1,91.2c2.7-14.1,17.2-64,21.4-82
		c0,0-0.6-1.3-1.5,0.2c-1.1,1.2-2,2.6-2.8,4c0.1-0.1-0.5,0.1-1.2,0.4l-2.1,3.2c0,0-4.3,6-15.9,18c-1.9,3-3.6,6.1-4.9,9.4
		c-0.8,1.8,0.4,2,1.7,1c3.1-3.1,3.3-3.1,7.7-6.4c0.2-0.2,3.7-1.4,3.7-1.5c-0.5,0.5-1,1-1.6,1.4c-1.8,1.8-3.5,3.8-4.9,5.9
		c-2,3.4-4.1,7.7-7,12.8c-2.4,4.5-4.5,9.2-6.3,13.9c-1.9,5.3-1.4,5.8-1.4,5.8c2.5,1,1.1,2.3,1.1,2.3c-1.1,2.1-1.7,3.8,0.3,3
		c1-0.2,1.9-0.7,2.5-1.6c1-1.2,1.8-2.1,2.5-3c1.1-1.4,0.9-1.8,2.2-3.3c1.6-1.8,2.6-3.4,4.2-4.1c-2.8,3.8-3,6.5-3,6.5l0.7,0.9
		l0.5,0.3c0,0-2.9,3.6-4.3,11.7c-0.7,3.8-0.5,4.3-1.1,6.5c0.3-0.3,2,0,3.5-1.5c-0.3,1.2-0.6,2.4-0.8,3.6c-0.3,1.3-0.4,2.5-0.3,3.8
		c0,2.1,0,1.2,0.7,3.6c3.1-1.4,3.7-1.2,6.6-4.6c1.4-1.3,2.4-4.4,2.8-4.2c0.8,0.3,0.1,2.1-0.2,2.9c-0.4,0.8-0.8,1.7-1.1,2.6
		c-0.1,0.4-0.5,1,0.1,1.5c0.3,0.2,0.1,0.2,1,0.2c0.5,0,1-0.8,1-0.8s0.3-0.1,0.5-0.7c0.2-0.4,0.5-0.8,0.9-1c0.3-0.3,0.7-0.4,1.1-0.3
		c1.2,1.4,2.2-0.4,2.2-0.4c2-3,2.4-3.7,3.7-7.7c0.9-2.6,1.9-3.6,2.7-14.6c2.4,3.6,2.7,10.4,2.7,10.4l0.7-0.2c0,0,2.2-6.3,6-8.3
		c0.5-3.2,1.9-6.1,4.1-8.5C242.3,189.9,242,187.9,241.4,183.8"/>
	<path class="st0" d="M79.7,326.9c0.2-0.2,4.1-4.9,4.1-7.5c-3.2,2.2-4.1,2.7-7.2,4.8c-0.3-7.3-3.6-18.9-7.2-27.9
		c3.2,2.9,5.7,6.5,7.3,10.6c1.4-7.5,1.9-11.9,2-15.5c-1.9-6.6-5.4-21.1-5.1-31.8c2.2,7.8,4.2,16.3,6.5,21.5c1-3.7,1.9-10.4,3.2-16
		c1.9-1.4,4.1-2.7,4.8-3.9c-0.7-1.2-3.6,1-4.1,1.2c0.3-5.3,1.2-15.5-2.4-32.2l0.5-0.5c1.5,0.7,3.4,3.7,4.1,7
		c3.1-3.6,5.1-21.3,6-28.2c-3.2,0-4.8,3.6-7,3.2c0.3-2.2,0.5-1.2,1.4-3.2c0.9-2.4,2.9-4.8,3.7-8c1.9-2.7,1.9-6,2-9
		c0-2.9-0.3-7.1,2-10.9c0.5,1.5,0.2,2.5,1.4,5.8c0,0,4.8-10.4,7.3-12.8c3.4-14.8,11.6-31.5,19.2-42.4h-3.6
		c-4.2,5.8-33.5,60.9-36.4,71C60,247.1,45.5,292,42.8,336.4c0.2,1.5,0.2,0.6,0.9,1.8c0.7,1.2,0.3,2.7,0.8,4c0.5-0.6,1.3-0.8,1.4-1.7
		c0.6,2.6-1.3,5.2-0.3,7.8c1-0.9,2.6-1.1,3.4-2.4c-0.1,1.1-0.4,2.1-0.5,3.1c-0.3,1.8,0.4,3.6,0.7,5.4c0.3,2.3,3.2,4.1,2.3,6.4
		c-1.4,3.7-2.1,7.7-0.9,11.2c0.3,0.7,0.6,2,1.5,2.4c0.7,0.3,1.5,0.3,2.3,0c0.4-0.3,0.7-0.8,0.7-1.3c0.3-1.6-0.5-3.2-0.2-4.7
		c0.4-2,0.7-4.1,2-5.7c0.5-0.3,1.1-0.2,1.5,0.3c0,0,0,0,0,0c0.9,1.9,0.5,4.2,1.6,6c0.6,0.7,1.7,0.9,2.4,0.4c1.6-1.5,1-3.8,1.2-5.7
		c0.3-3.2-1.2-4.9-1.6-8.2c-0.4-3,0.2-3.5,1.1-4.8c1,2.9,1,6,3.1,8.5c0.4,0.5,1.1,0.6,1.6,0.3c1.5-1.3,1.2-4.1,0.1-5.9
		c-1.7-2.8-3-7.1,0-9.7c-0.2,1.4-0.2,3,0.6,4c1,1.4,2.8,4.4,3.1,7.2c0.1,1,1.5,1.4,2.4,0.6c0.2-0.2,0-0.8,0.4-0.9
		c1.4-0.2,2.1,1.5,2,2.7c0.6,0,1.3,0.2,1.6-0.1c1.4-1.4,1-4.8,1.1-6.7c0.2-3.6,0.9-2.2,1.5-2.5c-0.4-6.3-1-12.5-2-18.8
		C78,327.6,78.7,327.3,79.7,326.9 M50.2,337.3c-1.1,0.7-3.3,0.4-3.6-1.1c0-2.3,0.7-4.5,2-6.4c0.5-0.8,1.4-1.3,1.8-0.2
		c0.3,0.3,0.4,0.8,0.4,1.2C50.9,329.9,52.6,335.8,50.2,337.3 M50.8,325.5c-0.8-1-1.8-2.5-1.1-3.9c0.5-1,1.1-1.9,1.9-2.6l0.2,0.2
		c-0.1-2-0.8-4.7,2.2-4c0.9,0.2,1.1,1.6,1.1,2.3c0,1.7,0.5,3.3,1.2,4.8c0.4,0.9-0.3,1.6-0.7,2.3C54.5,326.2,52.2,327.1,50.8,325.5
		 M56.8,359.4c-1.4,0.1-3-1.5-3.4-2.6c-0.5-1.6-0.9-4,0.4-5.7c0.7-0.9,0.7-2.3,1.4-2.9c0.4-0.3,0.4-1,1.2-0.7l-0.6,0.2
		c0.3,0,0.9-0.1,0.9,0.1c0.8,1.8,0,5.1,2.2,6.3C60.6,355.1,58.9,359.2,56.8,359.4 M56.9,343.5c-1.3-0.7-1.2-2.8-2.1-4.1
		c-1.6-2.2-0.8-4.3,1-5.6c0.8-0.6,1.9-0.5,2.6,0.2c0.1,0.1,0.2,0.3,0.3,0.5c0.6,2,1.4,3.7,2.1,5.8C61.3,342.4,58.7,344.4,56.9,343.5
		 M68.5,334.1c-0.1,0.4-0.4,1.2-0.9,1.3c-1,0.2-2,0.2-3,0.1c0.4-0.5-0.4-0.2-0.5-0.7c-0.5-2.4,0.3-2.9,0.3-4.7
		c0-1.2-0.7-2.3-0.7-3.5c0-0.4,0.7-1.3,1.1-0.9c0.5,0.4,1.1,0.7,1.7,1.1c0.8,0.7,0.6,2.2,1.7,3.1C69.5,330.8,68.8,332.6,68.5,334.1
		 M75.6,347.6c-0.4,0.8-1.3,1.1-2,0.7c0,0-0.1,0-0.1,0c-0.6-0.5-1.4-0.5-1.8-1.2c-0.7-1.2-0.4-2.6-1.3-3.8c-0.6-0.6-0.6-1.6,0.1-2.2
		c0.7-0.4,1.6-0.3,2.2,0.3c0.2,0.1,0.8,0.5,1,0.7C75.5,343.5,76.6,345.4,75.6,347.6"/>
	<path class="st0" d="M136.2,244.7c-0.3-2,1.2,1.3,4.1,2.7c0.8-3-0.7-18-0.9-28.4c-0.9-3.2-12.9-19.9-13.4-24.1
		c4.1,6.6,9.5,7.5,11.6,10.1c0.5,0.4,0.6,0.6,1.2,0.3c-0.3-17.2-8-25.5-15.1-31.7c-1-15.8,4.3-38.5,4.3-38.5l-2.9-1.9
		c-13.3,55.1-19.4,87.8-20.8,128.7c-1.5,42.1,2.4,83.5,12.5,122.4c0.4,1.4,0.9,3,1.4,4.5c0.4,0.5,0.8,1,1.4,0.6
		c0.7-0.3,0.9-1.2,1-1.8c0.4-2.8,0.7-5.5,2-7.9c0.1-0.2,0.6-0.7,0.9-1c0.9-1.1,1.3-2.6,1.5-4.2c0.1-0.4,0.4-0.7,0.7-1
		c0.8-0.8,1.8,0.3,2.2,1c0.9,1.2,0.4,2.8,1.2,4c1.9,3,4.2,5.9,6.7,8.4c0.6,0.7,1.7,1.4,2.9,1.1c0.3-0.1,0.6-0.4,0.8-0.7
		c0.5-1.3-0.5-2.4-1.1-3.5c-0.8-1.6-2.2-3.5-1.3-5.1c0.2-0.4,1.5,0.9,2,0.3c0.5-0.8,0.7-1.7,0.4-2.6c-0.3-1-0.7-2.1-1.3-3
		c-1.6-3.6-3.5-6.9-4.7-10.6c-0.2-0.5-0.3-1.1-0.3-1.7c0.6,1.3,2,2.2,2.8,3.5c0.2,0.3,0.5,0.6,0.8,0.9c0.8,1.1,2.4,1.6,3,2.9
		c0.8,1.7,0.9,5.3,3.4,4.8c0.8-0.2,2.1-0.9,1.5-2.2c-0.3-1-0.8-2-1.4-2.9c-0.7-0.7-1.6-1.1-2.1-2c-0.8-1.4-1.3-3.1-0.6-4.7
		c0.2,1.4,1.2,2.1,2.1,3c0.9,0.9,3.4-0.3,4.1,0.7c-0.1-0.6-0.3-1.2-0.7-1.7c-6.3-7.5-12.3-15.3-11.9-21.3c4.3,6.1,7.8,9.9,11.2,12.3
		l0.2-1.2c-2.4-15.3-2.4-22.1-3.6-36.7c-3.8-3.1-12.2-12.3-10.6-20.1c2.8,5.4,6.1,9.6,9.2,11.5l1.3,0.9c-0.2-2.6,0.1-18.2,0.1-22.9
		c-2.1-2.9-4.6-6.3-6.4-9.7c-1.6-3.4-3.6-6.7-8.3-12.3c-3.9-5.9-10-11.1-10-11.1c0.6,0.1,1.2,0.1,1.8,0.2c2.6,0.8,5.1,2,7.3,3.7
		c1.3,0.5,3,2.9,6,5.7c2.1,2,2.2,3.4,3.3,4c2.1,2,4.2,3.8,6.6,5.4h0.7c0.5,2,0.3-12.7,0.3-12.7C140.3,255.5,138.5,250.4,136.2,244.7
		 M113.3,353.3c-1.2-1.1-2.7-2.7-2-4.4c0.7-1.6,3.1-2.6,3-4.7c0-0.4,0.6-0.4,0.8-0.4c0.5,0,1,0.1,1.4,0.4c1.1,1,2,2.3,2.4,3.8
		c0.5,1.8,0.2,4.6-1.8,5.2C115.9,353.6,114.3,354.2,113.3,353.3 M120.4,370.7c-0.9,0.7-2.1,0.5-2.8-0.3c0,0-0.1-0.1-0.1-0.1
		c-0.7-1.2-0.2-2.2-0.8-3.5c0.1,0-0.2-0.5-0.1-0.5c-0.8-0.7-1.1-1.8-0.9-2.9c0.4-0.9,1.4-1.4,2.3-1.2c1,0.3,1.8,0.9,2.3,1.7
		C122,365.9,122.4,369,120.4,370.7 M127.1,350.9c0.2-0.2,0.5-0.3,0.8-0.3c-0.1,0-0.1-0.1-0.2-0.1h0.7c-0.1,0-0.3,0-0.5,0.1
		c1,0.1,1.9,0.6,2.5,1.4c1,1.2-0.7,3.5-2,2.8C127.2,354.1,126.1,352.4,127.1,350.9 M125.7,363c0.8-0.6,2-0.6,2.8,0
		c1.5,1,1,3.2,2.3,4.2c1,0.8,2,2,1.4,3.1c-0.2,0.4-0.8,1-1,0.8c-2.1-1.3-4.8-1.4-6-3.6c-0.3-0.5-0.5-1.1-0.5-1.7
		C124.8,364.8,124.8,363.7,125.7,363 M117.6,335.3c1.2-0.4,2.5-0.1,3.4,0.7c0.6,0.7,1.1,1.5,1.6,2.3c0.5,0.9,0.7,1.9,1,2.9
		c0.4,1,0,2.1-0.9,2.7c-1,0.6-1.4,1.1-2.8,0.5c-0.5-0.2-0.9-1.4-1.1-1.8c-0.3-0.6-0.3-2.3-0.7-2.8c-0.4-0.4-0.6-0.8-0.8-1.3
		c-0.4-1.1-1.4-1.8-0.9-2.9C116.6,335.3,117.2,335.4,117.6,335.3"/>
	<path class="st0" d="M102.2,253.9c2.1-31,4.4-53.7,11.2-81.5c0,0-2.2,0.8-3.4,1.4c-2.4,1.2-3.4,2.4-6,5.6c-1,2.2-2.4,3.2-3.2,5.8
		c-3.1,6.1-3.6,10.9-5.1,15.3l1-0.2c3.3-4.4,8.5-8.3,9.7-9.5l1.7-0.9c-2.4,6.1-5.6,7.7-8.9,13.3c-4.4,9.3-8.7,43.6-10.7,53.1l2-0.7
		c1.4-0.7,3.6-3.1,10.2-5.4c3.4-2.7-11.2,12.6-13.1,17.6c-1.9,13.4-4.6,35.1-5,44.9l0.8-0.1c1-0.7,9.1-10.5,12.3-11.6l1.1-1
		c-1.7,2.6-7.4,13.6-8.4,17.2c-1.2,3.5-2.7,7.1-4.1,10.4c-0.5,1-1,1.8-0.7,3.1c0,5.7,0.4,11.4,1.4,17l0.9,1.2
		c0.7-1.9,4.1-5.3,6.1-6.3l0.2,1c-1.9,4.4-4.3,8.5-5.1,10.7c0,9.2,1,18.3,2.9,27.2c0.2,1.2,1.7,1,2.4,0.5l0.4-0.4
		c1.4-5.9,2.6-11.3,5.8-16.5c0.4-0.5,0.8-0.9,1.3-1.2c0.3,3.3-0.1,6.7,1.9,9.7c0.9,1.4,2.3,1,3.7,1c0.9,3.2,3.2,5.5,4,8.8
		c0.2,0.7,0.9,1,1.6,0.8c1.2-0.5,2.3-1,3-2.2c0-0.1,0.1-0.1,0.2-0.2C103.2,345.4,100.5,295.9,102.2,253.9 M98.7,351.5
		c-2.7,0.5-2.6-2.8-2.4-4.5c0.1-0.5,0.5-0.8,1-0.8c0.1,0,0.2,0.1,0.3,0.1c1.1,0.8,2.1,1.6,2.4,3C100.3,350.3,99.7,351.3,98.7,351.5
		C98.7,351.5,98.7,351.5,98.7,351.5 M108.3,365.1c1.6,1.9,0.6,4.4,1.3,6.7c0.3,1.2-0.2,2.4-1.3,2.9c-1.5,0.7-2.6-0.9-3.1-2.1
		c-0.8-2.1-0.1-4.4-0.1-6.6c0-0.4,0.2-0.7,0.5-1C106.3,364.6,107.6,364.3,108.3,365.1 M104,352.6c1,1,1.7,2.3,2,3.7
		c0.4,1.6-0.4,3.1-1.2,4.3c-0.3,0.5-1.6-0.3-2.3-0.9c-0.9-1.1-1.5-2.4-1.8-3.7c-0.4-1.3,0-2.7,1-3.6
		C102.4,351.9,103.4,352,104,352.6"/>
	<polygon class="st0" points="141.7,101.5 136.4,106.1 137.3,110.1 	"/>
	<polygon class="st0" points="122.6,111.3 120.3,117.2 129.4,117.2 	"/>
	<polygon class="st0" points="131.2,99.5 128.1,110.7 133.4,115.3 	"/>
	<path class="st0" d="M285,89.4c1.6,1.4,4.3,1.2,6.2,1.3c0.4-0.1,0.8-0.2,1.2-0.4c2.1-0.3,4.2,0.4,6.4,0.8c0.7,0.1,2.9-0.6,2.2-1.4
		c-0.5-0.6-2.4-0.3-2.7-1c-0.2-0.5-0.4-1-0.8-1.4c-0.6-0.4-1.4,0.2-2.1,0.3c-1.1,0.1-2.2,0-3.2-0.4c-1.8,2.1-6.7,0.7-9,0.9
		C282.9,88.1,284.7,89.1,285,89.4"/>
</g>
</svg>
